ISO-10303-21;
HEADER;
FILE_DESCRIPTION (('STEP'), '1');
FILE_NAME ('yuwolCaseWirelessBatteryCoverL.stp', '2026-10-01T04:13:09', ('Unknown'), ('Unknown'), 'HarmonyWare STEP v2.1.9', 'HarmonyWare Translators', '');
FILE_SCHEMA (('CONFIG_CONTROL_DESIGN'));
ENDSEC;

DATA;
#1 = (
   LENGTH_UNIT ()
   NAMED_UNIT (*)
   SI_UNIT ($, .METRE.)
);
#2 = (
   NAMED_UNIT (*)
   SI_UNIT ($, .STERADIAN.)
   SOLID_ANGLE_UNIT ()
);
#3 = (
   NAMED_UNIT (*)
   PLANE_ANGLE_UNIT ()
   SI_UNIT ($, .RADIAN.)
);
#4 = UNCERTAINTY_MEASURE_WITH_UNIT (LENGTH_MEASURE(0.001), #1, 'DISTANCE_ACCURACY_VALUE', '');
#5 = (
   GEOMETRIC_REPRESENTATION_CONTEXT (3)
   GLOBAL_UNCERTAINTY_ASSIGNED_CONTEXT ((#4))
   GLOBAL_UNIT_ASSIGNED_CONTEXT ((#1, #2, #3))
   REPRESENTATION_CONTEXT ('', '3D')
);
#6 = SHAPE_REPRESENTATION ('', (#768), #5);
#7 = APPLICATION_CONTEXT ('configuration controlled 3D designs of mechanical parts and assemblies');
#8 = APPLICATION_PROTOCOL_DEFINITION ('International Standard', 'config_control_design', 1997, #7);
#9 = MECHANICAL_CONTEXT ('', #7, 'mechanical');
#10 = PRODUCT ('', '', '', (#9));
#11 = PERSON_AND_ORGANIZATION_ROLE ('design_owner');
#12 = PERSON ('#12', '', $, $, $, $);
#13 = ORGANIZATION ($, '', '');
#14 = PERSON_AND_ORGANIZATION (#12, #13);
#15 = CC_DESIGN_PERSON_AND_ORGANIZATION_ASSIGNMENT (#14, #11, (#10));
#16 = PRODUCT_RELATED_PRODUCT_CATEGORY ('detail', $, (#10));
#17 = PRODUCT_DEFINITION_FORMATION_WITH_SPECIFIED_SOURCE ('', '', #10, .NOT_KNOWN.);
#18 = APPROVAL_STATUS ('approved');
#19 = APPROVAL (#18, '');
#20 = CALENDAR_DATE (2026, 1, 10);
#21 = COORDINATED_UNIVERSAL_TIME_OFFSET (0, $, .AHEAD.);
#22 = LOCAL_TIME (4, 13, 9., #21);
#23 = DATE_AND_TIME (#20, #22);
#24 = APPROVAL_DATE_TIME (#23, #19);
#25 = APPROVAL_ROLE ('');
#26 = PERSON ('#26', '', $, $, $, $);
#27 = ORGANIZATION ($, '', '');
#28 = PERSON_AND_ORGANIZATION (#26, #27);
#29 = APPROVAL_PERSON_ORGANIZATION (#28, #19, #25);
#30 = CC_DESIGN_APPROVAL (#19, (#17));
#31 = PERSON_AND_ORGANIZATION_ROLE ('creator');
#32 = PERSON ('#32', '', $, $, $, $);
#33 = ORGANIZATION ($, '', '');
#34 = PERSON_AND_ORGANIZATION (#32, #33);
#35 = CC_DESIGN_PERSON_AND_ORGANIZATION_ASSIGNMENT (#34, #31, (#17));
#36 = PERSON_AND_ORGANIZATION_ROLE ('part_supplier');
#37 = PERSON ('#37', '', $, $, $, $);
#38 = ORGANIZATION ($, '', '');
#39 = PERSON_AND_ORGANIZATION (#37, #38);
#40 = CC_DESIGN_PERSON_AND_ORGANIZATION_ASSIGNMENT (#39, #36, (#17));
#41 = SECURITY_CLASSIFICATION_LEVEL ('unclassified');
#42 = SECURITY_CLASSIFICATION ('', '', #41);
#43 = APPROVAL_STATUS ('approved');
#44 = APPROVAL (#43, '');
#45 = CALENDAR_DATE (2026, 1, 10);
#46 = COORDINATED_UNIVERSAL_TIME_OFFSET (0, $, .AHEAD.);
#47 = LOCAL_TIME (4, 13, 9., #46);
#48 = DATE_AND_TIME (#45, #47);
#49 = APPROVAL_DATE_TIME (#48, #44);
#50 = APPROVAL_ROLE ('');
#51 = PERSON ('#51', '', $, $, $, $);
#52 = ORGANIZATION ($, '', '');
#53 = PERSON_AND_ORGANIZATION (#51, #52);
#54 = APPROVAL_PERSON_ORGANIZATION (#53, #44, #50);
#55 = CC_DESIGN_APPROVAL (#44, (#42));
#56 = DATE_TIME_ROLE ('classification_date');
#57 = CALENDAR_DATE (2026, 1, 10);
#58 = COORDINATED_UNIVERSAL_TIME_OFFSET (0, $, .AHEAD.);
#59 = LOCAL_TIME (4, 13, 9., #58);
#60 = DATE_AND_TIME (#57, #59);
#61 = CC_DESIGN_DATE_AND_TIME_ASSIGNMENT (#60, #56, (#42));
#62 = PERSON_AND_ORGANIZATION_ROLE ('classification_officer');
#63 = PERSON ('#63', '', $, $, $, $);
#64 = ORGANIZATION ($, '', '');
#65 = PERSON_AND_ORGANIZATION (#63, #64);
#66 = CC_DESIGN_PERSON_AND_ORGANIZATION_ASSIGNMENT (#65, #62, (#42));
#67 = CC_DESIGN_SECURITY_CLASSIFICATION (#42, (#17));
#68 = DESIGN_CONTEXT ('', #7, 'design');
#69 = APPROVAL_STATUS ('approved');
#70 = APPROVAL (#69, '');
#71 = CALENDAR_DATE (2026, 1, 10);
#72 = COORDINATED_UNIVERSAL_TIME_OFFSET (0, $, .AHEAD.);
#73 = LOCAL_TIME (4, 13, 9., #72);
#74 = DATE_AND_TIME (#71, #73);
#75 = APPROVAL_DATE_TIME (#74, #70);
#76 = APPROVAL_ROLE ('');
#77 = PERSON ('#77', '', $, $, $, $);
#78 = ORGANIZATION ($, '', '');
#79 = PERSON_AND_ORGANIZATION (#77, #78);
#80 = APPROVAL_PERSON_ORGANIZATION (#79, #70, #76);
#81 = CC_DESIGN_APPROVAL (#70, (*));
#82 = DATE_TIME_ROLE ('creation_date');
#83 = CALENDAR_DATE (2026, 1, 10);
#84 = COORDINATED_UNIVERSAL_TIME_OFFSET (0, $, .AHEAD.);
#85 = LOCAL_TIME (4, 13, 9., #84);
#86 = DATE_AND_TIME (#83, #85);
#87 = CC_DESIGN_DATE_AND_TIME_ASSIGNMENT (#86, #82, (*));
#88 = PERSON_AND_ORGANIZATION_ROLE ('creator');
#89 = PERSON ('#89', '', $, $, $, $);
#90 = ORGANIZATION ($, '', '');
#91 = PERSON_AND_ORGANIZATION (#89, #90);
#92 = CC_DESIGN_PERSON_AND_ORGANIZATION_ASSIGNMENT (#91, #88, (*));
#93 = PRODUCT_DEFINITION ('', '', #17, #68);
#94 = PRODUCT_DEFINITION_SHAPE ('', '', #93);
#95 = SHAPE_DEFINITION_REPRESENTATION (#94, #6);
#96 = CARTESIAN_POINT ('', (-75.0000000000001, 135.5, -4.5));
#97 = VERTEX_POINT ('', #96);
#98 = CARTESIAN_POINT ('', (-129., 135.5, -4.5));
#99 = VERTEX_POINT ('', #98);
#100 = CARTESIAN_POINT ('', (-75.0000000000001, 135.5, -4.5));
#101 = CARTESIAN_POINT ('', (-129., 135.5, -4.5));
#102 = B_SPLINE_CURVE_WITH_KNOTS ('', 1, (#100, #101), .UNSPECIFIED., .F., .U., (2, 2), (0., 1.), .UNSPECIFIED.);
#103 = EDGE_CURVE ('', #97, #99, #102, .T.);
#104 = ORIENTED_EDGE ('', *, *, #103, .F.);
#105 = CARTESIAN_POINT ('', (-75.0000000000001, 135.5, -6.));
#106 = VERTEX_POINT ('', #105);
#107 = CARTESIAN_POINT ('', (-75.0000000000001, 135.5, -4.5));
#108 = CARTESIAN_POINT ('', (-75.0000000000001, 135.5, -6.));
#109 = B_SPLINE_CURVE_WITH_KNOTS ('', 1, (#107, #108), .UNSPECIFIED., .F., .U., (2, 2), (0., 1.), .UNSPECIFIED.);
#110 = EDGE_CURVE ('', #97, #106, #109, .T.);
#111 = ORIENTED_EDGE ('', *, *, #110, .T.);
#112 = CARTESIAN_POINT ('', (-129., 135.5, -6.));
#113 = VERTEX_POINT ('', #112);
#114 = CARTESIAN_POINT ('', (-75.0000000000001, 135.5, -6.));
#115 = CARTESIAN_POINT ('', (-129., 135.5, -6.));
#116 = B_SPLINE_CURVE_WITH_KNOTS ('', 1, (#114, #115), .UNSPECIFIED., .F., .U., (2, 2), (0., 1.), .UNSPECIFIED.);
#117 = EDGE_CURVE ('', #106, #113, #116, .T.);
#118 = ORIENTED_EDGE ('', *, *, #117, .T.);
#119 = CARTESIAN_POINT ('', (-129., 135.5, -4.5));
#120 = CARTESIAN_POINT ('', (-129., 135.5, -6.));
#121 = B_SPLINE_CURVE_WITH_KNOTS ('', 1, (#119, #120), .UNSPECIFIED., .F., .U., (2, 2), (0., 1.), .UNSPECIFIED.);
#122 = EDGE_CURVE ('', #99, #113, #121, .T.);
#123 = ORIENTED_EDGE ('', *, *, #122, .F.);
#124 = EDGE_LOOP ('', (#104, #111, #118, #123));
#125 = FACE_OUTER_BOUND ('', #124, .T.);
#126 = CARTESIAN_POINT ('', (-75.0000000000001, 135.5, -4.5));
#127 = CARTESIAN_POINT ('', (-129., 135.5, -4.5));
#128 = CARTESIAN_POINT ('', (-75.0000000000001, 135.5, -6.));
#129 = CARTESIAN_POINT ('', (-129., 135.5, -6.));
#130 = B_SPLINE_SURFACE_WITH_KNOTS ('', 1, 1, ((#126, #127), (#128, #129)), .UNSPECIFIED., .F., .F., .U., (2, 2), (2, 2), (0., 1.), (287.5, 341.5), .UNSPECIFIED.);
#131 = ADVANCED_FACE ('', (#125), #130, .T.);
#132 = CARTESIAN_POINT ('', (-71., 105.5, -4.5));
#133 = VERTEX_POINT ('', #132);
#134 = CARTESIAN_POINT ('', (-73.5000000000003, 108., -4.5));
#135 = VERTEX_POINT ('', #134);
#136 = CARTESIAN_POINT ('', (-71., 105.5, -4.5));
#137 = CARTESIAN_POINT ('', (-73.4999999999998, 105.5, -4.5));
#138 = CARTESIAN_POINT ('', (-73.5000000000003, 108., -4.5));
#139 = (
   BOUNDED_CURVE ()
   B_SPLINE_CURVE (2, (#136, #137, #138), .UNSPECIFIED., .F., .U.)
   B_SPLINE_CURVE_WITH_KNOTS ((3, 3), (259.5, 260.5), .UNSPECIFIED.)
   CURVE ()
   GEOMETRIC_REPRESENTATION_ITEM ()
   RATIONAL_B_SPLINE_CURVE ((1., 0.707106781186648, 1.))
   REPRESENTATION_ITEM ('')
);
#140 = EDGE_CURVE ('', #133, #135, #139, .T.);
#141 = ORIENTED_EDGE ('', *, *, #140, .T.);
#142 = CARTESIAN_POINT ('', (-73.4999999999999, 134., -4.5));
#143 = VERTEX_POINT ('', #142);
#144 = CARTESIAN_POINT ('', (-73.5000000000003, 108., -4.5));
#145 = CARTESIAN_POINT ('', (-73.4999999999999, 134., -4.5));
#146 = B_SPLINE_CURVE_WITH_KNOTS ('', 1, (#144, #145), .UNSPECIFIED., .F., .U., (2, 2), (260.5, 286.5), .UNSPECIFIED.);
#147 = EDGE_CURVE ('', #135, #143, #146, .T.);
#148 = ORIENTED_EDGE ('', *, *, #147, .T.);
#149 = CARTESIAN_POINT ('', (-73.4999999999999, 134., -4.5));
#150 = CARTESIAN_POINT ('', (-73.4999999999999, 135.5, -4.5));
#151 = CARTESIAN_POINT ('', (-75.0000000000001, 135.5, -4.5));
#152 = (
   BOUNDED_CURVE ()
   B_SPLINE_CURVE (2, (#149, #150, #151), .UNSPECIFIED., .F., .U.)
   B_SPLINE_CURVE_WITH_KNOTS ((3, 3), (286.5, 287.5), .UNSPECIFIED.)
   CURVE ()
   GEOMETRIC_REPRESENTATION_ITEM ()
   RATIONAL_B_SPLINE_CURVE ((1., 0.707106781186447, 1.))
   REPRESENTATION_ITEM ('')
);
#153 = EDGE_CURVE ('', #143, #97, #152, .T.);
#154 = ORIENTED_EDGE ('', *, *, #153, .T.);
#155 = ORIENTED_EDGE ('', *, *, #103, .T.);
#156 = CARTESIAN_POINT ('', (-129., 128.5, -4.5));
#157 = VERTEX_POINT ('', #156);
#158 = CARTESIAN_POINT ('', (-129., 135.5, -4.5));
#159 = CARTESIAN_POINT ('', (-132.5, 135.5, -4.5));
#160 = CARTESIAN_POINT ('', (-132.5, 132., -4.5));
#161 = CARTESIAN_POINT ('', (-132.5, 128.5, -4.5));
#162 = CARTESIAN_POINT ('', (-129., 128.5, -4.5));
#163 = (
   BOUNDED_CURVE ()
   B_SPLINE_CURVE (2, (#158, #159, #160, #161, #162), .UNSPECIFIED., .F., .U.)
   B_SPLINE_CURVE_WITH_KNOTS ((3, 2, 3), (424.5, 424.75, 425.), .UNSPECIFIED.)
   CURVE ()
   GEOMETRIC_REPRESENTATION_ITEM ()
   RATIONAL_B_SPLINE_CURVE ((1., 0.707106781186548, 1., 0.707106781186548, 1.))
   REPRESENTATION_ITEM ('')
);
#164 = EDGE_CURVE ('', #99, #157, #163, .T.);
#165 = ORIENTED_EDGE ('', *, *, #164, .T.);
#166 = CARTESIAN_POINT ('', (-126.5, 126., -4.5));
#167 = VERTEX_POINT ('', #166);
#168 = CARTESIAN_POINT ('', (-129., 128.5, -4.5));
#169 = CARTESIAN_POINT ('', (-126.5, 128.5, -4.5));
#170 = CARTESIAN_POINT ('', (-126.5, 126., -4.5));
#171 = (
   BOUNDED_CURVE ()
   B_SPLINE_CURVE (2, (#168, #169, #170), .UNSPECIFIED., .F., .U.)
   B_SPLINE_CURVE_WITH_KNOTS ((3, 3), (259.5, 260.5), .UNSPECIFIED.)
   CURVE ()
   GEOMETRIC_REPRESENTATION_ITEM ()
   RATIONAL_B_SPLINE_CURVE ((1., 0.707106781186648, 1.))
   REPRESENTATION_ITEM ('')
);
#172 = EDGE_CURVE ('', #157, #167, #171, .T.);
#173 = ORIENTED_EDGE ('', *, *, #172, .T.);
#174 = CARTESIAN_POINT ('', (-126.5, 99.9999999999999, -4.5));
#175 = VERTEX_POINT ('', #174);
#176 = CARTESIAN_POINT ('', (-126.5, 126., -4.5));
#177 = CARTESIAN_POINT ('', (-126.5, 99.9999999999999, -4.5));
#178 = B_SPLINE_CURVE_WITH_KNOTS ('', 1, (#176, #177), .UNSPECIFIED., .F., .U., (2, 2), (346.5, 372.5), .UNSPECIFIED.);
#179 = EDGE_CURVE ('', #167, #175, #178, .T.);
#180 = ORIENTED_EDGE ('', *, *, #179, .T.);
#181 = CARTESIAN_POINT ('', (-125., 98.5, -4.5));
#182 = VERTEX_POINT ('', #181);
#183 = CARTESIAN_POINT ('', (-126.5, 99.9999999999999, -4.5));
#184 = CARTESIAN_POINT ('', (-126.5, 98.5, -4.5));
#185 = CARTESIAN_POINT ('', (-125., 98.5, -4.5));
#186 = (
   BOUNDED_CURVE ()
   B_SPLINE_CURVE (2, (#183, #184, #185), .UNSPECIFIED., .F., .U.)
   B_SPLINE_CURVE_WITH_KNOTS ((3, 3), (372.5, 373.5), .UNSPECIFIED.)
   CURVE ()
   GEOMETRIC_REPRESENTATION_ITEM ()
   RATIONAL_B_SPLINE_CURVE ((1., 0.707106781186563, 1.))
   REPRESENTATION_ITEM ('')
);
#187 = EDGE_CURVE ('', #175, #182, #186, .T.);
#188 = ORIENTED_EDGE ('', *, *, #187, .T.);
#189 = CARTESIAN_POINT ('', (-71., 98.5, -4.5));
#190 = VERTEX_POINT ('', #189);
#191 = CARTESIAN_POINT ('', (-125., 98.5, -4.5));
#192 = CARTESIAN_POINT ('', (-71., 98.5, -4.5));
#193 = B_SPLINE_CURVE_WITH_KNOTS ('', 1, (#191, #192), .UNSPECIFIED., .F., .U., (2, 2), (0., 1.), .UNSPECIFIED.);
#194 = EDGE_CURVE ('', #182, #190, #193, .T.);
#195 = ORIENTED_EDGE ('', *, *, #194, .T.);
#196 = CARTESIAN_POINT ('', (-71., 98.5, -4.5));
#197 = CARTESIAN_POINT ('', (-67.5, 98.5000000000001, -4.5));
#198 = CARTESIAN_POINT ('', (-67.5, 102., -4.5));
#199 = CARTESIAN_POINT ('', (-67.5, 105.5, -4.5));
#200 = CARTESIAN_POINT ('', (-71., 105.5, -4.5));
#201 = (
   BOUNDED_CURVE ()
   B_SPLINE_CURVE (2, (#196, #197, #198, #199, #200), .UNSPECIFIED., .F., .U.)
   B_SPLINE_CURVE_WITH_KNOTS ((3, 2, 3), (424.5, 424.75, 425.), .UNSPECIFIED.)
   CURVE ()
   GEOMETRIC_REPRESENTATION_ITEM ()
   RATIONAL_B_SPLINE_CURVE ((1., 0.707106781186548, 1., 0.707106781186548, 1.))
   REPRESENTATION_ITEM ('')
);
#202 = EDGE_CURVE ('', #190, #133, #201, .T.);
#203 = ORIENTED_EDGE ('', *, *, #202, .T.);
#204 = EDGE_LOOP ('', (#141, #148, #154, #155, #165, #173, #180, #188, #195, #203));
#205 = FACE_OUTER_BOUND ('', #204, .T.);
#206 = CARTESIAN_POINT ('', (-130., 132., -4.5));
#207 = VERTEX_POINT ('', #206);
#208 = CARTESIAN_POINT ('', (-128., 132., -4.5));
#209 = VERTEX_POINT ('', #208);
#210 = CARTESIAN_POINT ('', (-130., 132., -4.5));
#211 = CARTESIAN_POINT ('', (-130., 131., -4.5));
#212 = CARTESIAN_POINT ('', (-129., 131., -4.5));
#213 = CARTESIAN_POINT ('', (-128., 131., -4.5));
#214 = CARTESIAN_POINT ('', (-128., 132., -4.5));
#215 = (
   BOUNDED_CURVE ()
   B_SPLINE_CURVE (2, (#210, #211, #212, #213, #214), .UNSPECIFIED., .F., .U.)
   B_SPLINE_CURVE_WITH_KNOTS ((3, 2, 3), (0., 0.25, 0.5), .UNSPECIFIED.)
   CURVE ()
   GEOMETRIC_REPRESENTATION_ITEM ()
   RATIONAL_B_SPLINE_CURVE ((1., 0.707106781186548, 1., 0.707106781186548, 1.))
   REPRESENTATION_ITEM ('')
);
#216 = EDGE_CURVE ('', #207, #209, #215, .T.);
#217 = ORIENTED_EDGE ('', *, *, #216, .F.);
#218 = CARTESIAN_POINT ('', (-128., 132., -4.5));
#219 = CARTESIAN_POINT ('', (-128., 133., -4.5));
#220 = CARTESIAN_POINT ('', (-129., 133., -4.5));
#221 = CARTESIAN_POINT ('', (-130., 133., -4.5));
#222 = CARTESIAN_POINT ('', (-130., 132., -4.5));
#223 = (
   BOUNDED_CURVE ()
   B_SPLINE_CURVE (2, (#218, #219, #220, #221, #222), .UNSPECIFIED., .F., .U.)
   B_SPLINE_CURVE_WITH_KNOTS ((3, 2, 3), (0.5, 0.75, 1.), .UNSPECIFIED.)
   CURVE ()
   GEOMETRIC_REPRESENTATION_ITEM ()
   RATIONAL_B_SPLINE_CURVE ((1., 0.707106781186548, 1., 0.707106781186548, 1.))
   REPRESENTATION_ITEM ('')
);
#224 = EDGE_CURVE ('', #209, #207, #223, .T.);
#225 = ORIENTED_EDGE ('', *, *, #224, .F.);
#226 = EDGE_LOOP ('', (#217, #225));
#227 = FACE_BOUND ('', #226, .T.);
#228 = CARTESIAN_POINT ('', (-70., 102., -4.5));
#229 = VERTEX_POINT ('', #228);
#230 = CARTESIAN_POINT ('', (-72., 102., -4.5));
#231 = VERTEX_POINT ('', #230);
#232 = CARTESIAN_POINT ('', (-70., 102., -4.5));
#233 = CARTESIAN_POINT ('', (-70., 103., -4.5));
#234 = CARTESIAN_POINT ('', (-71., 103., -4.5));
#235 = CARTESIAN_POINT ('', (-72., 103., -4.5));
#236 = CARTESIAN_POINT ('', (-72., 102., -4.5));
#237 = (
   BOUNDED_CURVE ()
   B_SPLINE_CURVE (2, (#232, #233, #234, #235, #236), .UNSPECIFIED., .F., .U.)
   B_SPLINE_CURVE_WITH_KNOTS ((3, 2, 3), (0., 0.25, 0.5), .UNSPECIFIED.)
   CURVE ()
   GEOMETRIC_REPRESENTATION_ITEM ()
   RATIONAL_B_SPLINE_CURVE ((1., 0.707106781186548, 1., 0.707106781186548, 1.))
   REPRESENTATION_ITEM ('')
);
#238 = EDGE_CURVE ('', #229, #231, #237, .T.);
#239 = ORIENTED_EDGE ('', *, *, #238, .F.);
#240 = CARTESIAN_POINT ('', (-72., 102., -4.5));
#241 = CARTESIAN_POINT ('', (-72., 101., -4.5));
#242 = CARTESIAN_POINT ('', (-71., 101., -4.5));
#243 = CARTESIAN_POINT ('', (-70., 101., -4.5));
#244 = CARTESIAN_POINT ('', (-70., 102., -4.5));
#245 = (
   BOUNDED_CURVE ()
   B_SPLINE_CURVE (2, (#240, #241, #242, #243, #244), .UNSPECIFIED., .F., .U.)
   B_SPLINE_CURVE_WITH_KNOTS ((3, 2, 3), (0.5, 0.75, 1.), .UNSPECIFIED.)
   CURVE ()
   GEOMETRIC_REPRESENTATION_ITEM ()
   RATIONAL_B_SPLINE_CURVE ((1., 0.707106781186548, 1., 0.707106781186548, 1.))
   REPRESENTATION_ITEM ('')
);
#246 = EDGE_CURVE ('', #231, #229, #245, .T.);
#247 = ORIENTED_EDGE ('', *, *, #246, .F.);
#248 = EDGE_LOOP ('', (#239, #247));
#249 = FACE_BOUND ('', #248, .T.);
#250 = CARTESIAN_POINT ('', (-132.5, 135.5, -4.5));
#251 = CARTESIAN_POINT ('', (-67.5, 135.5, -4.5));
#252 = CARTESIAN_POINT ('', (-132.5, 98.5, -4.5));
#253 = CARTESIAN_POINT ('', (-67.5, 98.5, -4.5));
#254 = B_SPLINE_SURFACE_WITH_KNOTS ('', 1, 1, ((#250, #251), (#252, #253)), .UNSPECIFIED., .F., .F., .U., (2, 2), (2, 2), (0.39991168341995, 0.652906463123342), (0.338887196941339, 0.78333748560946), .UNSPECIFIED.);
#255 = ADVANCED_FACE ('', (#205, #227, #249), #254, .T.);
#256 = CARTESIAN_POINT ('', (-72., 102., -6.));
#257 = VERTEX_POINT ('', #256);
#258 = CARTESIAN_POINT ('', (-72., 102., -4.5));
#259 = CARTESIAN_POINT ('', (-72., 102., -6.));
#260 = B_SPLINE_CURVE_WITH_KNOTS ('', 1, (#258, #259), .UNSPECIFIED., .F., .U., (2, 2), (0., 1.), .UNSPECIFIED.);
#261 = EDGE_CURVE ('', #231, #257, #260, .T.);
#262 = ORIENTED_EDGE ('', *, *, #261, .T.);
#263 = CARTESIAN_POINT ('', (-70., 102., -6.));
#264 = VERTEX_POINT ('', #263);
#265 = CARTESIAN_POINT ('', (-70., 102., -6.));
#266 = CARTESIAN_POINT ('', (-70., 103., -6.));
#267 = CARTESIAN_POINT ('', (-71., 103., -6.));
#268 = CARTESIAN_POINT ('', (-72., 103., -6.));
#269 = CARTESIAN_POINT ('', (-72., 102., -6.));
#270 = (
   BOUNDED_CURVE ()
   B_SPLINE_CURVE (2, (#265, #266, #267, #268, #269), .UNSPECIFIED., .F., .U.)
   B_SPLINE_CURVE_WITH_KNOTS ((3, 2, 3), (0., 0.25, 0.5), .UNSPECIFIED.)
   CURVE ()
   GEOMETRIC_REPRESENTATION_ITEM ()
   RATIONAL_B_SPLINE_CURVE ((1., 0.707106781186548, 1., 0.707106781186548, 1.))
   REPRESENTATION_ITEM ('')
);
#271 = EDGE_CURVE ('', #264, #257, #270, .T.);
#272 = ORIENTED_EDGE ('', *, *, #271, .F.);
#273 = CARTESIAN_POINT ('', (-70., 102., -4.5));
#274 = CARTESIAN_POINT ('', (-70., 102., -6.));
#275 = B_SPLINE_CURVE_WITH_KNOTS ('', 1, (#273, #274), .UNSPECIFIED., .F., .U., (2, 2), (0., 1.), .UNSPECIFIED.);
#276 = EDGE_CURVE ('', #229, #264, #275, .T.);
#277 = ORIENTED_EDGE ('', *, *, #276, .F.);
#278 = ORIENTED_EDGE ('', *, *, #238, .T.);
#279 = EDGE_LOOP ('', (#262, #272, #277, #278));
#280 = FACE_OUTER_BOUND ('', #279, .T.);
#281 = CARTESIAN_POINT ('', (-70., 102., -4.5));
#282 = CARTESIAN_POINT ('', (-70., 102., -6.));
#283 = CARTESIAN_POINT ('', (-70., 103., -4.5));
#284 = CARTESIAN_POINT ('', (-70., 103., -6.));
#285 = CARTESIAN_POINT ('', (-71., 103., -4.5));
#286 = CARTESIAN_POINT ('', (-71., 103., -6.));
#287 = CARTESIAN_POINT ('', (-72., 103., -4.5));
#288 = CARTESIAN_POINT ('', (-72., 103., -6.));
#289 = CARTESIAN_POINT ('', (-72., 102., -4.5));
#290 = CARTESIAN_POINT ('', (-72., 102., -6.));
#291 = (
   BOUNDED_SURFACE ()
   B_SPLINE_SURFACE (2, 1, ((#281, #282), (#283, #284), (#285, #286), (#287, #288), (#289, #290)), .UNSPECIFIED., .F., .F., .U.)
   B_SPLINE_SURFACE_WITH_KNOTS ((3, 2, 3), (2, 2), (0., 0.25, 0.5), (0., 1.), .UNSPECIFIED.)
   GEOMETRIC_REPRESENTATION_ITEM ()
   RATIONAL_B_SPLINE_SURFACE (((1., 1.), (0.707106781186548, 0.707106781186548), (1., 1.), (0.707106781186548, 0.707106781186548), (1., 1.)))
   REPRESENTATION_ITEM ('')
   SURFACE ()
);
#292 = ADVANCED_FACE ('', (#280), #291, .T.);
#293 = CARTESIAN_POINT ('', (-128., 132., -6.));
#294 = VERTEX_POINT ('', #293);
#295 = CARTESIAN_POINT ('', (-128., 132., -4.5));
#296 = CARTESIAN_POINT ('', (-128., 132., -6.));
#297 = B_SPLINE_CURVE_WITH_KNOTS ('', 1, (#295, #296), .UNSPECIFIED., .F., .U., (2, 2), (0., 1.), .UNSPECIFIED.);
#298 = EDGE_CURVE ('', #209, #294, #297, .T.);
#299 = ORIENTED_EDGE ('', *, *, #298, .T.);
#300 = CARTESIAN_POINT ('', (-130., 132., -6.));
#301 = VERTEX_POINT ('', #300);
#302 = CARTESIAN_POINT ('', (-130., 132., -6.));
#303 = CARTESIAN_POINT ('', (-130., 131., -6.));
#304 = CARTESIAN_POINT ('', (-129., 131., -6.));
#305 = CARTESIAN_POINT ('', (-128., 131., -6.));
#306 = CARTESIAN_POINT ('', (-128., 132., -6.));
#307 = (
   BOUNDED_CURVE ()
   B_SPLINE_CURVE (2, (#302, #303, #304, #305, #306), .UNSPECIFIED., .F., .U.)
   B_SPLINE_CURVE_WITH_KNOTS ((3, 2, 3), (0., 0.25, 0.5), .UNSPECIFIED.)
   CURVE ()
   GEOMETRIC_REPRESENTATION_ITEM ()
   RATIONAL_B_SPLINE_CURVE ((1., 0.707106781186548, 1., 0.707106781186548, 1.))
   REPRESENTATION_ITEM ('')
);
#308 = EDGE_CURVE ('', #301, #294, #307, .T.);
#309 = ORIENTED_EDGE ('', *, *, #308, .F.);
#310 = CARTESIAN_POINT ('', (-130., 132., -4.5));
#311 = CARTESIAN_POINT ('', (-130., 132., -6.));
#312 = B_SPLINE_CURVE_WITH_KNOTS ('', 1, (#310, #311), .UNSPECIFIED., .F., .U., (2, 2), (0., 1.), .UNSPECIFIED.);
#313 = EDGE_CURVE ('', #207, #301, #312, .T.);
#314 = ORIENTED_EDGE ('', *, *, #313, .F.);
#315 = ORIENTED_EDGE ('', *, *, #216, .T.);
#316 = EDGE_LOOP ('', (#299, #309, #314, #315));
#317 = FACE_OUTER_BOUND ('', #316, .T.);
#318 = CARTESIAN_POINT ('', (-130., 132., -4.5));
#319 = CARTESIAN_POINT ('', (-130., 132., -6.));
#320 = CARTESIAN_POINT ('', (-130., 131., -4.5));
#321 = CARTESIAN_POINT ('', (-130., 131., -6.));
#322 = CARTESIAN_POINT ('', (-129., 131., -4.5));
#323 = CARTESIAN_POINT ('', (-129., 131., -6.));
#324 = CARTESIAN_POINT ('', (-128., 131., -4.5));
#325 = CARTESIAN_POINT ('', (-128., 131., -6.));
#326 = CARTESIAN_POINT ('', (-128., 132., -4.5));
#327 = CARTESIAN_POINT ('', (-128., 132., -6.));
#328 = (
   BOUNDED_SURFACE ()
   B_SPLINE_SURFACE (2, 1, ((#318, #319), (#320, #321), (#322, #323), (#324, #325), (#326, #327)), .UNSPECIFIED., .F., .F., .U.)
   B_SPLINE_SURFACE_WITH_KNOTS ((3, 2, 3), (2, 2), (0., 0.25, 0.5), (0., 1.), .UNSPECIFIED.)
   GEOMETRIC_REPRESENTATION_ITEM ()
   RATIONAL_B_SPLINE_SURFACE (((1., 1.), (0.707106781186548, 0.707106781186548), (1., 1.), (0.707106781186548, 0.707106781186548), (1., 1.)))
   REPRESENTATION_ITEM ('')
   SURFACE ()
);
#329 = ADVANCED_FACE ('', (#317), #328, .T.);
#330 = CARTESIAN_POINT ('', (-71., 105.5, -6.));
#331 = VERTEX_POINT ('', #330);
#332 = CARTESIAN_POINT ('', (-71., 105.5, -4.5));
#333 = CARTESIAN_POINT ('', (-71., 105.5, -6.));
#334 = B_SPLINE_CURVE_WITH_KNOTS ('', 1, (#332, #333), .UNSPECIFIED., .F., .U., (2, 2), (0., 1.), .UNSPECIFIED.);
#335 = EDGE_CURVE ('', #133, #331, #334, .T.);
#336 = ORIENTED_EDGE ('', *, *, #335, .T.);
#337 = CARTESIAN_POINT ('', (-73.5000000000003, 108., -6.));
#338 = VERTEX_POINT ('', #337);
#339 = CARTESIAN_POINT ('', (-71., 105.5, -6.));
#340 = CARTESIAN_POINT ('', (-73.4999999999998, 105.5, -6.));
#341 = CARTESIAN_POINT ('', (-73.5000000000003, 108., -6.));
#342 = (
   BOUNDED_CURVE ()
   B_SPLINE_CURVE (2, (#339, #340, #341), .UNSPECIFIED., .F., .U.)
   B_SPLINE_CURVE_WITH_KNOTS ((3, 3), (259.5, 260.5), .UNSPECIFIED.)
   CURVE ()
   GEOMETRIC_REPRESENTATION_ITEM ()
   RATIONAL_B_SPLINE_CURVE ((1., 0.707106781186648, 1.))
   REPRESENTATION_ITEM ('')
);
#343 = EDGE_CURVE ('', #331, #338, #342, .T.);
#344 = ORIENTED_EDGE ('', *, *, #343, .T.);
#345 = CARTESIAN_POINT ('', (-73.5000000000003, 108., -4.5));
#346 = CARTESIAN_POINT ('', (-73.5000000000003, 108., -6.));
#347 = B_SPLINE_CURVE_WITH_KNOTS ('', 1, (#345, #346), .UNSPECIFIED., .F., .U., (2, 2), (0., 1.), .UNSPECIFIED.);
#348 = EDGE_CURVE ('', #135, #338, #347, .T.);
#349 = ORIENTED_EDGE ('', *, *, #348, .F.);
#350 = ORIENTED_EDGE ('', *, *, #140, .F.);
#351 = EDGE_LOOP ('', (#336, #344, #349, #350));
#352 = FACE_OUTER_BOUND ('', #351, .T.);
#353 = CARTESIAN_POINT ('', (-71., 105.5, -4.5));
#354 = CARTESIAN_POINT ('', (-73.4999999999998, 105.5, -4.5));
#355 = CARTESIAN_POINT ('', (-73.5000000000003, 108., -4.5));
#356 = CARTESIAN_POINT ('', (-71., 105.5, -6.));
#357 = CARTESIAN_POINT ('', (-73.4999999999998, 105.5, -6.));
#358 = CARTESIAN_POINT ('', (-73.5000000000003, 108., -6.));
#359 = (
   BOUNDED_SURFACE ()
   B_SPLINE_SURFACE (1, 2, ((#353, #354, #355), (#356, #357, #358)), .UNSPECIFIED., .F., .F., .U.)
   B_SPLINE_SURFACE_WITH_KNOTS ((2, 2), (3, 3), (0., 1.), (259.5, 260.5), .UNSPECIFIED.)
   GEOMETRIC_REPRESENTATION_ITEM ()
   RATIONAL_B_SPLINE_SURFACE (((1., 0.707106781186648, 1.), (1., 0.707106781186648, 1.)))
   REPRESENTATION_ITEM ('')
   SURFACE ()
);
#360 = ADVANCED_FACE ('', (#352), #359, .T.);
#361 = CARTESIAN_POINT ('', (-71., 98.5, -6.));
#362 = VERTEX_POINT ('', #361);
#363 = CARTESIAN_POINT ('', (-71., 98.5000000000001, -4.5));
#364 = CARTESIAN_POINT ('', (-71., 98.5000000000001, -6.));
#365 = B_SPLINE_CURVE_WITH_KNOTS ('', 1, (#363, #364), .UNSPECIFIED., .F., .U., (2, 2), (0., 1.), .UNSPECIFIED.);
#366 = EDGE_CURVE ('', #190, #362, #365, .T.);
#367 = ORIENTED_EDGE ('', *, *, #366, .T.);
#368 = CARTESIAN_POINT ('', (-71., 98.5, -6.));
#369 = CARTESIAN_POINT ('', (-67.5, 98.5000000000001, -6.));
#370 = CARTESIAN_POINT ('', (-67.5, 102., -6.));
#371 = CARTESIAN_POINT ('', (-67.5, 105.5, -6.));
#372 = CARTESIAN_POINT ('', (-71., 105.5, -6.));
#373 = (
   BOUNDED_CURVE ()
   B_SPLINE_CURVE (2, (#368, #369, #370, #371, #372), .UNSPECIFIED., .F., .U.)
   B_SPLINE_CURVE_WITH_KNOTS ((3, 2, 3), (424.5, 424.75, 425.), .UNSPECIFIED.)
   CURVE ()
   GEOMETRIC_REPRESENTATION_ITEM ()
   RATIONAL_B_SPLINE_CURVE ((1., 0.707106781186548, 1., 0.707106781186548, 1.))
   REPRESENTATION_ITEM ('')
);
#374 = EDGE_CURVE ('', #362, #331, #373, .T.);
#375 = ORIENTED_EDGE ('', *, *, #374, .T.);
#376 = ORIENTED_EDGE ('', *, *, #335, .F.);
#377 = ORIENTED_EDGE ('', *, *, #202, .F.);
#378 = EDGE_LOOP ('', (#367, #375, #376, #377));
#379 = FACE_OUTER_BOUND ('', #378, .T.);
#380 = CARTESIAN_POINT ('', (-71., 98.5, -4.5));
#381 = CARTESIAN_POINT ('', (-67.5, 98.5000000000001, -4.5));
#382 = CARTESIAN_POINT ('', (-67.5, 102., -4.5));
#383 = CARTESIAN_POINT ('', (-67.5, 105.5, -4.5));
#384 = CARTESIAN_POINT ('', (-71., 105.5, -4.5));
#385 = CARTESIAN_POINT ('', (-71., 98.5, -6.));
#386 = CARTESIAN_POINT ('', (-67.5, 98.5000000000001, -6.));
#387 = CARTESIAN_POINT ('', (-67.5, 102., -6.));
#388 = CARTESIAN_POINT ('', (-67.5, 105.5, -6.));
#389 = CARTESIAN_POINT ('', (-71., 105.5, -6.));
#390 = (
   BOUNDED_SURFACE ()
   B_SPLINE_SURFACE (1, 2, ((#380, #381, #382, #383, #384), (#385, #386, #387, #388, #389)), .UNSPECIFIED., .F., .F., .U.)
   B_SPLINE_SURFACE_WITH_KNOTS ((2, 2), (3, 2, 3), (0., 1.), (424.5, 424.75, 425.), .UNSPECIFIED.)
   GEOMETRIC_REPRESENTATION_ITEM ()
   RATIONAL_B_SPLINE_SURFACE (((1., 0.707106781186548, 1., 0.707106781186548, 1.), (1., 0.707106781186548, 1., 0.707106781186548, 1.)))
   REPRESENTATION_ITEM ('')
   SURFACE ()
);
#391 = ADVANCED_FACE ('', (#379), #390, .T.);
#392 = ORIENTED_EDGE ('', *, *, #194, .F.);
#393 = CARTESIAN_POINT ('', (-125., 98.5, -6.));
#394 = VERTEX_POINT ('', #393);
#395 = CARTESIAN_POINT ('', (-125., 98.5, -4.5));
#396 = CARTESIAN_POINT ('', (-125., 98.5, -6.));
#397 = B_SPLINE_CURVE_WITH_KNOTS ('', 1, (#395, #396), .UNSPECIFIED., .F., .U., (2, 2), (0., 1.), .UNSPECIFIED.);
#398 = EDGE_CURVE ('', #182, #394, #397, .T.);
#399 = ORIENTED_EDGE ('', *, *, #398, .T.);
#400 = CARTESIAN_POINT ('', (-125., 98.5, -6.));
#401 = CARTESIAN_POINT ('', (-71., 98.5, -6.));
#402 = B_SPLINE_CURVE_WITH_KNOTS ('', 1, (#400, #401), .UNSPECIFIED., .F., .U., (2, 2), (0., 1.), .UNSPECIFIED.);
#403 = EDGE_CURVE ('', #394, #362, #402, .T.);
#404 = ORIENTED_EDGE ('', *, *, #403, .T.);
#405 = ORIENTED_EDGE ('', *, *, #366, .F.);
#406 = EDGE_LOOP ('', (#392, #399, #404, #405));
#407 = FACE_OUTER_BOUND ('', #406, .T.);
#408 = CARTESIAN_POINT ('', (-125., 98.5, -4.5));
#409 = CARTESIAN_POINT ('', (-71., 98.5, -4.5));
#410 = CARTESIAN_POINT ('', (-125., 98.5, -6.));
#411 = CARTESIAN_POINT ('', (-71., 98.5, -6.));
#412 = B_SPLINE_SURFACE_WITH_KNOTS ('', 1, 1, ((#408, #409), (#410, #411)), .UNSPECIFIED., .F., .F., .U., (2, 2), (2, 2), (0., 1.), (373.5, 427.5), .UNSPECIFIED.);
#413 = ADVANCED_FACE ('', (#407), #412, .T.);
#414 = CARTESIAN_POINT ('', (-126.5, 99.9999999999999, -6.));
#415 = VERTEX_POINT ('', #414);
#416 = CARTESIAN_POINT ('', (-126.5, 99.9999999999999, -4.5));
#417 = CARTESIAN_POINT ('', (-126.5, 99.9999999999999, -6.));
#418 = B_SPLINE_CURVE_WITH_KNOTS ('', 1, (#416, #417), .UNSPECIFIED., .F., .U., (2, 2), (0., 1.), .UNSPECIFIED.);
#419 = EDGE_CURVE ('', #175, #415, #418, .T.);
#420 = ORIENTED_EDGE ('', *, *, #419, .T.);
#421 = CARTESIAN_POINT ('', (-126.5, 99.9999999999999, -6.));
#422 = CARTESIAN_POINT ('', (-126.5, 98.5, -6.));
#423 = CARTESIAN_POINT ('', (-125., 98.5, -6.));
#424 = (
   BOUNDED_CURVE ()
   B_SPLINE_CURVE (2, (#421, #422, #423), .UNSPECIFIED., .F., .U.)
   B_SPLINE_CURVE_WITH_KNOTS ((3, 3), (372.5, 373.5), .UNSPECIFIED.)
   CURVE ()
   GEOMETRIC_REPRESENTATION_ITEM ()
   RATIONAL_B_SPLINE_CURVE ((1., 0.707106781186563, 1.))
   REPRESENTATION_ITEM ('')
);
#425 = EDGE_CURVE ('', #415, #394, #424, .T.);
#426 = ORIENTED_EDGE ('', *, *, #425, .T.);
#427 = ORIENTED_EDGE ('', *, *, #398, .F.);
#428 = ORIENTED_EDGE ('', *, *, #187, .F.);
#429 = EDGE_LOOP ('', (#420, #426, #427, #428));
#430 = FACE_OUTER_BOUND ('', #429, .T.);
#431 = CARTESIAN_POINT ('', (-126.5, 99.9999999999999, -4.5));
#432 = CARTESIAN_POINT ('', (-126.5, 98.5, -4.5));
#433 = CARTESIAN_POINT ('', (-125., 98.5, -4.5));
#434 = CARTESIAN_POINT ('', (-126.5, 99.9999999999999, -6.));
#435 = CARTESIAN_POINT ('', (-126.5, 98.5, -6.));
#436 = CARTESIAN_POINT ('', (-125., 98.5, -6.));
#437 = (
   BOUNDED_SURFACE ()
   B_SPLINE_SURFACE (1, 2, ((#431, #432, #433), (#434, #435, #436)), .UNSPECIFIED., .F., .F., .U.)
   B_SPLINE_SURFACE_WITH_KNOTS ((2, 2), (3, 3), (0., 1.), (372.5, 373.5), .UNSPECIFIED.)
   GEOMETRIC_REPRESENTATION_ITEM ()
   RATIONAL_B_SPLINE_SURFACE (((1., 0.707106781186563, 1.), (1., 0.707106781186563, 1.)))
   REPRESENTATION_ITEM ('')
   SURFACE ()
);
#438 = ADVANCED_FACE ('', (#430), #437, .T.);
#439 = ORIENTED_EDGE ('', *, *, #419, .F.);
#440 = ORIENTED_EDGE ('', *, *, #179, .F.);
#441 = CARTESIAN_POINT ('', (-126.5, 126., -6.));
#442 = VERTEX_POINT ('', #441);
#443 = CARTESIAN_POINT ('', (-126.5, 126., -4.5));
#444 = CARTESIAN_POINT ('', (-126.5, 126., -6.));
#445 = B_SPLINE_CURVE_WITH_KNOTS ('', 1, (#443, #444), .UNSPECIFIED., .F., .U., (2, 2), (0., 1.), .UNSPECIFIED.);
#446 = EDGE_CURVE ('', #167, #442, #445, .T.);
#447 = ORIENTED_EDGE ('', *, *, #446, .T.);
#448 = CARTESIAN_POINT ('', (-126.5, 126., -6.));
#449 = CARTESIAN_POINT ('', (-126.5, 99.9999999999999, -6.));
#450 = B_SPLINE_CURVE_WITH_KNOTS ('', 1, (#448, #449), .UNSPECIFIED., .F., .U., (2, 2), (346.5, 372.5), .UNSPECIFIED.);
#451 = EDGE_CURVE ('', #442, #415, #450, .T.);
#452 = ORIENTED_EDGE ('', *, *, #451, .T.);
#453 = EDGE_LOOP ('', (#439, #440, #447, #452));
#454 = FACE_OUTER_BOUND ('', #453, .T.);
#455 = CARTESIAN_POINT ('', (-126.5, 126., -4.5));
#456 = CARTESIAN_POINT ('', (-126.5, 99.9999999999999, -4.5));
#457 = CARTESIAN_POINT ('', (-126.5, 126., -6.));
#458 = CARTESIAN_POINT ('', (-126.5, 99.9999999999999, -6.));
#459 = B_SPLINE_SURFACE_WITH_KNOTS ('', 1, 1, ((#455, #456), (#457, #458)), .UNSPECIFIED., .F., .F., .U., (2, 2), (2, 2), (0., 1.), (346.5, 372.5), .UNSPECIFIED.);
#460 = ADVANCED_FACE ('', (#454), #459, .T.);
#461 = CARTESIAN_POINT ('', (-129., 128.5, -6.));
#462 = VERTEX_POINT ('', #461);
#463 = CARTESIAN_POINT ('', (-129., 128.5, -4.5));
#464 = CARTESIAN_POINT ('', (-129., 128.5, -6.));
#465 = B_SPLINE_CURVE_WITH_KNOTS ('', 1, (#463, #464), .UNSPECIFIED., .F., .U., (2, 2), (0., 1.), .UNSPECIFIED.);
#466 = EDGE_CURVE ('', #157, #462, #465, .T.);
#467 = ORIENTED_EDGE ('', *, *, #466, .T.);
#468 = CARTESIAN_POINT ('', (-129., 128.5, -6.));
#469 = CARTESIAN_POINT ('', (-126.5, 128.5, -6.));
#470 = CARTESIAN_POINT ('', (-126.5, 126., -6.));
#471 = (
   BOUNDED_CURVE ()
   B_SPLINE_CURVE (2, (#468, #469, #470), .UNSPECIFIED., .F., .U.)
   B_SPLINE_CURVE_WITH_KNOTS ((3, 3), (259.5, 260.5), .UNSPECIFIED.)
   CURVE ()
   GEOMETRIC_REPRESENTATION_ITEM ()
   RATIONAL_B_SPLINE_CURVE ((1., 0.707106781186648, 1.))
   REPRESENTATION_ITEM ('')
);
#472 = EDGE_CURVE ('', #462, #442, #471, .T.);
#473 = ORIENTED_EDGE ('', *, *, #472, .T.);
#474 = ORIENTED_EDGE ('', *, *, #446, .F.);
#475 = ORIENTED_EDGE ('', *, *, #172, .F.);
#476 = EDGE_LOOP ('', (#467, #473, #474, #475));
#477 = FACE_OUTER_BOUND ('', #476, .T.);
#478 = CARTESIAN_POINT ('', (-129., 128.5, -4.5));
#479 = CARTESIAN_POINT ('', (-126.5, 128.5, -4.5));
#480 = CARTESIAN_POINT ('', (-126.5, 126., -4.5));
#481 = CARTESIAN_POINT ('', (-129., 128.5, -6.));
#482 = CARTESIAN_POINT ('', (-126.5, 128.5, -6.));
#483 = CARTESIAN_POINT ('', (-126.5, 126., -6.));
#484 = (
   BOUNDED_SURFACE ()
   B_SPLINE_SURFACE (1, 2, ((#478, #479, #480), (#481, #482, #483)), .UNSPECIFIED., .F., .F., .U.)
   B_SPLINE_SURFACE_WITH_KNOTS ((2, 2), (3, 3), (0., 1.), (259.5, 260.5), .UNSPECIFIED.)
   GEOMETRIC_REPRESENTATION_ITEM ()
   RATIONAL_B_SPLINE_SURFACE (((1., 0.707106781186648, 1.), (1., 0.707106781186648, 1.)))
   REPRESENTATION_ITEM ('')
   SURFACE ()
);
#485 = ADVANCED_FACE ('', (#477), #484, .T.);
#486 = ORIENTED_EDGE ('', *, *, #348, .T.);
#487 = CARTESIAN_POINT ('', (-73.4999999999999, 134., -6.));
#488 = VERTEX_POINT ('', #487);
#489 = CARTESIAN_POINT ('', (-73.5000000000003, 108., -6.));
#490 = CARTESIAN_POINT ('', (-73.4999999999999, 134., -6.));
#491 = B_SPLINE_CURVE_WITH_KNOTS ('', 1, (#489, #490), .UNSPECIFIED., .F., .U., (2, 2), (260.5, 286.5), .UNSPECIFIED.);
#492 = EDGE_CURVE ('', #338, #488, #491, .T.);
#493 = ORIENTED_EDGE ('', *, *, #492, .T.);
#494 = CARTESIAN_POINT ('', (-73.4999999999999, 134., -4.5));
#495 = CARTESIAN_POINT ('', (-73.4999999999999, 134., -6.));
#496 = B_SPLINE_CURVE_WITH_KNOTS ('', 1, (#494, #495), .UNSPECIFIED., .F., .U., (2, 2), (0., 1.), .UNSPECIFIED.);
#497 = EDGE_CURVE ('', #143, #488, #496, .T.);
#498 = ORIENTED_EDGE ('', *, *, #497, .F.);
#499 = ORIENTED_EDGE ('', *, *, #147, .F.);
#500 = EDGE_LOOP ('', (#486, #493, #498, #499));
#501 = FACE_OUTER_BOUND ('', #500, .T.);
#502 = CARTESIAN_POINT ('', (-73.5000000000003, 108., -4.5));
#503 = CARTESIAN_POINT ('', (-73.4999999999999, 134., -4.5));
#504 = CARTESIAN_POINT ('', (-73.5000000000003, 108., -6.));
#505 = CARTESIAN_POINT ('', (-73.4999999999999, 134., -6.));
#506 = B_SPLINE_SURFACE_WITH_KNOTS ('', 1, 1, ((#502, #503), (#504, #505)), .UNSPECIFIED., .F., .F., .U., (2, 2), (2, 2), (0., 1.), (260.5, 286.5), .UNSPECIFIED.);
#507 = ADVANCED_FACE ('', (#501), #506, .T.);
#508 = ORIENTED_EDGE ('', *, *, #122, .T.);
#509 = CARTESIAN_POINT ('', (-129., 135.5, -6.));
#510 = CARTESIAN_POINT ('', (-132.5, 135.5, -6.));
#511 = CARTESIAN_POINT ('', (-132.5, 132., -6.));
#512 = CARTESIAN_POINT ('', (-132.5, 128.5, -6.));
#513 = CARTESIAN_POINT ('', (-129., 128.5, -6.));
#514 = (
   BOUNDED_CURVE ()
   B_SPLINE_CURVE (2, (#509, #510, #511, #512, #513), .UNSPECIFIED., .F., .U.)
   B_SPLINE_CURVE_WITH_KNOTS ((3, 2, 3), (424.5, 424.75, 425.), .UNSPECIFIED.)
   CURVE ()
   GEOMETRIC_REPRESENTATION_ITEM ()
   RATIONAL_B_SPLINE_CURVE ((1., 0.707106781186548, 1., 0.707106781186548, 1.))
   REPRESENTATION_ITEM ('')
);
#515 = EDGE_CURVE ('', #113, #462, #514, .T.);
#516 = ORIENTED_EDGE ('', *, *, #515, .T.);
#517 = ORIENTED_EDGE ('', *, *, #466, .F.);
#518 = ORIENTED_EDGE ('', *, *, #164, .F.);
#519 = EDGE_LOOP ('', (#508, #516, #517, #518));
#520 = FACE_OUTER_BOUND ('', #519, .T.);
#521 = CARTESIAN_POINT ('', (-129., 135.5, -4.5));
#522 = CARTESIAN_POINT ('', (-132.5, 135.5, -4.5));
#523 = CARTESIAN_POINT ('', (-132.5, 132., -4.5));
#524 = CARTESIAN_POINT ('', (-132.5, 128.5, -4.5));
#525 = CARTESIAN_POINT ('', (-129., 128.5, -4.5));
#526 = CARTESIAN_POINT ('', (-129., 135.5, -6.));
#527 = CARTESIAN_POINT ('', (-132.5, 135.5, -6.));
#528 = CARTESIAN_POINT ('', (-132.5, 132., -6.));
#529 = CARTESIAN_POINT ('', (-132.5, 128.5, -6.));
#530 = CARTESIAN_POINT ('', (-129., 128.5, -6.));
#531 = (
   BOUNDED_SURFACE ()
   B_SPLINE_SURFACE (1, 2, ((#521, #522, #523, #524, #525), (#526, #527, #528, #529, #530)), .UNSPECIFIED., .F., .F., .U.)
   B_SPLINE_SURFACE_WITH_KNOTS ((2, 2), (3, 2, 3), (0., 1.), (424.5, 424.75, 425.), .UNSPECIFIED.)
   GEOMETRIC_REPRESENTATION_ITEM ()
   RATIONAL_B_SPLINE_SURFACE (((1., 0.707106781186548, 1., 0.707106781186548, 1.), (1., 0.707106781186548, 1., 0.707106781186548, 1.)))
   REPRESENTATION_ITEM ('')
   SURFACE ()
);
#532 = ADVANCED_FACE ('', (#520), #531, .T.);
#533 = ORIENTED_EDGE ('', *, *, #343, .F.);
#534 = ORIENTED_EDGE ('', *, *, #374, .F.);
#535 = ORIENTED_EDGE ('', *, *, #403, .F.);
#536 = ORIENTED_EDGE ('', *, *, #425, .F.);
#537 = ORIENTED_EDGE ('', *, *, #451, .F.);
#538 = ORIENTED_EDGE ('', *, *, #472, .F.);
#539 = ORIENTED_EDGE ('', *, *, #515, .F.);
#540 = ORIENTED_EDGE ('', *, *, #117, .F.);
#541 = CARTESIAN_POINT ('', (-73.4999999999999, 134., -6.));
#542 = CARTESIAN_POINT ('', (-73.4999999999999, 135.5, -6.));
#543 = CARTESIAN_POINT ('', (-75.0000000000001, 135.5, -6.));
#544 = (
   BOUNDED_CURVE ()
   B_SPLINE_CURVE (2, (#541, #542, #543), .UNSPECIFIED., .F., .U.)
   B_SPLINE_CURVE_WITH_KNOTS ((3, 3), (286.5, 287.5), .UNSPECIFIED.)
   CURVE ()
   GEOMETRIC_REPRESENTATION_ITEM ()
   RATIONAL_B_SPLINE_CURVE ((1., 0.707106781186447, 1.))
   REPRESENTATION_ITEM ('')
);
#545 = EDGE_CURVE ('', #488, #106, #544, .T.);
#546 = ORIENTED_EDGE ('', *, *, #545, .F.);
#547 = ORIENTED_EDGE ('', *, *, #492, .F.);
#548 = EDGE_LOOP ('', (#533, #534, #535, #536, #537, #538, #539, #540, #546, #547));
#549 = FACE_OUTER_BOUND ('', #548, .T.);
#550 = ORIENTED_EDGE ('', *, *, #308, .T.);
#551 = CARTESIAN_POINT ('', (-128., 132., -6.));
#552 = CARTESIAN_POINT ('', (-128., 133., -6.));
#553 = CARTESIAN_POINT ('', (-129., 133., -6.));
#554 = CARTESIAN_POINT ('', (-130., 133., -6.));
#555 = CARTESIAN_POINT ('', (-130., 132., -6.));
#556 = (
   BOUNDED_CURVE ()
   B_SPLINE_CURVE (2, (#551, #552, #553, #554, #555), .UNSPECIFIED., .F., .U.)
   B_SPLINE_CURVE_WITH_KNOTS ((3, 2, 3), (0.5, 0.75, 1.), .UNSPECIFIED.)
   CURVE ()
   GEOMETRIC_REPRESENTATION_ITEM ()
   RATIONAL_B_SPLINE_CURVE ((1., 0.707106781186548, 1., 0.707106781186548, 1.))
   REPRESENTATION_ITEM ('')
);
#557 = EDGE_CURVE ('', #294, #301, #556, .T.);
#558 = ORIENTED_EDGE ('', *, *, #557, .T.);
#559 = EDGE_LOOP ('', (#550, #558));
#560 = FACE_BOUND ('', #559, .T.);
#561 = ORIENTED_EDGE ('', *, *, #271, .T.);
#562 = CARTESIAN_POINT ('', (-72., 102., -6.));
#563 = CARTESIAN_POINT ('', (-72., 101., -6.));
#564 = CARTESIAN_POINT ('', (-71., 101., -6.));
#565 = CARTESIAN_POINT ('', (-70., 101., -6.));
#566 = CARTESIAN_POINT ('', (-70., 102., -6.));
#567 = (
   BOUNDED_CURVE ()
   B_SPLINE_CURVE (2, (#562, #563, #564, #565, #566), .UNSPECIFIED., .F., .U.)
   B_SPLINE_CURVE_WITH_KNOTS ((3, 2, 3), (0.5, 0.75, 1.), .UNSPECIFIED.)
   CURVE ()
   GEOMETRIC_REPRESENTATION_ITEM ()
   RATIONAL_B_SPLINE_CURVE ((1., 0.707106781186548, 1., 0.707106781186548, 1.))
   REPRESENTATION_ITEM ('')
);
#568 = EDGE_CURVE ('', #257, #264, #567, .T.);
#569 = ORIENTED_EDGE ('', *, *, #568, .T.);
#570 = EDGE_LOOP ('', (#561, #569));
#571 = FACE_BOUND ('', #570, .T.);
#572 = CARTESIAN_POINT ('', (-67.5, 98.5, -6.));
#573 = CARTESIAN_POINT ('', (-67.5, 135.5, -6.));
#574 = CARTESIAN_POINT ('', (-132.5, 98.5, -6.));
#575 = CARTESIAN_POINT ('', (-132.5, 135.5, -6.));
#576 = B_SPLINE_SURFACE_WITH_KNOTS ('', 1, 1, ((#572, #573), (#574, #575)), .UNSPECIFIED., .F., .F., .U., (2, 2), (2, 2), (0.338887196941339, 0.78333748560946), (0.39991168341995, 0.652906463123342), .UNSPECIFIED.);
#577 = ADVANCED_FACE ('', (#549, #560, #571), #576, .T.);
#578 = ORIENTED_EDGE ('', *, *, #497, .T.);
#579 = ORIENTED_EDGE ('', *, *, #545, .T.);
#580 = ORIENTED_EDGE ('', *, *, #110, .F.);
#581 = ORIENTED_EDGE ('', *, *, #153, .F.);
#582 = EDGE_LOOP ('', (#578, #579, #580, #581));
#583 = FACE_OUTER_BOUND ('', #582, .T.);
#584 = CARTESIAN_POINT ('', (-73.4999999999999, 134., -4.5));
#585 = CARTESIAN_POINT ('', (-73.4999999999999, 135.5, -4.5));
#586 = CARTESIAN_POINT ('', (-75.0000000000001, 135.5, -4.5));
#587 = CARTESIAN_POINT ('', (-73.4999999999999, 134., -6.));
#588 = CARTESIAN_POINT ('', (-73.4999999999999, 135.5, -6.));
#589 = CARTESIAN_POINT ('', (-75.0000000000001, 135.5, -6.));
#590 = (
   BOUNDED_SURFACE ()
   B_SPLINE_SURFACE (1, 2, ((#584, #585, #586), (#587, #588, #589)), .UNSPECIFIED., .F., .F., .U.)
   B_SPLINE_SURFACE_WITH_KNOTS ((2, 2), (3, 3), (0., 1.), (286.5, 287.5), .UNSPECIFIED.)
   GEOMETRIC_REPRESENTATION_ITEM ()
   RATIONAL_B_SPLINE_SURFACE (((1., 0.707106781186447, 1.), (1., 0.707106781186447, 1.)))
   REPRESENTATION_ITEM ('')
   SURFACE ()
);
#591 = ADVANCED_FACE ('', (#583), #590, .T.);
#592 = ORIENTED_EDGE ('', *, *, #261, .F.);
#593 = ORIENTED_EDGE ('', *, *, #246, .T.);
#594 = ORIENTED_EDGE ('', *, *, #276, .T.);
#595 = ORIENTED_EDGE ('', *, *, #568, .F.);
#596 = EDGE_LOOP ('', (#592, #593, #594, #595));
#597 = FACE_OUTER_BOUND ('', #596, .T.);
#598 = CARTESIAN_POINT ('', (-72., 102., -4.5));
#599 = CARTESIAN_POINT ('', (-72., 102., -6.));
#600 = CARTESIAN_POINT ('', (-72., 101., -4.5));
#601 = CARTESIAN_POINT ('', (-72., 101., -6.));
#602 = CARTESIAN_POINT ('', (-71., 101., -4.5));
#603 = CARTESIAN_POINT ('', (-71., 101., -6.));
#604 = CARTESIAN_POINT ('', (-70., 101., -4.5));
#605 = CARTESIAN_POINT ('', (-70., 101., -6.));
#606 = CARTESIAN_POINT ('', (-70., 102., -4.5));
#607 = CARTESIAN_POINT ('', (-70., 102., -6.));
#608 = (
   BOUNDED_SURFACE ()
   B_SPLINE_SURFACE (2, 1, ((#598, #599), (#600, #601), (#602, #603), (#604, #605), (#606, #607)), .UNSPECIFIED., .F., .F., .U.)
   B_SPLINE_SURFACE_WITH_KNOTS ((3, 2, 3), (2, 2), (0.5, 0.75, 1.), (0., 1.), .UNSPECIFIED.)
   GEOMETRIC_REPRESENTATION_ITEM ()
   RATIONAL_B_SPLINE_SURFACE (((1., 1.), (0.707106781186548, 0.707106781186548), (1., 1.), (0.707106781186548, 0.707106781186548), (1., 1.)))
   REPRESENTATION_ITEM ('')
   SURFACE ()
);
#609 = ADVANCED_FACE ('', (#597), #608, .T.);
#610 = ORIENTED_EDGE ('', *, *, #298, .F.);
#611 = ORIENTED_EDGE ('', *, *, #224, .T.);
#612 = ORIENTED_EDGE ('', *, *, #313, .T.);
#613 = ORIENTED_EDGE ('', *, *, #557, .F.);
#614 = EDGE_LOOP ('', (#610, #611, #612, #613));
#615 = FACE_OUTER_BOUND ('', #614, .T.);
#616 = CARTESIAN_POINT ('', (-128., 132., -4.5));
#617 = CARTESIAN_POINT ('', (-128., 132., -6.));
#618 = CARTESIAN_POINT ('', (-128., 133., -4.5));
#619 = CARTESIAN_POINT ('', (-128., 133., -6.));
#620 = CARTESIAN_POINT ('', (-129., 133., -4.5));
#621 = CARTESIAN_POINT ('', (-129., 133., -6.));
#622 = CARTESIAN_POINT ('', (-130., 133., -4.5));
#623 = CARTESIAN_POINT ('', (-130., 133., -6.));
#624 = CARTESIAN_POINT ('', (-130., 132., -4.5));
#625 = CARTESIAN_POINT ('', (-130., 132., -6.));
#626 = (
   BOUNDED_SURFACE ()
   B_SPLINE_SURFACE (2, 1, ((#616, #617), (#618, #619), (#620, #621), (#622, #623), (#624, #625)), .UNSPECIFIED., .F., .F., .U.)
   B_SPLINE_SURFACE_WITH_KNOTS ((3, 2, 3), (2, 2), (0.5, 0.75, 1.), (0., 1.), .UNSPECIFIED.)
   GEOMETRIC_REPRESENTATION_ITEM ()
   RATIONAL_B_SPLINE_SURFACE (((1., 1.), (0.707106781186548, 0.707106781186548), (1., 1.), (0.707106781186548, 0.707106781186548), (1., 1.)))
   REPRESENTATION_ITEM ('')
   SURFACE ()
);
#627 = ADVANCED_FACE ('', (#615), #626, .T.);
#628 = CLOSED_SHELL ('', (#131, #255, #292, #329, #360, #391, #413, #438, #460, #485, #507, #532, #577, #591, #609, #627));
#629 = MANIFOLD_SOLID_BREP ('', #628);
#630 = PRESENTATION_LAYER_ASSIGNMENT ('Level 11', 'Level 11', (#629));
#631 = COLOUR_RGB ('', 0.482352941176471, 0.337254901960784, 0.529411764705882);
#632 = FILL_AREA_STYLE_COLOUR ('', #631);
#633 = FILL_AREA_STYLE ('', (#632));
#634 = SURFACE_STYLE_FILL_AREA (#633);
#635 = SURFACE_SIDE_STYLE ('', (#634));
#636 = SURFACE_STYLE_USAGE (.POSITIVE., #635);
#637 = PRESENTATION_STYLE_ASSIGNMENT ((#636));
#638 = STYLED_ITEM ('', (#637), #629);
#639 = (
   LENGTH_UNIT ()
   NAMED_UNIT (*)
   SI_UNIT ($, .METRE.)
);
#640 = (
   NAMED_UNIT (*)
   SI_UNIT ($, .STERADIAN.)
   SOLID_ANGLE_UNIT ()
);
#641 = (
   NAMED_UNIT (*)
   PLANE_ANGLE_UNIT ()
   SI_UNIT ($, .RADIAN.)
);
#642 = UNCERTAINTY_MEASURE_WITH_UNIT (LENGTH_MEASURE(0.001), #639, 'DISTANCE_ACCURACY_VALUE', '');
#643 = (
   GEOMETRIC_REPRESENTATION_CONTEXT (3)
   GLOBAL_UNCERTAINTY_ASSIGNED_CONTEXT ((#642))
   GLOBAL_UNIT_ASSIGNED_CONTEXT ((#639, #640, #641))
   REPRESENTATION_CONTEXT ('', '3D')
);
#644 = SHAPE_REPRESENTATION ('', (#772), #643);
#645 = APPLICATION_CONTEXT ('configuration controlled 3D designs of mechanical parts and assemblies');
#646 = APPLICATION_PROTOCOL_DEFINITION ('International Standard', 'config_control_design', 1997, #645);
#647 = MECHANICAL_CONTEXT ('', #645, 'mechanical');
#648 = PRODUCT ('', '', '', (#647));
#649 = PERSON_AND_ORGANIZATION_ROLE ('design_owner');
#650 = PERSON ('#650', '', $, $, $, $);
#651 = ORGANIZATION ($, '', '');
#652 = PERSON_AND_ORGANIZATION (#650, #651);
#653 = CC_DESIGN_PERSON_AND_ORGANIZATION_ASSIGNMENT (#652, #649, (#648));
#654 = PRODUCT_RELATED_PRODUCT_CATEGORY ('detail', $, (#648));
#655 = PRODUCT_DEFINITION_FORMATION_WITH_SPECIFIED_SOURCE ('', '', #648, .NOT_KNOWN.);
#656 = APPROVAL_STATUS ('approved');
#657 = APPROVAL (#656, '');
#658 = CALENDAR_DATE (2026, 1, 10);
#659 = COORDINATED_UNIVERSAL_TIME_OFFSET (0, $, .AHEAD.);
#660 = LOCAL_TIME (4, 13, 9., #659);
#661 = DATE_AND_TIME (#658, #660);
#662 = APPROVAL_DATE_TIME (#661, #657);
#663 = APPROVAL_ROLE ('');
#664 = PERSON ('#664', '', $, $, $, $);
#665 = ORGANIZATION ($, '', '');
#666 = PERSON_AND_ORGANIZATION (#664, #665);
#667 = APPROVAL_PERSON_ORGANIZATION (#666, #657, #663);
#668 = CC_DESIGN_APPROVAL (#657, (#655));
#669 = PERSON_AND_ORGANIZATION_ROLE ('creator');
#670 = PERSON ('#670', '', $, $, $, $);
#671 = ORGANIZATION ($, '', '');
#672 = PERSON_AND_ORGANIZATION (#670, #671);
#673 = CC_DESIGN_PERSON_AND_ORGANIZATION_ASSIGNMENT (#672, #669, (#655));
#674 = PERSON_AND_ORGANIZATION_ROLE ('part_supplier');
#675 = PERSON ('#675', '', $, $, $, $);
#676 = ORGANIZATION ($, '', '');
#677 = PERSON_AND_ORGANIZATION (#675, #676);
#678 = CC_DESIGN_PERSON_AND_ORGANIZATION_ASSIGNMENT (#677, #674, (#655));
#679 = SECURITY_CLASSIFICATION_LEVEL ('unclassified');
#680 = SECURITY_CLASSIFICATION ('', '', #679);
#681 = APPROVAL_STATUS ('approved');
#682 = APPROVAL (#681, '');
#683 = CALENDAR_DATE (2026, 1, 10);
#684 = COORDINATED_UNIVERSAL_TIME_OFFSET (0, $, .AHEAD.);
#685 = LOCAL_TIME (4, 13, 9., #684);
#686 = DATE_AND_TIME (#683, #685);
#687 = APPROVAL_DATE_TIME (#686, #682);
#688 = APPROVAL_ROLE ('');
#689 = PERSON ('#689', '', $, $, $, $);
#690 = ORGANIZATION ($, '', '');
#691 = PERSON_AND_ORGANIZATION (#689, #690);
#692 = APPROVAL_PERSON_ORGANIZATION (#691, #682, #688);
#693 = CC_DESIGN_APPROVAL (#682, (#680));
#694 = DATE_TIME_ROLE ('classification_date');
#695 = CALENDAR_DATE (2026, 1, 10);
#696 = COORDINATED_UNIVERSAL_TIME_OFFSET (0, $, .AHEAD.);
#697 = LOCAL_TIME (4, 13, 9., #696);
#698 = DATE_AND_TIME (#695, #697);
#699 = CC_DESIGN_DATE_AND_TIME_ASSIGNMENT (#698, #694, (#680));
#700 = PERSON_AND_ORGANIZATION_ROLE ('classification_officer');
#701 = PERSON ('#701', '', $, $, $, $);
#702 = ORGANIZATION ($, '', '');
#703 = PERSON_AND_ORGANIZATION (#701, #702);
#704 = CC_DESIGN_PERSON_AND_ORGANIZATION_ASSIGNMENT (#703, #700, (#680));
#705 = CC_DESIGN_SECURITY_CLASSIFICATION (#680, (#655));
#706 = DESIGN_CONTEXT ('', #645, 'design');
#707 = APPROVAL_STATUS ('approved');
#708 = APPROVAL (#707, '');
#709 = CALENDAR_DATE (2026, 1, 10);
#710 = COORDINATED_UNIVERSAL_TIME_OFFSET (0, $, .AHEAD.);
#711 = LOCAL_TIME (4, 13, 9., #710);
#712 = DATE_AND_TIME (#709, #711);
#713 = APPROVAL_DATE_TIME (#712, #708);
#714 = APPROVAL_ROLE ('');
#715 = PERSON ('#715', '', $, $, $, $);
#716 = ORGANIZATION ($, '', '');
#717 = PERSON_AND_ORGANIZATION (#715, #716);
#718 = APPROVAL_PERSON_ORGANIZATION (#717, #708, #714);
#719 = CC_DESIGN_APPROVAL (#708, (*));
#720 = DATE_TIME_ROLE ('creation_date');
#721 = CALENDAR_DATE (2026, 1, 10);
#722 = COORDINATED_UNIVERSAL_TIME_OFFSET (0, $, .AHEAD.);
#723 = LOCAL_TIME (4, 13, 9., #722);
#724 = DATE_AND_TIME (#721, #723);
#725 = CC_DESIGN_DATE_AND_TIME_ASSIGNMENT (#724, #720, (*));
#726 = PERSON_AND_ORGANIZATION_ROLE ('creator');
#727 = PERSON ('#727', '', $, $, $, $);
#728 = ORGANIZATION ($, '', '');
#729 = PERSON_AND_ORGANIZATION (#727, #728);
#730 = CC_DESIGN_PERSON_AND_ORGANIZATION_ASSIGNMENT (#729, #726, (*));
#731 = PRODUCT_DEFINITION ('', '', #655, #706);
#732 = PRODUCT_DEFINITION_SHAPE ('', '', #731);
#733 = SHAPE_DEFINITION_REPRESENTATION (#732, #644);
#734 = SHAPE_REPRESENTATION_RELATIONSHIP ('', '', #644, #735);
#735 = ADVANCED_BREP_SHAPE_REPRESENTATION ('', (#629), #643);
#736 = NEXT_ASSEMBLY_USAGE_OCCURRENCE ('#736', '', '', #93, #731, $);
#737 = SECURITY_CLASSIFICATION_LEVEL ('unclassified');
#738 = SECURITY_CLASSIFICATION ('', '', #737);
#739 = APPROVAL_STATUS ('approved');
#740 = APPROVAL (#739, '');
#741 = CALENDAR_DATE (2026, 1, 10);
#742 = COORDINATED_UNIVERSAL_TIME_OFFSET (0, $, .AHEAD.);
#743 = LOCAL_TIME (4, 13, 9., #742);
#744 = DATE_AND_TIME (#741, #743);
#745 = APPROVAL_DATE_TIME (#744, #740);
#746 = APPROVAL_ROLE ('');
#747 = PERSON ('#747', '', $, $, $, $);
#748 = ORGANIZATION ($, '', '');
#749 = PERSON_AND_ORGANIZATION (#747, #748);
#750 = APPROVAL_PERSON_ORGANIZATION (#749, #740, #746);
#751 = CC_DESIGN_APPROVAL (#740, (#738));
#752 = DATE_TIME_ROLE ('classification_date');
#753 = CALENDAR_DATE (2026, 1, 10);
#754 = COORDINATED_UNIVERSAL_TIME_OFFSET (0, $, .AHEAD.);
#755 = LOCAL_TIME (4, 13, 9., #754);
#756 = DATE_AND_TIME (#753, #755);
#757 = CC_DESIGN_DATE_AND_TIME_ASSIGNMENT (#756, #752, (#738));
#758 = PERSON_AND_ORGANIZATION_ROLE ('classification_officer');
#759 = PERSON ('#759', '', $, $, $, $);
#760 = ORGANIZATION ($, '', '');
#761 = PERSON_AND_ORGANIZATION (#759, #760);
#762 = CC_DESIGN_PERSON_AND_ORGANIZATION_ASSIGNMENT (#761, #758, (#738));
#763 = CC_DESIGN_SECURITY_CLASSIFICATION (#738, (#736));
#764 = PRODUCT_DEFINITION_SHAPE ('', '', #736);
#765 = CARTESIAN_POINT ('', (0., 0., 0.));
#766 = DIRECTION ('', (0., 0., 1.));
#767 = DIRECTION ('', (1., 0., 0.));
#768 = AXIS2_PLACEMENT_3D ('', #765, #766, #767);
#769 = CARTESIAN_POINT ('', (0., 0., 0.));
#770 = DIRECTION ('', (0., 0., 1.));
#771 = DIRECTION ('', (1., 0., 0.));
#772 = AXIS2_PLACEMENT_3D ('', #769, #770, #771);
#773 = ITEM_DEFINED_TRANSFORMATION ('', '', #768, #772);
#774 = (
   REPRESENTATION_RELATIONSHIP ('', '', #6, #644)
   REPRESENTATION_RELATIONSHIP_WITH_TRANSFORMATION (#773)
   SHAPE_REPRESENTATION_RELATIONSHIP ()
);
#775 = CONTEXT_DEPENDENT_SHAPE_REPRESENTATION (#774, #764);
ENDSEC;
END-ISO-10303-21;
