ISO-10303-21;
HEADER;
FILE_DESCRIPTION (('STEP'), '1');
FILE_NAME ('yuwolCaseWirelessBatteryCoverR.stp', '2026-10-01T04:13:16', ('Unknown'), ('Unknown'), 'HarmonyWare STEP v2.1.9', 'HarmonyWare Translators', '');
FILE_SCHEMA (('CONFIG_CONTROL_DESIGN'));
ENDSEC;

DATA;
#1 = (
   LENGTH_UNIT ()
   NAMED_UNIT (*)
   SI_UNIT ($, .METRE.)
);
#2 = (
   NAMED_UNIT (*)
   SI_UNIT ($, .STERADIAN.)
   SOLID_ANGLE_UNIT ()
);
#3 = (
   NAMED_UNIT (*)
   PLANE_ANGLE_UNIT ()
   SI_UNIT ($, .RADIAN.)
);
#4 = UNCERTAINTY_MEASURE_WITH_UNIT (LENGTH_MEASURE(0.001), #1, 'DISTANCE_ACCURACY_VALUE', '');
#5 = (
   GEOMETRIC_REPRESENTATION_CONTEXT (3)
   GLOBAL_UNCERTAINTY_ASSIGNED_CONTEXT ((#4))
   GLOBAL_UNIT_ASSIGNED_CONTEXT ((#1, #2, #3))
   REPRESENTATION_CONTEXT ('', '3D')
);
#6 = SHAPE_REPRESENTATION ('', (#768), #5);
#7 = APPLICATION_CONTEXT ('configuration controlled 3D designs of mechanical parts and assemblies');
#8 = APPLICATION_PROTOCOL_DEFINITION ('International Standard', 'config_control_design', 1997, #7);
#9 = MECHANICAL_CONTEXT ('', #7, 'mechanical');
#10 = PRODUCT ('', '', '', (#9));
#11 = PERSON_AND_ORGANIZATION_ROLE ('design_owner');
#12 = PERSON ('#12', '', $, $, $, $);
#13 = ORGANIZATION ($, '', '');
#14 = PERSON_AND_ORGANIZATION (#12, #13);
#15 = CC_DESIGN_PERSON_AND_ORGANIZATION_ASSIGNMENT (#14, #11, (#10));
#16 = PRODUCT_RELATED_PRODUCT_CATEGORY ('detail', $, (#10));
#17 = PRODUCT_DEFINITION_FORMATION_WITH_SPECIFIED_SOURCE ('', '', #10, .NOT_KNOWN.);
#18 = APPROVAL_STATUS ('approved');
#19 = APPROVAL (#18, '');
#20 = CALENDAR_DATE (2026, 1, 10);
#21 = COORDINATED_UNIVERSAL_TIME_OFFSET (0, $, .AHEAD.);
#22 = LOCAL_TIME (4, 13, 16., #21);
#23 = DATE_AND_TIME (#20, #22);
#24 = APPROVAL_DATE_TIME (#23, #19);
#25 = APPROVAL_ROLE ('');
#26 = PERSON ('#26', '', $, $, $, $);
#27 = ORGANIZATION ($, '', '');
#28 = PERSON_AND_ORGANIZATION (#26, #27);
#29 = APPROVAL_PERSON_ORGANIZATION (#28, #19, #25);
#30 = CC_DESIGN_APPROVAL (#19, (#17));
#31 = PERSON_AND_ORGANIZATION_ROLE ('creator');
#32 = PERSON ('#32', '', $, $, $, $);
#33 = ORGANIZATION ($, '', '');
#34 = PERSON_AND_ORGANIZATION (#32, #33);
#35 = CC_DESIGN_PERSON_AND_ORGANIZATION_ASSIGNMENT (#34, #31, (#17));
#36 = PERSON_AND_ORGANIZATION_ROLE ('part_supplier');
#37 = PERSON ('#37', '', $, $, $, $);
#38 = ORGANIZATION ($, '', '');
#39 = PERSON_AND_ORGANIZATION (#37, #38);
#40 = CC_DESIGN_PERSON_AND_ORGANIZATION_ASSIGNMENT (#39, #36, (#17));
#41 = SECURITY_CLASSIFICATION_LEVEL ('unclassified');
#42 = SECURITY_CLASSIFICATION ('', '', #41);
#43 = APPROVAL_STATUS ('approved');
#44 = APPROVAL (#43, '');
#45 = CALENDAR_DATE (2026, 1, 10);
#46 = COORDINATED_UNIVERSAL_TIME_OFFSET (0, $, .AHEAD.);
#47 = LOCAL_TIME (4, 13, 16., #46);
#48 = DATE_AND_TIME (#45, #47);
#49 = APPROVAL_DATE_TIME (#48, #44);
#50 = APPROVAL_ROLE ('');
#51 = PERSON ('#51', '', $, $, $, $);
#52 = ORGANIZATION ($, '', '');
#53 = PERSON_AND_ORGANIZATION (#51, #52);
#54 = APPROVAL_PERSON_ORGANIZATION (#53, #44, #50);
#55 = CC_DESIGN_APPROVAL (#44, (#42));
#56 = DATE_TIME_ROLE ('classification_date');
#57 = CALENDAR_DATE (2026, 1, 10);
#58 = COORDINATED_UNIVERSAL_TIME_OFFSET (0, $, .AHEAD.);
#59 = LOCAL_TIME (4, 13, 16., #58);
#60 = DATE_AND_TIME (#57, #59);
#61 = CC_DESIGN_DATE_AND_TIME_ASSIGNMENT (#60, #56, (#42));
#62 = PERSON_AND_ORGANIZATION_ROLE ('classification_officer');
#63 = PERSON ('#63', '', $, $, $, $);
#64 = ORGANIZATION ($, '', '');
#65 = PERSON_AND_ORGANIZATION (#63, #64);
#66 = CC_DESIGN_PERSON_AND_ORGANIZATION_ASSIGNMENT (#65, #62, (#42));
#67 = CC_DESIGN_SECURITY_CLASSIFICATION (#42, (#17));
#68 = DESIGN_CONTEXT ('', #7, 'design');
#69 = APPROVAL_STATUS ('approved');
#70 = APPROVAL (#69, '');
#71 = CALENDAR_DATE (2026, 1, 10);
#72 = COORDINATED_UNIVERSAL_TIME_OFFSET (0, $, .AHEAD.);
#73 = LOCAL_TIME (4, 13, 16., #72);
#74 = DATE_AND_TIME (#71, #73);
#75 = APPROVAL_DATE_TIME (#74, #70);
#76 = APPROVAL_ROLE ('');
#77 = PERSON ('#77', '', $, $, $, $);
#78 = ORGANIZATION ($, '', '');
#79 = PERSON_AND_ORGANIZATION (#77, #78);
#80 = APPROVAL_PERSON_ORGANIZATION (#79, #70, #76);
#81 = CC_DESIGN_APPROVAL (#70, (*));
#82 = DATE_TIME_ROLE ('creation_date');
#83 = CALENDAR_DATE (2026, 1, 10);
#84 = COORDINATED_UNIVERSAL_TIME_OFFSET (0, $, .AHEAD.);
#85 = LOCAL_TIME (4, 13, 16., #84);
#86 = DATE_AND_TIME (#83, #85);
#87 = CC_DESIGN_DATE_AND_TIME_ASSIGNMENT (#86, #82, (*));
#88 = PERSON_AND_ORGANIZATION_ROLE ('creator');
#89 = PERSON ('#89', '', $, $, $, $);
#90 = ORGANIZATION ($, '', '');
#91 = PERSON_AND_ORGANIZATION (#89, #90);
#92 = CC_DESIGN_PERSON_AND_ORGANIZATION_ASSIGNMENT (#91, #88, (*));
#93 = PRODUCT_DEFINITION ('', '', #17, #68);
#94 = PRODUCT_DEFINITION_SHAPE ('', '', #93);
#95 = SHAPE_DEFINITION_REPRESENTATION (#94, #6);
#96 = CARTESIAN_POINT ('', (128., 132., -4.5));
#97 = VERTEX_POINT ('', #96);
#98 = CARTESIAN_POINT ('', (128., 132., -6.));
#99 = VERTEX_POINT ('', #98);
#100 = CARTESIAN_POINT ('', (128., 132., -4.5));
#101 = CARTESIAN_POINT ('', (128., 132., -6.));
#102 = B_SPLINE_CURVE_WITH_KNOTS ('', 1, (#100, #101), .UNSPECIFIED., .F., .U., (2, 2), (0., 1.), .UNSPECIFIED.);
#103 = EDGE_CURVE ('', #97, #99, #102, .T.);
#104 = ORIENTED_EDGE ('', *, *, #103, .T.);
#105 = CARTESIAN_POINT ('', (130., 132., -6.));
#106 = VERTEX_POINT ('', #105);
#107 = CARTESIAN_POINT ('', (128., 132., -6.));
#108 = CARTESIAN_POINT ('', (128., 133., -6.));
#109 = CARTESIAN_POINT ('', (129., 133., -6.));
#110 = CARTESIAN_POINT ('', (130., 133., -6.));
#111 = CARTESIAN_POINT ('', (130., 132., -6.));
#112 = (
   BOUNDED_CURVE ()
   B_SPLINE_CURVE (2, (#107, #108, #109, #110, #111), .UNSPECIFIED., .F., .U.)
   B_SPLINE_CURVE_WITH_KNOTS ((3, 2, 3), (0.5, 0.75, 1.), .UNSPECIFIED.)
   CURVE ()
   GEOMETRIC_REPRESENTATION_ITEM ()
   RATIONAL_B_SPLINE_CURVE ((1., 0.707106781186548, 1., 0.707106781186548, 1.))
   REPRESENTATION_ITEM ('')
);
#113 = EDGE_CURVE ('', #99, #106, #112, .T.);
#114 = ORIENTED_EDGE ('', *, *, #113, .T.);
#115 = CARTESIAN_POINT ('', (130., 132., -4.5));
#116 = VERTEX_POINT ('', #115);
#117 = CARTESIAN_POINT ('', (130., 132., -4.5));
#118 = CARTESIAN_POINT ('', (130., 132., -6.));
#119 = B_SPLINE_CURVE_WITH_KNOTS ('', 1, (#117, #118), .UNSPECIFIED., .F., .U., (2, 2), (0., 1.), .UNSPECIFIED.);
#120 = EDGE_CURVE ('', #116, #106, #119, .T.);
#121 = ORIENTED_EDGE ('', *, *, #120, .F.);
#122 = CARTESIAN_POINT ('', (128., 132., -4.5));
#123 = CARTESIAN_POINT ('', (128., 133., -4.5));
#124 = CARTESIAN_POINT ('', (129., 133., -4.5));
#125 = CARTESIAN_POINT ('', (130., 133., -4.5));
#126 = CARTESIAN_POINT ('', (130., 132., -4.5));
#127 = (
   BOUNDED_CURVE ()
   B_SPLINE_CURVE (2, (#122, #123, #124, #125, #126), .UNSPECIFIED., .F., .U.)
   B_SPLINE_CURVE_WITH_KNOTS ((3, 2, 3), (0.5, 0.75, 1.), .UNSPECIFIED.)
   CURVE ()
   GEOMETRIC_REPRESENTATION_ITEM ()
   RATIONAL_B_SPLINE_CURVE ((1., 0.707106781186548, 1., 0.707106781186548, 1.))
   REPRESENTATION_ITEM ('')
);
#128 = EDGE_CURVE ('', #97, #116, #127, .T.);
#129 = ORIENTED_EDGE ('', *, *, #128, .F.);
#130 = EDGE_LOOP ('', (#104, #114, #121, #129));
#131 = FACE_OUTER_BOUND ('', #130, .T.);
#132 = CARTESIAN_POINT ('', (128., 132., -4.5));
#133 = CARTESIAN_POINT ('', (128., 133., -4.5));
#134 = CARTESIAN_POINT ('', (129., 133., -4.5));
#135 = CARTESIAN_POINT ('', (130., 133., -4.5));
#136 = CARTESIAN_POINT ('', (130., 132., -4.5));
#137 = CARTESIAN_POINT ('', (128., 132., -6.));
#138 = CARTESIAN_POINT ('', (128., 133., -6.));
#139 = CARTESIAN_POINT ('', (129., 133., -6.));
#140 = CARTESIAN_POINT ('', (130., 133., -6.));
#141 = CARTESIAN_POINT ('', (130., 132., -6.));
#142 = (
   BOUNDED_SURFACE ()
   B_SPLINE_SURFACE (1, 2, ((#132, #133, #134, #135, #136), (#137, #138, #139, #140, #141)), .UNSPECIFIED., .F., .F., .U.)
   B_SPLINE_SURFACE_WITH_KNOTS ((2, 2), (3, 2, 3), (0., 1.), (0.5, 0.75, 1.), .UNSPECIFIED.)
   GEOMETRIC_REPRESENTATION_ITEM ()
   RATIONAL_B_SPLINE_SURFACE (((1., 0.707106781186548, 1., 0.707106781186548, 1.), (1., 0.707106781186548, 1., 0.707106781186548, 1.)))
   REPRESENTATION_ITEM ('')
   SURFACE ()
);
#143 = ADVANCED_FACE ('', (#131), #142, .T.);
#144 = CARTESIAN_POINT ('', (71., 105.5, -4.5));
#145 = VERTEX_POINT ('', #144);
#146 = CARTESIAN_POINT ('', (73.5000000000003, 108., -4.5));
#147 = VERTEX_POINT ('', #146);
#148 = CARTESIAN_POINT ('', (71., 105.5, -4.5));
#149 = CARTESIAN_POINT ('', (73.4999999999998, 105.5, -4.5));
#150 = CARTESIAN_POINT ('', (73.5000000000003, 108., -4.5));
#151 = (
   BOUNDED_CURVE ()
   B_SPLINE_CURVE (2, (#148, #149, #150), .UNSPECIFIED., .F., .U.)
   B_SPLINE_CURVE_WITH_KNOTS ((3, 3), (259.5, 260.5), .UNSPECIFIED.)
   CURVE ()
   GEOMETRIC_REPRESENTATION_ITEM ()
   RATIONAL_B_SPLINE_CURVE ((1., 0.707106781186648, 1.))
   REPRESENTATION_ITEM ('')
);
#152 = EDGE_CURVE ('', #145, #147, #151, .T.);
#153 = ORIENTED_EDGE ('', *, *, #152, .F.);
#154 = CARTESIAN_POINT ('', (71., 98.5, -4.5));
#155 = VERTEX_POINT ('', #154);
#156 = CARTESIAN_POINT ('', (71., 98.5, -4.5));
#157 = CARTESIAN_POINT ('', (67.5, 98.5000000000001, -4.5));
#158 = CARTESIAN_POINT ('', (67.5, 102., -4.5));
#159 = CARTESIAN_POINT ('', (67.5, 105.5, -4.5));
#160 = CARTESIAN_POINT ('', (71., 105.5, -4.5));
#161 = (
   BOUNDED_CURVE ()
   B_SPLINE_CURVE (2, (#156, #157, #158, #159, #160), .UNSPECIFIED., .F., .U.)
   B_SPLINE_CURVE_WITH_KNOTS ((3, 2, 3), (424.5, 424.75, 425.), .UNSPECIFIED.)
   CURVE ()
   GEOMETRIC_REPRESENTATION_ITEM ()
   RATIONAL_B_SPLINE_CURVE ((1., 0.707106781186548, 1., 0.707106781186548, 1.))
   REPRESENTATION_ITEM ('')
);
#162 = EDGE_CURVE ('', #155, #145, #161, .T.);
#163 = ORIENTED_EDGE ('', *, *, #162, .F.);
#164 = CARTESIAN_POINT ('', (125., 98.5, -4.5));
#165 = VERTEX_POINT ('', #164);
#166 = CARTESIAN_POINT ('', (125., 98.5, -4.5));
#167 = CARTESIAN_POINT ('', (71., 98.5, -4.5));
#168 = B_SPLINE_CURVE_WITH_KNOTS ('', 1, (#166, #167), .UNSPECIFIED., .F., .U., (2, 2), (0., 1.), .UNSPECIFIED.);
#169 = EDGE_CURVE ('', #165, #155, #168, .T.);
#170 = ORIENTED_EDGE ('', *, *, #169, .F.);
#171 = CARTESIAN_POINT ('', (126.5, 99.9999999999999, -4.5));
#172 = VERTEX_POINT ('', #171);
#173 = CARTESIAN_POINT ('', (126.5, 99.9999999999999, -4.5));
#174 = CARTESIAN_POINT ('', (126.5, 98.5, -4.5));
#175 = CARTESIAN_POINT ('', (125., 98.5, -4.5));
#176 = (
   BOUNDED_CURVE ()
   B_SPLINE_CURVE (2, (#173, #174, #175), .UNSPECIFIED., .F., .U.)
   B_SPLINE_CURVE_WITH_KNOTS ((3, 3), (372.5, 373.5), .UNSPECIFIED.)
   CURVE ()
   GEOMETRIC_REPRESENTATION_ITEM ()
   RATIONAL_B_SPLINE_CURVE ((1., 0.707106781186563, 1.))
   REPRESENTATION_ITEM ('')
);
#177 = EDGE_CURVE ('', #172, #165, #176, .T.);
#178 = ORIENTED_EDGE ('', *, *, #177, .F.);
#179 = CARTESIAN_POINT ('', (126.5, 126., -4.5));
#180 = VERTEX_POINT ('', #179);
#181 = CARTESIAN_POINT ('', (126.5, 126., -4.5));
#182 = CARTESIAN_POINT ('', (126.5, 99.9999999999999, -4.5));
#183 = B_SPLINE_CURVE_WITH_KNOTS ('', 1, (#181, #182), .UNSPECIFIED., .F., .U., (2, 2), (346.5, 372.5), .UNSPECIFIED.);
#184 = EDGE_CURVE ('', #180, #172, #183, .T.);
#185 = ORIENTED_EDGE ('', *, *, #184, .F.);
#186 = CARTESIAN_POINT ('', (129., 128.5, -4.5));
#187 = VERTEX_POINT ('', #186);
#188 = CARTESIAN_POINT ('', (129., 128.5, -4.5));
#189 = CARTESIAN_POINT ('', (126.5, 128.5, -4.5));
#190 = CARTESIAN_POINT ('', (126.5, 126., -4.5));
#191 = (
   BOUNDED_CURVE ()
   B_SPLINE_CURVE (2, (#188, #189, #190), .UNSPECIFIED., .F., .U.)
   B_SPLINE_CURVE_WITH_KNOTS ((3, 3), (259.5, 260.5), .UNSPECIFIED.)
   CURVE ()
   GEOMETRIC_REPRESENTATION_ITEM ()
   RATIONAL_B_SPLINE_CURVE ((1., 0.707106781186648, 1.))
   REPRESENTATION_ITEM ('')
);
#192 = EDGE_CURVE ('', #187, #180, #191, .T.);
#193 = ORIENTED_EDGE ('', *, *, #192, .F.);
#194 = CARTESIAN_POINT ('', (129., 135.5, -4.5));
#195 = VERTEX_POINT ('', #194);
#196 = CARTESIAN_POINT ('', (129., 135.5, -4.5));
#197 = CARTESIAN_POINT ('', (132.5, 135.5, -4.5));
#198 = CARTESIAN_POINT ('', (132.5, 132., -4.5));
#199 = CARTESIAN_POINT ('', (132.5, 128.5, -4.5));
#200 = CARTESIAN_POINT ('', (129., 128.5, -4.5));
#201 = (
   BOUNDED_CURVE ()
   B_SPLINE_CURVE (2, (#196, #197, #198, #199, #200), .UNSPECIFIED., .F., .U.)
   B_SPLINE_CURVE_WITH_KNOTS ((3, 2, 3), (424.5, 424.75, 425.), .UNSPECIFIED.)
   CURVE ()
   GEOMETRIC_REPRESENTATION_ITEM ()
   RATIONAL_B_SPLINE_CURVE ((1., 0.707106781186548, 1., 0.707106781186548, 1.))
   REPRESENTATION_ITEM ('')
);
#202 = EDGE_CURVE ('', #195, #187, #201, .T.);
#203 = ORIENTED_EDGE ('', *, *, #202, .F.);
#204 = CARTESIAN_POINT ('', (75.0000000000001, 135.5, -4.5));
#205 = VERTEX_POINT ('', #204);
#206 = CARTESIAN_POINT ('', (75.0000000000001, 135.5, -4.5));
#207 = CARTESIAN_POINT ('', (129., 135.5, -4.5));
#208 = B_SPLINE_CURVE_WITH_KNOTS ('', 1, (#206, #207), .UNSPECIFIED., .F., .U., (2, 2), (0., 1.), .UNSPECIFIED.);
#209 = EDGE_CURVE ('', #205, #195, #208, .T.);
#210 = ORIENTED_EDGE ('', *, *, #209, .F.);
#211 = CARTESIAN_POINT ('', (73.4999999999999, 134., -4.5));
#212 = VERTEX_POINT ('', #211);
#213 = CARTESIAN_POINT ('', (73.4999999999999, 134., -4.5));
#214 = CARTESIAN_POINT ('', (73.4999999999999, 135.5, -4.5));
#215 = CARTESIAN_POINT ('', (75.0000000000001, 135.5, -4.5));
#216 = (
   BOUNDED_CURVE ()
   B_SPLINE_CURVE (2, (#213, #214, #215), .UNSPECIFIED., .F., .U.)
   B_SPLINE_CURVE_WITH_KNOTS ((3, 3), (286.5, 287.5), .UNSPECIFIED.)
   CURVE ()
   GEOMETRIC_REPRESENTATION_ITEM ()
   RATIONAL_B_SPLINE_CURVE ((1., 0.707106781186447, 1.))
   REPRESENTATION_ITEM ('')
);
#217 = EDGE_CURVE ('', #212, #205, #216, .T.);
#218 = ORIENTED_EDGE ('', *, *, #217, .F.);
#219 = CARTESIAN_POINT ('', (73.5000000000003, 108., -4.5));
#220 = CARTESIAN_POINT ('', (73.4999999999999, 134., -4.5));
#221 = B_SPLINE_CURVE_WITH_KNOTS ('', 1, (#219, #220), .UNSPECIFIED., .F., .U., (2, 2), (260.5, 286.5), .UNSPECIFIED.);
#222 = EDGE_CURVE ('', #147, #212, #221, .T.);
#223 = ORIENTED_EDGE ('', *, *, #222, .F.);
#224 = EDGE_LOOP ('', (#153, #163, #170, #178, #185, #193, #203, #210, #218, #223));
#225 = FACE_OUTER_BOUND ('', #224, .T.);
#226 = CARTESIAN_POINT ('', (130., 132., -4.5));
#227 = CARTESIAN_POINT ('', (130., 131., -4.5));
#228 = CARTESIAN_POINT ('', (129., 131., -4.5));
#229 = CARTESIAN_POINT ('', (128., 131., -4.5));
#230 = CARTESIAN_POINT ('', (128., 132., -4.5));
#231 = (
   BOUNDED_CURVE ()
   B_SPLINE_CURVE (2, (#226, #227, #228, #229, #230), .UNSPECIFIED., .F., .U.)
   B_SPLINE_CURVE_WITH_KNOTS ((3, 2, 3), (0., 0.25, 0.5), .UNSPECIFIED.)
   CURVE ()
   GEOMETRIC_REPRESENTATION_ITEM ()
   RATIONAL_B_SPLINE_CURVE ((1., 0.707106781186548, 1., 0.707106781186548, 1.))
   REPRESENTATION_ITEM ('')
);
#232 = EDGE_CURVE ('', #116, #97, #231, .T.);
#233 = ORIENTED_EDGE ('', *, *, #232, .T.);
#234 = ORIENTED_EDGE ('', *, *, #128, .T.);
#235 = EDGE_LOOP ('', (#233, #234));
#236 = FACE_BOUND ('', #235, .T.);
#237 = CARTESIAN_POINT ('', (70., 102., -4.5));
#238 = VERTEX_POINT ('', #237);
#239 = CARTESIAN_POINT ('', (72., 102., -4.5));
#240 = VERTEX_POINT ('', #239);
#241 = CARTESIAN_POINT ('', (70., 102., -4.5));
#242 = CARTESIAN_POINT ('', (70., 103., -4.5));
#243 = CARTESIAN_POINT ('', (71., 103., -4.5));
#244 = CARTESIAN_POINT ('', (72., 103., -4.5));
#245 = CARTESIAN_POINT ('', (72., 102., -4.5));
#246 = (
   BOUNDED_CURVE ()
   B_SPLINE_CURVE (2, (#241, #242, #243, #244, #245), .UNSPECIFIED., .F., .U.)
   B_SPLINE_CURVE_WITH_KNOTS ((3, 2, 3), (0., 0.25, 0.5), .UNSPECIFIED.)
   CURVE ()
   GEOMETRIC_REPRESENTATION_ITEM ()
   RATIONAL_B_SPLINE_CURVE ((1., 0.707106781186548, 1., 0.707106781186548, 1.))
   REPRESENTATION_ITEM ('')
);
#247 = EDGE_CURVE ('', #238, #240, #246, .T.);
#248 = ORIENTED_EDGE ('', *, *, #247, .T.);
#249 = CARTESIAN_POINT ('', (72., 102., -4.5));
#250 = CARTESIAN_POINT ('', (72., 101., -4.5));
#251 = CARTESIAN_POINT ('', (71., 101., -4.5));
#252 = CARTESIAN_POINT ('', (70., 101., -4.5));
#253 = CARTESIAN_POINT ('', (70., 102., -4.5));
#254 = (
   BOUNDED_CURVE ()
   B_SPLINE_CURVE (2, (#249, #250, #251, #252, #253), .UNSPECIFIED., .F., .U.)
   B_SPLINE_CURVE_WITH_KNOTS ((3, 2, 3), (0.5, 0.75, 1.), .UNSPECIFIED.)
   CURVE ()
   GEOMETRIC_REPRESENTATION_ITEM ()
   RATIONAL_B_SPLINE_CURVE ((1., 0.707106781186548, 1., 0.707106781186548, 1.))
   REPRESENTATION_ITEM ('')
);
#255 = EDGE_CURVE ('', #240, #238, #254, .T.);
#256 = ORIENTED_EDGE ('', *, *, #255, .T.);
#257 = EDGE_LOOP ('', (#248, #256));
#258 = FACE_BOUND ('', #257, .T.);
#259 = CARTESIAN_POINT ('', (132.5, 135.5, -4.5));
#260 = CARTESIAN_POINT ('', (132.5, 98.5, -4.5));
#261 = CARTESIAN_POINT ('', (67.5, 135.5, -4.5));
#262 = CARTESIAN_POINT ('', (67.5, 98.5, -4.5));
#263 = B_SPLINE_SURFACE_WITH_KNOTS ('', 1, 1, ((#259, #260), (#261, #262)), .UNSPECIFIED., .F., .F., .U., (2, 2), (2, 2), (0.338887196941339, 0.78333748560946), (0.39991168341995, 0.652906463123342), .UNSPECIFIED.);
#264 = ADVANCED_FACE ('', (#225, #236, #258), #263, .T.);
#265 = CARTESIAN_POINT ('', (72., 102., -6.));
#266 = VERTEX_POINT ('', #265);
#267 = CARTESIAN_POINT ('', (72., 102., -4.5));
#268 = CARTESIAN_POINT ('', (72., 102., -6.));
#269 = B_SPLINE_CURVE_WITH_KNOTS ('', 1, (#267, #268), .UNSPECIFIED., .F., .U., (2, 2), (0., 1.), .UNSPECIFIED.);
#270 = EDGE_CURVE ('', #240, #266, #269, .T.);
#271 = ORIENTED_EDGE ('', *, *, #270, .T.);
#272 = CARTESIAN_POINT ('', (70., 102., -6.));
#273 = VERTEX_POINT ('', #272);
#274 = CARTESIAN_POINT ('', (72., 102., -6.));
#275 = CARTESIAN_POINT ('', (72., 101., -6.));
#276 = CARTESIAN_POINT ('', (71., 101., -6.));
#277 = CARTESIAN_POINT ('', (70., 101., -6.));
#278 = CARTESIAN_POINT ('', (70., 102., -6.));
#279 = (
   BOUNDED_CURVE ()
   B_SPLINE_CURVE (2, (#274, #275, #276, #277, #278), .UNSPECIFIED., .F., .U.)
   B_SPLINE_CURVE_WITH_KNOTS ((3, 2, 3), (0.5, 0.75, 1.), .UNSPECIFIED.)
   CURVE ()
   GEOMETRIC_REPRESENTATION_ITEM ()
   RATIONAL_B_SPLINE_CURVE ((1., 0.707106781186548, 1., 0.707106781186548, 1.))
   REPRESENTATION_ITEM ('')
);
#280 = EDGE_CURVE ('', #266, #273, #279, .T.);
#281 = ORIENTED_EDGE ('', *, *, #280, .T.);
#282 = CARTESIAN_POINT ('', (70., 102., -4.5));
#283 = CARTESIAN_POINT ('', (70., 102., -6.));
#284 = B_SPLINE_CURVE_WITH_KNOTS ('', 1, (#282, #283), .UNSPECIFIED., .F., .U., (2, 2), (0., 1.), .UNSPECIFIED.);
#285 = EDGE_CURVE ('', #238, #273, #284, .T.);
#286 = ORIENTED_EDGE ('', *, *, #285, .F.);
#287 = ORIENTED_EDGE ('', *, *, #255, .F.);
#288 = EDGE_LOOP ('', (#271, #281, #286, #287));
#289 = FACE_OUTER_BOUND ('', #288, .T.);
#290 = CARTESIAN_POINT ('', (72., 102., -4.5));
#291 = CARTESIAN_POINT ('', (72., 101., -4.5));
#292 = CARTESIAN_POINT ('', (71., 101., -4.5));
#293 = CARTESIAN_POINT ('', (70., 101., -4.5));
#294 = CARTESIAN_POINT ('', (70., 102., -4.5));
#295 = CARTESIAN_POINT ('', (72., 102., -6.));
#296 = CARTESIAN_POINT ('', (72., 101., -6.));
#297 = CARTESIAN_POINT ('', (71., 101., -6.));
#298 = CARTESIAN_POINT ('', (70., 101., -6.));
#299 = CARTESIAN_POINT ('', (70., 102., -6.));
#300 = (
   BOUNDED_SURFACE ()
   B_SPLINE_SURFACE (1, 2, ((#290, #291, #292, #293, #294), (#295, #296, #297, #298, #299)), .UNSPECIFIED., .F., .F., .U.)
   B_SPLINE_SURFACE_WITH_KNOTS ((2, 2), (3, 2, 3), (0., 1.), (0.5, 0.75, 1.), .UNSPECIFIED.)
   GEOMETRIC_REPRESENTATION_ITEM ()
   RATIONAL_B_SPLINE_SURFACE (((1., 0.707106781186548, 1., 0.707106781186548, 1.), (1., 0.707106781186548, 1., 0.707106781186548, 1.)))
   REPRESENTATION_ITEM ('')
   SURFACE ()
);
#301 = ADVANCED_FACE ('', (#289), #300, .T.);
#302 = CARTESIAN_POINT ('', (73.4999999999999, 134., -6.));
#303 = VERTEX_POINT ('', #302);
#304 = CARTESIAN_POINT ('', (73.4999999999999, 134., -4.5));
#305 = CARTESIAN_POINT ('', (73.4999999999999, 134., -6.));
#306 = B_SPLINE_CURVE_WITH_KNOTS ('', 1, (#304, #305), .UNSPECIFIED., .F., .U., (2, 2), (0., 1.), .UNSPECIFIED.);
#307 = EDGE_CURVE ('', #212, #303, #306, .T.);
#308 = ORIENTED_EDGE ('', *, *, #307, .F.);
#309 = ORIENTED_EDGE ('', *, *, #217, .T.);
#310 = CARTESIAN_POINT ('', (75.0000000000001, 135.5, -6.));
#311 = VERTEX_POINT ('', #310);
#312 = CARTESIAN_POINT ('', (75.0000000000001, 135.5, -4.5));
#313 = CARTESIAN_POINT ('', (75.0000000000001, 135.5, -6.));
#314 = B_SPLINE_CURVE_WITH_KNOTS ('', 1, (#312, #313), .UNSPECIFIED., .F., .U., (2, 2), (0., 1.), .UNSPECIFIED.);
#315 = EDGE_CURVE ('', #205, #311, #314, .T.);
#316 = ORIENTED_EDGE ('', *, *, #315, .T.);
#317 = CARTESIAN_POINT ('', (73.4999999999999, 134., -6.));
#318 = CARTESIAN_POINT ('', (73.4999999999999, 135.5, -6.));
#319 = CARTESIAN_POINT ('', (75.0000000000001, 135.5, -6.));
#320 = (
   BOUNDED_CURVE ()
   B_SPLINE_CURVE (2, (#317, #318, #319), .UNSPECIFIED., .F., .U.)
   B_SPLINE_CURVE_WITH_KNOTS ((3, 3), (286.5, 287.5), .UNSPECIFIED.)
   CURVE ()
   GEOMETRIC_REPRESENTATION_ITEM ()
   RATIONAL_B_SPLINE_CURVE ((1., 0.707106781186447, 1.))
   REPRESENTATION_ITEM ('')
);
#321 = EDGE_CURVE ('', #303, #311, #320, .T.);
#322 = ORIENTED_EDGE ('', *, *, #321, .F.);
#323 = EDGE_LOOP ('', (#308, #309, #316, #322));
#324 = FACE_OUTER_BOUND ('', #323, .T.);
#325 = CARTESIAN_POINT ('', (73.4999999999999, 134., -4.5));
#326 = CARTESIAN_POINT ('', (73.4999999999999, 134., -6.));
#327 = CARTESIAN_POINT ('', (73.4999999999999, 135.5, -4.5));
#328 = CARTESIAN_POINT ('', (73.4999999999999, 135.5, -6.));
#329 = CARTESIAN_POINT ('', (75.0000000000001, 135.5, -4.5));
#330 = CARTESIAN_POINT ('', (75.0000000000001, 135.5, -6.));
#331 = (
   BOUNDED_SURFACE ()
   B_SPLINE_SURFACE (2, 1, ((#325, #326), (#327, #328), (#329, #330)), .UNSPECIFIED., .F., .F., .U.)
   B_SPLINE_SURFACE_WITH_KNOTS ((3, 3), (2, 2), (286.5, 287.5), (0., 1.), .UNSPECIFIED.)
   GEOMETRIC_REPRESENTATION_ITEM ()
   RATIONAL_B_SPLINE_SURFACE (((1., 1.), (0.707106781186447, 0.707106781186447), (1., 1.)))
   REPRESENTATION_ITEM ('')
   SURFACE ()
);
#332 = ADVANCED_FACE ('', (#324), #331, .T.);
#333 = ORIENTED_EDGE ('', *, *, #209, .T.);
#334 = CARTESIAN_POINT ('', (129., 135.5, -6.));
#335 = VERTEX_POINT ('', #334);
#336 = CARTESIAN_POINT ('', (129., 135.5, -4.5));
#337 = CARTESIAN_POINT ('', (129., 135.5, -6.));
#338 = B_SPLINE_CURVE_WITH_KNOTS ('', 1, (#336, #337), .UNSPECIFIED., .F., .U., (2, 2), (0., 1.), .UNSPECIFIED.);
#339 = EDGE_CURVE ('', #195, #335, #338, .T.);
#340 = ORIENTED_EDGE ('', *, *, #339, .T.);
#341 = CARTESIAN_POINT ('', (75.0000000000001, 135.5, -6.));
#342 = CARTESIAN_POINT ('', (129., 135.5, -6.));
#343 = B_SPLINE_CURVE_WITH_KNOTS ('', 1, (#341, #342), .UNSPECIFIED., .F., .U., (2, 2), (0., 1.), .UNSPECIFIED.);
#344 = EDGE_CURVE ('', #311, #335, #343, .T.);
#345 = ORIENTED_EDGE ('', *, *, #344, .F.);
#346 = ORIENTED_EDGE ('', *, *, #315, .F.);
#347 = EDGE_LOOP ('', (#333, #340, #345, #346));
#348 = FACE_OUTER_BOUND ('', #347, .T.);
#349 = CARTESIAN_POINT ('', (75.0000000000001, 135.5, -4.5));
#350 = CARTESIAN_POINT ('', (75.0000000000001, 135.5, -6.));
#351 = CARTESIAN_POINT ('', (129., 135.5, -4.5));
#352 = CARTESIAN_POINT ('', (129., 135.5, -6.));
#353 = B_SPLINE_SURFACE_WITH_KNOTS ('', 1, 1, ((#349, #350), (#351, #352)), .UNSPECIFIED., .F., .F., .U., (2, 2), (2, 2), (287.5, 341.5), (0., 1.), .UNSPECIFIED.);
#354 = ADVANCED_FACE ('', (#348), #353, .T.);
#355 = ORIENTED_EDGE ('', *, *, #339, .F.);
#356 = ORIENTED_EDGE ('', *, *, #202, .T.);
#357 = CARTESIAN_POINT ('', (129., 128.5, -6.));
#358 = VERTEX_POINT ('', #357);
#359 = CARTESIAN_POINT ('', (129., 128.5, -4.5));
#360 = CARTESIAN_POINT ('', (129., 128.5, -6.));
#361 = B_SPLINE_CURVE_WITH_KNOTS ('', 1, (#359, #360), .UNSPECIFIED., .F., .U., (2, 2), (0., 1.), .UNSPECIFIED.);
#362 = EDGE_CURVE ('', #187, #358, #361, .T.);
#363 = ORIENTED_EDGE ('', *, *, #362, .T.);
#364 = CARTESIAN_POINT ('', (129., 135.5, -6.));
#365 = CARTESIAN_POINT ('', (132.5, 135.5, -6.));
#366 = CARTESIAN_POINT ('', (132.5, 132., -6.));
#367 = CARTESIAN_POINT ('', (132.5, 128.5, -6.));
#368 = CARTESIAN_POINT ('', (129., 128.5, -6.));
#369 = (
   BOUNDED_CURVE ()
   B_SPLINE_CURVE (2, (#364, #365, #366, #367, #368), .UNSPECIFIED., .F., .U.)
   B_SPLINE_CURVE_WITH_KNOTS ((3, 2, 3), (424.5, 424.75, 425.), .UNSPECIFIED.)
   CURVE ()
   GEOMETRIC_REPRESENTATION_ITEM ()
   RATIONAL_B_SPLINE_CURVE ((1., 0.707106781186548, 1., 0.707106781186548, 1.))
   REPRESENTATION_ITEM ('')
);
#370 = EDGE_CURVE ('', #335, #358, #369, .T.);
#371 = ORIENTED_EDGE ('', *, *, #370, .F.);
#372 = EDGE_LOOP ('', (#355, #356, #363, #371));
#373 = FACE_OUTER_BOUND ('', #372, .T.);
#374 = CARTESIAN_POINT ('', (129., 135.5, -4.5));
#375 = CARTESIAN_POINT ('', (129., 135.5, -6.));
#376 = CARTESIAN_POINT ('', (132.5, 135.5, -4.5));
#377 = CARTESIAN_POINT ('', (132.5, 135.5, -6.));
#378 = CARTESIAN_POINT ('', (132.5, 132., -4.5));
#379 = CARTESIAN_POINT ('', (132.5, 132., -6.));
#380 = CARTESIAN_POINT ('', (132.5, 128.5, -4.5));
#381 = CARTESIAN_POINT ('', (132.5, 128.5, -6.));
#382 = CARTESIAN_POINT ('', (129., 128.5, -4.5));
#383 = CARTESIAN_POINT ('', (129., 128.5, -6.));
#384 = (
   BOUNDED_SURFACE ()
   B_SPLINE_SURFACE (2, 1, ((#374, #375), (#376, #377), (#378, #379), (#380, #381), (#382, #383)), .UNSPECIFIED., .F., .F., .U.)
   B_SPLINE_SURFACE_WITH_KNOTS ((3, 2, 3), (2, 2), (424.5, 424.75, 425.), (0., 1.), .UNSPECIFIED.)
   GEOMETRIC_REPRESENTATION_ITEM ()
   RATIONAL_B_SPLINE_SURFACE (((1., 1.), (0.707106781186548, 0.707106781186548), (1., 1.), (0.707106781186548, 0.707106781186548), (1., 1.)))
   REPRESENTATION_ITEM ('')
   SURFACE ()
);
#385 = ADVANCED_FACE ('', (#373), #384, .T.);
#386 = ORIENTED_EDGE ('', *, *, #362, .F.);
#387 = ORIENTED_EDGE ('', *, *, #192, .T.);
#388 = CARTESIAN_POINT ('', (126.5, 126., -6.));
#389 = VERTEX_POINT ('', #388);
#390 = CARTESIAN_POINT ('', (126.5, 126., -4.5));
#391 = CARTESIAN_POINT ('', (126.5, 126., -6.));
#392 = B_SPLINE_CURVE_WITH_KNOTS ('', 1, (#390, #391), .UNSPECIFIED., .F., .U., (2, 2), (0., 1.), .UNSPECIFIED.);
#393 = EDGE_CURVE ('', #180, #389, #392, .T.);
#394 = ORIENTED_EDGE ('', *, *, #393, .T.);
#395 = CARTESIAN_POINT ('', (129., 128.5, -6.));
#396 = CARTESIAN_POINT ('', (126.5, 128.5, -6.));
#397 = CARTESIAN_POINT ('', (126.5, 126., -6.));
#398 = (
   BOUNDED_CURVE ()
   B_SPLINE_CURVE (2, (#395, #396, #397), .UNSPECIFIED., .F., .U.)
   B_SPLINE_CURVE_WITH_KNOTS ((3, 3), (259.5, 260.5), .UNSPECIFIED.)
   CURVE ()
   GEOMETRIC_REPRESENTATION_ITEM ()
   RATIONAL_B_SPLINE_CURVE ((1., 0.707106781186648, 1.))
   REPRESENTATION_ITEM ('')
);
#399 = EDGE_CURVE ('', #358, #389, #398, .T.);
#400 = ORIENTED_EDGE ('', *, *, #399, .F.);
#401 = EDGE_LOOP ('', (#386, #387, #394, #400));
#402 = FACE_OUTER_BOUND ('', #401, .T.);
#403 = CARTESIAN_POINT ('', (129., 128.5, -4.5));
#404 = CARTESIAN_POINT ('', (129., 128.5, -6.));
#405 = CARTESIAN_POINT ('', (126.5, 128.5, -4.5));
#406 = CARTESIAN_POINT ('', (126.5, 128.5, -6.));
#407 = CARTESIAN_POINT ('', (126.5, 126., -4.5));
#408 = CARTESIAN_POINT ('', (126.5, 126., -6.));
#409 = (
   BOUNDED_SURFACE ()
   B_SPLINE_SURFACE (2, 1, ((#403, #404), (#405, #406), (#407, #408)), .UNSPECIFIED., .F., .F., .U.)
   B_SPLINE_SURFACE_WITH_KNOTS ((3, 3), (2, 2), (259.5, 260.5), (0., 1.), .UNSPECIFIED.)
   GEOMETRIC_REPRESENTATION_ITEM ()
   RATIONAL_B_SPLINE_SURFACE (((1., 1.), (0.707106781186648, 0.707106781186648), (1., 1.)))
   REPRESENTATION_ITEM ('')
   SURFACE ()
);
#410 = ADVANCED_FACE ('', (#402), #409, .T.);
#411 = CARTESIAN_POINT ('', (126.5, 99.9999999999999, -6.));
#412 = VERTEX_POINT ('', #411);
#413 = CARTESIAN_POINT ('', (126.5, 99.9999999999999, -4.5));
#414 = CARTESIAN_POINT ('', (126.5, 99.9999999999999, -6.));
#415 = B_SPLINE_CURVE_WITH_KNOTS ('', 1, (#413, #414), .UNSPECIFIED., .F., .U., (2, 2), (0., 1.), .UNSPECIFIED.);
#416 = EDGE_CURVE ('', #172, #412, #415, .T.);
#417 = ORIENTED_EDGE ('', *, *, #416, .T.);
#418 = CARTESIAN_POINT ('', (126.5, 126., -6.));
#419 = CARTESIAN_POINT ('', (126.5, 99.9999999999999, -6.));
#420 = B_SPLINE_CURVE_WITH_KNOTS ('', 1, (#418, #419), .UNSPECIFIED., .F., .U., (2, 2), (346.5, 372.5), .UNSPECIFIED.);
#421 = EDGE_CURVE ('', #389, #412, #420, .T.);
#422 = ORIENTED_EDGE ('', *, *, #421, .F.);
#423 = ORIENTED_EDGE ('', *, *, #393, .F.);
#424 = ORIENTED_EDGE ('', *, *, #184, .T.);
#425 = EDGE_LOOP ('', (#417, #422, #423, #424));
#426 = FACE_OUTER_BOUND ('', #425, .T.);
#427 = CARTESIAN_POINT ('', (126.5, 126., -4.5));
#428 = CARTESIAN_POINT ('', (126.5, 126., -6.));
#429 = CARTESIAN_POINT ('', (126.5, 99.9999999999999, -4.5));
#430 = CARTESIAN_POINT ('', (126.5, 99.9999999999999, -6.));
#431 = B_SPLINE_SURFACE_WITH_KNOTS ('', 1, 1, ((#427, #428), (#429, #430)), .UNSPECIFIED., .F., .F., .U., (2, 2), (2, 2), (346.5, 372.5), (0., 1.), .UNSPECIFIED.);
#432 = ADVANCED_FACE ('', (#426), #431, .T.);
#433 = ORIENTED_EDGE ('', *, *, #416, .F.);
#434 = ORIENTED_EDGE ('', *, *, #177, .T.);
#435 = CARTESIAN_POINT ('', (125., 98.5, -6.));
#436 = VERTEX_POINT ('', #435);
#437 = CARTESIAN_POINT ('', (125., 98.5, -4.5));
#438 = CARTESIAN_POINT ('', (125., 98.5, -6.));
#439 = B_SPLINE_CURVE_WITH_KNOTS ('', 1, (#437, #438), .UNSPECIFIED., .F., .U., (2, 2), (0., 1.), .UNSPECIFIED.);
#440 = EDGE_CURVE ('', #165, #436, #439, .T.);
#441 = ORIENTED_EDGE ('', *, *, #440, .T.);
#442 = CARTESIAN_POINT ('', (126.5, 99.9999999999999, -6.));
#443 = CARTESIAN_POINT ('', (126.5, 98.5, -6.));
#444 = CARTESIAN_POINT ('', (125., 98.5, -6.));
#445 = (
   BOUNDED_CURVE ()
   B_SPLINE_CURVE (2, (#442, #443, #444), .UNSPECIFIED., .F., .U.)
   B_SPLINE_CURVE_WITH_KNOTS ((3, 3), (372.5, 373.5), .UNSPECIFIED.)
   CURVE ()
   GEOMETRIC_REPRESENTATION_ITEM ()
   RATIONAL_B_SPLINE_CURVE ((1., 0.707106781186563, 1.))
   REPRESENTATION_ITEM ('')
);
#446 = EDGE_CURVE ('', #412, #436, #445, .T.);
#447 = ORIENTED_EDGE ('', *, *, #446, .F.);
#448 = EDGE_LOOP ('', (#433, #434, #441, #447));
#449 = FACE_OUTER_BOUND ('', #448, .T.);
#450 = CARTESIAN_POINT ('', (126.5, 99.9999999999999, -4.5));
#451 = CARTESIAN_POINT ('', (126.5, 99.9999999999999, -6.));
#452 = CARTESIAN_POINT ('', (126.5, 98.5, -4.5));
#453 = CARTESIAN_POINT ('', (126.5, 98.5, -6.));
#454 = CARTESIAN_POINT ('', (125., 98.5, -4.5));
#455 = CARTESIAN_POINT ('', (125., 98.5, -6.));
#456 = (
   BOUNDED_SURFACE ()
   B_SPLINE_SURFACE (2, 1, ((#450, #451), (#452, #453), (#454, #455)), .UNSPECIFIED., .F., .F., .U.)
   B_SPLINE_SURFACE_WITH_KNOTS ((3, 3), (2, 2), (372.5, 373.5), (0., 1.), .UNSPECIFIED.)
   GEOMETRIC_REPRESENTATION_ITEM ()
   RATIONAL_B_SPLINE_SURFACE (((1., 1.), (0.707106781186563, 0.707106781186563), (1., 1.)))
   REPRESENTATION_ITEM ('')
   SURFACE ()
);
#457 = ADVANCED_FACE ('', (#449), #456, .T.);
#458 = ORIENTED_EDGE ('', *, *, #169, .T.);
#459 = CARTESIAN_POINT ('', (71., 98.5, -6.));
#460 = VERTEX_POINT ('', #459);
#461 = CARTESIAN_POINT ('', (71., 98.5000000000001, -4.5));
#462 = CARTESIAN_POINT ('', (71., 98.5000000000001, -6.));
#463 = B_SPLINE_CURVE_WITH_KNOTS ('', 1, (#461, #462), .UNSPECIFIED., .F., .U., (2, 2), (0., 1.), .UNSPECIFIED.);
#464 = EDGE_CURVE ('', #155, #460, #463, .T.);
#465 = ORIENTED_EDGE ('', *, *, #464, .T.);
#466 = CARTESIAN_POINT ('', (125., 98.5, -6.));
#467 = CARTESIAN_POINT ('', (71., 98.5, -6.));
#468 = B_SPLINE_CURVE_WITH_KNOTS ('', 1, (#466, #467), .UNSPECIFIED., .F., .U., (2, 2), (0., 1.), .UNSPECIFIED.);
#469 = EDGE_CURVE ('', #436, #460, #468, .T.);
#470 = ORIENTED_EDGE ('', *, *, #469, .F.);
#471 = ORIENTED_EDGE ('', *, *, #440, .F.);
#472 = EDGE_LOOP ('', (#458, #465, #470, #471));
#473 = FACE_OUTER_BOUND ('', #472, .T.);
#474 = CARTESIAN_POINT ('', (125., 98.5, -4.5));
#475 = CARTESIAN_POINT ('', (125., 98.5, -6.));
#476 = CARTESIAN_POINT ('', (71., 98.5, -4.5));
#477 = CARTESIAN_POINT ('', (71., 98.5, -6.));
#478 = B_SPLINE_SURFACE_WITH_KNOTS ('', 1, 1, ((#474, #475), (#476, #477)), .UNSPECIFIED., .F., .F., .U., (2, 2), (2, 2), (373.5, 427.5), (0., 1.), .UNSPECIFIED.);
#479 = ADVANCED_FACE ('', (#473), #478, .T.);
#480 = ORIENTED_EDGE ('', *, *, #464, .F.);
#481 = ORIENTED_EDGE ('', *, *, #162, .T.);
#482 = CARTESIAN_POINT ('', (71., 105.5, -6.));
#483 = VERTEX_POINT ('', #482);
#484 = CARTESIAN_POINT ('', (71., 105.5, -4.5));
#485 = CARTESIAN_POINT ('', (71., 105.5, -6.));
#486 = B_SPLINE_CURVE_WITH_KNOTS ('', 1, (#484, #485), .UNSPECIFIED., .F., .U., (2, 2), (0., 1.), .UNSPECIFIED.);
#487 = EDGE_CURVE ('', #145, #483, #486, .T.);
#488 = ORIENTED_EDGE ('', *, *, #487, .T.);
#489 = CARTESIAN_POINT ('', (71., 98.5, -6.));
#490 = CARTESIAN_POINT ('', (67.5, 98.5000000000001, -6.));
#491 = CARTESIAN_POINT ('', (67.5, 102., -6.));
#492 = CARTESIAN_POINT ('', (67.5, 105.5, -6.));
#493 = CARTESIAN_POINT ('', (71., 105.5, -6.));
#494 = (
   BOUNDED_CURVE ()
   B_SPLINE_CURVE (2, (#489, #490, #491, #492, #493), .UNSPECIFIED., .F., .U.)
   B_SPLINE_CURVE_WITH_KNOTS ((3, 2, 3), (424.5, 424.75, 425.), .UNSPECIFIED.)
   CURVE ()
   GEOMETRIC_REPRESENTATION_ITEM ()
   RATIONAL_B_SPLINE_CURVE ((1., 0.707106781186548, 1., 0.707106781186548, 1.))
   REPRESENTATION_ITEM ('')
);
#495 = EDGE_CURVE ('', #460, #483, #494, .T.);
#496 = ORIENTED_EDGE ('', *, *, #495, .F.);
#497 = EDGE_LOOP ('', (#480, #481, #488, #496));
#498 = FACE_OUTER_BOUND ('', #497, .T.);
#499 = CARTESIAN_POINT ('', (71., 98.5, -4.5));
#500 = CARTESIAN_POINT ('', (71., 98.5, -6.));
#501 = CARTESIAN_POINT ('', (67.5, 98.5000000000001, -4.5));
#502 = CARTESIAN_POINT ('', (67.5, 98.5000000000001, -6.));
#503 = CARTESIAN_POINT ('', (67.5, 102., -4.5));
#504 = CARTESIAN_POINT ('', (67.5, 102., -6.));
#505 = CARTESIAN_POINT ('', (67.5, 105.5, -4.5));
#506 = CARTESIAN_POINT ('', (67.5, 105.5, -6.));
#507 = CARTESIAN_POINT ('', (71., 105.5, -4.5));
#508 = CARTESIAN_POINT ('', (71., 105.5, -6.));
#509 = (
   BOUNDED_SURFACE ()
   B_SPLINE_SURFACE (2, 1, ((#499, #500), (#501, #502), (#503, #504), (#505, #506), (#507, #508)), .UNSPECIFIED., .F., .F., .U.)
   B_SPLINE_SURFACE_WITH_KNOTS ((3, 2, 3), (2, 2), (424.5, 424.75, 425.), (0., 1.), .UNSPECIFIED.)
   GEOMETRIC_REPRESENTATION_ITEM ()
   RATIONAL_B_SPLINE_SURFACE (((1., 1.), (0.707106781186548, 0.707106781186548), (1., 1.), (0.707106781186548, 0.707106781186548), (1., 1.)))
   REPRESENTATION_ITEM ('')
   SURFACE ()
);
#510 = ADVANCED_FACE ('', (#498), #509, .T.);
#511 = ORIENTED_EDGE ('', *, *, #487, .F.);
#512 = ORIENTED_EDGE ('', *, *, #152, .T.);
#513 = CARTESIAN_POINT ('', (73.5000000000003, 108., -6.));
#514 = VERTEX_POINT ('', #513);
#515 = CARTESIAN_POINT ('', (73.5000000000003, 108., -4.5));
#516 = CARTESIAN_POINT ('', (73.5000000000003, 108., -6.));
#517 = B_SPLINE_CURVE_WITH_KNOTS ('', 1, (#515, #516), .UNSPECIFIED., .F., .U., (2, 2), (0., 1.), .UNSPECIFIED.);
#518 = EDGE_CURVE ('', #147, #514, #517, .T.);
#519 = ORIENTED_EDGE ('', *, *, #518, .T.);
#520 = CARTESIAN_POINT ('', (71., 105.5, -6.));
#521 = CARTESIAN_POINT ('', (73.4999999999998, 105.5, -6.));
#522 = CARTESIAN_POINT ('', (73.5000000000003, 108., -6.));
#523 = (
   BOUNDED_CURVE ()
   B_SPLINE_CURVE (2, (#520, #521, #522), .UNSPECIFIED., .F., .U.)
   B_SPLINE_CURVE_WITH_KNOTS ((3, 3), (259.5, 260.5), .UNSPECIFIED.)
   CURVE ()
   GEOMETRIC_REPRESENTATION_ITEM ()
   RATIONAL_B_SPLINE_CURVE ((1., 0.707106781186648, 1.))
   REPRESENTATION_ITEM ('')
);
#524 = EDGE_CURVE ('', #483, #514, #523, .T.);
#525 = ORIENTED_EDGE ('', *, *, #524, .F.);
#526 = EDGE_LOOP ('', (#511, #512, #519, #525));
#527 = FACE_OUTER_BOUND ('', #526, .T.);
#528 = CARTESIAN_POINT ('', (71., 105.5, -4.5));
#529 = CARTESIAN_POINT ('', (71., 105.5, -6.));
#530 = CARTESIAN_POINT ('', (73.4999999999998, 105.5, -4.5));
#531 = CARTESIAN_POINT ('', (73.4999999999998, 105.5, -6.));
#532 = CARTESIAN_POINT ('', (73.5000000000003, 108., -4.5));
#533 = CARTESIAN_POINT ('', (73.5000000000003, 108., -6.));
#534 = (
   BOUNDED_SURFACE ()
   B_SPLINE_SURFACE (2, 1, ((#528, #529), (#530, #531), (#532, #533)), .UNSPECIFIED., .F., .F., .U.)
   B_SPLINE_SURFACE_WITH_KNOTS ((3, 3), (2, 2), (259.5, 260.5), (0., 1.), .UNSPECIFIED.)
   GEOMETRIC_REPRESENTATION_ITEM ()
   RATIONAL_B_SPLINE_SURFACE (((1., 1.), (0.707106781186648, 0.707106781186648), (1., 1.)))
   REPRESENTATION_ITEM ('')
   SURFACE ()
);
#535 = ADVANCED_FACE ('', (#527), #534, .T.);
#536 = ORIENTED_EDGE ('', *, *, #518, .F.);
#537 = ORIENTED_EDGE ('', *, *, #222, .T.);
#538 = ORIENTED_EDGE ('', *, *, #307, .T.);
#539 = CARTESIAN_POINT ('', (73.5000000000003, 108., -6.));
#540 = CARTESIAN_POINT ('', (73.4999999999999, 134., -6.));
#541 = B_SPLINE_CURVE_WITH_KNOTS ('', 1, (#539, #540), .UNSPECIFIED., .F., .U., (2, 2), (260.5, 286.5), .UNSPECIFIED.);
#542 = EDGE_CURVE ('', #514, #303, #541, .T.);
#543 = ORIENTED_EDGE ('', *, *, #542, .F.);
#544 = EDGE_LOOP ('', (#536, #537, #538, #543));
#545 = FACE_OUTER_BOUND ('', #544, .T.);
#546 = CARTESIAN_POINT ('', (73.5000000000003, 108., -4.5));
#547 = CARTESIAN_POINT ('', (73.5000000000003, 108., -6.));
#548 = CARTESIAN_POINT ('', (73.4999999999999, 134., -4.5));
#549 = CARTESIAN_POINT ('', (73.4999999999999, 134., -6.));
#550 = B_SPLINE_SURFACE_WITH_KNOTS ('', 1, 1, ((#546, #547), (#548, #549)), .UNSPECIFIED., .F., .F., .U., (2, 2), (2, 2), (260.5, 286.5), (0., 1.), .UNSPECIFIED.);
#551 = ADVANCED_FACE ('', (#545), #550, .T.);
#552 = ORIENTED_EDGE ('', *, *, #524, .T.);
#553 = ORIENTED_EDGE ('', *, *, #542, .T.);
#554 = ORIENTED_EDGE ('', *, *, #321, .T.);
#555 = ORIENTED_EDGE ('', *, *, #344, .T.);
#556 = ORIENTED_EDGE ('', *, *, #370, .T.);
#557 = ORIENTED_EDGE ('', *, *, #399, .T.);
#558 = ORIENTED_EDGE ('', *, *, #421, .T.);
#559 = ORIENTED_EDGE ('', *, *, #446, .T.);
#560 = ORIENTED_EDGE ('', *, *, #469, .T.);
#561 = ORIENTED_EDGE ('', *, *, #495, .T.);
#562 = EDGE_LOOP ('', (#552, #553, #554, #555, #556, #557, #558, #559, #560, #561));
#563 = FACE_OUTER_BOUND ('', #562, .T.);
#564 = CARTESIAN_POINT ('', (130., 132., -6.));
#565 = CARTESIAN_POINT ('', (130., 131., -6.));
#566 = CARTESIAN_POINT ('', (129., 131., -6.));
#567 = CARTESIAN_POINT ('', (128., 131., -6.));
#568 = CARTESIAN_POINT ('', (128., 132., -6.));
#569 = (
   BOUNDED_CURVE ()
   B_SPLINE_CURVE (2, (#564, #565, #566, #567, #568), .UNSPECIFIED., .F., .U.)
   B_SPLINE_CURVE_WITH_KNOTS ((3, 2, 3), (0., 0.25, 0.5), .UNSPECIFIED.)
   CURVE ()
   GEOMETRIC_REPRESENTATION_ITEM ()
   RATIONAL_B_SPLINE_CURVE ((1., 0.707106781186548, 1., 0.707106781186548, 1.))
   REPRESENTATION_ITEM ('')
);
#570 = EDGE_CURVE ('', #106, #99, #569, .T.);
#571 = ORIENTED_EDGE ('', *, *, #570, .F.);
#572 = ORIENTED_EDGE ('', *, *, #113, .F.);
#573 = EDGE_LOOP ('', (#571, #572));
#574 = FACE_BOUND ('', #573, .T.);
#575 = CARTESIAN_POINT ('', (70., 102., -6.));
#576 = CARTESIAN_POINT ('', (70., 103., -6.));
#577 = CARTESIAN_POINT ('', (71., 103., -6.));
#578 = CARTESIAN_POINT ('', (72., 103., -6.));
#579 = CARTESIAN_POINT ('', (72., 102., -6.));
#580 = (
   BOUNDED_CURVE ()
   B_SPLINE_CURVE (2, (#575, #576, #577, #578, #579), .UNSPECIFIED., .F., .U.)
   B_SPLINE_CURVE_WITH_KNOTS ((3, 2, 3), (0., 0.25, 0.5), .UNSPECIFIED.)
   CURVE ()
   GEOMETRIC_REPRESENTATION_ITEM ()
   RATIONAL_B_SPLINE_CURVE ((1., 0.707106781186548, 1., 0.707106781186548, 1.))
   REPRESENTATION_ITEM ('')
);
#581 = EDGE_CURVE ('', #273, #266, #580, .T.);
#582 = ORIENTED_EDGE ('', *, *, #581, .F.);
#583 = ORIENTED_EDGE ('', *, *, #280, .F.);
#584 = EDGE_LOOP ('', (#582, #583));
#585 = FACE_BOUND ('', #584, .T.);
#586 = CARTESIAN_POINT ('', (67.5, 98.5, -6.));
#587 = CARTESIAN_POINT ('', (132.5, 98.5, -6.));
#588 = CARTESIAN_POINT ('', (67.5, 135.5, -6.));
#589 = CARTESIAN_POINT ('', (132.5, 135.5, -6.));
#590 = B_SPLINE_SURFACE_WITH_KNOTS ('', 1, 1, ((#586, #587), (#588, #589)), .UNSPECIFIED., .F., .F., .U., (2, 2), (2, 2), (0.39991168341995, 0.652906463123342), (0.338887196941339, 0.78333748560946), .UNSPECIFIED.);
#591 = ADVANCED_FACE ('', (#563, #574, #585), #590, .T.);
#592 = ORIENTED_EDGE ('', *, *, #103, .F.);
#593 = ORIENTED_EDGE ('', *, *, #232, .F.);
#594 = ORIENTED_EDGE ('', *, *, #120, .T.);
#595 = ORIENTED_EDGE ('', *, *, #570, .T.);
#596 = EDGE_LOOP ('', (#592, #593, #594, #595));
#597 = FACE_OUTER_BOUND ('', #596, .T.);
#598 = CARTESIAN_POINT ('', (130., 132., -4.5));
#599 = CARTESIAN_POINT ('', (130., 131., -4.5));
#600 = CARTESIAN_POINT ('', (129., 131., -4.5));
#601 = CARTESIAN_POINT ('', (128., 131., -4.5));
#602 = CARTESIAN_POINT ('', (128., 132., -4.5));
#603 = CARTESIAN_POINT ('', (130., 132., -6.));
#604 = CARTESIAN_POINT ('', (130., 131., -6.));
#605 = CARTESIAN_POINT ('', (129., 131., -6.));
#606 = CARTESIAN_POINT ('', (128., 131., -6.));
#607 = CARTESIAN_POINT ('', (128., 132., -6.));
#608 = (
   BOUNDED_SURFACE ()
   B_SPLINE_SURFACE (1, 2, ((#598, #599, #600, #601, #602), (#603, #604, #605, #606, #607)), .UNSPECIFIED., .F., .F., .U.)
   B_SPLINE_SURFACE_WITH_KNOTS ((2, 2), (3, 2, 3), (0., 1.), (0., 0.25, 0.5), .UNSPECIFIED.)
   GEOMETRIC_REPRESENTATION_ITEM ()
   RATIONAL_B_SPLINE_SURFACE (((1., 0.707106781186548, 1., 0.707106781186548, 1.), (1., 0.707106781186548, 1., 0.707106781186548, 1.)))
   REPRESENTATION_ITEM ('')
   SURFACE ()
);
#609 = ADVANCED_FACE ('', (#597), #608, .T.);
#610 = ORIENTED_EDGE ('', *, *, #270, .F.);
#611 = ORIENTED_EDGE ('', *, *, #247, .F.);
#612 = ORIENTED_EDGE ('', *, *, #285, .T.);
#613 = ORIENTED_EDGE ('', *, *, #581, .T.);
#614 = EDGE_LOOP ('', (#610, #611, #612, #613));
#615 = FACE_OUTER_BOUND ('', #614, .T.);
#616 = CARTESIAN_POINT ('', (70., 102., -4.5));
#617 = CARTESIAN_POINT ('', (70., 103., -4.5));
#618 = CARTESIAN_POINT ('', (71., 103., -4.5));
#619 = CARTESIAN_POINT ('', (72., 103., -4.5));
#620 = CARTESIAN_POINT ('', (72., 102., -4.5));
#621 = CARTESIAN_POINT ('', (70., 102., -6.));
#622 = CARTESIAN_POINT ('', (70., 103., -6.));
#623 = CARTESIAN_POINT ('', (71., 103., -6.));
#624 = CARTESIAN_POINT ('', (72., 103., -6.));
#625 = CARTESIAN_POINT ('', (72., 102., -6.));
#626 = (
   BOUNDED_SURFACE ()
   B_SPLINE_SURFACE (1, 2, ((#616, #617, #618, #619, #620), (#621, #622, #623, #624, #625)), .UNSPECIFIED., .F., .F., .U.)
   B_SPLINE_SURFACE_WITH_KNOTS ((2, 2), (3, 2, 3), (0., 1.), (0., 0.25, 0.5), .UNSPECIFIED.)
   GEOMETRIC_REPRESENTATION_ITEM ()
   RATIONAL_B_SPLINE_SURFACE (((1., 0.707106781186548, 1., 0.707106781186548, 1.), (1., 0.707106781186548, 1., 0.707106781186548, 1.)))
   REPRESENTATION_ITEM ('')
   SURFACE ()
);
#627 = ADVANCED_FACE ('', (#615), #626, .T.);
#628 = CLOSED_SHELL ('', (#143, #264, #301, #332, #354, #385, #410, #432, #457, #479, #510, #535, #551, #591, #609, #627));
#629 = MANIFOLD_SOLID_BREP ('', #628);
#630 = PRESENTATION_LAYER_ASSIGNMENT ('Level 11', 'Level 11', (#629));
#631 = COLOUR_RGB ('', 0.482352941176471, 0.337254901960784, 0.529411764705882);
#632 = FILL_AREA_STYLE_COLOUR ('', #631);
#633 = FILL_AREA_STYLE ('', (#632));
#634 = SURFACE_STYLE_FILL_AREA (#633);
#635 = SURFACE_SIDE_STYLE ('', (#634));
#636 = SURFACE_STYLE_USAGE (.POSITIVE., #635);
#637 = PRESENTATION_STYLE_ASSIGNMENT ((#636));
#638 = STYLED_ITEM ('', (#637), #629);
#639 = (
   LENGTH_UNIT ()
   NAMED_UNIT (*)
   SI_UNIT ($, .METRE.)
);
#640 = (
   NAMED_UNIT (*)
   SI_UNIT ($, .STERADIAN.)
   SOLID_ANGLE_UNIT ()
);
#641 = (
   NAMED_UNIT (*)
   PLANE_ANGLE_UNIT ()
   SI_UNIT ($, .RADIAN.)
);
#642 = UNCERTAINTY_MEASURE_WITH_UNIT (LENGTH_MEASURE(0.001), #639, 'DISTANCE_ACCURACY_VALUE', '');
#643 = (
   GEOMETRIC_REPRESENTATION_CONTEXT (3)
   GLOBAL_UNCERTAINTY_ASSIGNED_CONTEXT ((#642))
   GLOBAL_UNIT_ASSIGNED_CONTEXT ((#639, #640, #641))
   REPRESENTATION_CONTEXT ('', '3D')
);
#644 = SHAPE_REPRESENTATION ('', (#772), #643);
#645 = APPLICATION_CONTEXT ('configuration controlled 3D designs of mechanical parts and assemblies');
#646 = APPLICATION_PROTOCOL_DEFINITION ('International Standard', 'config_control_design', 1997, #645);
#647 = MECHANICAL_CONTEXT ('', #645, 'mechanical');
#648 = PRODUCT ('', '', '', (#647));
#649 = PERSON_AND_ORGANIZATION_ROLE ('design_owner');
#650 = PERSON ('#650', '', $, $, $, $);
#651 = ORGANIZATION ($, '', '');
#652 = PERSON_AND_ORGANIZATION (#650, #651);
#653 = CC_DESIGN_PERSON_AND_ORGANIZATION_ASSIGNMENT (#652, #649, (#648));
#654 = PRODUCT_RELATED_PRODUCT_CATEGORY ('detail', $, (#648));
#655 = PRODUCT_DEFINITION_FORMATION_WITH_SPECIFIED_SOURCE ('', '', #648, .NOT_KNOWN.);
#656 = APPROVAL_STATUS ('approved');
#657 = APPROVAL (#656, '');
#658 = CALENDAR_DATE (2026, 1, 10);
#659 = COORDINATED_UNIVERSAL_TIME_OFFSET (0, $, .AHEAD.);
#660 = LOCAL_TIME (4, 13, 16., #659);
#661 = DATE_AND_TIME (#658, #660);
#662 = APPROVAL_DATE_TIME (#661, #657);
#663 = APPROVAL_ROLE ('');
#664 = PERSON ('#664', '', $, $, $, $);
#665 = ORGANIZATION ($, '', '');
#666 = PERSON_AND_ORGANIZATION (#664, #665);
#667 = APPROVAL_PERSON_ORGANIZATION (#666, #657, #663);
#668 = CC_DESIGN_APPROVAL (#657, (#655));
#669 = PERSON_AND_ORGANIZATION_ROLE ('creator');
#670 = PERSON ('#670', '', $, $, $, $);
#671 = ORGANIZATION ($, '', '');
#672 = PERSON_AND_ORGANIZATION (#670, #671);
#673 = CC_DESIGN_PERSON_AND_ORGANIZATION_ASSIGNMENT (#672, #669, (#655));
#674 = PERSON_AND_ORGANIZATION_ROLE ('part_supplier');
#675 = PERSON ('#675', '', $, $, $, $);
#676 = ORGANIZATION ($, '', '');
#677 = PERSON_AND_ORGANIZATION (#675, #676);
#678 = CC_DESIGN_PERSON_AND_ORGANIZATION_ASSIGNMENT (#677, #674, (#655));
#679 = SECURITY_CLASSIFICATION_LEVEL ('unclassified');
#680 = SECURITY_CLASSIFICATION ('', '', #679);
#681 = APPROVAL_STATUS ('approved');
#682 = APPROVAL (#681, '');
#683 = CALENDAR_DATE (2026, 1, 10);
#684 = COORDINATED_UNIVERSAL_TIME_OFFSET (0, $, .AHEAD.);
#685 = LOCAL_TIME (4, 13, 16., #684);
#686 = DATE_AND_TIME (#683, #685);
#687 = APPROVAL_DATE_TIME (#686, #682);
#688 = APPROVAL_ROLE ('');
#689 = PERSON ('#689', '', $, $, $, $);
#690 = ORGANIZATION ($, '', '');
#691 = PERSON_AND_ORGANIZATION (#689, #690);
#692 = APPROVAL_PERSON_ORGANIZATION (#691, #682, #688);
#693 = CC_DESIGN_APPROVAL (#682, (#680));
#694 = DATE_TIME_ROLE ('classification_date');
#695 = CALENDAR_DATE (2026, 1, 10);
#696 = COORDINATED_UNIVERSAL_TIME_OFFSET (0, $, .AHEAD.);
#697 = LOCAL_TIME (4, 13, 16., #696);
#698 = DATE_AND_TIME (#695, #697);
#699 = CC_DESIGN_DATE_AND_TIME_ASSIGNMENT (#698, #694, (#680));
#700 = PERSON_AND_ORGANIZATION_ROLE ('classification_officer');
#701 = PERSON ('#701', '', $, $, $, $);
#702 = ORGANIZATION ($, '', '');
#703 = PERSON_AND_ORGANIZATION (#701, #702);
#704 = CC_DESIGN_PERSON_AND_ORGANIZATION_ASSIGNMENT (#703, #700, (#680));
#705 = CC_DESIGN_SECURITY_CLASSIFICATION (#680, (#655));
#706 = DESIGN_CONTEXT ('', #645, 'design');
#707 = APPROVAL_STATUS ('approved');
#708 = APPROVAL (#707, '');
#709 = CALENDAR_DATE (2026, 1, 10);
#710 = COORDINATED_UNIVERSAL_TIME_OFFSET (0, $, .AHEAD.);
#711 = LOCAL_TIME (4, 13, 16., #710);
#712 = DATE_AND_TIME (#709, #711);
#713 = APPROVAL_DATE_TIME (#712, #708);
#714 = APPROVAL_ROLE ('');
#715 = PERSON ('#715', '', $, $, $, $);
#716 = ORGANIZATION ($, '', '');
#717 = PERSON_AND_ORGANIZATION (#715, #716);
#718 = APPROVAL_PERSON_ORGANIZATION (#717, #708, #714);
#719 = CC_DESIGN_APPROVAL (#708, (*));
#720 = DATE_TIME_ROLE ('creation_date');
#721 = CALENDAR_DATE (2026, 1, 10);
#722 = COORDINATED_UNIVERSAL_TIME_OFFSET (0, $, .AHEAD.);
#723 = LOCAL_TIME (4, 13, 16., #722);
#724 = DATE_AND_TIME (#721, #723);
#725 = CC_DESIGN_DATE_AND_TIME_ASSIGNMENT (#724, #720, (*));
#726 = PERSON_AND_ORGANIZATION_ROLE ('creator');
#727 = PERSON ('#727', '', $, $, $, $);
#728 = ORGANIZATION ($, '', '');
#729 = PERSON_AND_ORGANIZATION (#727, #728);
#730 = CC_DESIGN_PERSON_AND_ORGANIZATION_ASSIGNMENT (#729, #726, (*));
#731 = PRODUCT_DEFINITION ('', '', #655, #706);
#732 = PRODUCT_DEFINITION_SHAPE ('', '', #731);
#733 = SHAPE_DEFINITION_REPRESENTATION (#732, #644);
#734 = SHAPE_REPRESENTATION_RELATIONSHIP ('', '', #644, #735);
#735 = ADVANCED_BREP_SHAPE_REPRESENTATION ('', (#629), #643);
#736 = NEXT_ASSEMBLY_USAGE_OCCURRENCE ('#736', '', '', #93, #731, $);
#737 = SECURITY_CLASSIFICATION_LEVEL ('unclassified');
#738 = SECURITY_CLASSIFICATION ('', '', #737);
#739 = APPROVAL_STATUS ('approved');
#740 = APPROVAL (#739, '');
#741 = CALENDAR_DATE (2026, 1, 10);
#742 = COORDINATED_UNIVERSAL_TIME_OFFSET (0, $, .AHEAD.);
#743 = LOCAL_TIME (4, 13, 16., #742);
#744 = DATE_AND_TIME (#741, #743);
#745 = APPROVAL_DATE_TIME (#744, #740);
#746 = APPROVAL_ROLE ('');
#747 = PERSON ('#747', '', $, $, $, $);
#748 = ORGANIZATION ($, '', '');
#749 = PERSON_AND_ORGANIZATION (#747, #748);
#750 = APPROVAL_PERSON_ORGANIZATION (#749, #740, #746);
#751 = CC_DESIGN_APPROVAL (#740, (#738));
#752 = DATE_TIME_ROLE ('classification_date');
#753 = CALENDAR_DATE (2026, 1, 10);
#754 = COORDINATED_UNIVERSAL_TIME_OFFSET (0, $, .AHEAD.);
#755 = LOCAL_TIME (4, 13, 16., #754);
#756 = DATE_AND_TIME (#753, #755);
#757 = CC_DESIGN_DATE_AND_TIME_ASSIGNMENT (#756, #752, (#738));
#758 = PERSON_AND_ORGANIZATION_ROLE ('classification_officer');
#759 = PERSON ('#759', '', $, $, $, $);
#760 = ORGANIZATION ($, '', '');
#761 = PERSON_AND_ORGANIZATION (#759, #760);
#762 = CC_DESIGN_PERSON_AND_ORGANIZATION_ASSIGNMENT (#761, #758, (#738));
#763 = CC_DESIGN_SECURITY_CLASSIFICATION (#738, (#736));
#764 = PRODUCT_DEFINITION_SHAPE ('', '', #736);
#765 = CARTESIAN_POINT ('', (0., 0., 0.));
#766 = DIRECTION ('', (0., 0., 1.));
#767 = DIRECTION ('', (1., 0., 0.));
#768 = AXIS2_PLACEMENT_3D ('', #765, #766, #767);
#769 = CARTESIAN_POINT ('', (0., 0., 0.));
#770 = DIRECTION ('', (0., 0., 1.));
#771 = DIRECTION ('', (1., 0., 0.));
#772 = AXIS2_PLACEMENT_3D ('', #769, #770, #771);
#773 = ITEM_DEFINED_TRANSFORMATION ('', '', #768, #772);
#774 = (
   REPRESENTATION_RELATIONSHIP ('', '', #6, #644)
   REPRESENTATION_RELATIONSHIP_WITH_TRANSFORMATION (#773)
   SHAPE_REPRESENTATION_RELATIONSHIP ()
);
#775 = CONTEXT_DEPENDENT_SHAPE_REPRESENTATION (#774, #764);
ENDSEC;
END-ISO-10303-21;
