M48
; DRILL file KiCad 10.0.4 date 2026-09-18T03:34:35
; FORMAT={-:-/ absolute / metric / decimal}
; #@! TF.CreationDate,2026-09-18T03:34:35+09:00
; #@! TF.GenerationSoftware,Kicad,Pcbnew,10.0.4
; #@! TF.FileFunction,NonPlated,1,2,NPTH
FMAT,2
METRIC
; #@! TA.AperFunction,NonPlated,NPTH,ComponentDrill
T1C1.702
; #@! TA.AperFunction,NonPlated,NPTH,ComponentDrill
T2C3.000
; #@! TA.AperFunction,NonPlated,NPTH,ComponentDrill
T3C3.048
; #@! TA.AperFunction,NonPlated,NPTH,ComponentDrill
T4C3.988
; #@! TA.AperFunction,NonPlated,NPTH,ComponentDrill
T5C4.000
%
G90
G05
T1
X66.42Y-49.5
X66.42Y-68.5
X66.42Y-87.5
X66.42Y-106.5
X71.17Y-68.5
X71.17Y-125.5
X75.92Y-49.5
X76.58Y-49.5
X76.58Y-68.5
X76.58Y-87.5
X76.58Y-106.5
X78.295Y-87.5
X81.33Y-68.5
X81.33Y-125.5
X83.045Y-106.5
X85.42Y-49.5
X86.08Y-49.5
X87.795Y-87.5
X87.795Y-106.5
X88.455Y-87.5
X90.17Y-68.5
X90.17Y-125.5
X92.545Y-87.5
X92.545Y-106.5
X93.205Y-106.5
X94.92Y-68.5
X94.92Y-125.5
X95.58Y-49.5
X97.295Y-106.5
X97.955Y-87.5
X97.955Y-106.5
X100.33Y-68.5
X100.33Y-125.5
X102.705Y-87.5
X102.705Y-106.5
X104.42Y-49.5
X105.08Y-68.5
X105.08Y-125.5
X107.455Y-106.5
X109.17Y-87.5
X109.17Y-106.5
X109.17Y-125.5
X113.92Y-68.5
X114.58Y-49.5
X118.67Y-87.5
X118.67Y-106.5
X119.33Y-87.5
X119.33Y-106.5
X119.33Y-125.5
X123.42Y-49.5
X123.42Y-125.5
X124.08Y-68.5
X128.17Y-87.5
X128.17Y-106.5
X128.17Y-125.5
X128.83Y-87.5
X128.83Y-106.5
X132.92Y-68.5
X133.58Y-49.5
X133.58Y-125.5
X137.67Y-87.5
X137.67Y-106.5
X138.33Y-87.5
X138.33Y-106.5
X138.33Y-125.5
X142.42Y-49.5
X143.08Y-68.5
X147.168Y-87.616
X147.168Y-106.616
X147.83Y-87.5
X147.83Y-106.5
X151.918Y-68.616
X152.58Y-49.5
X156.664Y-87.731
X156.664Y-106.731
X157.325Y-87.882
X157.325Y-106.882
X161.116Y-126.992
X161.414Y-49.731
X162.075Y-68.882
X166.15Y-88.344
X166.15Y-107.344
X166.81Y-88.263
X166.81Y-107.263
X170.9Y-69.344
X170.93Y-129.621
X171.56Y-50.263
X175.62Y-88.956
X175.62Y-107.956
X176.279Y-89.141
X176.279Y-108.141
X180.37Y-50.956
X181.029Y-70.141
X182.506Y-131.868
X185.067Y-109.065
X185.081Y-89.95
X185.724Y-90.018
X185.724Y-109.018
X189.817Y-71.065
X190.474Y-52.018
X191.305Y-136.948
X194.502Y-91.057
X194.502Y-110.057
X195.14Y-110.391
X195.185Y-91.012
X199.038Y-153.034
X199.252Y-53.057
X199.89Y-72.391
X203.905Y-111.545
X203.963Y-92.051
X204.575Y-92.383
X204.575Y-111.383
X205.755Y-146.316
X206.222Y-145.85
X208.655Y-73.545
X209.325Y-54.383
X212.473Y-139.599
X212.94Y-139.132
X213.34Y-93.537
X213.34Y-112.537
X213.978Y-112.871
X214.036Y-93.377
X218.728Y-74.871
X219.657Y-132.415
X223.413Y-94.863
X223.413Y-113.863
T2
X67.69Y-46.96
X67.69Y-65.96
X67.69Y-84.96
X67.69Y-109.04
X68.96Y-44.42
X68.96Y-111.58
X72.44Y-71.04
X72.44Y-122.96
X73.71Y-120.42
X74.04Y-44.42
X74.04Y-63.42
X74.04Y-82.42
X74.04Y-111.58
X75.31Y-46.96
X75.31Y-109.04
X77.19Y-52.04
X78.79Y-73.58
X78.79Y-120.42
X79.565Y-90.04
X80.06Y-122.96
X83.54Y-54.58
X85.585Y-101.42
X85.915Y-92.58
X86.69Y-46.96
X87.96Y-44.42
X89.065Y-84.96
X89.065Y-103.96
X91.44Y-65.96
X91.44Y-128.04
X91.935Y-103.96
X93.04Y-44.42
X93.815Y-109.04
X94.31Y-46.96
X95.085Y-92.58
X95.415Y-82.42
X95.415Y-101.42
X96.19Y-71.04
X96.19Y-122.96
X97.79Y-63.42
X97.79Y-130.58
X99.835Y-111.58
X100.165Y-111.58
X101.435Y-90.04
X102.54Y-73.58
X102.54Y-120.42
X105.69Y-46.96
X106.185Y-109.04
X106.96Y-44.42
X110.44Y-90.04
X110.44Y-103.96
X110.44Y-128.04
X112.04Y-44.42
X113.31Y-46.96
X115.19Y-65.96
X116.46Y-63.42
X116.79Y-92.58
X116.79Y-101.42
X116.79Y-130.58
X119.94Y-84.96
X119.94Y-109.04
X121.54Y-63.42
X122.81Y-65.96
X124.69Y-46.96
X124.69Y-122.96
X125.96Y-44.42
X126.29Y-82.42
X126.29Y-111.58
X129.44Y-90.04
X129.44Y-103.96
X129.44Y-128.04
X131.04Y-44.42
X131.04Y-120.42
X132.31Y-46.96
X134.19Y-65.96
X135.46Y-63.42
X135.79Y-92.58
X135.79Y-101.42
X135.79Y-130.58
X138.94Y-84.96
X138.94Y-109.04
X140.54Y-63.42
X141.81Y-65.96
X143.69Y-46.96
X144.96Y-44.42
X145.29Y-82.42
X145.29Y-111.58
X148.372Y-90.188
X148.505Y-104.11
X150.04Y-44.42
X151.31Y-46.96
X153.255Y-66.11
X154.591Y-63.604
X154.653Y-92.893
X154.919Y-101.737
X157.799Y-109.334
X158.065Y-85.261
X159.669Y-63.737
X160.872Y-66.309
X162.815Y-47.261
X163.0Y-124.867
X164.008Y-112.203
X164.216Y-44.791
X164.539Y-83.057
X164.884Y-122.742
X167.217Y-90.976
X167.615Y-104.912
X169.289Y-45.057
X169.791Y-124.057
X170.36Y-126.839
X170.425Y-47.66
X172.365Y-66.912
X173.348Y-94.006
X173.831Y-64.479
X174.145Y-102.878
X176.617Y-110.615
X177.148Y-86.563
X178.895Y-64.878
X179.962Y-67.509
X181.898Y-48.563
X182.667Y-113.805
X183.427Y-46.17
X183.729Y-84.701
X184.876Y-130.303
X186.078Y-92.609
X186.658Y-106.713
X187.245Y-128.738
X188.479Y-46.701
X189.477Y-49.36
X191.408Y-68.713
X191.475Y-134.113
X191.645Y-131.278
X192.128Y-95.799
X192.998Y-66.36
X193.285Y-105.023
X195.43Y-112.741
X196.093Y-88.705
X197.242Y-147.646
X198.035Y-67.023
X198.14Y-150.34
X198.963Y-69.707
X200.834Y-144.054
X200.843Y-50.705
X201.394Y-116.088
X202.433Y-48.352
X202.72Y-87.015
X203.528Y-144.952
X204.891Y-94.735
X205.495Y-109.193
X207.47Y-49.015
X208.398Y-51.699
X208.449Y-147.214
X210.245Y-71.193
X210.677Y-134.211
X210.855Y-98.082
X211.144Y-148.112
X211.575Y-136.905
X211.836Y-68.84
X212.122Y-107.503
X213.838Y-141.826
X214.267Y-115.221
X214.269Y-130.619
X214.736Y-144.52
X214.93Y-91.185
X216.872Y-69.503
X216.963Y-131.517
X217.8Y-72.187
X220.231Y-118.568
X221.557Y-89.495
T3
X69.062Y-56.485
X71.437Y-80.515
X76.187Y-99.515
X90.437Y-113.485
X92.938Y-56.485
X95.313Y-80.515
X100.063Y-99.515
X114.313Y-113.485
X205.845Y-156.105
X222.728Y-139.222
T4
X69.062Y-41.245
X71.437Y-95.755
X76.187Y-114.755
X90.437Y-98.245
X92.938Y-41.245
X95.313Y-95.755
X100.063Y-114.755
X114.313Y-98.245
X195.069Y-145.328
X211.952Y-128.446
T5
X71.5Y-49.5
X71.5Y-68.5
X71.5Y-87.5
X71.5Y-106.5
X76.25Y-68.5
X76.25Y-125.5
X81.0Y-49.5
X83.375Y-87.5
X88.125Y-106.5
X90.5Y-49.5
X92.875Y-87.5
X92.875Y-106.5
X95.25Y-68.5
X95.25Y-125.5
X97.625Y-87.5
X97.625Y-106.5
X100.0Y-68.5
X100.0Y-125.5
X102.375Y-106.5
X109.5Y-49.5
X114.25Y-87.5
X114.25Y-106.5
X114.25Y-125.5
X119.0Y-68.5
X123.75Y-87.5
X123.75Y-106.5
X128.5Y-49.5
X128.5Y-125.5
X133.25Y-87.5
X133.25Y-106.5
X133.25Y-125.5
X138.0Y-68.5
X142.75Y-87.5
X142.75Y-106.5
X147.5Y-49.5
X152.247Y-87.749
X152.247Y-106.749
X156.997Y-68.749
X161.737Y-87.997
X161.737Y-106.997
X166.023Y-128.307
X166.487Y-49.997
X171.214Y-88.743
X171.214Y-107.743
X175.964Y-69.743
X180.672Y-89.487
X180.672Y-108.487
X185.422Y-51.487
X186.905Y-134.408
X190.104Y-109.728
X190.133Y-90.481
X194.854Y-71.728
X199.539Y-91.72
X199.539Y-110.72
X202.63Y-149.442
X204.289Y-53.72
X208.941Y-112.208
X209.0Y-92.714
X209.347Y-142.724
X213.691Y-74.208
X216.065Y-136.007
X218.376Y-94.2
X218.376Y-113.2
M30
