M48
; DRILL file KiCad 10.0.4 date 2026-09-19T02:03:00
; FORMAT={-:-/ absolute / metric / decimal}
; #@! TF.CreationDate,2026-09-19T02:03:00+09:00
; #@! TF.GenerationSoftware,Kicad,Pcbnew,10.0.4
; #@! TF.FileFunction,Plated,1,2,PTH
FMAT,2
METRIC
; #@! TA.AperFunction,Plated,PTH,ViaDrill
T1C0.300
; #@! TA.AperFunction,Plated,PTH,ComponentDrill
T2C0.300
; #@! TA.AperFunction,Plated,PTH,ViaDrill
T3C0.500
; #@! TA.AperFunction,Plated,PTH,ComponentDrill
T4C0.500
; #@! TA.AperFunction,Plated,PTH,ComponentDrill
T5C0.600
; #@! TA.AperFunction,Plated,PTH,ComponentDrill
T6C0.700
; #@! TA.AperFunction,Plated,PTH,ComponentDrill
T7C0.800
; #@! TA.AperFunction,Plated,PTH,ComponentDrill
T8C0.813
; #@! TA.AperFunction,Plated,PTH,ComponentDrill
T9C1.100
%
G90
G05
T1
X63.5Y-54.0
X63.5Y-56.0
X64.5Y-74.93
X65.25Y-81.0
X66.25Y-72.0
X66.75Y-95.48
X66.75Y-97.0
X66.75Y-98.52
X66.75Y-127.0
X66.75Y-129.0
X67.056Y-74.93
X69.596Y-62.23
X72.136Y-62.23
X73.66Y-74.168
X75.692Y-74.168
X76.25Y-94.25
X76.25Y-96.25
X79.0Y-101.0
X79.0Y-105.0
X79.25Y-67.25
X79.5Y-41.75
X79.75Y-63.5
X80.75Y-57.0
X81.28Y-62.992
X81.5Y-41.75
X82.25Y-114.5
X82.25Y-116.5
X82.296Y-62.992
X82.296Y-71.628
X82.296Y-79.756
X83.312Y-71.628
X84.328Y-71.628
X84.328Y-72.644
X84.328Y-73.66
X84.836Y-62.992
X86.36Y-62.992
X87.376Y-62.992
X87.376Y-74.168
X88.9Y-62.992
X89.916Y-74.168
X90.0Y-71.25
X92.456Y-62.992
X92.456Y-74.168
X95.75Y-78.0
X96.125Y-74.625
X96.25Y-58.25
X96.25Y-60.25
X100.25Y-47.75
X101.375Y-52.625
X105.0Y-41.5
X105.75Y-80.85
X106.0Y-97.25
X106.0Y-99.25
X107.0Y-41.5
X107.25Y-55.5
X107.25Y-56.5
X107.25Y-62.0
X107.25Y-63.0
X107.25Y-64.0
X107.25Y-65.0
X107.25Y-66.0
X109.25Y-120.5
X110.5Y-56.515
X111.25Y-107.0
X111.25Y-111.0
X112.0Y-76.5
X112.0Y-78.5
X114.0Y-116.25
X119.0Y-116.5
X119.0Y-121.5
X121.75Y-128.0
X125.25Y-97.5
X125.25Y-99.5
X126.292Y-55.5
X130.25Y-76.5
X130.25Y-78.5
X136.0Y-74.25
X138.0Y-57.25
X138.0Y-59.25
X142.0Y-121.25
X142.0Y-123.25
X144.5Y-55.5
X146.25Y-131.75
X148.25Y-131.75
X152.25Y-74.0
X153.25Y-74.0
X154.5Y-112.0
X156.25Y-41.5
X156.5Y-56.75
X156.5Y-58.75
X158.25Y-41.5
X158.5Y-117.25
X161.25Y-103.0
X163.75Y-55.5
X170.75Y-84.75
X172.5Y-113.0
X172.75Y-99.0
X173.25Y-76.75
X174.25Y-76.75
X175.25Y-57.0
X175.25Y-59.0
X175.5Y-137.5
X177.5Y-137.5
X178.0Y-91.25
X179.0Y-121.75
X179.0Y-123.75
X180.0Y-105.25
X180.25Y-95.25
X183.75Y-103.5
X185.75Y-69.75
X185.75Y-71.75
X189.75Y-101.0
X192.0Y-79.75
X192.0Y-81.75
X192.0Y-115.0
X193.75Y-98.75
X193.75Y-100.75
X194.25Y-78.75
X194.75Y-121.75
X194.75Y-123.75
X199.25Y-136.0
X210.5Y-82.25
X210.5Y-84.25
X210.75Y-101.75
X210.75Y-103.75
X211.25Y-79.241
X212.5Y-122.5
X212.5Y-124.5
X219.5Y-49.5
X221.5Y-49.5
X228.0Y-57.0
X228.0Y-59.0
X228.0Y-85.0
X228.0Y-87.0
X228.0Y-119.75
X228.0Y-121.75
T2
X65.15Y-65.198
X65.15Y-84.198
X65.849Y-45.817
X65.849Y-110.183
X69.9Y-71.802
X70.599Y-121.817
X74.65Y-52.802
X76.58Y-64.182
X76.58Y-83.182
X77.025Y-90.802
X77.151Y-45.817
X77.151Y-110.183
X81.33Y-72.818
X81.901Y-121.817
X83.045Y-102.182
X84.849Y-45.817
X86.08Y-53.818
X86.525Y-84.198
X86.525Y-103.198
X88.455Y-91.818
X88.9Y-65.198
X88.9Y-128.802
X91.275Y-109.802
X92.545Y-91.818
X93.65Y-71.802
X93.65Y-122.198
X94.475Y-103.198
X96.151Y-45.817
X97.295Y-110.818
X97.955Y-83.182
X97.955Y-102.182
X100.33Y-64.182
X100.33Y-129.818
X102.705Y-110.818
X103.849Y-45.817
X103.975Y-90.802
X105.08Y-72.818
X105.08Y-121.182
X107.9Y-90.802
X107.9Y-103.198
X107.9Y-128.802
X108.725Y-109.802
X113.349Y-64.817
X115.151Y-45.817
X117.4Y-84.198
X117.4Y-109.802
X119.33Y-91.818
X119.33Y-102.182
X119.33Y-129.818
X122.15Y-122.198
X122.849Y-45.817
X124.651Y-64.817
X126.9Y-90.802
X126.9Y-103.198
X126.9Y-128.802
X128.83Y-83.182
X128.83Y-110.818
X132.349Y-64.817
X133.58Y-121.182
X134.151Y-45.817
X136.4Y-84.198
X136.4Y-109.802
X138.33Y-91.818
X138.33Y-102.182
X138.33Y-129.818
X141.849Y-45.817
X143.651Y-64.817
X145.812Y-90.883
X145.985Y-103.282
X147.83Y-83.182
X147.83Y-110.818
X151.444Y-64.919
X153.151Y-45.817
X155.223Y-109.962
X155.568Y-84.367
X157.212Y-92.198
X157.438Y-102.565
X161.036Y-46.023
X161.517Y-123.286
X162.743Y-65.215
X164.625Y-91.536
X165.143Y-103.953
X166.584Y-111.575
X167.036Y-83.951
X170.619Y-65.628
X172.323Y-46.615
X172.435Y-126.212
X174.012Y-111.108
X174.702Y-85.54
X175.94Y-93.446
X176.617Y-103.837
X180.186Y-47.234
X181.887Y-66.514
X183.473Y-93.101
X183.852Y-128.392
X184.239Y-105.625
X185.273Y-113.313
X186.175Y-85.724
X189.731Y-67.339
X191.427Y-48.415
X192.812Y-113.165
X193.641Y-134.044
X193.674Y-87.618
X194.734Y-95.306
X195.704Y-106.11
X196.029Y-150.834
X199.166Y-49.331
X200.938Y-68.814
X202.273Y-95.159
X203.076Y-108.105
X204.012Y-115.665
X204.022Y-142.841
X205.139Y-88.102
X207.956Y-149.325
X208.569Y-69.819
X209.464Y-137.399
X210.372Y-50.807
X211.649Y-115.645
X212.511Y-90.098
X213.472Y-97.658
X214.541Y-108.59
X215.948Y-141.332
X217.457Y-129.406
X219.775Y-71.294
X222.849Y-118.145
X223.976Y-90.582
T3
X63.5Y-62.738
T4
X106.875Y-59.065
X108.125Y-59.065
T6
X115.25Y-59.0
X115.25Y-59.0
X120.5Y-59.0
X120.5Y-59.0
T7
X147.75Y-121.0
X150.25Y-121.0
X152.75Y-121.0
T8
X103.19Y-114.75
X103.19Y-117.25
X110.81Y-114.75
X110.81Y-117.25
X124.69Y-114.75
X124.69Y-117.25
X132.31Y-114.75
X132.31Y-117.25
X143.709Y-79.145
X143.709Y-98.145
X143.774Y-76.645
X143.774Y-95.645
X143.94Y-57.75
X143.94Y-60.25
X144.44Y-114.75
X144.44Y-117.25
X151.326Y-79.344
X151.326Y-98.344
X151.391Y-76.845
X151.391Y-95.845
X151.56Y-57.75
X151.56Y-60.25
X152.06Y-114.75
X152.06Y-117.25
X162.185Y-79.797
X162.185Y-98.797
X162.316Y-77.301
X162.316Y-96.301
X163.314Y-60.547
X163.314Y-118.0
X163.445Y-58.051
X163.445Y-115.504
X169.794Y-80.196
X169.794Y-99.196
X169.925Y-77.699
X169.925Y-96.699
X170.924Y-60.946
X170.924Y-118.399
X171.055Y-58.449
X171.055Y-115.903
X179.45Y-100.088
X179.711Y-97.602
X180.2Y-81.024
X180.461Y-78.537
X182.45Y-119.588
X182.7Y-62.067
X182.711Y-117.102
X182.961Y-59.581
X187.028Y-100.885
X187.289Y-98.398
X187.778Y-81.82
X188.039Y-79.334
X190.028Y-120.385
X190.278Y-62.864
X190.289Y-117.898
X190.539Y-60.377
X197.896Y-102.231
X198.223Y-99.753
X198.617Y-131.697
X198.943Y-129.219
X199.249Y-83.231
X199.27Y-126.74
X199.575Y-80.753
X199.596Y-124.262
X199.898Y-121.78
X200.224Y-119.301
X201.499Y-64.231
X201.825Y-61.753
X205.451Y-103.226
X205.777Y-100.747
X206.172Y-132.692
X206.498Y-130.213
X206.804Y-84.226
X206.825Y-127.735
X207.13Y-81.747
X207.151Y-125.256
X207.452Y-122.774
X207.779Y-120.296
X209.054Y-65.226
X209.38Y-62.747
T9
X65.78Y-60.88
X65.78Y-76.12
X68.32Y-60.88
X68.32Y-76.12
X70.86Y-60.88
X70.86Y-76.12
X73.4Y-60.88
X73.4Y-76.12
X75.94Y-60.88
X75.94Y-76.12
X78.48Y-60.88
X78.48Y-76.12
X81.02Y-60.88
X81.02Y-76.12
X83.56Y-60.88
X83.56Y-76.12
X86.1Y-60.88
X86.1Y-76.12
X88.64Y-60.88
X88.64Y-76.12
X91.18Y-60.88
X91.18Y-76.12
X93.72Y-60.88
X93.72Y-76.12
T5
G00X64.15Y-92.68
M15
G01X64.75Y-92.68
M16
G05
G00X64.75Y-92.68
M15
G01X64.15Y-92.68
M16
G05
G00X64.75Y-101.32
M15
G01X64.15Y-101.32
M16
G05
G00X64.15Y-101.32
M15
G01X64.75Y-101.32
M16
G05
G00X67.95Y-92.68
M15
G01X68.55Y-92.68
M16
G05
G00X68.55Y-92.68
M15
G01X67.95Y-92.68
M16
G05
G00X67.95Y-101.32
M15
G01X68.55Y-101.32
M16
G05
G00X68.55Y-101.32
M15
G01X67.95Y-101.32
M16
G05
M30
