%TF.GenerationSoftware,KiCad,Pcbnew,10.0.4*%
%TF.CreationDate,2026-09-17T19:42:20+09:00*%
%TF.ProjectId,yuwol,7975776f-6c2e-46b6-9963-61645f706362,rev?*%
%TF.SameCoordinates,Original*%
%TF.FileFunction,Paste,Top*%
%TF.FilePolarity,Positive*%
%FSLAX46Y46*%
G04 Gerber Fmt 4.6, Leading zero omitted, Abs format (unit mm)*
G04 Created by KiCad (PCBNEW 10.0.4) date 2026-09-17 19:42:20*
%MOMM*%
%LPD*%
G01*
G04 APERTURE LIST*
G04 Aperture macros list*
%AMRoundRect*
0 Rectangle with rounded corners*
0 $1 Rounding radius*
0 $2 $3 $4 $5 $6 $7 $8 $9 X,Y pos of 4 corners*
0 Add a 4 corners polygon primitive as box body*
4,1,4,$2,$3,$4,$5,$6,$7,$8,$9,$2,$3,0*
0 Add four circle primitives for the rounded corners*
1,1,$1+$1,$2,$3*
1,1,$1+$1,$4,$5*
1,1,$1+$1,$6,$7*
1,1,$1+$1,$8,$9*
0 Add four rect primitives between the rounded corners*
20,1,$1+$1,$2,$3,$4,$5,0*
20,1,$1+$1,$4,$5,$6,$7,0*
20,1,$1+$1,$6,$7,$8,$9,0*
20,1,$1+$1,$8,$9,$2,$3,0*%
%AMRotRect*
0 Rectangle, with rotation*
0 The origin of the aperture is its center*
0 $1 length*
0 $2 width*
0 $3 Rotation angle, in degrees counterclockwise*
0 Add horizontal line*
21,1,$1,$2,0,0,$3*%
G04 Aperture macros list end*
%ADD10RotRect,2.500000X2.500000X172.500000*%
%ADD11RotRect,1.400000X0.940000X357.000000*%
%ADD12R,2.500000X2.500000*%
%ADD13RotRect,1.400000X0.940000X358.500000*%
%ADD14R,1.700000X1.000000*%
%ADD15RotRect,1.400000X0.940000X352.500000*%
%ADD16RotRect,2.500000X2.500000X357.000000*%
%ADD17RotRect,1.400000X0.940000X354.000000*%
%ADD18RotRect,2.500000X2.500000X150.000000*%
%ADD19RotRect,2.500000X2.500000X175.500000*%
%ADD20RotRect,2.500000X2.500000X177.000000*%
%ADD21R,1.400000X0.940000*%
%ADD22RotRect,2.500000X2.500000X354.000000*%
%ADD23RotRect,2.500000X2.500000X178.500000*%
%ADD24RotRect,2.500000X2.500000X355.500000*%
%ADD25RotRect,2.500000X2.500000X352.500000*%
%ADD26RotRect,2.500000X2.500000X45.000000*%
%ADD27RoundRect,0.175000X-0.425000X0.175000X-0.425000X-0.175000X0.425000X-0.175000X0.425000X0.175000X0*%
%ADD28RoundRect,0.190000X0.410000X-0.190000X0.410000X0.190000X-0.410000X0.190000X-0.410000X-0.190000X0*%
%ADD29RoundRect,0.200000X0.400000X-0.200000X0.400000X0.200000X-0.400000X0.200000X-0.400000X-0.200000X0*%
%ADD30RoundRect,0.175000X0.425000X-0.175000X0.425000X0.175000X-0.425000X0.175000X-0.425000X-0.175000X0*%
%ADD31RoundRect,0.190000X-0.410000X0.190000X-0.410000X-0.190000X0.410000X-0.190000X0.410000X0.190000X0*%
%ADD32RoundRect,0.200000X-0.400000X0.200000X-0.400000X-0.200000X0.400000X-0.200000X0.400000X0.200000X0*%
%ADD33O,1.700000X1.100000*%
%ADD34RotRect,2.500000X2.500000X358.500000*%
%ADD35RotRect,2.500000X2.500000X225.000000*%
%ADD36RotRect,2.500000X2.500000X165.000000*%
%ADD37RotRect,2.500000X2.500000X174.000000*%
G04 APERTURE END LIST*
D10*
%TO.C,SW8*%
X199159655Y-47921350D03*
X211644527Y-52126931D03*
%TD*%
D11*
%TO.C,D31*%
X168891728Y-118292622D03*
X165346592Y-118106830D03*
%TD*%
D12*
%TO.C,SW35*%
X120092000Y-130580000D03*
X107165000Y-128040000D03*
%TD*%
%TO.C,SW26*%
X90540000Y-109040000D03*
X103467000Y-111580000D03*
%TD*%
D13*
%TO.C,D17*%
X149291739Y-98290802D03*
X145742955Y-98197874D03*
%TD*%
D11*
%TO.C,D20*%
X167892940Y-96592896D03*
X164347804Y-96407104D03*
%TD*%
D14*
%TO.C,SW41*%
X102600000Y-80850000D03*
X108900000Y-80850000D03*
X102600000Y-84650000D03*
X108900000Y-84650000D03*
%TD*%
D15*
%TO.C,D23*%
X203433500Y-102960295D03*
X199913870Y-102496927D03*
%TD*%
D12*
%TO.C,SW19*%
X120092000Y-92580000D03*
X107165000Y-90040000D03*
%TD*%
%TO.C,SW20*%
X139092000Y-92580000D03*
X126165000Y-90040000D03*
%TD*%
%TO.C,SW34*%
X101092000Y-130580000D03*
X88165000Y-128040000D03*
%TD*%
D16*
%TO.C,SW29*%
X167305108Y-112375977D03*
X154528757Y-109162911D03*
%TD*%
D10*
%TO.C,SW15*%
X189724697Y-65929011D03*
X202209569Y-70134592D03*
%TD*%
D17*
%TO.C,D13*%
X185753956Y-81607380D03*
X182223402Y-81236304D03*
%TD*%
D11*
%TO.C,D3*%
X168891728Y-60839470D03*
X165346592Y-60653678D03*
%TD*%
D15*
%TO.C,D38*%
X205133289Y-124990617D03*
X201613659Y-124527249D03*
%TD*%
D17*
%TO.C,D34*%
X188265277Y-117685538D03*
X184734723Y-117314462D03*
%TD*%
D12*
%TO.C,SW17*%
X89217000Y-92580000D03*
X76290000Y-90040000D03*
%TD*%
D18*
%TO.C,SW38*%
X184385852Y-127087240D03*
X194310962Y-135750444D03*
%TD*%
D11*
%TO.C,D32*%
X169022568Y-115796048D03*
X165477432Y-115610256D03*
%TD*%
D12*
%TO.C,SW25*%
X77342000Y-111580000D03*
X64415000Y-109040000D03*
%TD*%
D15*
%TO.C,D15*%
X204785920Y-83960295D03*
X201266290Y-83496927D03*
%TD*%
%TO.C,D36*%
X204480657Y-129947842D03*
X200961027Y-129484474D03*
%TD*%
D17*
%TO.C,D6*%
X188515277Y-60164633D03*
X184984723Y-59793557D03*
%TD*%
D11*
%TO.C,D4*%
X169022568Y-58342896D03*
X165477432Y-58157104D03*
%TD*%
D19*
%TO.C,SW14*%
X170538785Y-64220025D03*
X183226650Y-67766435D03*
%TD*%
D13*
%TO.C,D9*%
X149291739Y-79290802D03*
X145742955Y-79197874D03*
%TD*%
D20*
%TO.C,SW6*%
X160918854Y-44618407D03*
X173695205Y-47831473D03*
%TD*%
D21*
%TO.C,D2*%
X149525000Y-57750000D03*
X145975000Y-57750000D03*
%TD*%
D22*
%TO.C,SW30*%
X185950911Y-114150232D03*
X173360228Y-110272906D03*
%TD*%
D23*
%TO.C,SW13*%
X151289726Y-63517496D03*
X164145807Y-66395015D03*
%TD*%
D21*
%TO.C,D27*%
X130275000Y-117250000D03*
X126725000Y-117250000D03*
%TD*%
D24*
%TO.C,SW22*%
X176639623Y-94265421D03*
X163951758Y-90719011D03*
%TD*%
D12*
%TO.C,SW2*%
X84658000Y-44420000D03*
X97585000Y-46960000D03*
%TD*%
%TO.C,SW27*%
X129592000Y-111580000D03*
X116665000Y-109040000D03*
%TD*%
D10*
%TO.C,SW16*%
X208562149Y-68409008D03*
X221047021Y-72614589D03*
%TD*%
D17*
%TO.C,D21*%
X185003956Y-100671842D03*
X181473402Y-100300766D03*
%TD*%
D21*
%TO.C,D25*%
X108775000Y-117250000D03*
X105225000Y-117250000D03*
%TD*%
D12*
%TO.C,SW12*%
X132158000Y-63420000D03*
X145085000Y-65960000D03*
%TD*%
D17*
%TO.C,D22*%
X185265277Y-98185538D03*
X181734723Y-97814462D03*
%TD*%
D21*
%TO.C,D1*%
X149525000Y-60250000D03*
X145975000Y-60250000D03*
%TD*%
%TO.C,D29*%
X150025001Y-117250002D03*
X146475001Y-117250002D03*
%TD*%
D12*
%TO.C,SW33*%
X70408000Y-120420000D03*
X83335000Y-122960000D03*
%TD*%
%TO.C,SW9*%
X82092000Y-73580000D03*
X69165000Y-71040000D03*
%TD*%
D21*
%TO.C,D26*%
X108775000Y-114750000D03*
X105225000Y-114750000D03*
%TD*%
D12*
%TO.C,SW1*%
X65658000Y-44420000D03*
X78585000Y-46960000D03*
%TD*%
D22*
%TO.C,SW23*%
X195411869Y-96143933D03*
X182821186Y-92266607D03*
%TD*%
D15*
%TO.C,D7*%
X207035920Y-64960295D03*
X203516290Y-64496927D03*
%TD*%
D25*
%TO.C,SW32*%
X223505004Y-118999493D03*
X211020132Y-114793912D03*
%TD*%
D26*
%TO.C,SW39*%
X217070477Y-142185371D03*
X206133657Y-149530089D03*
%TD*%
D21*
%TO.C,D28*%
X130275000Y-114750000D03*
X126725000Y-114750000D03*
%TD*%
D27*
%TO.C,J1*%
X68330003Y-96499999D03*
D28*
X68329999Y-98520000D03*
D29*
X68330002Y-99750000D03*
D30*
X68330003Y-97500000D03*
D31*
X68330002Y-95480002D03*
D32*
X68330003Y-94249999D03*
D33*
X68250001Y-92679999D03*
X64449998Y-92680000D03*
X68250002Y-101319999D03*
X64449999Y-101320001D03*
%TD*%
D12*
%TO.C,SW28*%
X148592000Y-111580000D03*
X135665000Y-109040000D03*
%TD*%
D17*
%TO.C,D33*%
X188003956Y-120171842D03*
X184473402Y-119800766D03*
%TD*%
D15*
%TO.C,D37*%
X204806973Y-127469231D03*
X201287343Y-127005863D03*
%TD*%
D34*
%TO.C,SW21*%
X157953764Y-92979866D03*
X145097683Y-90102347D03*
%TD*%
D35*
%TO.C,SW39*%
X205843742Y-142635798D03*
X194906922Y-149980516D03*
%TD*%
D25*
%TO.C,SW24*%
X214128509Y-98513197D03*
X201643637Y-94307616D03*
%TD*%
D12*
%TO.C,SW11*%
X113158000Y-63420000D03*
X126085000Y-65960000D03*
%TD*%
D15*
%TO.C,D35*%
X204154341Y-132426454D03*
X200634711Y-131963086D03*
%TD*%
D11*
%TO.C,D12*%
X167892940Y-77592896D03*
X164347804Y-77407104D03*
%TD*%
D17*
%TO.C,D14*%
X186015277Y-79121076D03*
X182484723Y-78750000D03*
%TD*%
D36*
%TO.C,SW37*%
X161694778Y-121887701D03*
X173523901Y-127686906D03*
%TD*%
D13*
%TO.C,D18*%
X149357181Y-95791658D03*
X145808397Y-95698730D03*
%TD*%
D12*
%TO.C,SW36*%
X139092000Y-130580000D03*
X126165000Y-128040000D03*
%TD*%
%TO.C,SW26*%
X82283000Y-101420000D03*
X95210000Y-103960000D03*
%TD*%
%TO.C,SW5*%
X141658000Y-44420000D03*
X154585000Y-46960000D03*
%TD*%
D11*
%TO.C,D11*%
X167762100Y-80089470D03*
X164216964Y-79903678D03*
%TD*%
D17*
%TO.C,D5*%
X188253956Y-62650937D03*
X184723402Y-62279861D03*
%TD*%
D15*
%TO.C,D40*%
X205761132Y-120030131D03*
X202241502Y-119566763D03*
%TD*%
D13*
%TO.C,D10*%
X149357181Y-76791658D03*
X145808397Y-76698730D03*
%TD*%
D25*
%TO.C,SW31*%
X204667551Y-116519496D03*
X192182679Y-112313915D03*
%TD*%
D15*
%TO.C,D39*%
X205434817Y-122508742D03*
X201915187Y-122045374D03*
%TD*%
%TO.C,D8*%
X207362235Y-62481684D03*
X203842605Y-62018316D03*
%TD*%
D12*
%TO.C,SW4*%
X122658000Y-44420000D03*
X135585000Y-46960000D03*
%TD*%
D21*
%TO.C,D30*%
X150025000Y-114750000D03*
X146475000Y-114750000D03*
%TD*%
D12*
%TO.C,SW1*%
X73915000Y-52040000D03*
X86842000Y-54580000D03*
%TD*%
D35*
%TO.C,SW40*%
X219278771Y-129200769D03*
X208341951Y-136545487D03*
%TD*%
D15*
%TO.C,D24*%
X203759815Y-100481684D03*
X200240185Y-100018316D03*
%TD*%
D12*
%TO.C,SW10*%
X105842000Y-73580000D03*
X92915000Y-71040000D03*
%TD*%
D37*
%TO.C,SW7*%
X180142927Y-45824576D03*
X192733610Y-49701902D03*
%TD*%
D11*
%TO.C,D19*%
X167762100Y-99089470D03*
X164216964Y-98903678D03*
%TD*%
D12*
%TO.C,SW3*%
X103658000Y-44420000D03*
X116585000Y-46960000D03*
%TD*%
D15*
%TO.C,D16*%
X205112235Y-81481684D03*
X201592605Y-81018316D03*
%TD*%
M02*
