%TF.GenerationSoftware,KiCad,Pcbnew,10.0.4*%
%TF.CreationDate,2026-09-17T19:42:20+09:00*%
%TF.ProjectId,yuwol,7975776f-6c2e-46b6-9963-61645f706362,rev?*%
%TF.SameCoordinates,Original*%
%TF.FileFunction,Soldermask,Bot*%
%TF.FilePolarity,Negative*%
%FSLAX46Y46*%
G04 Gerber Fmt 4.6, Leading zero omitted, Abs format (unit mm)*
G04 Created by KiCad (PCBNEW 10.0.4) date 2026-09-17 19:42:20*
%MOMM*%
%LPD*%
G01*
G04 APERTURE LIST*
G04 Aperture macros list*
%AMRoundRect*
0 Rectangle with rounded corners*
0 $1 Rounding radius*
0 $2 $3 $4 $5 $6 $7 $8 $9 X,Y pos of 4 corners*
0 Add a 4 corners polygon primitive as box body*
4,1,4,$2,$3,$4,$5,$6,$7,$8,$9,$2,$3,0*
0 Add four circle primitives for the rounded corners*
1,1,$1+$1,$2,$3*
1,1,$1+$1,$4,$5*
1,1,$1+$1,$6,$7*
1,1,$1+$1,$8,$9*
0 Add four rect primitives between the rounded corners*
20,1,$1+$1,$2,$3,$4,$5,0*
20,1,$1+$1,$4,$5,$6,$7,0*
20,1,$1+$1,$6,$7,$8,$9,0*
20,1,$1+$1,$8,$9,$2,$3,0*%
%AMRotRect*
0 Rectangle, with rotation*
0 The origin of the aperture is its center*
0 $1 length*
0 $2 width*
0 $3 Rotation angle, in degrees counterclockwise*
0 Add horizontal line*
21,1,$1,$2,0,0,$3*%
%AMFreePoly0*
4,1,73,0.689121,1.154551,0.719509,1.154551,0.728665,1.150758,0.734986,1.150152,0.741726,1.145348,0.755557,1.139619,0.769929,1.125246,0.777139,1.120108,0.778876,1.116299,0.783147,1.112029,0.798079,1.075981,0.798302,1.073714,0.798622,1.073013,0.798498,1.071722,0.800000,1.056472,0.800000,0.000000,0.798079,-0.019509,0.796148,-0.024170,0.796148,-0.078414,0.765552,-0.232228,
0.705537,-0.377117,0.618408,-0.507515,0.507515,-0.618408,0.377117,-0.705537,0.232228,-0.765552,0.078414,-0.796148,-0.078414,-0.796148,-0.232228,-0.765552,-0.377117,-0.705537,-0.507515,-0.618408,-0.618408,-0.507515,-0.705537,-0.377117,-0.765552,-0.232228,-0.796148,-0.078414,-0.796148,-0.024170,-0.798079,-0.019509,-0.800000,0.000000,-0.800000,1.056472,-0.798498,1.071722,-0.798622,1.073013,
-0.798302,1.073714,-0.798079,1.075981,-0.783147,1.112029,-0.778876,1.116299,-0.777139,1.120108,-0.769929,1.125246,-0.755557,1.139619,-0.741726,1.145348,-0.734986,1.150152,-0.728665,1.150758,-0.719509,1.154551,-0.689121,1.154551,-0.683459,1.155094,-0.682269,1.154551,-0.680491,1.154551,-0.644443,1.139619,-0.640172,1.135348,-0.636364,1.133611,-0.569740,1.078531,-0.419475,0.993027,
-0.256768,0.934575,-0.086444,0.904909,0.086444,0.904909,0.256768,0.934575,0.419475,0.993027,0.569740,1.078531,0.636364,1.133611,0.640172,1.135348,0.644443,1.139619,0.680491,1.154551,0.682269,1.154551,0.683459,1.155094,0.689121,1.154551,0.689121,1.154551,$1*%
%AMFreePoly1*
4,1,49,0.400000,-0.740814,-0.364354,-0.740814,-0.367835,-0.740471,-0.368923,-0.740710,-0.370501,-0.740208,-0.383863,-0.738893,-0.414166,-0.726340,-0.418258,-0.725041,-0.418837,-0.724405,-0.419911,-0.723961,-0.447501,-0.696371,-0.450062,-0.690187,-0.453150,-0.686804,-0.455051,-0.678144,-0.462433,-0.660323,-0.462433,-0.644516,-0.464249,-0.636244,-0.462433,-0.630526,-0.462433,-0.621305,-0.449877,-0.590994,
-0.448580,-0.586909,-0.416499,-0.536817,-0.372422,-0.426316,-0.350000,-0.309582,-0.350000,0.309582,-0.372422,0.426316,-0.416499,0.536817,-0.448580,0.586909,-0.449880,0.591004,-0.462432,0.621305,-0.462432,0.630523,-0.464249,0.636244,-0.462432,0.644521,-0.462432,0.660323,-0.455052,0.678139,-0.453150,0.686804,-0.450060,0.690189,-0.447500,0.696371,-0.419910,0.723961,-0.418838,0.724404,
-0.418258,0.725041,-0.414162,0.726341,-0.383862,0.738893,-0.370501,0.740208,-0.368923,0.740710,-0.367834,0.740471,-0.364353,0.740814,0.400000,0.740814,0.400000,-0.740814,0.400000,-0.740814,$1*%
%AMFreePoly2*
4,1,59,0.319509,0.738893,0.355557,0.723961,0.383147,0.696371,0.398079,0.660323,0.400000,0.640814,0.400000,-0.640814,0.398079,-0.660323,0.383147,-0.696371,0.355557,-0.723961,0.319509,-0.738893,0.300000,-0.740814,-0.364354,-0.740814,-0.367835,-0.740471,-0.368923,-0.740710,-0.370501,-0.740208,-0.383863,-0.738893,-0.414166,-0.726340,-0.418258,-0.725041,-0.418837,-0.724405,-0.419911,-0.723961,
-0.447501,-0.696371,-0.450062,-0.690187,-0.453150,-0.686804,-0.455051,-0.678144,-0.462433,-0.660323,-0.462433,-0.644516,-0.464249,-0.636244,-0.462433,-0.630526,-0.462433,-0.621305,-0.449877,-0.590994,-0.448580,-0.586909,-0.416499,-0.536817,-0.372422,-0.426316,-0.350000,-0.309582,-0.350000,0.309582,-0.372422,0.426316,-0.416499,0.536817,-0.448580,0.586909,-0.449880,0.591004,-0.462432,0.621305,
-0.462432,0.630523,-0.464249,0.636244,-0.462432,0.644521,-0.462432,0.660323,-0.455052,0.678139,-0.453150,0.686804,-0.450060,0.690189,-0.447500,0.696371,-0.419910,0.723961,-0.418838,0.724404,-0.418258,0.725041,-0.414162,0.726341,-0.383862,0.738893,-0.370501,0.740208,-0.368923,0.740710,-0.367834,0.740471,-0.364353,0.740814,0.300000,0.740814,0.319509,0.738893,0.319509,0.738893,
$1*%
%AMFreePoly3*
4,1,6,1.000000,0.000000,0.500000,-0.750000,-0.500000,-0.750000,-0.500000,0.750000,0.500000,0.750000,1.000000,0.000000,1.000000,0.000000,$1*%
%AMFreePoly4*
4,1,6,0.500000,-0.750000,-0.650000,-0.750000,-0.150000,0.000000,-0.650000,0.750000,0.500000,0.750000,0.500000,-0.750000,0.500000,-0.750000,$1*%
G04 Aperture macros list end*
%ADD10C,0.000000*%
%ADD11C,1.500000*%
%ADD12C,1.701800*%
%ADD13C,3.000000*%
%ADD14C,4.000000*%
%ADD15RotRect,2.500000X2.500000X172.500000*%
%ADD16RotRect,1.397000X1.397000X177.000000*%
%ADD17RotRect,1.400000X0.940000X177.000000*%
%ADD18C,1.397000*%
%ADD19C,0.600000*%
%ADD20RotRect,1.397000X1.397000X178.500000*%
%ADD21RotRect,1.400000X0.940000X178.500000*%
%ADD22RotRect,1.397000X1.397000X172.500000*%
%ADD23RotRect,1.400000X0.940000X172.500000*%
%ADD24RotRect,1.397000X1.397000X174.000000*%
%ADD25RotRect,1.400000X0.940000X174.000000*%
%ADD26RotRect,2.500000X2.500000X150.000000*%
%ADD27R,2.500000X2.500000*%
%ADD28RotRect,2.500000X2.500000X175.500000*%
%ADD29RotRect,2.500000X2.500000X177.000000*%
%ADD30R,1.397000X1.397000*%
%ADD31R,1.400000X0.940000*%
%ADD32RotRect,2.500000X2.500000X178.500000*%
%ADD33R,1.500000X1.500000*%
%ADD34C,1.600000*%
%ADD35FreePoly0,0.000000*%
%ADD36FreePoly0,180.000000*%
%ADD37R,1.600000X1.600000*%
%ADD38RotRect,2.500000X2.500000X45.000000*%
%ADD39O,1.700000X1.100000*%
%ADD40O,0.800000X1.300000*%
%ADD41FreePoly1,180.000000*%
%ADD42FreePoly2,0.000000*%
%ADD43RotRect,2.500000X2.500000X225.000000*%
%ADD44RotRect,2.500000X2.500000X165.000000*%
%ADD45RotRect,2.500000X2.500000X174.000000*%
%ADD46RotRect,2.500000X2.500000X352.500000*%
%ADD47RotRect,2.500000X2.500000X355.500000*%
%ADD48RotRect,2.500000X2.500000X358.500000*%
%ADD49RotRect,2.500000X2.500000X357.000000*%
%ADD50RotRect,2.500000X2.500000X354.000000*%
%ADD51RoundRect,0.175000X0.425000X-0.175000X0.425000X0.175000X-0.425000X0.175000X-0.425000X-0.175000X0*%
%ADD52RoundRect,0.190000X-0.410000X0.190000X-0.410000X-0.190000X0.410000X-0.190000X0.410000X0.190000X0*%
%ADD53RoundRect,0.200000X-0.400000X0.200000X-0.400000X-0.200000X0.400000X-0.200000X0.400000X0.200000X0*%
%ADD54RoundRect,0.175000X-0.425000X0.175000X-0.425000X-0.175000X0.425000X-0.175000X0.425000X0.175000X0*%
%ADD55RoundRect,0.190000X0.410000X-0.190000X0.410000X0.190000X-0.410000X0.190000X-0.410000X-0.190000X0*%
%ADD56RoundRect,0.200000X0.400000X-0.200000X0.400000X0.200000X-0.400000X0.200000X-0.400000X-0.200000X0*%
%ADD57R,1.700000X1.000000*%
%ADD58FreePoly3,0.000000*%
%ADD59FreePoly4,0.000000*%
G04 APERTURE END LIST*
D10*
%TO.C,JP1*%
G36*
X115475000Y-121250000D02*
G01*
X113025000Y-121250000D01*
X113025000Y-119750000D01*
X115475000Y-119750000D01*
X115475000Y-121250000D01*
G37*
%TD*%
D11*
%TO.C,TP-1*%
X120500002Y-59000000D03*
%TD*%
D12*
%TO.C,SW8*%
X199252063Y-53057350D03*
D13*
X200842735Y-50704848D03*
X202433406Y-48352346D03*
D14*
X204288603Y-53720423D03*
D13*
X207469947Y-49015420D03*
X208397545Y-51699458D03*
D12*
X209325143Y-54383496D03*
D15*
X197595753Y-50277376D03*
X210743696Y-49446417D03*
%TD*%
D16*
%TO.C,D31*%
X170923938Y-118399126D03*
D17*
X168891728Y-118292622D03*
X165346592Y-118106830D03*
D18*
X163314382Y-118000326D03*
%TD*%
D12*
%TO.C,SW35*%
X119330000Y-125500000D03*
D13*
X116790000Y-130580000D03*
D14*
X114250000Y-125500000D03*
D13*
X110440000Y-128040000D03*
D12*
X109170000Y-125500000D03*
D19*
X119330000Y-129818000D03*
X107900000Y-128802000D03*
%TD*%
D12*
%TO.C,SW26*%
X102705000Y-106500000D03*
D13*
X100165000Y-111580000D03*
D14*
X97625000Y-106500000D03*
D13*
X93815000Y-109040000D03*
D12*
X92545000Y-106500000D03*
D19*
X91275000Y-109802000D03*
X102705000Y-110818000D03*
%TD*%
D20*
%TO.C,D17*%
X151326041Y-98344072D03*
D21*
X149291739Y-98290802D03*
X145742955Y-98197874D03*
D18*
X143708653Y-98144604D03*
%TD*%
D16*
%TO.C,D20*%
X169925150Y-96699400D03*
D17*
X167892940Y-96592896D03*
X164347804Y-96407104D03*
D18*
X162315594Y-96300600D03*
%TD*%
D22*
%TO.C,D23*%
X205451090Y-103225915D03*
D23*
X203433500Y-102960295D03*
X199913870Y-102496927D03*
D18*
X197896280Y-102231307D03*
%TD*%
D12*
%TO.C,SW19*%
X119330000Y-87500000D03*
D13*
X116790000Y-92580000D03*
D14*
X114250000Y-87500000D03*
D13*
X110440000Y-90040000D03*
D12*
X109170000Y-87500000D03*
D19*
X119330000Y-91818000D03*
X107900000Y-90802000D03*
%TD*%
D12*
%TO.C,SW20*%
X138330000Y-87500000D03*
D13*
X135790000Y-92580000D03*
D14*
X133250000Y-87500000D03*
D13*
X129440000Y-90040000D03*
D12*
X128170000Y-87500000D03*
D19*
X138330000Y-91818000D03*
X126900000Y-90802000D03*
%TD*%
D12*
%TO.C,SW34*%
X100330000Y-125500000D03*
D13*
X97790000Y-130580000D03*
D14*
X95250000Y-125500000D03*
D13*
X91440000Y-128040000D03*
D12*
X90170000Y-125500000D03*
D19*
X100330000Y-129818000D03*
X88900000Y-128802000D03*
%TD*%
D12*
%TO.C,SW29*%
X166810019Y-107263059D03*
D13*
X164007634Y-112203164D03*
D14*
X161736981Y-106997192D03*
D13*
X157799269Y-109334311D03*
D12*
X156663943Y-106731325D03*
D19*
X166584032Y-111575141D03*
X155222870Y-109962334D03*
%TD*%
D12*
%TO.C,SW15*%
X189817105Y-71065011D03*
D13*
X191407777Y-68712509D03*
X192998448Y-66360007D03*
D14*
X194853645Y-71728084D03*
D13*
X198034989Y-67023081D03*
X198962587Y-69707119D03*
D12*
X199890185Y-72391157D03*
D15*
X188160795Y-68285037D03*
X201308738Y-67454078D03*
%TD*%
D24*
%TO.C,D13*%
X187777807Y-81820095D03*
D25*
X185753956Y-81607380D03*
X182223402Y-81236304D03*
D18*
X180199551Y-81023589D03*
%TD*%
D16*
%TO.C,D3*%
X170923938Y-60945974D03*
D17*
X168891728Y-60839470D03*
X165346592Y-60653678D03*
D18*
X163314382Y-60547174D03*
%TD*%
D22*
%TO.C,D38*%
X207150879Y-125256237D03*
D23*
X205133289Y-124990617D03*
X201613659Y-124527249D03*
D18*
X199596069Y-124261629D03*
%TD*%
D24*
%TO.C,D34*%
X190289128Y-117898253D03*
D25*
X188265277Y-117685538D03*
X184734723Y-117314462D03*
D18*
X182710872Y-117101747D03*
%TD*%
D12*
%TO.C,SW17*%
X88455000Y-87500000D03*
D13*
X85915000Y-92580000D03*
D14*
X83375000Y-87500000D03*
D13*
X79565000Y-90040000D03*
D12*
X78295000Y-87500000D03*
D19*
X88455000Y-91818000D03*
X77025000Y-90802000D03*
%TD*%
D12*
%TO.C,SW38*%
X182505763Y-131867649D03*
D13*
X184875615Y-130302945D03*
X187245467Y-128738239D03*
D14*
X186905172Y-134407649D03*
D13*
X191644877Y-131278240D03*
X191474729Y-134112944D03*
D12*
X191304581Y-136947649D03*
D26*
X182039382Y-128665444D03*
X194504492Y-132929240D03*
%TD*%
D16*
%TO.C,D32*%
X171054778Y-115902552D03*
D17*
X169022568Y-115796048D03*
X165477432Y-115610256D03*
D18*
X163445222Y-115503752D03*
%TD*%
D12*
%TO.C,SW25*%
X76580000Y-106500000D03*
D13*
X75310000Y-109040000D03*
X74040001Y-111579998D03*
D14*
X71500000Y-106500000D03*
D13*
X68959997Y-111580000D03*
X67690000Y-109040000D03*
D12*
X66420000Y-106500000D03*
D27*
X78585000Y-109040000D03*
X65658000Y-111580000D03*
%TD*%
D22*
%TO.C,D15*%
X206803510Y-84225915D03*
D23*
X204785920Y-83960295D03*
X201266290Y-83496927D03*
D18*
X199248700Y-83231307D03*
%TD*%
D22*
%TO.C,D36*%
X206498247Y-130213462D03*
D23*
X204480657Y-129947842D03*
X200961027Y-129484474D03*
D18*
X198943437Y-129218854D03*
%TD*%
D24*
%TO.C,D6*%
X190539128Y-60377348D03*
D25*
X188515277Y-60164633D03*
X184984723Y-59793557D03*
D18*
X182960872Y-59580842D03*
%TD*%
D16*
%TO.C,D4*%
X171054778Y-58449400D03*
D17*
X169022568Y-58342896D03*
X165477432Y-58157104D03*
D18*
X163445222Y-58050600D03*
%TD*%
D12*
%TO.C,SW14*%
X170899864Y-69344150D03*
D13*
X172365235Y-66911624D03*
X173830606Y-64479096D03*
D14*
X175964204Y-69742723D03*
D13*
X178894947Y-64877669D03*
X179961745Y-67509482D03*
D12*
X181028544Y-70141296D03*
D28*
X169100331Y-66654671D03*
X182186767Y-65136741D03*
%TD*%
D20*
%TO.C,D9*%
X151326041Y-79344072D03*
D21*
X149291739Y-79290802D03*
X145742955Y-79197874D03*
D18*
X143708653Y-79144604D03*
%TD*%
D12*
%TO.C,SW6*%
X161413943Y-49731325D03*
D13*
X162815136Y-47261273D03*
X164216328Y-44791220D03*
D14*
X166486981Y-49997192D03*
D13*
X169289367Y-45057087D03*
X170424693Y-47660073D03*
D12*
X171560019Y-50263059D03*
D29*
X159544624Y-47089873D03*
X172586841Y-45229901D03*
%TD*%
D30*
%TO.C,D2*%
X151560000Y-57750000D03*
D31*
X149525000Y-57750000D03*
X145975000Y-57750000D03*
D18*
X143940000Y-57750000D03*
%TD*%
D12*
%TO.C,SW30*%
X185724090Y-109018409D03*
D13*
X182667000Y-113805078D03*
D14*
X180671919Y-108487404D03*
D13*
X176617288Y-110615236D03*
D12*
X175619748Y-107956399D03*
D19*
X185272736Y-113312754D03*
X174011552Y-111107560D03*
%TD*%
D12*
%TO.C,SW13*%
X151918486Y-68615702D03*
D13*
X153254540Y-66109817D03*
X154590594Y-63603932D03*
D14*
X156996745Y-68748681D03*
D13*
X159668854Y-63736911D03*
X160871929Y-66309286D03*
D12*
X162075004Y-68881660D03*
D32*
X149980662Y-66024088D03*
X162969722Y-63823348D03*
%TD*%
D30*
%TO.C,D27*%
X132310000Y-117250000D03*
D31*
X130275000Y-117250000D03*
X126725000Y-117250000D03*
D18*
X124690000Y-117250000D03*
%TD*%
D12*
%TO.C,SW22*%
X176278544Y-89141296D03*
D13*
X173347802Y-94006350D03*
D14*
X171214204Y-88742723D03*
D13*
X167216663Y-90975964D03*
D12*
X166149864Y-88344150D03*
D19*
X175939757Y-93445984D03*
X164624707Y-91536329D03*
%TD*%
D12*
%TO.C,SW2*%
X85420000Y-49500000D03*
D13*
X86690000Y-46960000D03*
X87960000Y-44420000D03*
D14*
X90500000Y-49500000D03*
D13*
X93040000Y-44420000D03*
X94310000Y-46960000D03*
D12*
X95580000Y-49500000D03*
D27*
X83415000Y-46960000D03*
X96342000Y-44420000D03*
%TD*%
D12*
%TO.C,SW27*%
X128830000Y-106500000D03*
D13*
X126290000Y-111580000D03*
D14*
X123750000Y-106500000D03*
D13*
X119940000Y-109040000D03*
D12*
X118670000Y-106500000D03*
D19*
X128830000Y-110818000D03*
X117400000Y-109802000D03*
%TD*%
D12*
%TO.C,SW16*%
X208654557Y-73545008D03*
D13*
X210245229Y-71192506D03*
X211835900Y-68840004D03*
D14*
X213691097Y-74208081D03*
D13*
X216872441Y-69503078D03*
X217800039Y-72187116D03*
D12*
X218727637Y-74871154D03*
D15*
X206998247Y-70765034D03*
X220146190Y-69934075D03*
%TD*%
D33*
%TO.C,TP+1*%
X115250000Y-59000000D03*
%TD*%
D24*
%TO.C,D21*%
X187027807Y-100884557D03*
D25*
X185003956Y-100671842D03*
X181473402Y-100300766D03*
D18*
X179449551Y-100088051D03*
%TD*%
D30*
%TO.C,D25*%
X110810000Y-117250000D03*
D31*
X108775000Y-117250000D03*
X105225000Y-117250000D03*
D18*
X103190000Y-117250000D03*
%TD*%
D12*
%TO.C,SW12*%
X132920000Y-68500000D03*
D13*
X134190000Y-65960000D03*
X135460000Y-63420000D03*
D14*
X138000000Y-68500000D03*
D13*
X140540000Y-63420000D03*
X141810000Y-65960000D03*
D12*
X143080000Y-68500000D03*
D27*
X130915000Y-65960000D03*
X143842000Y-63420000D03*
%TD*%
D24*
%TO.C,D22*%
X187289128Y-98398253D03*
D25*
X185265277Y-98185538D03*
X181734723Y-97814462D03*
D18*
X179710872Y-97601747D03*
%TD*%
D30*
%TO.C,D1*%
X151560000Y-60250000D03*
D31*
X149525000Y-60250000D03*
X145975000Y-60250000D03*
D18*
X143940000Y-60250000D03*
%TD*%
D30*
%TO.C,D29*%
X152060001Y-117250002D03*
D31*
X150025001Y-117250002D03*
X146475001Y-117250002D03*
D18*
X144440001Y-117250002D03*
%TD*%
D12*
%TO.C,SW33*%
X71170000Y-125500000D03*
D13*
X72440000Y-122960000D03*
X73710000Y-120420000D03*
D14*
X76250000Y-125500000D03*
D13*
X78790000Y-120420000D03*
X80060000Y-122960000D03*
D12*
X81330000Y-125500000D03*
D27*
X69165000Y-122960000D03*
X82092000Y-120420000D03*
%TD*%
D12*
%TO.C,SW9*%
X81330000Y-68500000D03*
D13*
X78790000Y-73580000D03*
D14*
X76250000Y-68500000D03*
D13*
X72440000Y-71040000D03*
D12*
X71170000Y-68500000D03*
D19*
X81330000Y-72818000D03*
X69900000Y-71802000D03*
%TD*%
D30*
%TO.C,D26*%
X110810000Y-114750000D03*
D31*
X108775000Y-114750000D03*
X105225000Y-114750000D03*
D18*
X103190000Y-114750000D03*
%TD*%
D34*
%TO.C,U1*%
X65780000Y-60880000D03*
X65780000Y-76120000D03*
X68320000Y-60880000D03*
X68320000Y-76120000D03*
X70860000Y-60880000D03*
X70860000Y-76120000D03*
X73400000Y-60880000D03*
X73400000Y-76120000D03*
X75940000Y-60880000D03*
X75940000Y-76120000D03*
X78480000Y-60880000D03*
X78480000Y-76120000D03*
X81020000Y-60880000D03*
X81020000Y-76120000D03*
X83560000Y-60880000D03*
X83560000Y-76120000D03*
X86100000Y-60880000D03*
X86100000Y-76120000D03*
X88640000Y-60880000D03*
X88640000Y-76120000D03*
X91180000Y-60880000D03*
X91180000Y-76120000D03*
X93720000Y-60880000D03*
X93720000Y-76120000D03*
D35*
X65780000Y-78025000D03*
X68320000Y-78025000D03*
X70860000Y-78025000D03*
X73400000Y-78025000D03*
X75940000Y-78025000D03*
X78480000Y-78025000D03*
X81020000Y-78025000D03*
X83560000Y-78025000D03*
X86100000Y-78025000D03*
X88640000Y-78025000D03*
X91180000Y-78025000D03*
X93720000Y-78025000D03*
D36*
X93720000Y-58975000D03*
X91180000Y-58975000D03*
X88640000Y-58975000D03*
X86100000Y-58975000D03*
X83560000Y-58975000D03*
X81020000Y-58975000D03*
X78480000Y-58975000D03*
X75940000Y-58975000D03*
X73400000Y-58975000D03*
X70860000Y-58975000D03*
X68320000Y-58975000D03*
D37*
X65780000Y-58975000D03*
D36*
X65780000Y-58975000D03*
%TD*%
D12*
%TO.C,SW1*%
X66420000Y-49500000D03*
D13*
X67690000Y-46960000D03*
X68960000Y-44420000D03*
D14*
X71500000Y-49500000D03*
D13*
X74040000Y-44420000D03*
X75310000Y-46960000D03*
D12*
X76580000Y-49500000D03*
D27*
X64415000Y-46960000D03*
X77342000Y-44420000D03*
%TD*%
D12*
%TO.C,SW23*%
X195185048Y-91012110D03*
D13*
X192127958Y-95798779D03*
D14*
X190132877Y-90481105D03*
D13*
X186078246Y-92608937D03*
D12*
X185080706Y-89950100D03*
D19*
X194733694Y-95306455D03*
X183472510Y-93101261D03*
%TD*%
D22*
%TO.C,D7*%
X209053510Y-65225915D03*
D23*
X207035920Y-64960295D03*
X203516290Y-64496927D03*
D18*
X201498700Y-64231307D03*
%TD*%
D12*
%TO.C,SW32*%
X223412596Y-113863493D03*
D13*
X220231253Y-118568497D03*
D14*
X218376056Y-113200420D03*
D13*
X214267114Y-115221385D03*
D12*
X213339516Y-112537347D03*
D19*
X222848983Y-118144552D03*
X211649384Y-115645330D03*
%TD*%
D12*
%TO.C,SW39*%
X212939559Y-139132084D03*
D13*
X213837585Y-141826160D03*
X214735611Y-144520235D03*
D14*
X209347457Y-142724186D03*
D13*
X211143505Y-148112341D03*
X208449431Y-147214314D03*
D12*
X205755355Y-146316288D03*
D38*
X216153360Y-139510386D03*
X208808642Y-150447206D03*
%TD*%
D30*
%TO.C,D28*%
X132310000Y-114750000D03*
D31*
X130275000Y-114750000D03*
X126725000Y-114750000D03*
D18*
X124690000Y-114750000D03*
%TD*%
D39*
%TO.C,J1*%
X68250001Y-92679999D03*
X64449998Y-92680000D03*
X68250002Y-101319999D03*
X64449999Y-101320001D03*
%TD*%
D12*
%TO.C,SW28*%
X147830000Y-106500000D03*
D13*
X145290000Y-111580000D03*
D14*
X142750000Y-106500000D03*
D13*
X138940000Y-109040000D03*
D12*
X137670000Y-106500000D03*
D19*
X147830000Y-110818000D03*
X136400000Y-109802000D03*
%TD*%
D24*
%TO.C,D33*%
X190027807Y-120384557D03*
D25*
X188003956Y-120171842D03*
X184473402Y-119800766D03*
D18*
X182449551Y-119588051D03*
%TD*%
D22*
%TO.C,D37*%
X206824563Y-127734851D03*
D23*
X204806973Y-127469231D03*
X201287343Y-127005863D03*
D18*
X199269753Y-126740243D03*
%TD*%
D40*
%TO.C,J2*%
X106875000Y-59064998D03*
X108124997Y-59064999D03*
D41*
X105900000Y-59065004D03*
D42*
X109100004Y-59064999D03*
%TD*%
D12*
%TO.C,SW21*%
X157325004Y-87881660D03*
D13*
X154652896Y-92893430D03*
D14*
X152246745Y-87748681D03*
D13*
X148371561Y-90188076D03*
D12*
X147168486Y-87615702D03*
D19*
X157211972Y-92198180D03*
X145812485Y-90883326D03*
%TD*%
D12*
%TO.C,SW39*%
X199037840Y-153033803D03*
D13*
X198139814Y-150339727D03*
X197241788Y-147645650D03*
D14*
X202629942Y-149441701D03*
D13*
X200833891Y-144053547D03*
X203527968Y-144951573D03*
D12*
X206222044Y-145849599D03*
D43*
X203168757Y-141718681D03*
X195824039Y-152655501D03*
%TD*%
D12*
%TO.C,SW24*%
X214036101Y-93377197D03*
D13*
X210854758Y-98082201D03*
D14*
X208999561Y-92714124D03*
D13*
X204890619Y-94735089D03*
D12*
X203963021Y-92051051D03*
D19*
X213472488Y-97658256D03*
X202272889Y-95159034D03*
%TD*%
D12*
%TO.C,SW11*%
X113920000Y-68500000D03*
D13*
X115190000Y-65960000D03*
X116460000Y-63420000D03*
D14*
X119000000Y-68500000D03*
D13*
X121540000Y-63420000D03*
X122810000Y-65960000D03*
D12*
X124080000Y-68500000D03*
D27*
X111915000Y-65960000D03*
X124842000Y-63420000D03*
%TD*%
D22*
%TO.C,D35*%
X206171931Y-132692074D03*
D23*
X204154341Y-132426454D03*
X200634711Y-131963086D03*
D18*
X198617121Y-131697466D03*
%TD*%
D16*
%TO.C,D12*%
X169925150Y-77699400D03*
D17*
X167892940Y-77592896D03*
X164347804Y-77407104D03*
D18*
X162315594Y-77300600D03*
%TD*%
D24*
%TO.C,D14*%
X188039128Y-79333791D03*
D25*
X186015277Y-79121076D03*
X182484723Y-78750000D03*
D18*
X180460872Y-78537285D03*
%TD*%
D12*
%TO.C,SW37*%
X161116013Y-126991824D03*
D13*
X163000139Y-124867073D03*
X164884265Y-122742321D03*
D14*
X166022916Y-128306625D03*
D13*
X169791168Y-124057122D03*
X170360494Y-126839274D03*
D12*
X170929819Y-129621426D03*
D44*
X159836732Y-124019440D03*
X172980655Y-124911743D03*
%TD*%
D20*
%TO.C,D18*%
X151391483Y-95844928D03*
D21*
X149357181Y-95791658D03*
X145808397Y-95698730D03*
D18*
X143774095Y-95645460D03*
%TD*%
D12*
%TO.C,SW36*%
X138330000Y-125500000D03*
D13*
X135790002Y-130580000D03*
D14*
X133250000Y-125500000D03*
D13*
X129440000Y-128040000D03*
D12*
X128170000Y-125500000D03*
D19*
X138330002Y-129817999D03*
X126900001Y-128801997D03*
%TD*%
D12*
%TO.C,SW26*%
X83045000Y-106500000D03*
D13*
X85584999Y-101420002D03*
D14*
X88125000Y-106500000D03*
D13*
X91935000Y-103960000D03*
D12*
X93205000Y-106500000D03*
D19*
X83044998Y-102182000D03*
X94475001Y-103198002D03*
%TD*%
D12*
%TO.C,SW5*%
X142420000Y-49500000D03*
D13*
X143690000Y-46960000D03*
X144960000Y-44420000D03*
D14*
X147500000Y-49500000D03*
D13*
X150040000Y-44420000D03*
X151310000Y-46960000D03*
D12*
X152580000Y-49500000D03*
D27*
X140415000Y-46960000D03*
X153342000Y-44420000D03*
%TD*%
D16*
%TO.C,D11*%
X169794310Y-80195974D03*
D17*
X167762100Y-80089470D03*
X164216964Y-79903678D03*
D18*
X162184754Y-79797174D03*
%TD*%
D24*
%TO.C,D5*%
X190277807Y-62863652D03*
D25*
X188253956Y-62650937D03*
X184723402Y-62279861D03*
D18*
X182699551Y-62067146D03*
%TD*%
D22*
%TO.C,D40*%
X207778722Y-120295751D03*
D23*
X205761132Y-120030131D03*
X202241502Y-119566763D03*
D18*
X200223912Y-119301143D03*
%TD*%
D20*
%TO.C,D10*%
X151391483Y-76844928D03*
D21*
X149357181Y-76791658D03*
X145808397Y-76698730D03*
D18*
X143774095Y-76645460D03*
%TD*%
D12*
%TO.C,SW31*%
X204575143Y-111383496D03*
D13*
X201393800Y-116088500D03*
D14*
X199538603Y-110720423D03*
D13*
X195429661Y-112741388D03*
D12*
X194502063Y-110057350D03*
D19*
X204011530Y-115664555D03*
X192811931Y-113165333D03*
%TD*%
D22*
%TO.C,D39*%
X207452407Y-122774362D03*
D23*
X205434817Y-122508742D03*
X201915187Y-122045374D03*
D18*
X199897597Y-121779754D03*
%TD*%
D22*
%TO.C,D8*%
X209379825Y-62747304D03*
D23*
X207362235Y-62481684D03*
X203842605Y-62018316D03*
D18*
X201825015Y-61752696D03*
%TD*%
D11*
%TO.C,SW42*%
X152750000Y-121000000D03*
X150250000Y-121000000D03*
X147750000Y-121000000D03*
%TD*%
D12*
%TO.C,SW4*%
X123420000Y-49500000D03*
D13*
X124690000Y-46960000D03*
X125960000Y-44420000D03*
D14*
X128500000Y-49500000D03*
D13*
X131040000Y-44420000D03*
X132310000Y-46960000D03*
D12*
X133580000Y-49500000D03*
D27*
X121415000Y-46960000D03*
X134342000Y-44420000D03*
%TD*%
D30*
%TO.C,D30*%
X152060000Y-114750000D03*
D31*
X150025000Y-114750000D03*
X146475000Y-114750000D03*
D18*
X144440000Y-114750000D03*
%TD*%
D12*
%TO.C,SW1*%
X86080000Y-49500000D03*
D13*
X83540000Y-54580000D03*
D14*
X81000000Y-49500000D03*
D13*
X77190000Y-52040000D03*
D12*
X75920000Y-49500000D03*
D19*
X74650000Y-52802000D03*
X86080000Y-53818000D03*
%TD*%
D12*
%TO.C,SW40*%
X212472869Y-139598774D03*
D13*
X211574843Y-136904698D03*
X210676817Y-134210621D03*
D14*
X216064971Y-136006672D03*
D13*
X214268920Y-130618518D03*
X216962997Y-131516544D03*
D12*
X219657073Y-132414570D03*
D43*
X216603786Y-128283652D03*
X209259068Y-139220472D03*
%TD*%
D22*
%TO.C,D24*%
X205777405Y-100747304D03*
D23*
X203759815Y-100481684D03*
X200240185Y-100018316D03*
D18*
X198222595Y-99752696D03*
%TD*%
D12*
%TO.C,SW10*%
X105080000Y-68500000D03*
D13*
X102540000Y-73580000D03*
D14*
X100000000Y-68500000D03*
D13*
X96190000Y-71040000D03*
D12*
X94920000Y-68500000D03*
D19*
X105080000Y-72818000D03*
X93650000Y-71802000D03*
%TD*%
D12*
%TO.C,SW7*%
X180369748Y-50956399D03*
D13*
X181898293Y-48563065D03*
X183426838Y-46169730D03*
D14*
X185421919Y-51487404D03*
D13*
X188479010Y-46700735D03*
X189476550Y-49359572D03*
D12*
X190474090Y-52018409D03*
D45*
X178641234Y-48220735D03*
X191762920Y-47045888D03*
%TD*%
D16*
%TO.C,D19*%
X169794310Y-99195974D03*
D17*
X167762100Y-99089470D03*
X164216964Y-98903678D03*
D18*
X162184754Y-98797174D03*
%TD*%
D12*
%TO.C,SW3*%
X104420000Y-49500000D03*
D13*
X105690000Y-46960000D03*
X106960000Y-44420000D03*
D14*
X109500000Y-49500000D03*
D13*
X112040000Y-44420000D03*
X113310000Y-46960000D03*
D12*
X114580000Y-49500000D03*
D27*
X102415000Y-46960000D03*
X115342000Y-44420000D03*
%TD*%
D22*
%TO.C,D16*%
X207129825Y-81747304D03*
D23*
X205112235Y-81481684D03*
X201592605Y-81018316D03*
D18*
X199575015Y-80752696D03*
%TD*%
D12*
%TO.C,SW32*%
X213977637Y-112871154D03*
D13*
X212122444Y-107503078D03*
D14*
X208941097Y-112208081D03*
D13*
X205495229Y-109192506D03*
D12*
X203904557Y-111545008D03*
D46*
X215396190Y-107934075D03*
D19*
X214541249Y-108590097D03*
X203076420Y-108105491D03*
D46*
X202248247Y-108765034D03*
%TD*%
D12*
%TO.C,SW30*%
X176278544Y-108141296D03*
D13*
X174144950Y-102877669D03*
D14*
X171214204Y-107742723D03*
D13*
X167615235Y-104911624D03*
D12*
X166149864Y-107344150D03*
D47*
X177436767Y-103136741D03*
D19*
X176617330Y-103836608D03*
X165142851Y-103952689D03*
D47*
X164350331Y-104654671D03*
%TD*%
D11*
%TO.C,TP-1*%
X120500002Y-59000000D03*
%TD*%
D12*
%TO.C,SW34*%
X105080000Y-125500000D03*
D13*
X102540001Y-120420000D03*
D14*
X100000000Y-125500000D03*
D13*
X96190000Y-122960000D03*
D12*
X94920000Y-125500000D03*
D27*
X105842000Y-120420000D03*
D19*
X105080000Y-121182001D03*
X93650001Y-122198003D03*
D27*
X92915000Y-122960000D03*
%TD*%
D12*
%TO.C,SW23*%
X204575143Y-92383496D03*
D13*
X202719950Y-87015420D03*
D14*
X199538603Y-91720423D03*
D13*
X196092735Y-88704848D03*
D12*
X194502063Y-91057350D03*
D46*
X205993696Y-87446417D03*
D19*
X205138755Y-88102439D03*
X193673926Y-87617833D03*
D46*
X192845753Y-88277376D03*
%TD*%
D12*
%TO.C,SW27*%
X119330000Y-106500000D03*
D13*
X116790003Y-101420000D03*
D14*
X114250000Y-106500000D03*
D13*
X110440000Y-103960000D03*
D12*
X109170000Y-106500000D03*
D27*
X120092000Y-101420000D03*
D19*
X119330000Y-102182001D03*
X107900001Y-103198002D03*
D27*
X107165000Y-103960000D03*
%TD*%
D12*
%TO.C,SW36*%
X133580000Y-125500000D03*
D13*
X131040001Y-120420000D03*
D14*
X128500000Y-125500000D03*
D13*
X124690000Y-122960000D03*
D12*
X123420000Y-125500000D03*
D27*
X134342000Y-120420000D03*
D19*
X133580000Y-121182001D03*
X122150001Y-122198003D03*
D27*
X121415000Y-122960000D03*
%TD*%
D12*
%TO.C,SW31*%
X195140185Y-110391157D03*
D13*
X193284992Y-105023081D03*
D14*
X190103645Y-109728084D03*
D13*
X186657777Y-106712509D03*
D12*
X185067105Y-109065011D03*
D46*
X196558738Y-105454078D03*
D19*
X195703797Y-106110100D03*
X184238968Y-105625494D03*
D46*
X183410795Y-106285037D03*
%TD*%
D12*
%TO.C,SW28*%
X138330000Y-106500000D03*
D13*
X135790003Y-101420000D03*
D14*
X133250000Y-106500000D03*
D13*
X129440000Y-103960000D03*
D12*
X128170000Y-106500000D03*
D27*
X139092000Y-101420000D03*
D19*
X138330000Y-102182001D03*
X126900001Y-103198002D03*
D27*
X126165000Y-103960000D03*
%TD*%
D12*
%TO.C,SW24*%
X223412596Y-94863493D03*
D13*
X221557403Y-89495417D03*
D14*
X218376056Y-94200420D03*
D13*
X214930188Y-91184845D03*
D12*
X213339516Y-93537347D03*
D46*
X224831149Y-89926414D03*
D19*
X223976208Y-90582436D03*
X212511379Y-90097830D03*
D46*
X211683206Y-90757373D03*
%TD*%
D12*
%TO.C,SW26*%
X97295000Y-106500000D03*
D13*
X99834999Y-111579998D03*
D14*
X102375000Y-106500000D03*
D13*
X106185000Y-109040000D03*
D12*
X107455000Y-106500000D03*
D27*
X96533000Y-111580000D03*
D19*
X97295000Y-110817999D03*
X108724999Y-109801997D03*
D27*
X109460000Y-109040000D03*
%TD*%
D12*
%TO.C,SW29*%
X157325004Y-106881660D03*
D13*
X154918857Y-101736911D03*
D14*
X152246745Y-106748681D03*
D13*
X148504540Y-104109817D03*
D12*
X147168486Y-106615702D03*
D48*
X158219722Y-101823348D03*
D19*
X157438036Y-102565141D03*
X145985358Y-103281591D03*
D48*
X145230662Y-104024088D03*
%TD*%
D12*
%TO.C,SW21*%
X166810019Y-88263059D03*
D13*
X164539370Y-83057087D03*
D14*
X161736981Y-87997192D03*
D13*
X158065136Y-85261273D03*
D12*
X156663943Y-87731325D03*
D49*
X167836841Y-83229901D03*
D19*
X167036005Y-83950978D03*
X155568497Y-84367386D03*
D49*
X154794624Y-85089873D03*
%TD*%
D12*
%TO.C,SW22*%
X185724090Y-90018409D03*
D13*
X183729013Y-84700735D03*
D14*
X180671919Y-89487404D03*
D13*
X177148293Y-86563065D03*
D12*
X175619748Y-88956399D03*
D50*
X187012920Y-85045888D03*
D19*
X186175444Y-85724065D03*
X174701858Y-85539739D03*
D50*
X173891234Y-86220735D03*
%TD*%
D51*
%TO.C,J1*%
X68330001Y-97500001D03*
D52*
X68330000Y-95479999D03*
D53*
X68330002Y-94250000D03*
D54*
X68330003Y-96500000D03*
D55*
X68330002Y-98519998D03*
D56*
X68330001Y-99750001D03*
D39*
X68250001Y-101320001D03*
X64450000Y-101319999D03*
X68250002Y-92680001D03*
X64449999Y-92679999D03*
%TD*%
D12*
%TO.C,SW19*%
X128830000Y-87500000D03*
D13*
X126290003Y-82420000D03*
D14*
X123750000Y-87500000D03*
D13*
X119940000Y-84960000D03*
D12*
X118670000Y-87500000D03*
D27*
X129592000Y-82420000D03*
D19*
X128830000Y-83182001D03*
X117400001Y-84198002D03*
D27*
X116665000Y-84960000D03*
%TD*%
D33*
%TO.C,TP+1*%
X115250000Y-59000000D03*
%TD*%
D12*
%TO.C,SW26*%
X97955000Y-106500000D03*
D13*
X95415000Y-101420000D03*
D14*
X92875000Y-106500000D03*
D13*
X89065000Y-103960000D03*
D12*
X87795000Y-106500000D03*
D19*
X86525000Y-103198000D03*
D27*
X85790000Y-103960000D03*
X98717000Y-101420000D03*
D19*
X97955000Y-102182000D03*
%TD*%
D12*
%TO.C,SW17*%
X76580000Y-87500000D03*
D13*
X74040003Y-82420000D03*
D14*
X71500000Y-87500000D03*
D13*
X67690000Y-84960000D03*
D12*
X66420000Y-87500000D03*
D27*
X77342000Y-82420000D03*
D19*
X76580000Y-83182001D03*
X65150001Y-84198002D03*
D27*
X64415000Y-84960000D03*
%TD*%
D12*
%TO.C,SW18*%
X97955000Y-87500000D03*
D13*
X95415003Y-82420000D03*
D14*
X92875000Y-87500000D03*
D13*
X89065000Y-84960000D03*
D12*
X87795000Y-87500000D03*
D27*
X98717000Y-82420000D03*
D19*
X97955000Y-83182001D03*
X86525001Y-84198002D03*
D27*
X85790000Y-84960000D03*
%TD*%
D12*
%TO.C,SW9*%
X76580000Y-68500000D03*
D13*
X74040003Y-63420000D03*
D14*
X71500000Y-68500000D03*
D13*
X67690000Y-65960000D03*
D12*
X66420000Y-68500000D03*
D27*
X77342000Y-63420000D03*
D19*
X76580000Y-64182001D03*
X65150001Y-65198002D03*
D27*
X64415000Y-65960000D03*
%TD*%
D57*
%TO.C,SW41*%
X108900000Y-80850000D03*
X102600000Y-80850000D03*
X108900000Y-84650000D03*
X102600000Y-84650000D03*
%TD*%
D58*
%TO.C,JP1*%
X113525001Y-120500000D03*
D59*
X114974999Y-120500000D03*
%TD*%
D12*
%TO.C,SW18*%
X92545000Y-87500000D03*
D13*
X95085000Y-92580000D03*
D14*
X97625000Y-87500000D03*
D13*
X101435000Y-90040000D03*
D12*
X102705000Y-87500000D03*
D19*
X103975000Y-90802000D03*
D27*
X104710000Y-90040000D03*
X91783000Y-92580000D03*
D19*
X92545000Y-91818000D03*
%TD*%
D12*
%TO.C,SW10*%
X100330000Y-68500000D03*
D13*
X97790003Y-63420000D03*
D14*
X95250000Y-68500000D03*
D13*
X91440000Y-65960000D03*
D12*
X90170000Y-68500000D03*
D27*
X101092000Y-63420000D03*
D19*
X100330000Y-64182001D03*
X88900001Y-65198002D03*
D27*
X88165000Y-65960000D03*
%TD*%
D12*
%TO.C,SW20*%
X147830000Y-87500000D03*
D13*
X145290003Y-82420000D03*
D14*
X142750000Y-87500000D03*
D13*
X138940000Y-84960000D03*
D12*
X137670000Y-87500000D03*
D27*
X148592000Y-82420000D03*
D19*
X147830000Y-83182001D03*
X136400001Y-84198002D03*
D27*
X135665000Y-84960000D03*
%TD*%
M02*
