  0
SECTION
  2
HEADER
  9
$ACADVER
  1
AC1015
  9
$ACADMAINTVER
 70
    20
  9
$DWGCODEPAGE
  3
ANSI_1252
  9
$INSBASE
 10
0.0
 20
0.0
 30
0.0
  9
$EXTMIN
 10
-179.0
 20
11.022765278622
 30
0.0
  9
$EXTMAX
 10
-5.5
 20
137.0
 30
0.0
  9
$LIMMIN
 10
-179.0
 20
11.022765278622
  9
$LIMMAX
 10
-5.5
 20
137.0
  9
$ORTHOMODE
 70
     0
  9
$REGENMODE
 70
     1
  9
$FILLMODE
 70
     1
  9
$QTEXTMODE
 70
     0
  9
$MIRRTEXT
 70
     0
  9
$LTSCALE
 40
1.0
  9
$ATTMODE
 70
     1
  9
$TEXTSIZE
 40
2.5
  9
$TRACEWID
 40
1.0
  9
$TEXTSTYLE
  7
Standard
  9
$CLAYER
  8
0
  9
$CELTYPE
  6
ByLayer
  9
$CECOLOR
 62
   256
  9
$CELTSCALE
 40
1.0
  9
$DISPSILH
 70
     0
  9
$DIMSCALE
 40
1.0
  9
$DIMASZ
 40
2.5
  9
$DIMEXO
 40
0.625
  9
$DIMDLI
 40
3.75
  9
$DIMRND
 40
0.0
  9
$DIMDLE
 40
0.0
  9
$DIMEXE
 40
1.25
  9
$DIMTP
 40
0.0
  9
$DIMTM
 40
0.0
  9
$DIMTXT
 40
2.5
  9
$DIMCEN
 40
2.5
  9
$DIMTSZ
 40
0.0
  9
$DIMTOL
 70
     0
  9
$DIMLIM
 70
     0
  9
$DIMTIH
 70
     0
  9
$DIMTOH
 70
     0
  9
$DIMSE1
 70
     0
  9
$DIMSE2
 70
     0
  9
$DIMTAD
 70
     1
  9
$DIMZIN
 70
     8
  9
$DIMBLK
  1

  9
$DIMASO
 70
     1
  9
$DIMSHO
 70
     1
  9
$DIMPOST
  1

  9
$DIMAPOST
  1

  9
$DIMALT
 70
     0
  9
$DIMALTD
 70
     3
  9
$DIMALTF
 40
0.03937007874
  9
$DIMLFAC
 40
1.0
  9
$DIMTOFL
 70
     1
  9
$DIMTVP
 40
0.0
  9
$DIMTIX
 70
     0
  9
$DIMSOXD
 70
     0
  9
$DIMSAH
 70
     0
  9
$DIMBLK1
  1

  9
$DIMBLK2
  1

  9
$DIMSTYLE
  2
ISO-25
  9
$DIMCLRD
 70
     0
  9
$DIMCLRE
 70
     0
  9
$DIMCLRT
 70
     0
  9
$DIMTFAC
 40
1.0
  9
$DIMGAP
 40
0.625
  9
$DIMJUST
 70
     0
  9
$DIMSD1
 70
     0
  9
$DIMSD2
 70
     0
  9
$DIMTOLJ
 70
     0
  9
$DIMTZIN
 70
     8
  9
$DIMALTZ
 70
     0
  9
$DIMALTTZ
 70
     0
  9
$DIMUPT
 70
     0
  9
$DIMDEC
 70
     2
  9
$DIMTDEC
 70
     2
  9
$DIMALTU
 70
     2
  9
$DIMALTTD
 70
     3
  9
$DIMTXSTY
  7
Standard
  9
$DIMAUNIT
 70
     0
  9
$DIMADEC
 70
     0
  9
$DIMALTRND
 40
0.0
  9
$DIMAZIN
 70
     0
  9
$DIMDSEP
 70
    44
  9
$DIMATFIT
 70
     3
  9
$DIMFRAC
 70
     0
  9
$DIMLDRBLK
  1

  9
$DIMLUNIT
 70
     2
  9
$DIMLWD
 70
    -2
  9
$DIMLWE
 70
    -2
  9
$DIMTMOVE
 70
     0
  9
$LUNITS
 70
     2
  9
$LUPREC
 70
     4
  9
$SKETCHINC
 40
1.0
  9
$FILLETRAD
 40
0.0
  9
$AUNITS
 70
     0
  9
$AUPREC
 70
     0
  9
$MENU
  1
.
  9
$ELEVATION
 40
0.0
  9
$PELEVATION
 40
0.0
  9
$THICKNESS
 40
0.0
  9
$LIMCHECK
 70
     0
  9
$CHAMFERA
 40
0.0
  9
$CHAMFERB
 40
0.0
  9
$CHAMFERC
 40
0.0
  9
$CHAMFERD
 40
0.0
  9
$SKPOLY
 70
     0
  9
$TDCREATE
 40
2456236.994979560841
  9
$TDUCREATE
 40
2456237.328312892932
  9
$TDUPDATE
 40
2456236.997909063008
  9
$TDUUPDATE
 40
2456237.331242396031
  9
$TDINDWG
 40
0.0029298727
  9
$TDUSRTIMER
 40
0.0029298727
  9
$USRTIMER
 70
     1
  9
$ANGBASE
 50
0.0
  9
$ANGDIR
 70
     0
  9
$PDMODE
 70
     0
  9
$PDSIZE
 40
0.0
  9
$PLINEWID
 40
0.0
  9
$SPLFRAME
 70
     0
  9
$SPLINETYPE
 70
     6
  9
$SPLINESEGS
 70
     8
  9
$HANDSEED
  5
e4
  9
$SURFTAB1
 70
     6
  9
$SURFTAB2
 70
     6
  9
$SURFTYPE
 70
     6
  9
$SURFU
 70
     6
  9
$SURFV
 70
     6
  9
$UCSBASE
  2

  9
$UCSNAME
  2

  9
$UCSORG
 10
0.0
 20
0.0
 30
0.0
  9
$UCSXDIR
 10
1.0
 20
0.0
 30
0.0
  9
$UCSYDIR
 10
0.0
 20
1.0
 30
0.0
  9
$UCSORTHOREF
  2

  9
$UCSORTHOVIEW
 70
     0
  9
$UCSORGTOP
 10
0.0
 20
0.0
 30
0.0
  9
$UCSORGBOTTOM
 10
0.0
 20
0.0
 30
0.0
  9
$UCSORGLEFT
 10
0.0
 20
0.0
 30
0.0
  9
$UCSORGRIGHT
 10
0.0
 20
0.0
 30
0.0
  9
$UCSORGFRONT
 10
0.0
 20
0.0
 30
0.0
  9
$UCSORGBACK
 10
0.0
 20
0.0
 30
0.0
  9
$PUCSBASE
  2

  9
$PUCSNAME
  2

  9
$PUCSORG
 10
0.0
 20
0.0
 30
0.0
  9
$PUCSXDIR
 10
1.0
 20
0.0
 30
0.0
  9
$PUCSYDIR
 10
0.0
 20
1.0
 30
0.0
  9
$PUCSORTHOREF
  2

  9
$PUCSORTHOVIEW
 70
     0
  9
$PUCSORGTOP
 10
0.0
 20
0.0
 30
0.0
  9
$PUCSORGBOTTOM
 10
0.0
 20
0.0
 30
0.0
  9
$PUCSORGLEFT
 10
0.0
 20
0.0
 30
0.0
  9
$PUCSORGRIGHT
 10
0.0
 20
0.0
 30
0.0
  9
$PUCSORGFRONT
 10
0.0
 20
0.0
 30
0.0
  9
$PUCSORGBACK
 10
0.0
 20
0.0
 30
0.0
  9
$USERI1
 70
     0
  9
$USERI2
 70
     0
  9
$USERI3
 70
     0
  9
$USERI4
 70
     0
  9
$USERI5
 70
     0
  9
$USERR1
 40
0.0
  9
$USERR2
 40
0.0
  9
$USERR3
 40
0.0
  9
$USERR4
 40
0.0
  9
$USERR5
 40
0.0
  9
$WORLDVIEW
 70
     1
  9
$SHADEDGE
 70
     3
  9
$SHADEDIF
 70
    70
  9
$TILEMODE
 70
     1
  9
$MAXACTVP
 70
    64
  9
$PINSBASE
 10
0.0
 20
0.0
 30
0.0
  9
$PLIMCHECK
 70
     0
  9
$PEXTMIN
 10
100000000000000000000.0
 20
100000000000000000000.0
 30
100000000000000000000.0
  9
$PEXTMAX
 10
-100000000000000000000.0
 20
-100000000000000000000.0
 30
-100000000000000000000.0
  9
$PLIMMIN
 10
0.0
 20
0.0
  9
$PLIMMAX
 10
420.0
 20
297.0
  9
$UNITMODE
 70
     0
  9
$VISRETAIN
 70
     1
  9
$PLINEGEN
 70
     0
  9
$PSLTSCALE
 70
     1
  9
$TREEDEPTH
 70
  3020
  9
$CMLSTYLE
  2
Standard
  9
$CMLJUST
 70
     0
  9
$CMLSCALE
 40
20.0
  9
$PROXYGRAPHICS
 70
     1
  9
$MEASUREMENT
 70
     1
  9
$CELWEIGHT
370
-1
  9
$ENDCAPS
280
     0
  9
$JOINSTYLE
280
     0
  9
$LWDISPLAY
290
0
  9
$INSUNITS
 70
     0
  9
$HYPERLINKBASE
  1

  9
$STYLESHEET
  1

  9
$XEDIT
290
1
  9
$CEPSNTYPE
380
0
  9
$PSTYLEMODE
290
1
  9
$FINGERPRINTGUID
  2
{9F64BE1D-7005-473A-A8E1-C681473DCB35}
  9
$VERSIONGUID
  2
{14C65E86-4364-4B17-B71B-D4CF0DEE0ACB}
  9
$EXTNAMES
290
1
  9
$PSVPSCALE
 40
0.0
  9
$OLESTARTUP
290
0
  0
ENDSEC
  0
SECTION
  2
CLASSES
  0
CLASS
  1
ACDBDICTIONARYWDFLT
  2
AcDbDictionaryWithDefault
  3
ObjectDBX Classes
 90
     0
280
     0
281
     0
  0
CLASS
  1
MATERIAL
  2
AcDbMaterial
  3
ObjectDBX Classes
 90
  1153
280
     0
281
     0
  0
CLASS
  1
VISUALSTYLE
  2
AcDbVisualStyle
  3
ObjectDBX Classes
 90
  4095
280
     0
281
     0
  0
CLASS
  1
SCALE
  2
AcDbScale
  3
ObjectDBX Classes
 90
  1153
280
     0
281
     0
  0
CLASS
  1
TABLESTYLE
  2
AcDbTableStyle
  3
ObjectDBX Classes
 90
  4095
280
     0
281
     0
  0
CLASS
  1
MLEADERSTYLE
  2
AcDbMLeaderStyle
  3
ACDB_MLEADERSTYLE_CLASS
 90
  4095
280
     0
281
     0
  0
CLASS
  1
DICTIONARYVAR
  2
AcDbDictionaryVar
  3
ObjectDBX Classes
 90
     0
280
     0
281
     0
  0
CLASS
  1
CELLSTYLEMAP
  2
AcDbCellStyleMap
  3
ObjectDBX Classes
 90
  1152
280
     0
281
     0
  0
CLASS
  1
ACDBPLACEHOLDER
  2
AcDbPlaceHolder
  3
ObjectDBX Classes
 90
     0
280
     0
281
     0
  0
CLASS
  1
LAYOUT
  2
AcDbLayout
  3
ObjectDBX Classes
 90
     0
280
     0
281
     0
  0
ENDSEC
  0
SECTION
  2
TABLES
  0
TABLE
  2
VPORT
  5
8
330
0
100
AcDbSymbolTable
 70
     1
  0
VPORT
  5
5F
330
8
100
AcDbSymbolTableRecord
100
AcDbViewportTableRecord
  2
*Active
 70
     0
 10
0.0
 20
0.0
 11
1.0
 21
1.0
 12
362.004492939666
 22
148.5
 13
0.0
 23
0.0
 14
10.0
 24
10.0
 15
10.0
 25
10.0
 16
0.0
 26
0.0
 36
1.0
 17
-179.0
 27
11.022765278622
 37
0.0
 40
297.0
 41
2.437740693196
 42
50.0
 43
0.0
 44
0.0
 50
0.0
 51
0.0
 71
     0
 72
  1000
 73
     1
 74
     3
 75
     0
 76
     0
 77
     0
 78
     0
281
     0
 65
     1
110
0.0
120
0.0
130
0.0
111
1.0
121
0.0
131
0.0
112
0.0
122
1.0
132
0.0
 79
     0
146
0.0
  0
ENDTAB
  0
TABLE
  2
LTYPE
  5
5
330
0
100
AcDbSymbolTable
 70
     3
  0
LTYPE
  5
63
330
5
100
AcDbSymbolTableRecord
100
AcDbLinetypeTableRecord
  2
ByBlock
 70
     0
  3

 72
    65
 73
     0
 40
0.0
  0
LTYPE
  5
64
330
5
100
AcDbSymbolTableRecord
100
AcDbLinetypeTableRecord
  2
ByLayer
 70
     0
  3

 72
    65
 73
     0
 40
0.0
  0
LTYPE
  5
65
330
5
100
AcDbSymbolTableRecord
100
AcDbLinetypeTableRecord
  2
Continuous
 70
     0
  3
Solid line
 72
    65
 73
     0
 40
0.0
  0
ENDTAB
  0
TABLE
  2
LAYER
  5
2
330
0
100
AcDbSymbolTable
 70
     2
  0
LAYER
  5
5C
102
{ACAD_XDICTIONARY
360
9A
102
}
330
2
100
AcDbSymbolTableRecord
100
AcDbLayerTableRecord
 70
     0
  6
Continuous
370
-3
390
F
  2
0
 62
     7
  0
LAYER
  5
b8
100
AcDbSymbolTableRecord
100
AcDbLayerTableRecord
  6
Continuous
 70
     0
370
-3
390
F
  2
Plate
 62
    30
  0
ENDTAB
  0
TABLE
  2
STYLE
  5
3
330
0
100
AcDbSymbolTable
 70
     2
  0
STYLE
  5
5D
330
3
100
AcDbSymbolTableRecord
100
AcDbTextStyleTableRecord
  2
Standard
 70
     0
 40
0.0
 41
1.0
 50
0.0
 71
     0
 42
2.5
  3
txt
  4

  0
STYLE
  5
62
330
3
100
AcDbSymbolTableRecord
100
AcDbTextStyleTableRecord
  2
Annotative
 70
     0
 40
0.0
 41
1.0
 50
0.0
 71
     0
 42
0.2
  3

  4

1001
AcadAnnotative
1000
AnnotativeData
1002
{
1070
     1
1070
     1
1002
}
  0
ENDTAB
  0
TABLE
  2
VIEW
  5
6
330
0
100
AcDbSymbolTable
 70
     0
  0
ENDTAB
  0
TABLE
  2
UCS
  5
7
330
0
100
AcDbSymbolTable
 70
     0
  0
ENDTAB
  0
TABLE
  2
APPID
  5
9
330
0
100
AcDbSymbolTable
 70
     5
  0
APPID
  5
5E
330
9
100
AcDbSymbolTableRecord
100
AcDbRegAppTableRecord
  2
ACAD
 70
     0
  0
APPID
  5
66
330
9
100
AcDbSymbolTableRecord
100
AcDbRegAppTableRecord
  2
AcadAnnotative
 70
     0
  0
APPID
  5
70
330
9
100
AcDbSymbolTableRecord
100
AcDbRegAppTableRecord
  2
ACAD_MLEADERVER
 70
     0
  0
APPID
  5
80
330
9
100
AcDbSymbolTableRecord
100
AcDbRegAppTableRecord
  2
ACAD_EXEMPT_FROM_CAD_STANDARDS
 70
     0
  0
APPID
  5
AF
330
9
100
AcDbSymbolTableRecord
100
AcDbRegAppTableRecord
  2
ACAD_DSTYLE_DIMJOGGED_JOGANGLE_SYMBOL
 70
     0
  0
ENDTAB
  0
TABLE
  2
DIMSTYLE
  5
A
330
0
100
AcDbSymbolTable
100
AcDbDimStyleTable
 71
     1
340
60
 70
     2
  0
DIMSTYLE
105
60
330
A
100
AcDbSymbolTableRecord
100
AcDbDimStyleTableRecord
  2
ISO-25
 70
     0
 41
2.5
 42
0.625
 43
3.75
 44
1.25
 73
     0
 74
     0
 77
     1
 78
     8
140
2.5
141
2.5
143
0.03937007874
147
0.625
171
     3
172
     1
271
     2
272
     2
274
     3
278
44
283
     0
284
     8
340
5D
1001
ACAD_DSTYLE_DIMJOGGED_JOGANGLE_SYMBOL
1070
   384
1040
1.570796326794896
  0
DIMSTYLE
105
61
330
A
100
AcDbSymbolTableRecord
100
AcDbDimStyleTableRecord
  2
Annotative
 70
     0
340
5D
1001
AcadAnnotative
1000
AnnotativeData
1002
{
1070
     1
1070
     1
1002
}
  0
ENDTAB
  0
TABLE
  2
BLOCK_RECORD
  5
1
330
0
100
AcDbSymbolTable
 70
     3
  0
BLOCK_RECORD
  5
75
330
1
100
AcDbSymbolTableRecord
100
AcDbBlockTableRecord
  2
*Model_Space
340
78
  0
BLOCK_RECORD
  5
71
330
1
100
AcDbSymbolTableRecord
100
AcDbBlockTableRecord
  2
*Paper_Space
340
74
  0
BLOCK_RECORD
  5
79
330
1
100
AcDbSymbolTableRecord
100
AcDbBlockTableRecord
  2
*Paper_Space0
340
7C
  0
ENDTAB
  0
ENDSEC
  0
SECTION
  2
BLOCKS
  0
BLOCK
  5
76
102
{ACAD_REACTORS
330
75
102
}
100
AcDbEntity
  8
0
100
AcDbBlockBegin
  2
*Model_Space
 70
     0
 10
0.0
 20
0.0
 30
0.0
  3
*Model_Space
  1

  0
ENDBLK
  5
77
102
{ACAD_REACTORS
330
75
102
}
100
AcDbEntity
  8
0
100
AcDbBlockEnd
  0
BLOCK
  5
72
102
{ACAD_REACTORS
330
71
102
}
100
AcDbEntity
 67
     1
  8
0
100
AcDbBlockBegin
  2
*Paper_Space
 70
     0
 10
0.0
 20
0.0
 30
0.0
  3
*Paper_Space
  1

  0
ENDBLK
  5
73
102
{ACAD_REACTORS
330
71
102
}
100
AcDbEntity
 67
     1
  8
0
100
AcDbBlockEnd
  0
BLOCK
  5
7A
102
{ACAD_REACTORS
330
79
102
}
100
AcDbEntity
 67
     1
  8
0
100
AcDbBlockBegin
  2
*Paper_Space0
 70
     0
 10
0.0
 20
0.0
 30
0.0
  3
*Paper_Space0
  1

  0
ENDBLK
  5
7B
102
{ACAD_REACTORS
330
79
102
}
100
AcDbEntity
 67
     1
  8
0
100
AcDbBlockEnd
  0
ENDSEC
  0
SECTION
  2
ENTITIES
  0
POLYLINE
  5
be
100
AcDbEntity
  8
Plate
100
AcDb3dPolyline
 66
     1
 10
0.0
 20
0.0
 30
0.0
 70
     1
  0
VERTEX
  5
b9
100
AcDbEntity
  8
Plate
100
AcDbVertex
100
AcDb3dPolylineVertex
 70
     0
 10
-173.5
 20
98.5
 30
0.0
  0
VERTEX
  5
ba
100
AcDbEntity
  8
Plate
100
AcDbVertex
100
AcDb3dPolylineVertex
 70
     0
 10
-159.5
 20
98.5
 30
0.0
  0
VERTEX
  5
bb
100
AcDbEntity
  8
Plate
100
AcDbVertex
100
AcDb3dPolylineVertex
 70
     0
 10
-159.5
 20
112.5
 30
0.0
  0
VERTEX
  5
bc
100
AcDbEntity
  8
Plate
100
AcDbVertex
100
AcDb3dPolylineVertex
 70
     0
 10
-173.5
 20
112.5
 30
0.0
  0
SEQEND
  5
bd
100
AcDbEntity
  8
0
  0
SPLINE
  5
bf
100
AcDbEntity
  8
Plate
100
AcDbSpline
 70
     9
 71
     3
 72
    29
 73
    25
 74
     0
 42
0.0000001
 43
0.0000001
 40
0.0
 40
0.0
 40
0.0
 40
0.0
 40
1.0
 40
1.0
 40
1.0
 40
14.0
 40
14.0
 40
14.0
 40
15.0
 40
15.0
 40
15.0
 40
28.0
 40
28.0
 40
28.0
 40
29.0
 40
29.0
 40
29.0
 40
42.0
 40
42.0
 40
42.0
 40
43.0
 40
43.0
 40
43.0
 40
56.0
 40
56.0
 40
56.0
 40
56.0
 10
-173.5
 20
118.0
 30
0.0
 10
-173.5
 20
117.724108
 30
0.0
 10
-173.275892
 20
117.5
 30
0.0
 10
-173.0
 20
117.5
 30
0.0
 10
-168.666666666667
 20
117.5
 30
0.0
 10
-164.333333333333
 20
117.5
 30
0.0
 10
-160.0
 20
117.5
 30
0.0
 10
-159.724108
 20
117.5
 30
0.0
 10
-159.5
 20
117.724108
 30
0.0
 10
-159.5
 20
118.0
 30
0.0
 10
-159.5
 20
122.333333333333
 30
0.0
 10
-159.5
 20
126.666666666667
 30
0.0
 10
-159.5
 20
131.0
 30
0.0
 10
-159.5
 20
131.275892
 30
0.0
 10
-159.724108
 20
131.5
 30
0.0
 10
-160.0
 20
131.5
 30
0.0
 10
-164.333333333333
 20
131.5
 30
0.0
 10
-168.666666666667
 20
131.5
 30
0.0
 10
-173.0
 20
131.5
 30
0.0
 10
-173.275892
 20
131.5
 30
0.0
 10
-173.5
 20
131.275892
 30
0.0
 10
-173.5
 20
131.0
 30
0.0
 10
-173.5
 20
126.666666666667
 30
0.0
 10
-173.5
 20
122.333333333333
 30
0.0
 10
-173.5
 20
118.0
 30
0.0
  0
SPLINE
  5
c0
100
AcDbEntity
  8
Plate
100
AcDbSpline
 70
     9
 71
     3
 72
    29
 73
    25
 74
     0
 42
0.0000001
 43
0.0000001
 40
0.0
 40
0.0
 40
0.0
 40
0.0
 40
1.0
 40
1.0
 40
1.0
 40
14.0
 40
14.0
 40
14.0
 40
15.0
 40
15.0
 40
15.0
 40
28.0
 40
28.0
 40
28.0
 40
29.0
 40
29.0
 40
29.0
 40
42.0
 40
42.0
 40
42.0
 40
43.0
 40
43.0
 40
43.0
 40
56.0
 40
56.0
 40
56.0
 40
56.0
 10
-154.5
 20
118.0
 30
0.0
 10
-154.5
 20
117.724108
 30
0.0
 10
-154.275892
 20
117.5
 30
0.0
 10
-154.0
 20
117.5
 30
0.0
 10
-149.666666666667
 20
117.5
 30
0.0
 10
-145.333333333333
 20
117.5
 30
0.0
 10
-141.0
 20
117.5
 30
0.0
 10
-140.724108
 20
117.5
 30
0.0
 10
-140.5
 20
117.724108
 30
0.0
 10
-140.5
 20
118.0
 30
0.0
 10
-140.5
 20
122.333333333333
 30
0.0
 10
-140.5
 20
126.666666666667
 30
0.0
 10
-140.5
 20
131.0
 30
0.0
 10
-140.5
 20
131.275892
 30
0.0
 10
-140.724108
 20
131.5
 30
0.0
 10
-141.0
 20
131.5
 30
0.0
 10
-145.333333333333
 20
131.5
 30
0.0
 10
-149.666666666667
 20
131.5
 30
0.0
 10
-154.0
 20
131.5
 30
0.0
 10
-154.275892
 20
131.5
 30
0.0
 10
-154.5
 20
131.275892
 30
0.0
 10
-154.5
 20
131.0
 30
0.0
 10
-154.5
 20
126.666666666667
 30
0.0
 10
-154.5
 20
122.333333333333
 30
0.0
 10
-154.5
 20
118.0
 30
0.0
  0
SPLINE
  5
c1
100
AcDbEntity
  8
Plate
100
AcDbSpline
 70
     9
 71
     3
 72
    29
 73
    25
 74
     0
 42
0.0000001
 43
0.0000001
 40
0.0
 40
0.0
 40
0.0
 40
0.0
 40
1.0
 40
1.0
 40
1.0
 40
14.0
 40
14.0
 40
14.0
 40
15.0
 40
15.0
 40
15.0
 40
28.0
 40
28.0
 40
28.0
 40
29.0
 40
29.0
 40
29.0
 40
42.0
 40
42.0
 40
42.0
 40
43.0
 40
43.0
 40
43.0
 40
56.0
 40
56.0
 40
56.0
 40
56.0
 10
-135.5
 20
118.0
 30
0.0
 10
-135.5
 20
117.724108
 30
0.0
 10
-135.275892
 20
117.5
 30
0.0
 10
-135.0
 20
117.5
 30
0.0
 10
-130.666666666667
 20
117.5
 30
0.0
 10
-126.333333333333
 20
117.5
 30
0.0
 10
-122.0
 20
117.5
 30
0.0
 10
-121.724108
 20
117.5
 30
0.0
 10
-121.5
 20
117.724108
 30
0.0
 10
-121.5
 20
118.0
 30
0.0
 10
-121.5
 20
122.333333333333
 30
0.0
 10
-121.5
 20
126.666666666667
 30
0.0
 10
-121.5
 20
131.0
 30
0.0
 10
-121.5
 20
131.275892
 30
0.0
 10
-121.724108
 20
131.5
 30
0.0
 10
-122.0
 20
131.5
 30
0.0
 10
-126.333333333333
 20
131.5
 30
0.0
 10
-130.666666666667
 20
131.5
 30
0.0
 10
-135.0
 20
131.5
 30
0.0
 10
-135.275892
 20
131.5
 30
0.0
 10
-135.5
 20
131.275892
 30
0.0
 10
-135.5
 20
131.0
 30
0.0
 10
-135.5
 20
126.666666666667
 30
0.0
 10
-135.5
 20
122.333333333333
 30
0.0
 10
-135.5
 20
118.0
 30
0.0
  0
SPLINE
  5
c2
100
AcDbEntity
  8
Plate
100
AcDbSpline
 70
     9
 71
     3
 72
    29
 73
    25
 74
     0
 42
0.0000001
 43
0.0000001
 40
0.0
 40
0.0
 40
0.0
 40
0.0
 40
1.0
 40
1.0
 40
1.0
 40
14.0
 40
14.0
 40
14.0
 40
15.0
 40
15.0
 40
15.0
 40
28.0
 40
28.0
 40
28.0
 40
29.0
 40
29.0
 40
29.0
 40
42.0
 40
42.0
 40
42.0
 40
43.0
 40
43.0
 40
43.0
 40
56.0
 40
56.0
 40
56.0
 40
56.0
 10
-116.5
 20
118.0
 30
0.0
 10
-116.5
 20
117.724108
 30
0.0
 10
-116.275892
 20
117.5
 30
0.0
 10
-116.0
 20
117.5
 30
0.0
 10
-111.666666666667
 20
117.5
 30
0.0
 10
-107.333333333333
 20
117.5
 30
0.0
 10
-103.0
 20
117.5
 30
0.0
 10
-102.724108
 20
117.5
 30
0.0
 10
-102.5
 20
117.724108
 30
0.0
 10
-102.5
 20
118.0
 30
0.0
 10
-102.5
 20
122.333333333333
 30
0.0
 10
-102.5
 20
126.666666666667
 30
0.0
 10
-102.5
 20
131.0
 30
0.0
 10
-102.5
 20
131.275892
 30
0.0
 10
-102.724108
 20
131.5
 30
0.0
 10
-103.0
 20
131.5
 30
0.0
 10
-107.333333333333
 20
131.5
 30
0.0
 10
-111.666666666667
 20
131.5
 30
0.0
 10
-116.0
 20
131.5
 30
0.0
 10
-116.275892
 20
131.5
 30
0.0
 10
-116.5
 20
131.275892
 30
0.0
 10
-116.5
 20
131.0
 30
0.0
 10
-116.5
 20
126.666666666667
 30
0.0
 10
-116.5
 20
122.333333333333
 30
0.0
 10
-116.5
 20
118.0
 30
0.0
  0
SPLINE
  5
c3
100
AcDbEntity
  8
Plate
100
AcDbSpline
 70
     9
 71
     3
 72
    29
 73
    25
 74
     0
 42
0.0000001
 43
0.0000001
 40
0.0
 40
0.0
 40
0.0
 40
0.0
 40
1.0
 40
1.0
 40
1.0
 40
14.0
 40
14.0
 40
14.0
 40
15.0
 40
15.0
 40
15.0
 40
28.0
 40
28.0
 40
28.0
 40
29.0
 40
29.0
 40
29.0
 40
42.0
 40
42.0
 40
42.0
 40
43.0
 40
43.0
 40
43.0
 40
56.0
 40
56.0
 40
56.0
 40
56.0
 10
-97.5
 20
118.0
 30
0.0
 10
-97.5
 20
117.724108
 30
0.0
 10
-97.275892
 20
117.5
 30
0.0
 10
-97.0
 20
117.5
 30
0.0
 10
-92.666666666667
 20
117.5
 30
0.0
 10
-88.333333333333
 20
117.5
 30
0.0
 10
-84.0
 20
117.5
 30
0.0
 10
-83.724108
 20
117.5
 30
0.0
 10
-83.5
 20
117.724108
 30
0.0
 10
-83.5
 20
118.0
 30
0.0
 10
-83.5
 20
122.333333333333
 30
0.0
 10
-83.5
 20
126.666666666667
 30
0.0
 10
-83.5
 20
131.0
 30
0.0
 10
-83.5
 20
131.275892
 30
0.0
 10
-83.724108
 20
131.5
 30
0.0
 10
-84.0
 20
131.5
 30
0.0
 10
-88.333333333333
 20
131.5
 30
0.0
 10
-92.666666666667
 20
131.5
 30
0.0
 10
-97.0
 20
131.5
 30
0.0
 10
-97.275892
 20
131.5
 30
0.0
 10
-97.5
 20
131.275892
 30
0.0
 10
-97.5
 20
131.0
 30
0.0
 10
-97.5
 20
126.666666666667
 30
0.0
 10
-97.5
 20
122.333333333333
 30
0.0
 10
-97.5
 20
118.0
 30
0.0
  0
SPLINE
  5
c4
100
AcDbEntity
  8
Plate
100
AcDbSpline
 70
     9
 71
     3
 72
    29
 73
    25
 74
     0
 42
0.0000001
 43
0.0000001
 40
0.0
 40
0.0
 40
0.0
 40
0.0
 40
1.0
 40
1.0
 40
1.0
 40
14.0
 40
14.0
 40
14.0
 40
15.0
 40
15.0
 40
15.0
 40
28.0
 40
28.0
 40
28.0
 40
29.0
 40
29.0
 40
29.0
 40
42.0
 40
42.0
 40
42.0
 40
43.0
 40
43.0
 40
43.0
 40
56.0
 40
56.0
 40
56.0
 40
56.0
 10
-78.843609878693
 20
117.878068133488
 30
0.0
 10
-78.858048950333
 20
117.602554233885
 30
0.0
 10
-78.645976989039
 20
117.367024459629
 30
0.0
 10
-78.370463089437
 20
117.352585387989
 30
0.0
 10
-74.043068438834
 20
117.12579624427
 30
0.0
 10
-69.715673788231
 20
116.89900710055
 30
0.0
 10
-65.388279137627
 20
116.672217956831
 30
0.0
 10
-65.112765238025
 20
116.657778885191
 30
0.0
 10
-64.877235463768
 20
116.869850846484
 30
0.0
 10
-64.862796392129
 20
117.145364746087
 30
0.0
 10
-64.636007248409
 20
121.47275939669
 30
0.0
 10
-64.40921810469
 20
125.800154047293
 30
0.0
 10
-64.18242896097
 20
130.127548697896
 30
0.0
 10
-64.167989889331
 20
130.403062597499
 30
0.0
 10
-64.380061850624
 20
130.638592371755
 30
0.0
 10
-64.655575750226
 20
130.653031443395
 30
0.0
 10
-68.982970400829
 20
130.879820587114
 30
0.0
 10
-73.310365051433
 20
131.106609730834
 30
0.0
 10
-77.637759702036
 20
131.333398874553
 30
0.0
 10
-77.913273601638
 20
131.347837946193
 30
0.0
 10
-78.148803375895
 20
131.1357659849
 30
0.0
 10
-78.163242447534
 20
130.860252085297
 30
0.0
 10
-78.390031591254
 20
126.532857434694
 30
0.0
 10
-78.616820734973
 20
122.205462784091
 30
0.0
 10
-78.843609878693
 20
117.878068133488
 30
0.0
  0
SPLINE
  5
c5
100
AcDbEntity
  8
Plate
100
AcDbSpline
 70
     9
 71
     3
 72
    29
 73
    25
 74
     0
 42
0.0000001
 43
0.0000001
 40
0.0
 40
0.0
 40
0.0
 40
0.0
 40
1.0
 40
1.0
 40
1.0
 40
14.0
 40
14.0
 40
14.0
 40
15.0
 40
15.0
 40
15.0
 40
28.0
 40
28.0
 40
28.0
 40
29.0
 40
29.0
 40
29.0
 40
42.0
 40
42.0
 40
42.0
 40
43.0
 40
43.0
 40
43.0
 40
56.0
 40
56.0
 40
56.0
 40
56.0
 10
-60.219169112482
 20
116.779903353321
 30
0.0
 10
-60.24800767927
 20
116.505522718564
 30
0.0
 10
-60.048553031189
 20
116.259216740791
 30
0.0
 10
-59.774172396432
 20
116.230378174003
 30
0.0
 10
-55.464577516503
 20
115.777421499843
 30
0.0
 10
-51.154982636573
 20
115.324464825684
 30
0.0
 10
-46.845387756644
 20
114.871508151524
 30
0.0
 10
-46.571007121887
 20
114.842669584736
 30
0.0
 10
-46.324701144114
 20
115.042124232817
 30
0.0
 10
-46.295862577326
 20
115.316504867574
 30
0.0
 10
-45.842905903167
 20
119.626099747503
 30
0.0
 10
-45.389949229007
 20
123.935694627432
 30
0.0
 10
-44.936992554847
 20
128.245289507362
 30
0.0
 10
-44.908153988059
 20
128.519670142119
 30
0.0
 10
-45.10760863614
 20
128.765976119892
 30
0.0
 10
-45.381989270897
 20
128.79481468668
 30
0.0
 10
-49.691584150826
 20
129.247771360839
 30
0.0
 10
-54.001179030756
 20
129.700728034999
 30
0.0
 10
-58.310773910685
 20
130.153684709159
 30
0.0
 10
-58.585154545442
 20
130.182523275947
 30
0.0
 10
-58.831460523215
 20
129.983068627866
 30
0.0
 10
-58.860299090003
 20
129.708687993109
 30
0.0
 10
-59.313255764163
 20
125.39909311318
 30
0.0
 10
-59.766212438322
 20
121.08949823325
 30
0.0
 10
-60.219169112482
 20
116.779903353321
 30
0.0
  0
SPLINE
  5
c6
100
AcDbEntity
  8
Plate
100
AcDbSpline
 70
     9
 71
     3
 72
    29
 73
    25
 74
     0
 42
0.0000001
 43
0.0000001
 40
0.0
 40
0.0
 40
0.0
 40
0.0
 40
1.0
 40
1.0
 40
1.0
 40
14.0
 40
14.0
 40
14.0
 40
15.0
 40
15.0
 40
15.0
 40
28.0
 40
28.0
 40
28.0
 40
29.0
 40
29.0
 40
29.0
 40
42.0
 40
42.0
 40
42.0
 40
43.0
 40
43.0
 40
43.0
 40
56.0
 40
56.0
 40
56.0
 40
56.0
 10
-41.499930923662
 20
114.748868949819
 30
0.0
 10
-41.535942055886
 20
114.475337244125
 30
0.0
 10
-41.343003294779
 20
114.223894555246
 30
0.0
 10
-41.069471589085
 20
114.187883423022
 30
0.0
 10
-36.773210523132
 20
113.622269923402
 30
0.0
 10
-32.476949457178
 20
113.056656423781
 30
0.0
 10
-28.180688391225
 20
112.491042924161
 30
0.0
 10
-27.907156685531
 20
112.455031791937
 30
0.0
 10
-27.655713996652
 20
112.647970553044
 30
0.0
 10
-27.619702864428
 20
112.921502258738
 30
0.0
 10
-27.054089364808
 20
117.217763324691
 30
0.0
 10
-26.488475865188
 20
121.514024390644
 30
0.0
 10
-25.922862365568
 20
125.810285456598
 30
0.0
 10
-25.886851233344
 20
126.083817162292
 30
0.0
 10
-26.07978999445
 20
126.335259851171
 30
0.0
 10
-26.353321700145
 20
126.371270983395
 30
0.0
 10
-30.649582766098
 20
126.936884483015
 30
0.0
 10
-34.945843832051
 20
127.502497982635
 30
0.0
 10
-39.242104898004
 20
128.068111482255
 30
0.0
 10
-39.515636603698
 20
128.104122614479
 30
0.0
 10
-39.767079292577
 20
127.911183853372
 30
0.0
 10
-39.803090424801
 20
127.637652147678
 30
0.0
 10
-40.368703924421
 20
123.341391081725
 30
0.0
 10
-40.934317424041
 20
119.045130015772
 30
0.0
 10
-41.499930923662
 20
114.748868949819
 30
0.0
  0
SPLINE
  5
c7
100
AcDbEntity
  8
Plate
100
AcDbSpline
 70
     9
 71
     3
 72
    29
 73
    25
 74
     0
 42
0.0000001
 43
0.0000001
 40
0.0
 40
0.0
 40
0.0
 40
0.0
 40
1.0
 40
1.0
 40
1.0
 40
14.0
 40
14.0
 40
14.0
 40
15.0
 40
15.0
 40
15.0
 40
28.0
 40
28.0
 40
28.0
 40
29.0
 40
29.0
 40
29.0
 40
42.0
 40
42.0
 40
42.0
 40
43.0
 40
43.0
 40
43.0
 40
56.0
 40
56.0
 40
56.0
 40
56.0
 10
-32.097437214428
 20
94.26121043166
 30
0.0
 10
-32.133448346652
 20
93.987678725966
 30
0.0
 10
-31.940509585546
 20
93.736236037088
 30
0.0
 10
-31.666977879851
 20
93.700224904864
 30
0.0
 10
-27.370716813898
 20
93.134611405243
 30
0.0
 10
-23.074455747945
 20
92.568997905623
 30
0.0
 10
-18.778194681992
 20
92.003384406003
 30
0.0
 10
-18.504662976298
 20
91.967373273779
 30
0.0
 10
-18.253220287419
 20
92.160312034886
 30
0.0
 10
-18.217209155195
 20
92.43384374058
 30
0.0
 10
-17.651595655575
 20
96.730104806533
 30
0.0
 10
-17.085982155955
 20
101.026365872486
 30
0.0
 10
-16.520368656334
 20
105.322626938439
 30
0.0
 10
-16.48435752411
 20
105.596158644133
 30
0.0
 10
-16.677296285217
 20
105.847601333012
 30
0.0
 10
-16.950827990911
 20
105.883612465236
 30
0.0
 10
-21.247089056864
 20
106.449225964856
 30
0.0
 10
-25.543350122818
 20
107.014839464477
 30
0.0
 10
-29.839611188771
 20
107.580452964097
 30
0.0
 10
-30.113142894465
 20
107.616464096321
 30
0.0
 10
-30.364585583344
 20
107.423525335214
 30
0.0
 10
-30.400596715568
 20
107.14999362952
 30
0.0
 10
-30.966210215188
 20
102.853732563567
 30
0.0
 10
-31.531823714808
 20
98.557471497614
 30
0.0
 10
-32.097437214428
 20
94.26121043166
 30
0.0
  0
SPLINE
  5
c8
100
AcDbEntity
  8
Plate
100
AcDbSpline
 70
     9
 71
     3
 72
    29
 73
    25
 74
     0
 42
0.0000001
 43
0.0000001
 40
0.0
 40
0.0
 40
0.0
 40
0.0
 40
1.0
 40
1.0
 40
1.0
 40
14.0
 40
14.0
 40
14.0
 40
15.0
 40
15.0
 40
15.0
 40
28.0
 40
28.0
 40
28.0
 40
29.0
 40
29.0
 40
29.0
 40
42.0
 40
42.0
 40
42.0
 40
43.0
 40
43.0
 40
43.0
 40
56.0
 40
56.0
 40
56.0
 40
56.0
 10
-50.934889580531
 20
96.741208083841
 30
0.0
 10
-50.970900712755
 20
96.467676378147
 30
0.0
 10
-50.777961951648
 20
96.216233689269
 30
0.0
 10
-50.504430245954
 20
96.180222557045
 30
0.0
 10
-46.208169180001
 20
95.614609057424
 30
0.0
 10
-41.911908114048
 20
95.048995557804
 30
0.0
 10
-37.615647048094
 20
94.483382058184
 30
0.0
 10
-37.3421153424
 20
94.44737092596
 30
0.0
 10
-37.090672653521
 20
94.640309687067
 30
0.0
 10
-37.054661521297
 20
94.913841392761
 30
0.0
 10
-36.489048021677
 20
99.210102458714
 30
0.0
 10
-35.923434522057
 20
103.506363524667
 30
0.0
 10
-35.357821022437
 20
107.80262459062
 30
0.0
 10
-35.321809890213
 20
108.076156296314
 30
0.0
 10
-35.514748651319
 20
108.327598985193
 30
0.0
 10
-35.788280357014
 20
108.363610117417
 30
0.0
 10
-40.084541422967
 20
108.929223617037
 30
0.0
 10
-44.38080248892
 20
109.494837116658
 30
0.0
 10
-48.677063554873
 20
110.060450616278
 30
0.0
 10
-48.950595260567
 20
110.096461748502
 30
0.0
 10
-49.202037949446
 20
109.903522987395
 30
0.0
 10
-49.23804908167
 20
109.629991281701
 30
0.0
 10
-49.80366258129
 20
105.333730215748
 30
0.0
 10
-50.369276080911
 20
101.037469149795
 30
0.0
 10
-50.934889580531
 20
96.741208083841
 30
0.0
  0
SPLINE
  5
c9
100
AcDbEntity
  8
Plate
100
AcDbSpline
 70
     9
 71
     3
 72
    29
 73
    25
 74
     0
 42
0.0000001
 43
0.0000001
 40
0.0
 40
0.0
 40
0.0
 40
0.0
 40
1.0
 40
1.0
 40
1.0
 40
14.0
 40
14.0
 40
14.0
 40
15.0
 40
15.0
 40
15.0
 40
28.0
 40
28.0
 40
28.0
 40
29.0
 40
29.0
 40
29.0
 40
42.0
 40
42.0
 40
42.0
 40
43.0
 40
43.0
 40
43.0
 40
56.0
 40
56.0
 40
56.0
 40
56.0
 10
-27.412478557559
 20
74.268871297638
 30
0.0
 10
-27.448489689783
 20
73.995339591944
 30
0.0
 10
-27.255550928677
 20
73.743896903065
 30
0.0
 10
-26.982019222982
 20
73.707885770841
 30
0.0
 10
-22.685758157029
 20
73.142272271221
 30
0.0
 10
-18.389497091076
 20
72.5766587716
 30
0.0
 10
-14.093236025123
 20
72.01104527198
 30
0.0
 10
-13.819704319429
 20
71.975034139756
 30
0.0
 10
-13.56826163055
 20
72.167972900863
 30
0.0
 10
-13.532250498326
 20
72.441504606557
 30
0.0
 10
-12.966636998706
 20
76.73776567251
 30
0.0
 10
-12.401023499086
 20
81.034026738463
 30
0.0
 10
-11.835409999465
 20
85.330287804417
 30
0.0
 10
-11.799398867241
 20
85.603819510111
 30
0.0
 10
-11.992337628348
 20
85.85526219899
 30
0.0
 10
-12.265869334042
 20
85.891273331213
 30
0.0
 10
-16.562130399995
 20
86.456886830834
 30
0.0
 10
-20.858391465949
 20
87.022500330454
 30
0.0
 10
-25.154652531902
 20
87.588113830074
 30
0.0
 10
-25.428184237596
 20
87.624124962298
 30
0.0
 10
-25.679626926475
 20
87.431186201191
 30
0.0
 10
-25.715638058699
 20
87.157654495497
 30
0.0
 10
-26.281251558319
 20
82.861393429544
 30
0.0
 10
-26.846865057939
 20
78.565132363591
 30
0.0
 10
-27.412478557559
 20
74.268871297638
 30
0.0
  0
SPLINE
  5
ca
100
AcDbEntity
  8
Plate
100
AcDbSpline
 70
     9
 71
     3
 72
    29
 73
    25
 74
     0
 42
0.0000001
 43
0.0000001
 40
0.0
 40
0.0
 40
0.0
 40
0.0
 40
1.0
 40
1.0
 40
1.0
 40
14.0
 40
14.0
 40
14.0
 40
15.0
 40
15.0
 40
15.0
 40
28.0
 40
28.0
 40
28.0
 40
29.0
 40
29.0
 40
29.0
 40
42.0
 40
42.0
 40
42.0
 40
43.0
 40
43.0
 40
43.0
 40
56.0
 40
56.0
 40
56.0
 40
56.0
 10
-36.847437214428
 20
56.26121043166
 30
0.0
 10
-36.883448346652
 20
55.987678725966
 30
0.0
 10
-36.690509585546
 20
55.736236037087
 30
0.0
 10
-36.416977879852
 20
55.700224904863
 30
0.0
 10
-32.120716813898
 20
55.134611405243
 30
0.0
 10
-27.824455747945
 20
54.568997905623
 30
0.0
 10
-23.528194681992
 20
54.003384406003
 30
0.0
 10
-23.254662976298
 20
53.967373273779
 30
0.0
 10
-23.003220287419
 20
54.160312034886
 30
0.0
 10
-22.967209155195
 20
54.43384374058
 30
0.0
 10
-22.401595655575
 20
58.730104806533
 30
0.0
 10
-21.835982155955
 20
63.026365872486
 30
0.0
 10
-21.270368656334
 20
67.322626938439
 30
0.0
 10
-21.23435752411
 20
67.596158644133
 30
0.0
 10
-21.427296285217
 20
67.847601333012
 30
0.0
 10
-21.700827990911
 20
67.883612465236
 30
0.0
 10
-25.997089056864
 20
68.449225964856
 30
0.0
 10
-30.293350122818
 20
69.014839464477
 30
0.0
 10
-34.589611188771
 20
69.580452964097
 30
0.0
 10
-34.863142894465
 20
69.616464096321
 30
0.0
 10
-35.114585583344
 20
69.423525335214
 30
0.0
 10
-35.150596715568
 20
69.14999362952
 30
0.0
 10
-35.716210215188
 20
64.853732563567
 30
0.0
 10
-36.281823714808
 20
60.557471497614
 30
0.0
 10
-36.847437214428
 20
56.26121043166
 30
0.0
  0
SPLINE
  5
cb
100
AcDbEntity
  8
Plate
100
AcDbSpline
 70
     9
 71
     3
 72
    65
 73
    61
 74
     0
 42
0.0000001
 43
0.0000001
 40
0.0
 40
0.0
 40
0.0
 40
0.0
 40
1.0
 40
1.0
 40
1.0
 40
14.0
 40
14.0
 40
14.0
 40
15.0
 40
15.0
 40
15.0
 40
47.0
 40
47.0
 40
47.0
 40
48.0
 40
48.0
 40
48.0
 40
61.0
 40
61.0
 40
61.0
 40
62.0
 40
62.0
 40
62.0
 40
62.75
 40
62.75
 40
62.75
 40
63.25
 40
63.25
 40
63.25
 40
64.25
 40
64.25
 40
64.25
 40
70.000000000001
 40
70.000000000001
 40
70.000000000001
 40
71.000000000001
 40
71.000000000001
 40
71.000000000001
 40
71.500000000001
 40
71.500000000001
 40
71.500000000001
 40
88.500000000001
 40
88.500000000001
 40
88.500000000001
 40
89.000000000001
 40
89.000000000001
 40
89.000000000001
 40
90.000000000001
 40
90.000000000001
 40
90.000000000001
 40
95.750000000001
 40
95.750000000001
 40
95.750000000001
 40
96.750000000001
 40
96.750000000001
 40
96.750000000001
 40
97.250000000002
 40
97.250000000002
 40
97.250000000002
 40
98.000000000003
 40
98.000000000003
 40
98.000000000003
 40
98.000000000003
 10
-12.389087296526
 20
37.639774636506
 30
0.0
 10
-12.194002192451
 20
37.834859740581
 30
0.0
 10
-12.194002192451
 20
38.151796313617
 30
0.0
 10
-12.389087296526
 20
38.346881417692
 30
0.0
 10
-15.453216681668
 20
41.411010802834
 30
0.0
 10
-18.51734606681
 20
44.475140187976
 30
0.0
 10
-21.581475451951
 20
47.539269573117
 30
0.0
 10
-21.776560556026
 20
47.734354677192
 30
0.0
 10
-22.093497129063
 20
47.734354677192
 30
0.0
 10
-22.288582233138
 20
47.539269573117
 30
0.0
 10
-29.831054565794
 20
39.996797240461
 30
0.0
 10
-37.373526898451
 20
32.454324907804
 30
0.0
 10
-44.915999231107
 20
24.911852575148
 30
0.0
 10
-45.111084335182
 20
24.716767471073
 30
0.0
 10
-45.111084335182
 20
24.399830898036
 30
0.0
 10
-44.915999231107
 20
24.204745793961
 30
0.0
 10
-41.851869845966
 20
21.140616408819
 30
0.0
 10
-38.787740460824
 20
18.076487023678
 30
0.0
 10
-35.723611075682
 20
15.012357638536
 30
0.0
 10
-35.528525971607
 20
14.817272534461
 30
0.0
 10
-35.211589398571
 20
14.817272534461
 30
0.0
 10
-35.016504294496
 20
15.012357638536
 30
0.0
 10
-34.839727599199
 20
15.189134333833
 30
0.0
 10
-34.662950903902
 20
15.365911029129
 30
0.0
 10
-34.486174208606
 20
15.542687724426
 30
0.0
 10
-34.368323078408
 20
15.424836594228
 30
0.0
 10
-34.25047194821
 20
15.30698546403
 30
0.0
 10
-34.132620818012
 20
15.189134333832
 30
0.0
 10
-33.937535713937
 20
14.994049229757
 30
0.0
 10
-33.620599140901
 20
14.994049229757
 30
0.0
 10
-33.425514036826
 20
15.189134333832
 30
0.0
 10
-32.070226039552
 20
16.544422331107
 30
0.0
 10
-30.714938042277
 20
17.899710328381
 30
0.0
 10
-29.359650045003
 20
19.254998325655
 30
0.0
 10
-29.164564940928
 20
19.45008342973
 30
0.0
 10
-29.164564940928
 20
19.767020002766
 30
0.0
 10
-29.359650045003
 20
19.962105106842
 30
0.0
 10
-29.477501175201
 20
20.079956237039
 30
0.0
 10
-29.595352305399
 20
20.197807367237
 30
0.0
 10
-29.713203435597
 20
20.315658497435
 30
0.0
 10
-25.706265008873
 20
24.322596924159
 30
0.0
 10
-21.699326582149
 20
28.329535350883
 30
0.0
 10
-17.692388155425
 20
32.336473777607
 30
0.0
 10
-17.574537025227
 20
32.218622647409
 30
0.0
 10
-17.45668589503
 20
32.100771517211
 30
0.0
 10
-17.338834764832
 20
31.982920387013
 30
0.0
 10
-17.143749660757
 20
31.787835282938
 30
0.0
 10
-16.82681308772
 20
31.787835282938
 30
0.0
 10
-16.631727983645
 20
31.982920387013
 30
0.0
 10
-15.276439986371
 20
33.338208384288
 30
0.0
 10
-13.921151989097
 20
34.693496381562
 30
0.0
 10
-12.565863991823
 20
36.048784378836
 30
0.0
 10
-12.370778887747
 20
36.243869482911
 30
0.0
 10
-12.370778887747
 20
36.560806055947
 30
0.0
 10
-12.565863991823
 20
36.755891160023
 30
0.0
 10
-12.68371512202
 20
36.87374229022
 30
0.0
 10
-12.801566252218
 20
36.991593420418
 30
0.0
 10
-12.919417382416
 20
37.109444550616
 30
0.0
 10
-12.74264068712
 20
37.286221245912
 30
0.0
 10
-12.565863991823
 20
37.462997941209
 30
0.0
 10
-12.389087296526
 20
37.639774636506
 30
0.0
  0
SPLINE
  5
cc
100
AcDbEntity
  8
Plate
100
AcDbSpline
 70
     9
 71
     3
 72
    29
 73
    25
 74
     0
 42
0.0000001
 43
0.0000001
 40
0.0
 40
0.0
 40
0.0
 40
0.0
 40
1.0
 40
1.0
 40
1.0
 40
14.0
 40
14.0
 40
14.0
 40
15.0
 40
15.0
 40
15.0
 40
28.0
 40
28.0
 40
28.0
 40
29.0
 40
29.0
 40
29.0
 40
42.0
 40
42.0
 40
42.0
 40
43.0
 40
43.0
 40
43.0
 40
56.0
 40
56.0
 40
56.0
 40
56.0
 10
-48.965662738987
 20
30.280173028004
 30
0.0
 10
-48.726733258286
 20
30.142227028004
 30
0.0
 10
-48.420596037094
 20
30.224256249195
 30
0.0
 10
-48.282650037094
 20
30.463185729896
 30
0.0
 10
-46.115983370428
 20
34.215962479628
 30
0.0
 10
-43.949316703761
 20
37.968739229361
 30
0.0
 10
-41.782650037094
 20
41.721515979094
 30
0.0
 10
-41.644704037094
 20
41.960445459794
 30
0.0
 10
-41.726733258286
 20
42.266582680986
 30
0.0
 10
-41.965662738987
 20
42.404528680986
 30
0.0
 10
-45.718439488719
 20
44.571195347652
 30
0.0
 10
-49.471216238452
 20
46.737862014319
 30
0.0
 10
-53.223992988184
 20
48.904528680986
 30
0.0
 10
-53.462922468885
 20
49.042474680986
 30
0.0
 10
-53.769059690077
 20
48.960445459794
 30
0.0
 10
-53.907005690077
 20
48.721515979093
 30
0.0
 10
-56.073672356743
 20
44.968739229361
 30
0.0
 10
-58.24033902341
 20
41.215962479628
 30
0.0
 10
-60.407005690077
 20
37.463185729896
 30
0.0
 10
-60.544951690077
 20
37.224256249195
 30
0.0
 10
-60.462922468885
 20
36.918119028003
 30
0.0
 10
-60.223992988184
 20
36.780173028003
 30
0.0
 10
-56.471216238452
 20
34.613506361337
 30
0.0
 10
-52.718439488719
 20
32.44683969467
 30
0.0
 10
-48.965662738987
 20
30.280173028004
 30
0.0
  0
SPLINE
  5
cd
100
AcDbEntity
  8
Plate
100
AcDbSpline
 70
     9
 71
     3
 72
    29
 73
    25
 74
     0
 42
0.0000001
 43
0.0000001
 40
0.0
 40
0.0
 40
0.0
 40
0.0
 40
1.0
 40
1.0
 40
1.0
 40
14.0
 40
14.0
 40
14.0
 40
15.0
 40
15.0
 40
15.0
 40
28.0
 40
28.0
 40
28.0
 40
29.0
 40
29.0
 40
29.0
 40
42.0
 40
42.0
 40
42.0
 40
43.0
 40
43.0
 40
43.0
 40
56.0
 40
56.0
 40
56.0
 40
56.0
 10
-80.420888198
 20
41.226590907613
 30
0.0
 10
-80.492294301991
 20
40.960099699547
 30
0.0
 10
-80.333826015473
 20
40.685624575909
 30
0.0
 10
-80.067334807406
 20
40.614218471917
 30
0.0
 10
-75.88165622682
 20
39.492669276473
 30
0.0
 10
-71.695977646235
 20
38.371120081029
 30
0.0
 10
-67.510299065649
 20
37.249570885585
 30
0.0
 10
-67.243807857582
 20
37.178164781593
 30
0.0
 10
-66.969332733944
 20
37.336633068111
 30
0.0
 10
-66.897926629953
 20
37.603124276178
 30
0.0
 10
-65.776377434509
 20
41.788802856764
 30
0.0
 10
-64.654828239064
 20
45.97448143735
 30
0.0
 10
-63.53327904362
 20
50.160160017936
 30
0.0
 10
-63.461872939629
 20
50.426651226002
 30
0.0
 10
-63.620341226147
 20
50.70112634964
 30
0.0
 10
-63.886832434213
 20
50.772532453632
 30
0.0
 10
-68.072511014799
 20
51.894081649076
 30
0.0
 10
-72.258189595385
 20
53.01563084452
 30
0.0
 10
-76.443868175971
 20
54.137180039964
 30
0.0
 10
-76.710359384038
 20
54.208586143956
 30
0.0
 10
-76.984834507676
 20
54.050117857438
 30
0.0
 10
-77.056240611667
 20
53.783626649371
 30
0.0
 10
-78.177789807111
 20
49.597948068785
 30
0.0
 10
-79.299339002555
 20
45.412269488199
 30
0.0
 10
-80.420888198
 20
41.226590907613
 30
0.0
  0
SPLINE
  5
ce
100
AcDbEntity
  8
Plate
100
AcDbSpline
 70
     9
 71
     3
 72
    29
 73
    25
 74
     0
 42
0.0000001
 43
0.0000001
 40
0.0
 40
0.0
 40
0.0
 40
0.0
 40
1.0
 40
1.0
 40
1.0
 40
14.0
 40
14.0
 40
14.0
 40
15.0
 40
15.0
 40
15.0
 40
28.0
 40
28.0
 40
28.0
 40
29.0
 40
29.0
 40
29.0
 40
42.0
 40
42.0
 40
42.0
 40
43.0
 40
43.0
 40
43.0
 40
56.0
 40
56.0
 40
56.0
 40
56.0
 10
-102.5
 20
55.0
 30
0.0
 10
-102.5
 20
55.275892
 30
0.0
 10
-102.724108
 20
55.5
 30
0.0
 10
-103.0
 20
55.5
 30
0.0
 10
-107.333333333333
 20
55.5
 30
0.0
 10
-111.666666666667
 20
55.5
 30
0.0
 10
-116.0
 20
55.5
 30
0.0
 10
-116.275892
 20
55.5
 30
0.0
 10
-116.5
 20
55.275892
 30
0.0
 10
-116.5
 20
55.0
 30
0.0
 10
-116.5
 20
50.666666666667
 30
0.0
 10
-116.5
 20
46.333333333333
 30
0.0
 10
-116.5
 20
42.0
 30
0.0
 10
-116.5
 20
41.724108
 30
0.0
 10
-116.275892
 20
41.5
 30
0.0
 10
-116.0
 20
41.5
 30
0.0
 10
-111.666666666667
 20
41.5
 30
0.0
 10
-107.333333333333
 20
41.5
 30
0.0
 10
-103.0
 20
41.5
 30
0.0
 10
-102.724108
 20
41.5
 30
0.0
 10
-102.5
 20
41.724108
 30
0.0
 10
-102.5
 20
42.0
 30
0.0
 10
-102.5
 20
46.333333333333
 30
0.0
 10
-102.5
 20
50.666666666667
 30
0.0
 10
-102.5
 20
55.0
 30
0.0
  0
SPLINE
  5
cf
100
AcDbEntity
  8
Plate
100
AcDbSpline
 70
     9
 71
     3
 72
    29
 73
    25
 74
     0
 42
0.0000001
 43
0.0000001
 40
0.0
 40
0.0
 40
0.0
 40
0.0
 40
1.0
 40
1.0
 40
1.0
 40
14.0
 40
14.0
 40
14.0
 40
15.0
 40
15.0
 40
15.0
 40
28.0
 40
28.0
 40
28.0
 40
29.0
 40
29.0
 40
29.0
 40
42.0
 40
42.0
 40
42.0
 40
43.0
 40
43.0
 40
43.0
 40
56.0
 40
56.0
 40
56.0
 40
56.0
 10
-131.0
 20
55.0
 30
0.0
 10
-131.0
 20
55.275892
 30
0.0
 10
-131.224108
 20
55.5
 30
0.0
 10
-131.5
 20
55.5
 30
0.0
 10
-135.833333333333
 20
55.5
 30
0.0
 10
-140.166666666667
 20
55.5
 30
0.0
 10
-144.5
 20
55.5
 30
0.0
 10
-144.775892
 20
55.5
 30
0.0
 10
-145.0
 20
55.275892
 30
0.0
 10
-145.0
 20
55.0
 30
0.0
 10
-145.0
 20
50.666666666667
 30
0.0
 10
-145.0
 20
46.333333333333
 30
0.0
 10
-145.0
 20
42.0
 30
0.0
 10
-145.0
 20
41.724108
 30
0.0
 10
-144.775892
 20
41.5
 30
0.0
 10
-144.5
 20
41.5
 30
0.0
 10
-140.166666666667
 20
41.5
 30
0.0
 10
-135.833333333333
 20
41.5
 30
0.0
 10
-131.5
 20
41.5
 30
0.0
 10
-131.224108
 20
41.5
 30
0.0
 10
-131.0
 20
41.724108
 30
0.0
 10
-131.0
 20
42.0
 30
0.0
 10
-131.0
 20
46.333333333333
 30
0.0
 10
-131.0
 20
50.666666666667
 30
0.0
 10
-131.0
 20
55.0
 30
0.0
  0
SPLINE
  5
d0
100
AcDbEntity
  8
Plate
100
AcDbSpline
 70
     9
 71
     3
 72
    29
 73
    25
 74
     0
 42
0.0000001
 43
0.0000001
 40
0.0
 40
0.0
 40
0.0
 40
0.0
 40
1.0
 40
1.0
 40
1.0
 40
14.0
 40
14.0
 40
14.0
 40
15.0
 40
15.0
 40
15.0
 40
28.0
 40
28.0
 40
28.0
 40
29.0
 40
29.0
 40
29.0
 40
42.0
 40
42.0
 40
42.0
 40
43.0
 40
43.0
 40
43.0
 40
56.0
 40
56.0
 40
56.0
 40
56.0
 10
-168.75
 20
42.0
 30
0.0
 10
-168.75
 20
41.724108
 30
0.0
 10
-168.525892
 20
41.5
 30
0.0
 10
-168.25
 20
41.5
 30
0.0
 10
-163.916666666667
 20
41.5
 30
0.0
 10
-159.583333333333
 20
41.5
 30
0.0
 10
-155.25
 20
41.5
 30
0.0
 10
-154.974108
 20
41.5
 30
0.0
 10
-154.75
 20
41.724108
 30
0.0
 10
-154.75
 20
42.0
 30
0.0
 10
-154.75
 20
46.333333333333
 30
0.0
 10
-154.75
 20
50.666666666667
 30
0.0
 10
-154.75
 20
55.0
 30
0.0
 10
-154.75
 20
55.275892
 30
0.0
 10
-154.974108
 20
55.5
 30
0.0
 10
-155.25
 20
55.5
 30
0.0
 10
-159.583333333333
 20
55.5
 30
0.0
 10
-163.916666666667
 20
55.5
 30
0.0
 10
-168.25
 20
55.5
 30
0.0
 10
-168.525892
 20
55.5
 30
0.0
 10
-168.75
 20
55.275892
 30
0.0
 10
-168.75
 20
55.0
 30
0.0
 10
-168.75
 20
50.666666666667
 30
0.0
 10
-168.75
 20
46.333333333333
 30
0.0
 10
-168.75
 20
42.0
 30
0.0
  0
SPLINE
  5
d1
100
AcDbEntity
  8
Plate
100
AcDbSpline
 70
     9
 71
     3
 72
    29
 73
    25
 74
     0
 42
0.0000001
 43
0.0000001
 40
0.0
 40
0.0
 40
0.0
 40
0.0
 40
1.0
 40
1.0
 40
1.0
 40
14.0
 40
14.0
 40
14.0
 40
15.0
 40
15.0
 40
15.0
 40
28.0
 40
28.0
 40
28.0
 40
29.0
 40
29.0
 40
29.0
 40
42.0
 40
42.0
 40
42.0
 40
43.0
 40
43.0
 40
43.0
 40
56.0
 40
56.0
 40
56.0
 40
56.0
 10
-55.684889580531
 20
58.741208083841
 30
0.0
 10
-55.720900712755
 20
58.467676378147
 30
0.0
 10
-55.527961951648
 20
58.216233689269
 30
0.0
 10
-55.254430245954
 20
58.180222557045
 30
0.0
 10
-50.958169180001
 20
57.614609057424
 30
0.0
 10
-46.661908114048
 20
57.048995557804
 30
0.0
 10
-42.365647048094
 20
56.483382058184
 30
0.0
 10
-42.0921153424
 20
56.44737092596
 30
0.0
 10
-41.840672653521
 20
56.640309687067
 30
0.0
 10
-41.804661521297
 20
56.913841392761
 30
0.0
 10
-41.239048021677
 20
61.210102458714
 30
0.0
 10
-40.673434522057
 20
65.506363524667
 30
0.0
 10
-40.107821022437
 20
69.80262459062
 30
0.0
 10
-40.071809890213
 20
70.076156296314
 30
0.0
 10
-40.26474865132
 20
70.327598985193
 30
0.0
 10
-40.538280357014
 20
70.363610117417
 30
0.0
 10
-44.834541422967
 20
70.929223617037
 30
0.0
 10
-49.13080248892
 20
71.494837116658
 30
0.0
 10
-53.427063554873
 20
72.060450616278
 30
0.0
 10
-53.700595260567
 20
72.096461748502
 30
0.0
 10
-53.952037949446
 20
71.903522987395
 30
0.0
 10
-53.98804908167
 20
71.629991281701
 30
0.0
 10
-54.55366258129
 20
67.333730215748
 30
0.0
 10
-55.119276080911
 20
63.037469149795
 30
0.0
 10
-55.684889580531
 20
58.741208083841
 30
0.0
  0
SPLINE
  5
d2
100
AcDbEntity
  8
Plate
100
AcDbSpline
 70
     9
 71
     3
 72
    29
 73
    25
 74
     0
 42
0.0000001
 43
0.0000001
 40
0.0
 40
0.0
 40
0.0
 40
0.0
 40
1.0
 40
1.0
 40
1.0
 40
14.0
 40
14.0
 40
14.0
 40
15.0
 40
15.0
 40
15.0
 40
28.0
 40
28.0
 40
28.0
 40
29.0
 40
29.0
 40
29.0
 40
42.0
 40
42.0
 40
42.0
 40
43.0
 40
43.0
 40
43.0
 40
56.0
 40
56.0
 40
56.0
 40
56.0
 10
-74.274201613363
 20
60.326527573565
 30
0.0
 10
-74.295847850201
 20
60.051486056527
 30
0.0
 10
-74.090014011398
 20
59.810485595674
 30
0.0
 10
-73.81497249436
 20
59.788839358835
 30
0.0
 10
-69.494997381516
 20
59.448849944014
 30
0.0
 10
-65.175022268673
 20
59.108860529194
 30
0.0
 10
-60.855047155829
 20
58.768871114373
 30
0.0
 10
-60.580005638791
 20
58.747224877534
 30
0.0
 10
-60.339005177937
 20
58.953058716337
 30
0.0
 10
-60.317358941099
 20
59.228100233376
 30
0.0
 10
-59.977369526278
 20
63.548075346219
 30
0.0
 10
-59.637380111457
 20
67.868050459063
 30
0.0
 10
-59.297390696637
 20
72.188025571906
 30
0.0
 10
-59.275744459798
 20
72.463067088945
 30
0.0
 10
-59.481578298601
 20
72.704067549798
 30
0.0
 10
-59.756619815639
 20
72.725713786637
 30
0.0
 10
-64.076594928483
 20
73.065703201457
 30
0.0
 10
-68.396570041327
 20
73.405692616278
 30
0.0
 10
-72.71654515417
 20
73.745682031099
 30
0.0
 10
-72.991586671208
 20
73.767328267937
 30
0.0
 10
-73.232587132062
 20
73.561494429134
 30
0.0
 10
-73.254233368901
 20
73.286452912096
 30
0.0
 10
-73.594222783721
 20
68.966477799253
 30
0.0
 10
-73.934212198542
 20
64.646502686409
 30
0.0
 10
-74.274201613363
 20
60.326527573565
 30
0.0
  0
SPLINE
  5
d3
100
AcDbEntity
  8
Plate
100
AcDbSpline
 70
     9
 71
     3
 72
    29
 73
    25
 74
     0
 42
0.0000001
 43
0.0000001
 40
0.0
 40
0.0
 40
0.0
 40
0.0
 40
1.0
 40
1.0
 40
1.0
 40
14.0
 40
14.0
 40
14.0
 40
15.0
 40
15.0
 40
15.0
 40
28.0
 40
28.0
 40
28.0
 40
29.0
 40
29.0
 40
29.0
 40
42.0
 40
42.0
 40
42.0
 40
43.0
 40
43.0
 40
43.0
 40
56.0
 40
56.0
 40
56.0
 40
56.0
 10
-92.921006851562
 20
60.936785016889
 30
0.0
 10
-92.928228862185
 20
60.660987558187
 30
0.0
 10
-92.710064121931
 20
60.43108989087
 30
0.0
 10
-92.434266663228
 20
60.423867880247
 30
0.0
 10
-88.102418255001
 20
60.31043443758
 30
0.0
 10
-83.770569846774
 20
60.197000994913
 30
0.0
 10
-79.438721438546
 20
60.083567552245
 30
0.0
 10
-79.162923979844
 20
60.076345541623
 30
0.0
 10
-78.933026312527
 20
60.294510281877
 30
0.0
 10
-78.925804301904
 20
60.570307740579
 30
0.0
 10
-78.812370859237
 20
64.902156148806
 30
0.0
 10
-78.69893741657
 20
69.234004557034
 30
0.0
 10
-78.585503973902
 20
73.565852965261
 30
0.0
 10
-78.57828196328
 20
73.841650423963
 30
0.0
 10
-78.796446703534
 20
74.07154809128
 30
0.0
 10
-79.072244162236
 20
74.078770101903
 30
0.0
 10
-83.404092570463
 20
74.19220354457
 30
0.0
 10
-87.735940978691
 20
74.305636987238
 30
0.0
 10
-92.067789386918
 20
74.419070429905
 30
0.0
 10
-92.34358684562
 20
74.426292440528
 30
0.0
 10
-92.573484512937
 20
74.208127700274
 30
0.0
 10
-92.58070652356
 20
73.932330241571
 30
0.0
 10
-92.694139966227
 20
69.600481833344
 30
0.0
 10
-92.807573408895
 20
65.268633425117
 30
0.0
 10
-92.921006851562
 20
60.936785016889
 30
0.0
  0
SPLINE
  5
d4
100
AcDbEntity
  8
Plate
100
AcDbSpline
 70
     9
 71
     3
 72
    29
 73
    25
 74
     0
 42
0.0000001
 43
0.0000001
 40
0.0
 40
0.0
 40
0.0
 40
0.0
 40
1.0
 40
1.0
 40
1.0
 40
14.0
 40
14.0
 40
14.0
 40
15.0
 40
15.0
 40
15.0
 40
28.0
 40
28.0
 40
28.0
 40
29.0
 40
29.0
 40
29.0
 40
42.0
 40
42.0
 40
42.0
 40
43.0
 40
43.0
 40
43.0
 40
56.0
 40
56.0
 40
56.0
 40
56.0
 10
-111.75
 20
61.0
 30
0.0
 10
-111.75
 20
60.724108
 30
0.0
 10
-111.525892
 20
60.5
 30
0.0
 10
-111.25
 20
60.5
 30
0.0
 10
-106.916666666667
 20
60.5
 30
0.0
 10
-102.583333333333
 20
60.5
 30
0.0
 10
-98.25
 20
60.5
 30
0.0
 10
-97.974108
 20
60.5
 30
0.0
 10
-97.75
 20
60.724108
 30
0.0
 10
-97.75
 20
61.0
 30
0.0
 10
-97.75
 20
65.333333333333
 30
0.0
 10
-97.75
 20
69.666666666667
 30
0.0
 10
-97.75
 20
74.0
 30
0.0
 10
-97.75
 20
74.275892
 30
0.0
 10
-97.974108
 20
74.5
 30
0.0
 10
-98.25
 20
74.5
 30
0.0
 10
-102.583333333333
 20
74.5
 30
0.0
 10
-106.916666666667
 20
74.5
 30
0.0
 10
-111.25
 20
74.5
 30
0.0
 10
-111.525892
 20
74.5
 30
0.0
 10
-111.75
 20
74.275892
 30
0.0
 10
-111.75
 20
74.0
 30
0.0
 10
-111.75
 20
69.666666666667
 30
0.0
 10
-111.75
 20
65.333333333333
 30
0.0
 10
-111.75
 20
61.0
 30
0.0
  0
SPLINE
  5
d5
100
AcDbEntity
  8
Plate
100
AcDbSpline
 70
     9
 71
     3
 72
    65
 73
    61
 74
     0
 42
0.0000001
 43
0.0000001
 40
0.0
 40
0.0
 40
0.0
 40
0.0
 40
1.0
 40
1.0
 40
1.0
 40
1.625
 40
1.625
 40
1.625
 40
2.125
 40
2.125
 40
2.125
 40
3.125
 40
3.125
 40
3.125
 40
8.910714285714
 40
8.910714285714
 40
8.910714285714
 40
9.910714285714
 40
9.910714285714
 40
9.910714285714
 40
10.410714285714
 40
10.410714285714
 40
10.410714285714
 40
27.410714285714
 40
27.410714285714
 40
27.410714285714
 40
27.910714285714
 40
27.910714285714
 40
27.910714285714
 40
28.910714285714
 40
28.910714285714
 40
28.910714285714
 40
34.696428571428
 40
34.696428571428
 40
34.696428571428
 40
35.696428571428
 40
35.696428571428
 40
35.696428571428
 40
36.196428571429
 40
36.196428571429
 40
36.196428571429
 40
39.284391534391
 40
39.284391534391
 40
39.284391534391
 40
40.284391534391
 40
40.284391534391
 40
40.284391534391
 40
53.284391534391
 40
53.284391534391
 40
53.284391534391
 40
54.284391534391
 40
54.284391534391
 40
54.284391534391
 40
88.659391534391
 40
88.659391534391
 40
88.659391534391
 40
89.659391534391
 40
89.659391534391
 40
89.659391534391
 40
102.659391534391
 40
102.659391534391
 40
102.659391534391
 40
102.659391534391
 10
-152.125
 20
61.0
 30
0.0
 10
-152.125
 20
60.724108
 30
0.0
 10
-151.900892
 20
60.5
 30
0.0
 10
-151.625
 20
60.5
 30
0.0
 10
-151.458333333333
 20
60.5
 30
0.0
 10
-151.291666666667
 20
60.5
 30
0.0
 10
-151.125
 20
60.5
 30
0.0
 10
-151.125
 20
60.333333333333
 30
0.0
 10
-151.125
 20
60.166666666667
 30
0.0
 10
-151.125
 20
60.0
 30
0.0
 10
-151.125
 20
59.724108
 30
0.0
 10
-150.900892
 20
59.5
 30
0.0
 10
-150.625
 20
59.5
 30
0.0
 10
-148.625
 20
59.5
 30
0.0
 10
-146.625
 20
59.5
 30
0.0
 10
-144.625
 20
59.5
 30
0.0
 10
-144.349108
 20
59.5
 30
0.0
 10
-144.125
 20
59.724108
 30
0.0
 10
-144.125
 20
60.0
 30
0.0
 10
-144.125
 20
60.166666666667
 30
0.0
 10
-144.125
 20
60.333333333333
 30
0.0
 10
-144.125
 20
60.5
 30
0.0
 10
-138.458333333333
 20
60.5
 30
0.0
 10
-132.791666666667
 20
60.5
 30
0.0
 10
-127.125
 20
60.5
 30
0.0
 10
-127.125
 20
60.333333333333
 30
0.0
 10
-127.125
 20
60.166666666667
 30
0.0
 10
-127.125
 20
60.0
 30
0.0
 10
-127.125
 20
59.724108
 30
0.0
 10
-126.900892
 20
59.5
 30
0.0
 10
-126.625
 20
59.5
 30
0.0
 10
-124.625
 20
59.5
 30
0.0
 10
-122.625
 20
59.5
 30
0.0
 10
-120.625
 20
59.5
 30
0.0
 10
-120.349108
 20
59.5
 30
0.0
 10
-120.125
 20
59.724108
 30
0.0
 10
-120.125
 20
60.0
 30
0.0
 10
-120.125
 20
60.166666666667
 30
0.0
 10
-120.125
 20
60.333333333333
 30
0.0
 10
-120.125
 20
60.5
 30
0.0
 10
-119.166666666667
 20
60.5
 30
0.0
 10
-118.208333333333
 20
60.5
 30
0.0
 10
-117.25
 20
60.5
 30
0.0
 10
-116.974108
 20
60.5
 30
0.0
 10
-116.75
 20
60.724108
 30
0.0
 10
-116.75
 20
61.0
 30
0.0
 10
-116.75
 20
65.333333333333
 30
0.0
 10
-116.75
 20
69.666666666667
 30
0.0
 10
-116.75
 20
74.0
 30
0.0
 10
-116.75
 20
74.275892
 30
0.0
 10
-116.974108
 20
74.5
 30
0.0
 10
-117.25
 20
74.5
 30
0.0
 10
-128.708333333333
 20
74.5
 30
0.0
 10
-140.166666666667
 20
74.5
 30
0.0
 10
-151.625
 20
74.5
 30
0.0
 10
-151.900892
 20
74.5
 30
0.0
 10
-152.125
 20
74.275892
 30
0.0
 10
-152.125
 20
74.0
 30
0.0
 10
-152.125
 20
69.666666666667
 30
0.0
 10
-152.125
 20
65.333333333333
 30
0.0
 10
-152.125
 20
61.0
 30
0.0
  0
SPLINE
  5
d6
100
AcDbEntity
  8
Plate
100
AcDbSpline
 70
     9
 71
     3
 72
    29
 73
    25
 74
     0
 42
0.0000001
 43
0.0000001
 40
0.0
 40
0.0
 40
0.0
 40
0.0
 40
1.0
 40
1.0
 40
1.0
 40
14.0
 40
14.0
 40
14.0
 40
15.0
 40
15.0
 40
15.0
 40
28.0
 40
28.0
 40
28.0
 40
29.0
 40
29.0
 40
29.0
 40
42.0
 40
42.0
 40
42.0
 40
43.0
 40
43.0
 40
43.0
 40
56.0
 40
56.0
 40
56.0
 40
56.0
 10
-173.5
 20
61.0
 30
0.0
 10
-173.5
 20
60.724108
 30
0.0
 10
-173.275892
 20
60.5
 30
0.0
 10
-173.0
 20
60.5
 30
0.0
 10
-168.666666666667
 20
60.5
 30
0.0
 10
-164.333333333333
 20
60.5
 30
0.0
 10
-160.0
 20
60.5
 30
0.0
 10
-159.724108
 20
60.5
 30
0.0
 10
-159.5
 20
60.724108
 30
0.0
 10
-159.5
 20
61.0
 30
0.0
 10
-159.5
 20
65.333333333333
 30
0.0
 10
-159.5
 20
69.666666666667
 30
0.0
 10
-159.5
 20
74.0
 30
0.0
 10
-159.5
 20
74.275892
 30
0.0
 10
-159.724108
 20
74.5
 30
0.0
 10
-160.0
 20
74.5
 30
0.0
 10
-164.333333333333
 20
74.5
 30
0.0
 10
-168.666666666667
 20
74.5
 30
0.0
 10
-173.0
 20
74.5
 30
0.0
 10
-173.275892
 20
74.5
 30
0.0
 10
-173.5
 20
74.275892
 30
0.0
 10
-173.5
 20
74.0
 30
0.0
 10
-173.5
 20
69.666666666667
 30
0.0
 10
-173.5
 20
65.333333333333
 30
0.0
 10
-173.5
 20
61.0
 30
0.0
  0
SPLINE
  5
d7
100
AcDbEntity
  8
Plate
100
AcDbSpline
 70
     9
 71
     3
 72
    29
 73
    25
 74
     0
 42
0.0000001
 43
0.0000001
 40
0.0
 40
0.0
 40
0.0
 40
0.0
 40
1.0
 40
1.0
 40
1.0
 40
14.0
 40
14.0
 40
14.0
 40
15.0
 40
15.0
 40
15.0
 40
28.0
 40
28.0
 40
28.0
 40
29.0
 40
29.0
 40
29.0
 40
42.0
 40
42.0
 40
42.0
 40
43.0
 40
43.0
 40
43.0
 40
56.0
 40
56.0
 40
56.0
 40
56.0
 10
-173.5
 20
80.0
 30
0.0
 10
-173.5
 20
79.724108
 30
0.0
 10
-173.275892
 20
79.5
 30
0.0
 10
-173.0
 20
79.5
 30
0.0
 10
-168.666666666667
 20
79.5
 30
0.0
 10
-164.333333333333
 20
79.5
 30
0.0
 10
-160.0
 20
79.5
 30
0.0
 10
-159.724108
 20
79.5
 30
0.0
 10
-159.5
 20
79.724108
 30
0.0
 10
-159.5
 20
80.0
 30
0.0
 10
-159.5
 20
84.333333333333
 30
0.0
 10
-159.5
 20
88.666666666667
 30
0.0
 10
-159.5
 20
93.0
 30
0.0
 10
-159.5
 20
93.275892
 30
0.0
 10
-159.724108
 20
93.5
 30
0.0
 10
-160.0
 20
93.5
 30
0.0
 10
-164.333333333333
 20
93.5
 30
0.0
 10
-168.666666666667
 20
93.5
 30
0.0
 10
-173.0
 20
93.5
 30
0.0
 10
-173.275892
 20
93.5
 30
0.0
 10
-173.5
 20
93.275892
 30
0.0
 10
-173.5
 20
93.0
 30
0.0
 10
-173.5
 20
88.666666666667
 30
0.0
 10
-173.5
 20
84.333333333333
 30
0.0
 10
-173.5
 20
80.0
 30
0.0
  0
SPLINE
  5
d8
100
AcDbEntity
  8
Plate
100
AcDbSpline
 70
     9
 71
     3
 72
    29
 73
    25
 74
     0
 42
0.0000001
 43
0.0000001
 40
0.0
 40
0.0
 40
0.0
 40
0.0
 40
1.0
 40
1.0
 40
1.0
 40
18.75
 40
18.75
 40
18.75
 40
19.75
 40
19.75
 40
19.75
 40
32.75
 40
32.75
 40
32.75
 40
33.75
 40
33.75
 40
33.75
 40
51.5
 40
51.5
 40
51.5
 40
52.5
 40
52.5
 40
52.5
 40
65.5
 40
65.5
 40
65.5
 40
65.5
 10
-152.125
 20
80.0
 30
0.0
 10
-152.125
 20
79.724108
 30
0.0
 10
-151.900892
 20
79.5
 30
0.0
 10
-151.625
 20
79.5
 30
0.0
 10
-145.708333333333
 20
79.5
 30
0.0
 10
-139.791666666667
 20
79.5
 30
0.0
 10
-133.875
 20
79.5
 30
0.0
 10
-133.599108
 20
79.5
 30
0.0
 10
-133.375
 20
79.724108
 30
0.0
 10
-133.375
 20
80.0
 30
0.0
 10
-133.375
 20
84.333333333333
 30
0.0
 10
-133.375
 20
88.666666666667
 30
0.0
 10
-133.375
 20
93.0
 30
0.0
 10
-133.375
 20
93.275892
 30
0.0
 10
-133.599108
 20
93.5
 30
0.0
 10
-133.875
 20
93.5
 30
0.0
 10
-139.791666666667
 20
93.5
 30
0.0
 10
-145.708333333333
 20
93.5
 30
0.0
 10
-151.625
 20
93.5
 30
0.0
 10
-151.900892
 20
93.5
 30
0.0
 10
-152.125
 20
93.275892
 30
0.0
 10
-152.125
 20
93.0
 30
0.0
 10
-152.125
 20
88.666666666667
 30
0.0
 10
-152.125
 20
84.333333333333
 30
0.0
 10
-152.125
 20
80.0
 30
0.0
  0
SPLINE
  5
d9
100
AcDbEntity
  8
Plate
100
AcDbSpline
 70
     9
 71
     3
 72
    29
 73
    25
 74
     0
 42
0.0000001
 43
0.0000001
 40
0.0
 40
0.0
 40
0.0
 40
0.0
 40
1.0
 40
1.0
 40
1.0
 40
14.0
 40
14.0
 40
14.0
 40
15.0
 40
15.0
 40
15.0
 40
28.0
 40
28.0
 40
28.0
 40
29.0
 40
29.0
 40
29.0
 40
42.0
 40
42.0
 40
42.0
 40
43.0
 40
43.0
 40
43.0
 40
56.0
 40
56.0
 40
56.0
 40
56.0
 10
-121.25
 20
80.0
 30
0.0
 10
-121.25
 20
79.724108
 30
0.0
 10
-121.025892
 20
79.5
 30
0.0
 10
-120.75
 20
79.5
 30
0.0
 10
-116.416666666667
 20
79.5
 30
0.0
 10
-112.083333333333
 20
79.5
 30
0.0
 10
-107.75
 20
79.5
 30
0.0
 10
-107.474108
 20
79.5
 30
0.0
 10
-107.25
 20
79.724108
 30
0.0
 10
-107.25
 20
80.0
 30
0.0
 10
-107.25
 20
84.333333333333
 30
0.0
 10
-107.25
 20
88.666666666667
 30
0.0
 10
-107.25
 20
93.0
 30
0.0
 10
-107.25
 20
93.275892
 30
0.0
 10
-107.474108
 20
93.5
 30
0.0
 10
-107.75
 20
93.5
 30
0.0
 10
-112.083333333333
 20
93.5
 30
0.0
 10
-116.416666666667
 20
93.5
 30
0.0
 10
-120.75
 20
93.5
 30
0.0
 10
-121.025892
 20
93.5
 30
0.0
 10
-121.25
 20
93.275892
 30
0.0
 10
-121.25
 20
93.0
 30
0.0
 10
-121.25
 20
88.666666666667
 30
0.0
 10
-121.25
 20
84.333333333333
 30
0.0
 10
-121.25
 20
80.0
 30
0.0
  0
SPLINE
  5
da
100
AcDbEntity
  8
Plate
100
AcDbSpline
 70
     9
 71
     3
 72
    29
 73
    25
 74
     0
 42
0.0000001
 43
0.0000001
 40
0.0
 40
0.0
 40
0.0
 40
0.0
 40
1.0
 40
1.0
 40
1.0
 40
14.0
 40
14.0
 40
14.0
 40
15.0
 40
15.0
 40
15.0
 40
28.0
 40
28.0
 40
28.0
 40
29.0
 40
29.0
 40
29.0
 40
42.0
 40
42.0
 40
42.0
 40
43.0
 40
43.0
 40
43.0
 40
56.0
 40
56.0
 40
56.0
 40
56.0
 10
-102.25
 20
80.0
 30
0.0
 10
-102.25
 20
79.724108
 30
0.0
 10
-102.025892
 20
79.5
 30
0.0
 10
-101.75
 20
79.5
 30
0.0
 10
-97.416666666667
 20
79.5
 30
0.0
 10
-93.083333333333
 20
79.5
 30
0.0
 10
-88.75
 20
79.5
 30
0.0
 10
-88.474108
 20
79.5
 30
0.0
 10
-88.25
 20
79.724108
 30
0.0
 10
-88.25
 20
80.0
 30
0.0
 10
-88.25
 20
84.333333333333
 30
0.0
 10
-88.25
 20
88.666666666667
 30
0.0
 10
-88.25
 20
93.0
 30
0.0
 10
-88.25
 20
93.275892
 30
0.0
 10
-88.474108
 20
93.5
 30
0.0
 10
-88.75
 20
93.5
 30
0.0
 10
-93.083333333333
 20
93.5
 30
0.0
 10
-97.416666666667
 20
93.5
 30
0.0
 10
-101.75
 20
93.5
 30
0.0
 10
-102.025892
 20
93.5
 30
0.0
 10
-102.25
 20
93.275892
 30
0.0
 10
-102.25
 20
93.0
 30
0.0
 10
-102.25
 20
88.666666666667
 30
0.0
 10
-102.25
 20
84.333333333333
 30
0.0
 10
-102.25
 20
80.0
 30
0.0
  0
SPLINE
  5
db
100
AcDbEntity
  8
Plate
100
AcDbSpline
 70
     9
 71
     3
 72
    29
 73
    25
 74
     0
 42
0.0000001
 43
0.0000001
 40
0.0
 40
0.0
 40
0.0
 40
0.0
 40
1.0
 40
1.0
 40
1.0
 40
14.0
 40
14.0
 40
14.0
 40
15.0
 40
15.0
 40
15.0
 40
28.0
 40
28.0
 40
28.0
 40
29.0
 40
29.0
 40
29.0
 40
42.0
 40
42.0
 40
42.0
 40
43.0
 40
43.0
 40
43.0
 40
56.0
 40
56.0
 40
56.0
 40
56.0
 10
-83.593609878693
 20
79.878068133488
 30
0.0
 10
-83.608048950332
 20
79.602554233885
 30
0.0
 10
-83.395976989039
 20
79.367024459629
 30
0.0
 10
-83.120463089437
 20
79.352585387989
 30
0.0
 10
-78.793068438834
 20
79.12579624427
 30
0.0
 10
-74.465673788231
 20
78.89900710055
 30
0.0
 10
-70.138279137627
 20
78.672217956831
 30
0.0
 10
-69.862765238025
 20
78.657778885191
 30
0.0
 10
-69.627235463768
 20
78.869850846484
 30
0.0
 10
-69.612796392129
 20
79.145364746087
 30
0.0
 10
-69.386007248409
 20
83.47275939669
 30
0.0
 10
-69.15921810469
 20
87.800154047293
 30
0.0
 10
-68.93242896097
 20
92.127548697896
 30
0.0
 10
-68.917989889331
 20
92.403062597499
 30
0.0
 10
-69.130061850624
 20
92.638592371755
 30
0.0
 10
-69.405575750226
 20
92.653031443395
 30
0.0
 10
-73.732970400829
 20
92.879820587114
 30
0.0
 10
-78.060365051433
 20
93.106609730834
 30
0.0
 10
-82.387759702036
 20
93.333398874553
 30
0.0
 10
-82.663273601638
 20
93.347837946193
 30
0.0
 10
-82.898803375895
 20
93.1357659849
 30
0.0
 10
-82.913242447534
 20
92.860252085297
 30
0.0
 10
-83.140031591254
 20
88.532857434694
 30
0.0
 10
-83.366820734973
 20
84.205462784091
 30
0.0
 10
-83.593609878693
 20
79.878068133488
 30
0.0
  0
SPLINE
  5
dc
100
AcDbEntity
  8
Plate
100
AcDbSpline
 70
     9
 71
     3
 72
    29
 73
    25
 74
     0
 42
0.0000001
 43
0.0000001
 40
0.0
 40
0.0
 40
0.0
 40
0.0
 40
1.0
 40
1.0
 40
1.0
 40
14.0
 40
14.0
 40
14.0
 40
15.0
 40
15.0
 40
15.0
 40
28.0
 40
28.0
 40
28.0
 40
29.0
 40
29.0
 40
29.0
 40
42.0
 40
42.0
 40
42.0
 40
43.0
 40
43.0
 40
43.0
 40
56.0
 40
56.0
 40
56.0
 40
56.0
 10
-64.969169112482
 20
78.779903353321
 30
0.0
 10
-64.99800767927
 20
78.505522718564
 30
0.0
 10
-64.798553031189
 20
78.259216740791
 30
0.0
 10
-64.524172396432
 20
78.230378174003
 30
0.0
 10
-60.214577516503
 20
77.777421499843
 30
0.0
 10
-55.904982636573
 20
77.324464825684
 30
0.0
 10
-51.595387756644
 20
76.871508151524
 30
0.0
 10
-51.321007121887
 20
76.842669584736
 30
0.0
 10
-51.074701144114
 20
77.042124232817
 30
0.0
 10
-51.045862577326
 20
77.316504867574
 30
0.0
 10
-50.592905903167
 20
81.626099747503
 30
0.0
 10
-50.139949229007
 20
85.935694627432
 30
0.0
 10
-49.686992554847
 20
90.245289507362
 30
0.0
 10
-49.658153988059
 20
90.519670142119
 30
0.0
 10
-49.85760863614
 20
90.765976119892
 30
0.0
 10
-50.131989270897
 20
90.79481468668
 30
0.0
 10
-54.441584150826
 20
91.247771360839
 30
0.0
 10
-58.751179030756
 20
91.700728034999
 30
0.0
 10
-63.060773910685
 20
92.153684709159
 30
0.0
 10
-63.335154545442
 20
92.182523275947
 30
0.0
 10
-63.581460523215
 20
91.983068627866
 30
0.0
 10
-63.610299090003
 20
91.708687993109
 30
0.0
 10
-64.063255764163
 20
87.39909311318
 30
0.0
 10
-64.516212438322
 20
83.08949823325
 30
0.0
 10
-64.969169112482
 20
78.779903353321
 30
0.0
  0
SPLINE
  5
dd
100
AcDbEntity
  8
Plate
100
AcDbSpline
 70
     9
 71
     3
 72
    29
 73
    25
 74
     0
 42
0.0000001
 43
0.0000001
 40
0.0
 40
0.0
 40
0.0
 40
0.0
 40
1.0
 40
1.0
 40
1.0
 40
14.0
 40
14.0
 40
14.0
 40
15.0
 40
15.0
 40
15.0
 40
28.0
 40
28.0
 40
28.0
 40
29.0
 40
29.0
 40
29.0
 40
42.0
 40
42.0
 40
42.0
 40
43.0
 40
43.0
 40
43.0
 40
56.0
 40
56.0
 40
56.0
 40
56.0
 10
-46.249930923662
 20
76.748868949819
 30
0.0
 10
-46.285942055886
 20
76.475337244125
 30
0.0
 10
-46.093003294779
 20
76.223894555246
 30
0.0
 10
-45.819471589085
 20
76.187883423022
 30
0.0
 10
-41.523210523132
 20
75.622269923402
 30
0.0
 10
-37.226949457178
 20
75.056656423781
 30
0.0
 10
-32.930688391225
 20
74.491042924161
 30
0.0
 10
-32.657156685531
 20
74.455031791937
 30
0.0
 10
-32.405713996652
 20
74.647970553044
 30
0.0
 10
-32.369702864428
 20
74.921502258738
 30
0.0
 10
-31.804089364808
 20
79.217763324691
 30
0.0
 10
-31.238475865188
 20
83.514024390644
 30
0.0
 10
-30.672862365568
 20
87.810285456598
 30
0.0
 10
-30.636851233344
 20
88.083817162292
 30
0.0
 10
-30.82978999445
 20
88.335259851171
 30
0.0
 10
-31.103321700145
 20
88.371270983395
 30
0.0
 10
-35.399582766098
 20
88.936884483015
 30
0.0
 10
-39.695843832051
 20
89.502497982635
 30
0.0
 10
-43.992104898004
 20
90.068111482255
 30
0.0
 10
-44.265636603698
 20
90.104122614479
 30
0.0
 10
-44.517079292577
 20
89.911183853372
 30
0.0
 10
-44.553090424801
 20
89.637652147678
 30
0.0
 10
-45.118703924421
 20
85.341391081725
 30
0.0
 10
-45.684317424041
 20
81.045130015772
 30
0.0
 10
-46.249930923662
 20
76.748868949819
 30
0.0
  0
SPLINE
  5
de
100
AcDbEntity
  8
Plate
100
AcDbSpline
 70
     9
 71
     3
 72
    29
 73
    25
 74
     0
 42
0.0000001
 43
0.0000001
 40
0.0
 40
0.0
 40
0.0
 40
0.0
 40
1.0
 40
1.0
 40
1.0
 40
14.0
 40
14.0
 40
14.0
 40
15.0
 40
15.0
 40
15.0
 40
28.0
 40
28.0
 40
28.0
 40
29.0
 40
29.0
 40
29.0
 40
42.0
 40
42.0
 40
42.0
 40
43.0
 40
43.0
 40
43.0
 40
56.0
 40
56.0
 40
56.0
 40
56.0
 10
-69.524201613363
 20
98.326527573565
 30
0.0
 10
-69.545847850201
 20
98.051486056527
 30
0.0
 10
-69.340014011398
 20
97.810485595674
 30
0.0
 10
-69.06497249436
 20
97.788839358835
 30
0.0
 10
-64.744997381516
 20
97.448849944014
 30
0.0
 10
-60.425022268673
 20
97.108860529194
 30
0.0
 10
-56.105047155829
 20
96.768871114373
 30
0.0
 10
-55.830005638791
 20
96.747224877534
 30
0.0
 10
-55.589005177937
 20
96.953058716337
 30
0.0
 10
-55.567358941099
 20
97.228100233376
 30
0.0
 10
-55.227369526278
 20
101.548075346219
 30
0.0
 10
-54.887380111457
 20
105.868050459063
 30
0.0
 10
-54.547390696637
 20
110.188025571906
 30
0.0
 10
-54.525744459798
 20
110.463067088945
 30
0.0
 10
-54.731578298601
 20
110.704067549798
 30
0.0
 10
-55.006619815639
 20
110.725713786637
 30
0.0
 10
-59.326594928483
 20
111.065703201457
 30
0.0
 10
-63.646570041327
 20
111.405692616278
 30
0.0
 10
-67.96654515417
 20
111.745682031099
 30
0.0
 10
-68.241586671208
 20
111.767328267937
 30
0.0
 10
-68.482587132062
 20
111.561494429134
 30
0.0
 10
-68.504233368901
 20
111.286452912096
 30
0.0
 10
-68.844222783721
 20
106.966477799253
 30
0.0
 10
-69.184212198542
 20
102.646502686409
 30
0.0
 10
-69.524201613363
 20
98.326527573565
 30
0.0
  0
SPLINE
  5
df
100
AcDbEntity
  8
Plate
100
AcDbSpline
 70
     9
 71
     3
 72
    29
 73
    25
 74
     0
 42
0.0000001
 43
0.0000001
 40
0.0
 40
0.0
 40
0.0
 40
0.0
 40
1.0
 40
1.0
 40
1.0
 40
14.0
 40
14.0
 40
14.0
 40
15.0
 40
15.0
 40
15.0
 40
28.0
 40
28.0
 40
28.0
 40
29.0
 40
29.0
 40
29.0
 40
42.0
 40
42.0
 40
42.0
 40
43.0
 40
43.0
 40
43.0
 40
56.0
 40
56.0
 40
56.0
 40
56.0
 10
-88.171006851562
 20
98.936785016889
 30
0.0
 10
-88.178228862185
 20
98.660987558187
 30
0.0
 10
-87.960064121931
 20
98.43108989087
 30
0.0
 10
-87.684266663228
 20
98.423867880247
 30
0.0
 10
-83.352418255001
 20
98.31043443758
 30
0.0
 10
-79.020569846774
 20
98.197000994913
 30
0.0
 10
-74.688721438546
 20
98.083567552245
 30
0.0
 10
-74.412923979844
 20
98.076345541623
 30
0.0
 10
-74.183026312527
 20
98.294510281877
 30
0.0
 10
-74.175804301904
 20
98.570307740579
 30
0.0
 10
-74.062370859237
 20
102.902156148806
 30
0.0
 10
-73.94893741657
 20
107.234004557034
 30
0.0
 10
-73.835503973902
 20
111.565852965261
 30
0.0
 10
-73.82828196328
 20
111.841650423963
 30
0.0
 10
-74.046446703534
 20
112.07154809128
 30
0.0
 10
-74.322244162236
 20
112.078770101903
 30
0.0
 10
-78.654092570463
 20
112.19220354457
 30
0.0
 10
-82.985940978691
 20
112.305636987238
 30
0.0
 10
-87.317789386918
 20
112.419070429905
 30
0.0
 10
-87.59358684562
 20
112.426292440528
 30
0.0
 10
-87.823484512937
 20
112.208127700274
 30
0.0
 10
-87.83070652356
 20
111.932330241571
 30
0.0
 10
-87.944139966227
 20
107.600481833344
 30
0.0
 10
-88.057573408895
 20
103.268633425117
 30
0.0
 10
-88.171006851562
 20
98.936785016889
 30
0.0
  0
SPLINE
  5
e0
100
AcDbEntity
  8
Plate
100
AcDbSpline
 70
     9
 71
     3
 72
    29
 73
    25
 74
     0
 42
0.0000001
 43
0.0000001
 40
0.0
 40
0.0
 40
0.0
 40
0.0
 40
1.0
 40
1.0
 40
1.0
 40
14.0
 40
14.0
 40
14.0
 40
15.0
 40
15.0
 40
15.0
 40
28.0
 40
28.0
 40
28.0
 40
29.0
 40
29.0
 40
29.0
 40
42.0
 40
42.0
 40
42.0
 40
43.0
 40
43.0
 40
43.0
 40
56.0
 40
56.0
 40
56.0
 40
56.0
 10
-107.0
 20
99.0
 30
0.0
 10
-107.0
 20
98.724108
 30
0.0
 10
-106.775892
 20
98.5
 30
0.0
 10
-106.5
 20
98.5
 30
0.0
 10
-102.166666666667
 20
98.5
 30
0.0
 10
-97.833333333333
 20
98.5
 30
0.0
 10
-93.5
 20
98.5
 30
0.0
 10
-93.224108
 20
98.5
 30
0.0
 10
-93.0
 20
98.724108
 30
0.0
 10
-93.0
 20
99.0
 30
0.0
 10
-93.0
 20
103.333333333333
 30
0.0
 10
-93.0
 20
107.666666666667
 30
0.0
 10
-93.0
 20
112.0
 30
0.0
 10
-93.0
 20
112.275892
 30
0.0
 10
-93.224108
 20
112.5
 30
0.0
 10
-93.5
 20
112.5
 30
0.0
 10
-97.833333333333
 20
112.5
 30
0.0
 10
-102.166666666667
 20
112.5
 30
0.0
 10
-106.5
 20
112.5
 30
0.0
 10
-106.775892
 20
112.5
 30
0.0
 10
-107.0
 20
112.275892
 30
0.0
 10
-107.0
 20
112.0
 30
0.0
 10
-107.0
 20
107.666666666667
 30
0.0
 10
-107.0
 20
103.333333333333
 30
0.0
 10
-107.0
 20
99.0
 30
0.0
  0
SPLINE
  5
e1
100
AcDbEntity
  8
Plate
100
AcDbSpline
 70
     9
 71
     3
 72
    29
 73
    25
 74
     0
 42
0.0000001
 43
0.0000001
 40
0.0
 40
0.0
 40
0.0
 40
0.0
 40
1.0
 40
1.0
 40
1.0
 40
14.0
 40
14.0
 40
14.0
 40
15.0
 40
15.0
 40
15.0
 40
28.0
 40
28.0
 40
28.0
 40
29.0
 40
29.0
 40
29.0
 40
42.0
 40
42.0
 40
42.0
 40
43.0
 40
43.0
 40
43.0
 40
56.0
 40
56.0
 40
56.0
 40
56.0
 10
-126.0
 20
99.0
 30
0.0
 10
-126.0
 20
98.724108
 30
0.0
 10
-125.775892
 20
98.5
 30
0.0
 10
-125.5
 20
98.5
 30
0.0
 10
-121.166666666667
 20
98.5
 30
0.0
 10
-116.833333333333
 20
98.5
 30
0.0
 10
-112.5
 20
98.5
 30
0.0
 10
-112.224108
 20
98.5
 30
0.0
 10
-112.0
 20
98.724108
 30
0.0
 10
-112.0
 20
99.0
 30
0.0
 10
-112.0
 20
103.333333333333
 30
0.0
 10
-112.0
 20
107.666666666667
 30
0.0
 10
-112.0
 20
112.0
 30
0.0
 10
-112.0
 20
112.275892
 30
0.0
 10
-112.224108
 20
112.5
 30
0.0
 10
-112.5
 20
112.5
 30
0.0
 10
-116.833333333333
 20
112.5
 30
0.0
 10
-121.166666666667
 20
112.5
 30
0.0
 10
-125.5
 20
112.5
 30
0.0
 10
-125.775892
 20
112.5
 30
0.0
 10
-126.0
 20
112.275892
 30
0.0
 10
-126.0
 20
112.0
 30
0.0
 10
-126.0
 20
107.666666666667
 30
0.0
 10
-126.0
 20
103.333333333333
 30
0.0
 10
-126.0
 20
99.0
 30
0.0
  0
SPLINE
  5
e2
100
AcDbEntity
  8
Plate
100
AcDbSpline
 70
     9
 71
     3
 72
    29
 73
    25
 74
     0
 42
0.0000001
 43
0.0000001
 40
0.0
 40
0.0
 40
0.0
 40
0.0
 40
1.0
 40
1.0
 40
1.0
 40
14.0
 40
14.0
 40
14.0
 40
15.0
 40
15.0
 40
15.0
 40
28.0
 40
28.0
 40
28.0
 40
29.0
 40
29.0
 40
29.0
 40
42.0
 40
42.0
 40
42.0
 40
43.0
 40
43.0
 40
43.0
 40
56.0
 40
56.0
 40
56.0
 40
56.0
 10
-149.75
 20
99.0
 30
0.0
 10
-149.75
 20
98.724108
 30
0.0
 10
-149.525892
 20
98.5
 30
0.0
 10
-149.25
 20
98.5
 30
0.0
 10
-144.916666666667
 20
98.5
 30
0.0
 10
-140.583333333333
 20
98.5
 30
0.0
 10
-136.25
 20
98.5
 30
0.0
 10
-135.974108
 20
98.5
 30
0.0
 10
-135.75
 20
98.724108
 30
0.0
 10
-135.75
 20
99.0
 30
0.0
 10
-135.75
 20
103.333333333333
 30
0.0
 10
-135.75
 20
107.666666666667
 30
0.0
 10
-135.75
 20
112.0
 30
0.0
 10
-135.75
 20
112.275892
 30
0.0
 10
-135.974108
 20
112.5
 30
0.0
 10
-136.25
 20
112.5
 30
0.0
 10
-140.583333333333
 20
112.5
 30
0.0
 10
-144.916666666667
 20
112.5
 30
0.0
 10
-149.25
 20
112.5
 30
0.0
 10
-149.525892
 20
112.5
 30
0.0
 10
-149.75
 20
112.275892
 30
0.0
 10
-149.75
 20
112.0
 30
0.0
 10
-149.75
 20
107.666666666667
 30
0.0
 10
-149.75
 20
103.333333333333
 30
0.0
 10
-149.75
 20
99.0
 30
0.0
  0
SPLINE
  5
e3
100
AcDbEntity
  8
Plate
100
AcDbSpline
 70
     9
 71
     3
 72
   140
 73
   136
 74
     0
 42
0.0000001
 43
0.0000001
 40
16.859323858632
 40
16.859323858632
 40
16.859323858632
 40
16.859323858632
 40
20.0
 40
20.0
 40
20.0
 40
21.0
 40
21.0
 40
21.0
 40
22.0
 40
22.0
 40
22.0
 40
24.94645104479
 40
24.94645104479
 40
24.94645104479
 40
25.045430627027
 40
25.045430627027
 40
25.045430627027
 40
26.045430627027
 40
26.045430627027
 40
26.045430627027
 40
99.319087887481
 40
99.319087887481
 40
99.319087887481
 40
102.319087887479
 40
102.319087887479
 40
102.319087887479
 40
103.319087887479
 40
103.319087887479
 40
103.319087887479
 40
104.319087887479
 40
104.319087887479
 40
104.319087887479
 40
107.16222272046
 40
107.16222272046
 40
107.16222272046
 40
108.16222272046
 40
108.16222272046
 40
108.16222272046
 40
132.120592160118
 40
132.120592160118
 40
132.120592160118
 40
133.120592160118
 40
133.120592160118
 40
133.120592160118
 40
135.904917329
 40
135.904917329
 40
135.904917329
 40
136.904917329
 40
136.904917329
 40
136.904917329
 40
137.473567666765
 40
137.473567666765
 40
137.473567666765
 40
138.473567666765
 40
138.473567666765
 40
138.473567666765
 40
139.132250485484
 40
139.132250485484
 40
139.132250485484
 40
140.132250485484
 40
140.132250485484
 40
140.132250485484
 40
143.552340566593
 40
143.552340566593
 40
143.552340566593
 40
144.552340566593
 40
144.552340566593
 40
144.552340566593
 40
145.552340566593
 40
145.552340566593
 40
145.552340566593
 40
148.282541284014
 40
148.282541284014
 40
148.282541284014
 40
149.282541284014
 40
149.282541284014
 40
149.282541284014
 40
151.632817094405
 40
151.632817094405
 40
151.632817094405
 40
225.382817094405
 40
225.382817094405
 40
225.382817094405
 40
226.382817094405
 40
226.382817094405
 40
226.382817094405
 40
235.882817094406
 40
235.882817094406
 40
235.882817094406
 40
238.882817094407
 40
238.882817094407
 40
238.882817094407
 40
239.882817094407
 40
239.882817094407
 40
239.882817094407
 40
240.882817094407
 40
240.882817094407
 40
240.882817094407
 40
243.882817094408
 40
243.882817094408
 40
243.882817094408
 40
310.382817094407
 40
310.382817094407
 40
310.382817094407
 40
311.382817094407
 40
311.382817094407
 40
311.382817094407
 40
339.882817094407
 40
339.882817094407
 40
339.882817094407
 40
342.882817094407
 40
342.882817094407
 40
342.882817094407
 40
343.882817094407
 40
343.882817094407
 40
343.882817094407
 40
344.882817094407
 40
344.882817094407
 40
344.882817094407
 40
347.882817094406
 40
347.882817094406
 40
347.882817094406
 40
402.382817094406
 40
402.382817094406
 40
402.382817094406
 40
402.609663262305
 40
402.609663262305
 40
402.609663262305
 40
402.836509430203
 40
402.836509430203
 40
402.836509430203
 40
403.063355598102
 40
403.063355598102
 40
403.063355598102
 40
403.124179645203
 40
403.124179645203
 40
403.124179645203
 40
403.124179645203
 10
-25.121343291182
 20
131.898427262316
 30
0.0
 10
-25.257990123757
 20
130.860491521783
 30
0.0
 10
-25.394636956332
 20
129.82255578125
 30
0.0
 10
-25.531283788908
 20
128.784620040717
 30
0.0
 10
-25.711339450027
 20
127.416961512247
 30
0.0
 10
-24.746645644492
 20
126.159748067853
 30
0.0
 10
-23.378987116022
 20
125.979692406734
 30
0.0
 10
-22.011328587551
 20
125.799636745615
 30
0.0
 10
-20.754115143157
 20
126.76433055115
 30
0.0
 10
-20.574059482038
 20
128.13198907962
 30
0.0
 10
-20.445863136893
 20
129.105736995503
 30
0.0
 10
-20.317666791748
 20
130.079484911385
 30
0.0
 10
-20.189470446602
 20
131.053232827268
 30
0.0
 10
-17.823582145932
 20
130.626108329293
 30
0.0
 10
-15.554762893751
 20
130.182935908159
 30
0.0
 10
-13.412747603328
 20
129.725773951198
 30
0.0
 10
-8.798214056323
 20
128.740912080116
 30
0.0
 10
-5.5
 20
124.664491578712
 30
0.0
 10
-5.500000000001
 20
119.946030732044
 30
0.0
 10
-5.5
 20
95.809006683843
 30
0.0
 10
-5.5
 20
71.671982635641
 30
0.0
 10
-5.5
 20
47.53495858744
 30
0.0
 10
-6.5
 20
47.53495858744
 30
0.0
 10
-7.499999999999
 20
47.53495858744
 30
0.0
 10
-8.499999999998
 20
47.53495858744
 30
0.0
 10
-9.879459999998
 20
47.534958587439
 30
0.0
 10
-10.999999999998
 20
46.414418587439
 30
0.0
 10
-10.999999999998
 20
45.034958587439
 30
0.0
 10
-10.999999999997
 20
43.655498587439
 30
0.0
 10
-9.879459999997
 20
42.534958587439
 30
0.0
 10
-8.499999999997
 20
42.53495858744
 30
0.0
 10
-7.552288389003
 20
42.53495858744
 30
0.0
 10
-6.60457677801
 20
42.53495858744
 30
0.0
 10
-5.656865167016
 20
42.53495858744
 30
0.0
 10
-6.211971612824
 20
38.128937767108
 30
0.0
 10
-8.217708119378
 20
34.032979220601
 30
0.0
 10
-11.357864376269
 20
30.89282296371
 30
0.0
 10
-17.004906208587
 20
25.245781131392
 30
0.0
 10
-22.651948040905
 20
19.598739299074
 30
0.0
 10
-28.298989873223
 20
13.951697466756
 30
0.0
 10
-32.200691954726
 20
10.049995385254
 30
0.0
 10
-38.539423415452
 20
10.049995385254
 30
0.0
 10
-42.441125496954
 20
13.951697466756
 30
0.0
 10
-43.097397232936
 20
14.607969202738
 30
0.0
 10
-43.753668968918
 20
15.26424093872
 30
0.0
 10
-44.4099407049
 20
15.920512674701
 30
0.0
 10
-48.55020365194
 20
20.060775621741
 30
0.0
 10
-53.215329233798
 20
23.640452383013
 30
0.0
 10
-58.286095044398
 20
26.56806038876
 30
0.0
 10
-58.45025025719
 20
26.662835445054
 30
0.0
 10
-58.614405469981
 20
26.757610501348
 30
0.0
 10
-58.778560682773
 20
26.852385557642
 30
0.0
 10
-63.849326493373
 20
29.77999356339
 30
0.0
 10
-69.2819802969
 20
32.030272448489
 30
0.0
 10
-74.937684660904
 20
33.545713865453
 30
0.0
 10
-75.150805283214
 20
33.602819364091
 30
0.0
 10
-75.363925905524
 20
33.659924862729
 30
0.0
 10
-75.577046527834
 20
33.717030361368
 30
0.0
 10
-77.4543823337
 20
34.220060974471
 30
0.0
 10
-79.352717254594
 20
34.641165702837
 30
0.0
 10
-81.266665090963
 20
34.979149734065
 30
0.0
 10
-81.266665090963
 20
36.119179761101
 30
0.0
 10
-81.266665090963
 20
37.259209788137
 30
0.0
 10
-81.266665090963
 20
38.399239815173
 30
0.0
 10
-81.266665090963
 20
39.778699815173
 30
0.0
 10
-82.387205090963
 20
40.899239815173
 30
0.0
 10
-83.766665090963
 20
40.899239815173
 30
0.0
 10
-85.146125090963
 20
40.899239815173
 30
0.0
 10
-86.266665090963
 20
39.778699815173
 30
0.0
 10
-86.266665090963
 20
38.399239815173
 30
0.0
 10
-86.266665090963
 20
37.489172909366
 30
0.0
 10
-86.266665090963
 20
36.579106003559
 30
0.0
 10
-86.266665090963
 20
35.669039097752
 30
0.0
 10
-88.476894195437
 20
35.889543293037
 30
0.0
 10
-90.696721344408
 20
36.0
 30
0.0
 10
-92.917922549703
 20
36.0
 30
0.0
 10
-93.695281699802
 20
36.0
 30
0.0
 10
-94.472640849901
 20
36.0
 30
0.0
 10
-95.25
 20
36.0
 30
0.0
 10
-119.833333333333
 20
36.0
 30
0.0
 10
-144.416666666667
 20
36.0
 30
0.0
 10
-169.0
 20
36.0
 30
0.0
 10
-174.51784
 20
36.0
 30
0.0
 10
-179.0
 20
40.48216
 30
0.0
 10
-179.0
 20
46.0
 30
0.0
 10
-179.0
 20
49.166666666667
 30
0.0
 10
-179.0
 20
52.333333333334
 30
0.0
 10
-179.0
 20
55.500000000001
 30
0.0
 10
-178.0
 20
55.500000000001
 30
0.0
 10
-176.999999999999
 20
55.500000000001
 30
0.0
 10
-175.999999999999
 20
55.500000000001
 30
0.0
 10
-174.620539999999
 20
55.500000000001
 30
0.0
 10
-173.499999999999
 20
56.620540000001
 30
0.0
 10
-173.499999999999
 20
58.000000000001
 30
0.0
 10
-173.499999999999
 20
59.379460000001
 30
0.0
 10
-174.620539999999
 20
60.500000000001
 30
0.0
 10
-175.999999999999
 20
60.5
 30
0.0
 10
-177.0
 20
60.5
 30
0.0
 10
-178.0
 20
60.5
 30
0.0
 10
-179.0
 20
60.5
 30
0.0
 10
-179.0
 20
82.666666666667
 30
0.0
 10
-179.0
 20
104.833333333333
 30
0.0
 10
-179.0
 20
127.0
 30
0.0
 10
-179.0
 20
132.51784
 30
0.0
 10
-174.51784
 20
137.0
 30
0.0
 10
-169.0
 20
137.0
 30
0.0
 10
-159.5
 20
137.0
 30
0.0
 10
-150.0
 20
137.0
 30
0.0
 10
-140.5
 20
137.0
 30
0.0
 10
-140.5
 20
136.0
 30
0.0
 10
-140.5
 20
135.0
 30
0.0
 10
-140.5
 20
134.0
 30
0.0
 10
-140.5
 20
132.62054
 30
0.0
 10
-139.37946
 20
131.5
 30
0.0
 10
-138.0
 20
131.5
 30
0.0
 10
-136.62054
 20
131.5
 30
0.0
 10
-135.5
 20
132.62054
 30
0.0
 10
-135.5
 20
134.0
 30
0.0
 10
-135.5
 20
135.0
 30
0.0
 10
-135.5
 20
136.0
 30
0.0
 10
-135.5
 20
137.0
 30
0.0
 10
-117.333333333333
 20
137.0
 30
0.0
 10
-99.166666666667
 20
137.0
 30
0.0
 10
-81.0
 20
137.0
 30
0.0
 10
-76.600378269971
 20
137.0
 30
0.0
 10
-71.413854345342
 20
136.80400970051
 30
0.0
 10
-65.78916547796
 20
136.447166586383
 30
0.0
 10
-60.164476610577
 20
136.090323472256
 30
0.0
 10
-54.104340739007
 20
135.572168168843
 30
0.0
 10
-47.978997071852
 20
134.924519981891
 30
0.0
 10
-41.853653404696
 20
134.27687179494
 30
0.0
 10
-35.66377135291
 20
133.499793992982
 30
0.0
 10
-29.780456359467
 20
132.623789244201
 30
0.0
 10
-28.202968709617
 20
132.388906924632
 30
0.0
 10
-26.647630984826
 20
132.146960378321
 30
0.0
 10
-25.121343291182
 20
131.898427262316
 30
0.0
  0
ENDSEC
  0
SECTION
  2
OBJECTS
  0
DICTIONARY
  5
C
330
0
100
AcDbDictionary
281
     1
  3
ACAD_2007HEADERVARS_RT
350
AA
  3
ACAD_COLOR
350
6B
  3
ACAD_GROUP
350
D
  3
ACAD_LAYOUT
350
6A
  3
ACAD_MATERIAL
350
10
  3
ACAD_MLEADERSTYLE
350
6E
  3
ACAD_MLINESTYLE
350
67
  3
ACAD_PLOTSETTINGS
350
69
  3
ACAD_PLOTSTYLENAME
350
E
  3
ACAD_SCALELIST
350
3A
  3
ACAD_TABLESTYLE
350
6C
  3
ACAD_VISUALSTYLE
350
29
  3
ACDB_RECOMPOSE_DATA
350
A8
  3
AcDbVariableDictionary
350
9C
  3
DWGPROPS
350
A9
  0
DICTIONARY
  5
9A
330
5C
100
AcDbDictionary
280
     1
281
     1
  3
ADSK_XREC_LAYER_RECONCILED
360
9B
  0
DICTIONARY
  5
AA
102
{ACAD_REACTORS
330
C
102
}
330
C
100
AcDbDictionary
281
     1
  3
DIMJOGANG
350
AB
  0
DICTIONARY
  5
6B
102
{ACAD_REACTORS
330
C
102
}
330
C
100
AcDbDictionary
281
     1
  0
DICTIONARY
  5
D
102
{ACAD_REACTORS
330
C
102
}
330
C
100
AcDbDictionary
281
     1
  0
DICTIONARY
  5
6A
102
{ACAD_REACTORS
330
C
102
}
330
C
100
AcDbDictionary
281
     1
  3
Layout1
350
74
  3
Layout2
350
7C
  3
Model
350
78
  0
DICTIONARY
  5
10
102
{ACAD_REACTORS
330
C
102
}
330
C
100
AcDbDictionary
281
     1
  3
ByBlock
350
19
  3
ByLayer
350
11
  3
Global
350
21
  0
DICTIONARY
  5
6E
102
{ACAD_REACTORS
330
C
102
}
330
C
100
AcDbDictionary
281
     1
  3
Standard
350
6F
  0
DICTIONARY
  5
67
102
{ACAD_REACTORS
330
C
102
}
330
C
100
AcDbDictionary
281
     1
  3
Standard
350
68
  0
DICTIONARY
  5
69
102
{ACAD_REACTORS
330
C
102
}
330
C
100
AcDbDictionary
281
     1
  0
ACDBDICTIONARYWDFLT
  5
E
102
{ACAD_REACTORS
330
C
102
}
330
C
100
AcDbDictionary
281
     1
  3
Normal
350
F
100
AcDbDictionaryWithDefault
340
F
  0
DICTIONARY
  5
3A
102
{ACAD_REACTORS
330
C
102
}
330
C
100
AcDbDictionary
281
     1
  3
A0
350
3B
  3
A1
350
3C
  3
A2
350
3D
  3
A3
350
3E
  3
A4
350
3F
  3
A5
350
40
  3
A6
350
41
  3
A7
350
42
  3
A8
350
43
  3
A9
350
44
  3
B0
350
45
  3
B1
350
46
  3
B2
350
47
  3
B3
350
48
  3
B4
350
49
  3
B5
350
4A
  3
B6
350
4B
  3
B7
350
4C
  3
B8
350
4D
  3
B9
350
4E
  3
C0
350
4F
  3
C1
350
50
  3
C2
350
51
  3
C3
350
52
  3
C4
350
53
  3
C5
350
54
  3
C6
350
55
  3
C7
350
56
  3
C8
350
57
  3
C9
350
58
  3
D0
350
59
  3
D1
350
5A
  3
D2
350
5B
  0
DICTIONARY
  5
6C
102
{ACAD_REACTORS
330
C
102
}
330
C
100
AcDbDictionary
281
     1
  3
Standard
350
6D
  0
DICTIONARY
  5
29
102
{ACAD_REACTORS
330
C
102
}
330
C
100
AcDbDictionary
281
     1
  3
2dWireframe
350
2F
  3
3D Hidden
350
31
  3
3dWireframe
350
30
  3
Basic
350
2E
  3
Brighten
350
35
  3
ColorChange
350
39
  3
Conceptual
350
32
  3
Dim
350
34
  3
Facepattern
350
38
  3
Flat
350
2A
  3
FlatWithEdges
350
2B
  3
Gouraud
350
2C
  3
GouraudWithEdges
350
2D
  3
Linepattern
350
37
  3
Realistic
350
33
  3
Thicken
350
36
  0
XRECORD
  5
A8
102
{ACAD_REACTORS
330
C
102
}
330
C
100
AcDbXrecord
280
     1
 90
     1
330
6D
  0
DICTIONARY
  5
9C
102
{ACAD_REACTORS
330
C
102
}
330
C
100
AcDbDictionary
281
     1
  3
CANNOSCALE
350
A0
  3
CMLEADERSTYLE
350
9E
  3
CTABLESTYLE
350
9D
  3
DIMASSOC
350
A5
  3
HIDETEXT
350
A4
  3
INDEXCTL
350
A3
  3
LIGHTINGUNITS
350
A1
  3
MSLTSCALE
350
9F
  3
SORTENTS
350
A2
  0
XRECORD
  5
A9
102
{ACAD_REACTORS
330
C
102
}
330
C
100
AcDbXrecord
280
     1
  1
DWGPROPS COOKIE
  2

  3

  4

  6

  7

  8
Michael
  9

300
=
301
=
302
=
303
=
304
=
305
=
306
=
307
=
308
=
309
=
 40
0.002929872685
 41
2456236.994979560841
 42
2456236.997909063008
  1

 90
     0
  0
XRECORD
  5
9B
102
{ACAD_REACTORS
330
9A
102
}
330
9A
100
AcDbXrecord
280
     1
290
1
  0
XRECORD
  5
AB
102
{ACAD_REACTORS
330
AA
102
}
330
AA
100
AcDbXrecord
280
     1
 40
1.570796326795
  0
LAYOUT
  5
74
102
{ACAD_XDICTIONARY
360
B1
102
}
102
{ACAD_REACTORS
330
6A
102
}
330
6A
100
AcDbPlotSettings
  1

  2
Auto Canon Bubble-Jet BJC-1000 on MGIBSON-HOME
  4

  6

 40
0.0
 41
0.0
 42
0.0
 43
0.0
 44
0.0
 45
0.0
 46
0.0
 47
0.0
 48
0.0
 49
0.0
140
0.0
141
0.0
142
1.0
143
1.0
 70
   688
 72
     0
 73
     0
 74
     5
  7

 75
    16
147
1.0
148
0.0
149
0.0
100
AcDbLayout
  1
Layout1
 70
     1
 71
     1
 10
0.0
 20
0.0
 11
420.0
 21
297.0
 12
0.0
 22
0.0
 32
0.0
 14
100000000000000000000.0
 24
100000000000000000000.0
 34
100000000000000000000.0
 15
-100000000000000000000.0
 25
-100000000000000000000.0
 35
-100000000000000000000.0
146
0.0
 13
0.0
 23
0.0
 33
0.0
 16
1.0
 26
0.0
 36
0.0
 17
0.0
 27
1.0
 37
0.0
 76
     0
330
71
  0
LAYOUT
  5
7C
102
{ACAD_XDICTIONARY
360
B5
102
}
102
{ACAD_REACTORS
330
6A
102
}
330
6A
100
AcDbPlotSettings
  1

  2
Auto Canon Bubble-Jet BJC-1000 on MGIBSON-HOME
  4

  6

 40
0.0
 41
0.0
 42
0.0
 43
0.0
 44
0.0
 45
0.0
 46
0.0
 47
0.0
 48
0.0
 49
0.0
140
0.0
141
0.0
142
1.0
143
1.0
 70
   688
 72
     0
 73
     0
 74
     5
  7

 75
    16
147
1.0
148
0.0
149
0.0
100
AcDbLayout
  1
Layout2
 70
     1
 71
     2
 10
0.0
 20
0.0
 11
12.0
 21
9.0
 12
0.0
 22
0.0
 32
0.0
 14
0.0
 24
0.0
 34
0.0
 15
0.0
 25
0.0
 35
0.0
146
0.0
 13
0.0
 23
0.0
 33
0.0
 16
1.0
 26
0.0
 36
0.0
 17
0.0
 27
1.0
 37
0.0
 76
     0
330
79
  0
LAYOUT
  5
78
102
{ACAD_XDICTIONARY
360
B3
102
}
102
{ACAD_REACTORS
330
6A
102
}
330
6A
100
AcDbPlotSettings
  1

  2
Auto Canon Bubble-Jet BJC-1000 on MGIBSON-HOME
  4

  6

 40
0.0
 41
0.0
 42
0.0
 43
0.0
 44
0.0
 45
0.0
 46
0.0
 47
0.0
 48
0.0
 49
0.0
140
0.0
141
0.0
142
1.0
143
1.0
 70
  1712
 72
     0
 73
     0
 74
     0
  7

 75
     0
147
1.0
148
0.0
149
0.0
100
AcDbLayout
  1
Model
 70
     1
 71
     0
 10
0.0
 20
0.0
 11
12.0
 21
9.0
 12
0.0
 22
0.0
 32
0.0
 14
0.0
 24
0.0
 34
0.0
 15
0.0
 25
0.0
 35
0.0
146
0.0
 13
0.0
 23
0.0
 33
0.0
 16
1.0
 26
0.0
 36
0.0
 17
0.0
 27
1.0
 37
0.0
 76
     0
330
75
331
5F
  0
MATERIAL
  5
19
102
{ACAD_XDICTIONARY
360
1A
102
}
102
{ACAD_REACTORS
330
10
102
}
330
10
100
AcDbMaterial
  1
ByBlock
 72
     0
 43
0.020833333333
 43
0.0
 43
0.0
 43
0.0
 43
0.0
 43
0.020833333333
 43
0.0
 43
0.0
 43
0.0
 43
0.0
 43
1.0
 43
0.0
 43
0.0
 43
0.0
 43
0.0
 43
1.0
 77
     0
 47
0.020833333333
 47
0.0
 47
0.0
 47
0.0
 47
0.0
 47
0.020833333333
 47
0.0
 47
0.0
 47
0.0
 47
0.0
 47
1.0
 47
0.0
 47
0.0
 47
0.0
 47
0.0
 47
1.0
171
     0
 49
0.020833333333
 49
0.0
 49
0.0
 49
0.0
 49
0.0
 49
0.020833333333
 49
0.0
 49
0.0
 49
0.0
 49
0.0
 49
1.0
 49
0.0
 49
0.0
 49
0.0
 49
0.0
 49
1.0
175
     0
142
0.020833333333
142
0.0
142
0.0
142
0.0
142
0.0
142
0.020833333333
142
0.0
142
0.0
142
0.0
142
0.0
142
1.0
142
0.0
142
0.0
142
0.0
142
0.0
142
1.0
179
0
144
0.020833333333
144
0.0
144
0.0
144
0.0
144
0.0
144
0.020833333333
144
0.0
144
0.0
144
0.0
144
0.0
144
1.0
144
0.0
144
0.0
144
0.0
144
0.0
144
1.0
147
0.020833333333
147
0.0
147
0.0
147
0.0
147
0.0
147
0.020833333333
147
0.0
147
0.0
147
0.0
147
0.0
147
1.0
147
0.0
147
0.0
147
0.0
147
0.0
147
1.0
  0
MATERIAL
  5
11
102
{ACAD_XDICTIONARY
360
12
102
}
102
{ACAD_REACTORS
330
10
102
}
330
10
100
AcDbMaterial
  1
ByLayer
 72
     0
 43
0.020833333333
 43
0.0
 43
0.0
 43
0.0
 43
0.0
 43
0.020833333333
 43
0.0
 43
0.0
 43
0.0
 43
0.0
 43
1.0
 43
0.0
 43
0.0
 43
0.0
 43
0.0
 43
1.0
 77
     0
 47
0.020833333333
 47
0.0
 47
0.0
 47
0.0
 47
0.0
 47
0.020833333333
 47
0.0
 47
0.0
 47
0.0
 47
0.0
 47
1.0
 47
0.0
 47
0.0
 47
0.0
 47
0.0
 47
1.0
171
     0
 49
0.020833333333
 49
0.0
 49
0.0
 49
0.0
 49
0.0
 49
0.020833333333
 49
0.0
 49
0.0
 49
0.0
 49
0.0
 49
1.0
 49
0.0
 49
0.0
 49
0.0
 49
0.0
 49
1.0
175
     0
142
0.020833333333
142
0.0
142
0.0
142
0.0
142
0.0
142
0.020833333333
142
0.0
142
0.0
142
0.0
142
0.0
142
1.0
142
0.0
142
0.0
142
0.0
142
0.0
142
1.0
179
0
144
0.020833333333
144
0.0
144
0.0
144
0.0
144
0.0
144
0.020833333333
144
0.0
144
0.0
144
0.0
144
0.0
144
1.0
144
0.0
144
0.0
144
0.0
144
0.0
144
1.0
147
0.020833333333
147
0.0
147
0.0
147
0.0
147
0.0
147
0.020833333333
147
0.0
147
0.0
147
0.0
147
0.0
147
1.0
147
0.0
147
0.0
147
0.0
147
0.0
147
1.0
  0
MATERIAL
  5
21
102
{ACAD_XDICTIONARY
360
22
102
}
102
{ACAD_REACTORS
330
10
102
}
330
10
100
AcDbMaterial
  1
Global
 72
     0
 43
0.020833333333
 43
0.0
 43
0.0
 43
0.0
 43
0.0
 43
0.020833333333
 43
0.0
 43
0.0
 43
0.0
 43
0.0
 43
1.0
 43
0.0
 43
0.0
 43
0.0
 43
0.0
 43
1.0
 77
     0
 47
0.020833333333
 47
0.0
 47
0.0
 47
0.0
 47
0.0
 47
0.020833333333
 47
0.0
 47
0.0
 47
0.0
 47
0.0
 47
1.0
 47
0.0
 47
0.0
 47
0.0
 47
0.0
 47
1.0
171
     0
 49
0.020833333333
 49
0.0
 49
0.0
 49
0.0
 49
0.0
 49
0.020833333333
 49
0.0
 49
0.0
 49
0.0
 49
0.0
 49
1.0
 49
0.0
 49
0.0
 49
0.0
 49
0.0
 49
1.0
175
     0
142
0.020833333333
142
0.0
142
0.0
142
0.0
142
0.0
142
0.020833333333
142
0.0
142
0.0
142
0.0
142
0.0
142
1.0
142
0.0
142
0.0
142
0.0
142
0.0
142
1.0
179
0
144
0.020833333333
144
0.0
144
0.0
144
0.0
144
0.0
144
0.020833333333
144
0.0
144
0.0
144
0.0
144
0.0
144
1.0
144
0.0
144
0.0
144
0.0
144
0.0
144
1.0
147
0.020833333333
147
0.0
147
0.0
147
0.0
147
0.0
147
0.020833333333
147
0.0
147
0.0
147
0.0
147
0.0
147
1.0
147
0.0
147
0.0
147
0.0
147
0.0
147
1.0
  0
MLEADERSTYLE
  5
6F
102
{ACAD_REACTORS
330
6E
102
}
330
6E
100
AcDbMLeaderStyle
170
     2
171
     1
172
     0
 90
     2
 40
0.0
 41
0.0
173
     1
 91
-1056964608
340
63
 92
    -2
290
1
 42
0.09
291
1
 43
0.36
  3
Standard
 44
0.18
300

342
5D
174
     1
178
     6
175
     1
176
     0
 93
-1056964608
 45
0.18
292
0
297
0
 46
0.18
 94
-1056964608
 47
1.0
 49
1.0
140
1.0
293
1
141
0.0
294
1
177
     0
142
1.0
295
0
296
0
143
0.125
1001
ACAD_MLEADERVER
1070
     2
  0
MLINESTYLE
  5
68
102
{ACAD_REACTORS
330
67
102
}
330
67
100
AcDbMlineStyle
  2
STANDARD
 70
     0
  3

 62
   256
 51
90.0
 52
90.0
 71
     2
 49
0.5
 62
   256
  6
BYLAYER
 49
-0.5
 62
   256
  6
BYLAYER
  0
ACDBPLACEHOLDER
  5
F
102
{ACAD_REACTORS
330
E
102
}
330
E
  0
SCALE
  5
3B
102
{ACAD_REACTORS
330
3A
102
}
330
3A
100
AcDbScale
 70
     0
300
1:1
140
1.0
141
1.0
290
1
  0
SCALE
  5
3C
102
{ACAD_REACTORS
330
3A
102
}
330
3A
100
AcDbScale
 70
     0
300
1:2
140
1.0
141
2.0
290
0
  0
SCALE
  5
3D
102
{ACAD_REACTORS
330
3A
102
}
330
3A
100
AcDbScale
 70
     0
300
1:4
140
1.0
141
4.0
290
0
  0
SCALE
  5
3E
102
{ACAD_REACTORS
330
3A
102
}
330
3A
100
AcDbScale
 70
     0
300
1:5
140
1.0
141
5.0
290
0
  0
SCALE
  5
3F
102
{ACAD_REACTORS
330
3A
102
}
330
3A
100
AcDbScale
 70
     0
300
1:8
140
1.0
141
8.0
290
0
  0
SCALE
  5
40
102
{ACAD_REACTORS
330
3A
102
}
330
3A
100
AcDbScale
 70
     0
300
1:10
140
1.0
141
10.0
290
0
  0
SCALE
  5
41
102
{ACAD_REACTORS
330
3A
102
}
330
3A
100
AcDbScale
 70
     0
300
1:16
140
1.0
141
16.0
290
0
  0
SCALE
  5
42
102
{ACAD_REACTORS
330
3A
102
}
330
3A
100
AcDbScale
 70
     0
300
1:20
140
1.0
141
20.0
290
0
  0
SCALE
  5
43
102
{ACAD_REACTORS
330
3A
102
}
330
3A
100
AcDbScale
 70
     0
300
1:30
140
1.0
141
30.0
290
0
  0
SCALE
  5
44
102
{ACAD_REACTORS
330
3A
102
}
330
3A
100
AcDbScale
 70
     0
300
1:40
140
1.0
141
40.0
290
0
  0
SCALE
  5
45
102
{ACAD_REACTORS
330
3A
102
}
330
3A
100
AcDbScale
 70
     0
300
1:50
140
1.0
141
50.0
290
0
  0
SCALE
  5
46
102
{ACAD_REACTORS
330
3A
102
}
330
3A
100
AcDbScale
 70
     0
300
1:100
140
1.0
141
100.0
290
0
  0
SCALE
  5
47
102
{ACAD_REACTORS
330
3A
102
}
330
3A
100
AcDbScale
 70
     0
300
2:1
140
2.0
141
1.0
290
0
  0
SCALE
  5
48
102
{ACAD_REACTORS
330
3A
102
}
330
3A
100
AcDbScale
 70
     0
300
4:1
140
4.0
141
1.0
290
0
  0
SCALE
  5
49
102
{ACAD_REACTORS
330
3A
102
}
330
3A
100
AcDbScale
 70
     0
300
8:1
140
8.0
141
1.0
290
0
  0
SCALE
  5
4A
102
{ACAD_REACTORS
330
3A
102
}
330
3A
100
AcDbScale
 70
     0
300
10:1
140
10.0
141
1.0
290
0
  0
SCALE
  5
4B
102
{ACAD_REACTORS
330
3A
102
}
330
3A
100
AcDbScale
 70
     0
300
100:1
140
100.0
141
1.0
290
0
  0
SCALE
  5
4C
102
{ACAD_REACTORS
330
3A
102
}
330
3A
100
AcDbScale
 70
     0
300
1/128" = 1'-0"
140
0.0078125
141
12.0
290
0
  0
SCALE
  5
4D
102
{ACAD_REACTORS
330
3A
102
}
330
3A
100
AcDbScale
 70
     0
300
1/64" = 1'-0"
140
0.015625
141
12.0
290
0
  0
SCALE
  5
4E
102
{ACAD_REACTORS
330
3A
102
}
330
3A
100
AcDbScale
 70
     0
300
1/32" = 1'-0"
140
0.03125
141
12.0
290
0
  0
SCALE
  5
4F
102
{ACAD_REACTORS
330
3A
102
}
330
3A
100
AcDbScale
 70
     0
300
1/16" = 1'-0"
140
0.0625
141
12.0
290
0
  0
SCALE
  5
50
102
{ACAD_REACTORS
330
3A
102
}
330
3A
100
AcDbScale
 70
     0
300
3/32" = 1'-0"
140
0.09375
141
12.0
290
0
  0
SCALE
  5
51
102
{ACAD_REACTORS
330
3A
102
}
330
3A
100
AcDbScale
 70
     0
300
1/8" = 1'-0"
140
0.125
141
12.0
290
0
  0
SCALE
  5
52
102
{ACAD_REACTORS
330
3A
102
}
330
3A
100
AcDbScale
 70
     0
300
3/16" = 1'-0"
140
0.1875
141
12.0
290
0
  0
SCALE
  5
53
102
{ACAD_REACTORS
330
3A
102
}
330
3A
100
AcDbScale
 70
     0
300
1/4" = 1'-0"
140
0.25
141
12.0
290
0
  0
SCALE
  5
54
102
{ACAD_REACTORS
330
3A
102
}
330
3A
100
AcDbScale
 70
     0
300
3/8" = 1'-0"
140
0.375
141
12.0
290
0
  0
SCALE
  5
55
102
{ACAD_REACTORS
330
3A
102
}
330
3A
100
AcDbScale
 70
     0
300
1/2" = 1'-0"
140
0.5
141
12.0
290
0
  0
SCALE
  5
56
102
{ACAD_REACTORS
330
3A
102
}
330
3A
100
AcDbScale
 70
     0
300
3/4" = 1'-0"
140
0.75
141
12.0
290
0
  0
SCALE
  5
57
102
{ACAD_REACTORS
330
3A
102
}
330
3A
100
AcDbScale
 70
     0
300
1" = 1'-0"
140
1.0
141
12.0
290
0
  0
SCALE
  5
58
102
{ACAD_REACTORS
330
3A
102
}
330
3A
100
AcDbScale
 70
     0
300
1-1/2" = 1'-0"
140
1.5
141
12.0
290
0
  0
SCALE
  5
59
102
{ACAD_REACTORS
330
3A
102
}
330
3A
100
AcDbScale
 70
     0
300
3" = 1'-0"
140
3.0
141
12.0
290
0
  0
SCALE
  5
5A
102
{ACAD_REACTORS
330
3A
102
}
330
3A
100
AcDbScale
 70
     0
300
6" = 1'-0"
140
6.0
141
12.0
290
0
  0
SCALE
  5
5B
102
{ACAD_REACTORS
330
3A
102
}
330
3A
100
AcDbScale
 70
     0
300
1'-0" = 1'-0"
140
12.0
141
12.0
290
0
  0
TABLESTYLE
  5
6D
102
{ACAD_XDICTIONARY
360
A6
102
}
102
{ACAD_REACTORS
330
6C
102
}
330
6C
100
AcDbTableStyle
  3
Standard
 70
     0
 71
     0
 40
1.5
 41
1.5
280
     0
281
     0
  7
Standard
140
4.5
170
     2
 62
     0
 63
     7
283
     0
274
    -2
284
     1
 64
     0
275
    -2
285
     1
 65
     0
276
-2
286
     1
 66
     0
277
-2
287
     1
 67
     0
278
-2
288
     1
 68
     0
279
-2
289
     1
 69
     0
  7
Standard
140
6.0
170
     5
 62
     0
 63
     7
283
     0
274
    -2
284
     1
 64
     0
275
    -2
285
     1
 65
     0
276
-2
286
     1
 66
     0
277
-2
287
     1
 67
     0
278
-2
288
     1
 68
     0
279
-2
289
     1
 69
     0
  7
Standard
140
4.5
170
     5
 62
     0
 63
     7
283
     0
274
    -2
284
     1
 64
     0
275
    -2
285
     1
 65
     0
276
-2
286
     1
 66
     0
277
-2
287
     1
 67
     0
278
-2
288
     1
 68
     0
279
-2
289
     1
 69
     0
  0
VISUALSTYLE
  5
2F
102
{ACAD_REACTORS
330
29
102
}
330
29
100
AcDbVisualStyle
  2
2dWireframe
 70
     4
 71
     0
 72
     2
 73
     0
 90
     0
 40
-0.6
 41
-30.0
 62
     5
 63
     7
 74
     1
 91
     4
 64
     7
 65
   257
 75
     1
175
     1
 42
1.0
 92
     0
 66
   257
 43
1.0
 76
     1
 77
     6
 78
     2
 67
     7
 79
     5
170
     0
171
     0
290
0
174
     0
 93
     1
 44
0.0
173
     0
291
0
 45
0.0
1001
ACAD
1000
AcDbSavedByObjectVersion
1070
     0
  0
VISUALSTYLE
  5
31
102
{ACAD_REACTORS
330
29
102
}
330
29
100
AcDbVisualStyle
  2
3D Hidden
 70
     6
 71
     1
 72
     2
 73
     2
 90
     0
 40
-0.6
 41
-30.0
 62
     5
 63
     7
 74
     2
 91
     2
 64
     7
 65
   257
 75
     2
175
     1
 42
40.0
 92
     0
 66
   257
 43
1.0
 76
     1
 77
     6
 78
     2
 67
     7
 79
     3
170
     0
171
     0
290
0
174
     0
 93
     1
 44
0.0
173
     0
291
0
 45
0.0
1001
ACAD
1000
AcDbSavedByObjectVersion
1070
     0
  0
VISUALSTYLE
  5
30
102
{ACAD_REACTORS
330
29
102
}
330
29
100
AcDbVisualStyle
  2
3dWireframe
 70
     5
 71
     0
 72
     2
 73
     0
 90
     0
 40
-0.6
 41
-30.0
 62
     5
 63
     7
 74
     1
 91
     4
 64
     7
 65
   257
 75
     1
175
     1
 42
1.0
 92
     0
 66
   257
 43
1.0
 76
     1
 77
     6
 78
     2
 67
     7
 79
     5
170
     0
171
     0
290
0
174
     0
 93
     1
 44
0.0
173
     0
291
0
 45
0.0
1001
ACAD
1000
AcDbSavedByObjectVersion
1070
     0
  0
VISUALSTYLE
  5
2E
102
{ACAD_REACTORS
330
29
102
}
330
29
100
AcDbVisualStyle
  2
Basic
 70
     7
 71
     1
 72
     0
 73
     1
 90
     0
 40
-0.6
 41
-30.0
 62
     5
 63
     7
 74
     0
 91
     4
 64
     7
 65
   257
 75
     1
175
     1
 42
1.0
 92
     8
 66
     7
 43
1.0
 76
     1
 77
     6
 78
     2
 67
     7
 79
     5
170
     0
171
     0
290
0
174
     0
 93
     1
 44
0.0
173
     0
291
1
 45
0.0
1001
ACAD
1000
AcDbSavedByObjectVersion
1070
     0
  0
VISUALSTYLE
  5
35
102
{ACAD_REACTORS
330
29
102
}
330
29
100
AcDbVisualStyle
  2
Brighten
 70
    12
 71
     2
 72
     2
 73
     0
 90
     0
 40
-0.6
 41
-30.0
 62
     5
 63
     7
 74
     1
 91
     4
 64
     7
 65
   257
 75
     1
175
     1
 42
1.0
 92
     8
 66
     7
 43
1.0
 76
     1
 77
     6
 78
     2
 67
     7
 79
     5
170
     0
171
     0
290
0
174
     0
 93
     1
 44
50.0
173
     0
291
1
 45
0.0
1001
ACAD
1000
AcDbSavedByObjectVersion
1070
     0
  0
VISUALSTYLE
  5
39
102
{ACAD_REACTORS
330
29
102
}
330
29
100
AcDbVisualStyle
  2
ColorChange
 70
    16
 71
     2
 72
     2
 73
     3
 90
     0
 40
-0.6
 41
-30.0
 62
     5
 63
     8
 74
     1
 91
     4
 64
     7
 65
   257
 75
     1
175
     1
 42
1.0
 92
     8
 66
     8
 43
1.0
 76
     1
 77
     6
 78
     2
 67
     7
 79
     5
170
     0
171
     0
290
0
174
     0
 93
     1
 44
0.0
173
     0
291
1
 45
0.0
1001
ACAD
1000
AcDbSavedByObjectVersion
1070
     0
  0
VISUALSTYLE
  5
32
102
{ACAD_REACTORS
330
29
102
}
330
29
100
AcDbVisualStyle
  2
Conceptual
 70
     9
 71
     3
 72
     2
 73
     0
 90
     0
 40
-0.6
 41
-30.0
 62
     5
 63
     7
 74
     2
 91
     2
 64
     7
 65
   257
 75
     1
175
     1
 42
40.0
 92
     8
 66
     7
 43
1.0
 76
     1
 77
     6
 78
     2
 67
     7
 79
     3
170
     0
171
     0
290
0
174
     0
 93
     1
 44
0.0
173
     0
291
0
 45
0.0
1001
ACAD
1000
AcDbSavedByObjectVersion
1070
     0
  0
VISUALSTYLE
  5
34
102
{ACAD_REACTORS
330
29
102
}
330
29
100
AcDbVisualStyle
  2
Dim
 70
    11
 71
     2
 72
     2
 73
     0
 90
     0
 40
-0.6
 41
-30.0
 62
     5
 63
     7
 74
     1
 91
     4
 64
     7
 65
   257
 75
     1
175
     1
 42
1.0
 92
     8
 66
     7
 43
1.0
 76
     1
 77
     6
 78
     2
 67
     7
 79
     5
170
     0
171
     0
290
0
174
     0
 93
     1
 44
-50.0
173
     0
291
1
 45
0.0
1001
ACAD
1000
AcDbSavedByObjectVersion
1070
     0
  0
VISUALSTYLE
  5
38
102
{ACAD_REACTORS
330
29
102
}
330
29
100
AcDbVisualStyle
  2
Facepattern
 70
    15
 71
     2
 72
     2
 73
     0
 90
     0
 40
-0.6
 41
-30.0
 62
     5
 63
     7
 74
     1
 91
     4
 64
     7
 65
   257
 75
     1
175
     1
 42
1.0
 92
     8
 66
     7
 43
1.0
 76
     1
 77
     6
 78
     2
 67
     7
 79
     5
170
     0
171
     0
290
0
174
     0
 93
     1
 44
0.0
173
     0
291
1
 45
0.0
1001
ACAD
1000
AcDbSavedByObjectVersion
1070
     0
  0
VISUALSTYLE
  5
2A
102
{ACAD_REACTORS
330
29
102
}
330
29
100
AcDbVisualStyle
  2
Flat
 70
     0
 71
     2
 72
     1
 73
     1
 90
     2
 40
-0.6
 41
30.0
 62
     5
 63
     7
 74
     0
 91
     4
 64
     7
 65
   257
 75
     1
175
     1
 42
1.0
 92
     8
 66
     7
 43
1.0
 76
     1
 77
     6
 78
     2
 67
     7
 79
     5
170
     0
171
     0
290
0
174
     0
 93
    13
 44
0.0
173
     0
291
1
 45
0.0
1001
ACAD
1000
AcDbSavedByObjectVersion
1070
     0
  0
VISUALSTYLE
  5
2B
102
{ACAD_REACTORS
330
29
102
}
330
29
100
AcDbVisualStyle
  2
FlatWithEdges
 70
     1
 71
     2
 72
     1
 73
     1
 90
     2
 40
-0.6
 41
30.0
 62
     5
 63
     7
 74
     1
 91
     4
 64
     7
 65
   257
 75
     1
175
     1
 42
1.0
 92
     0
 66
   257
 43
1.0
 76
     1
 77
     6
 78
     2
 67
     7
 79
     5
170
     0
171
     0
290
0
174
     0
 93
    13
 44
0.0
173
     0
291
1
 45
0.0
1001
ACAD
1000
AcDbSavedByObjectVersion
1070
     0
  0
VISUALSTYLE
  5
2C
102
{ACAD_REACTORS
330
29
102
}
330
29
100
AcDbVisualStyle
  2
Gouraud
 70
     2
 71
     2
 72
     2
 73
     1
 90
     2
 40
-0.6
 41
30.0
 62
     5
 63
     7
 74
     0
 91
     4
 64
     7
 65
   257
 75
     1
175
     1
 42
1.0
 92
     0
 66
     7
 43
1.0
 76
     1
 77
     6
 78
     2
 67
     7
 79
     5
170
     0
171
     0
290
0
174
     0
 93
    13
 44
0.0
173
     0
291
1
 45
0.0
1001
ACAD
1000
AcDbSavedByObjectVersion
1070
     0
  0
VISUALSTYLE
  5
2D
102
{ACAD_REACTORS
330
29
102
}
330
29
100
AcDbVisualStyle
  2
GouraudWithEdges
 70
     3
 71
     2
 72
     2
 73
     1
 90
     2
 40
-0.6
 41
30.0
 62
     5
 63
     7
 74
     1
 91
     4
 64
     7
 65
   257
 75
     1
175
     1
 42
1.0
 92
     0
 66
   257
 43
1.0
 76
     1
 77
     6
 78
     2
 67
     7
 79
     5
170
     0
171
     0
290
0
174
     0
 93
    13
 44
0.0
173
     0
291
1
 45
0.0
1001
ACAD
1000
AcDbSavedByObjectVersion
1070
     0
  0
VISUALSTYLE
  5
37
102
{ACAD_REACTORS
330
29
102
}
330
29
100
AcDbVisualStyle
  2
Linepattern
 70
    14
 71
     2
 72
     2
 73
     0
 90
     0
 40
-0.6
 41
-30.0
 62
     5
 63
     7
 74
     1
 91
     4
 64
     7
 65
   257
 75
     7
175
     7
 42
1.0
 92
     8
 66
     7
 43
1.0
 76
     1
 77
     6
 78
     2
 67
     7
 79
     5
170
     0
171
     0
290
0
174
     0
 93
     1
 44
0.0
173
     0
291
1
 45
0.0
1001
ACAD
1000
AcDbSavedByObjectVersion
1070
     0
  0
VISUALSTYLE
  5
33
102
{ACAD_REACTORS
330
29
102
}
330
29
100
AcDbVisualStyle
  2
Realistic
 70
     8
 71
     2
 72
     2
 73
     0
 90
     0
 40
-0.6
 41
-30.0
 62
     5
 63
     7
 74
     1
 91
     0
 64
     7
 65
   257
 75
     1
175
     1
 42
1.0
 92
     8
 66
     8
 43
1.0
 76
     1
 77
     6
 78
     2
 67
     7
 79
     5
170
     0
171
     0
290
0
174
     0
 93
    13
 44
0.0
173
     0
291
0
 45
0.0
1001
ACAD
1000
AcDbSavedByObjectVersion
1070
     0
  0
VISUALSTYLE
  5
36
102
{ACAD_REACTORS
330
29
102
}
330
29
100
AcDbVisualStyle
  2
Thicken
 70
    13
 71
     2
 72
     2
 73
     0
 90
     0
 40
-0.6
 41
-30.0
 62
     5
 63
     7
 74
     1
 91
     4
 64
     7
 65
   257
 75
     1
175
     1
 42
1.0
 92
    12
 66
     7
 43
1.0
 76
     1
 77
     6
 78
     2
 67
     7
 79
     5
170
     0
171
     0
290
0
174
     0
 93
     1
 44
0.0
173
     0
291
1
 45
0.0
1001
ACAD
1000
AcDbSavedByObjectVersion
1070
     0
  0
DICTIONARYVAR
  5
A0
102
{ACAD_REACTORS
330
9C
102
}
330
9C
100
DictionaryVariables
280
     0
  1
1:1
  0
DICTIONARYVAR
  5
9E
102
{ACAD_REACTORS
330
9C
102
}
330
9C
100
DictionaryVariables
280
     0
  1
STANDARD
  0
DICTIONARYVAR
  5
9D
102
{ACAD_REACTORS
330
9C
102
}
330
9C
100
DictionaryVariables
280
     0
  1
STANDARD
  0
DICTIONARYVAR
  5
A5
102
{ACAD_REACTORS
330
9C
102
}
330
9C
100
DictionaryVariables
280
     0
  1
2
  0
DICTIONARYVAR
  5
A4
102
{ACAD_REACTORS
330
9C
102
}
330
9C
100
DictionaryVariables
280
     0
  1
1
  0
DICTIONARYVAR
  5
A3
102
{ACAD_REACTORS
330
9C
102
}
330
9C
100
DictionaryVariables
280
     0
  1
0
  0
DICTIONARYVAR
  5
A1
102
{ACAD_REACTORS
330
9C
102
}
330
9C
100
DictionaryVariables
280
     0
  1
2
  0
DICTIONARYVAR
  5
9F
102
{ACAD_REACTORS
330
9C
102
}
330
9C
100
DictionaryVariables
280
     0
  1
1
  0
DICTIONARYVAR
  5
A2
102
{ACAD_REACTORS
330
9C
102
}
330
9C
100
DictionaryVariables
280
     0
  1
127
  0
DICTIONARY
  5
B1
330
74
100
AcDbDictionary
280
     1
281
     1
  3
ACAD_XREC_ROUNDTRIP
360
B2
  0
DICTIONARY
  5
B5
330
7C
100
AcDbDictionary
280
     1
281
     1
  3
ACAD_XREC_ROUNDTRIP
360
B6
  0
DICTIONARY
  5
B3
330
78
100
AcDbDictionary
280
     1
281
     1
  3
ACAD_XREC_ROUNDTRIP
360
B4
  0
DICTIONARY
  5
1A
330
19
100
AcDbDictionary
280
     1
281
     1
  3
ACAD_XREC_ROUNDTRIP
360
AD
  3
BUMPTILE
360
1C
  3
DIFFUSETILE
360
1B
  3
OPACITYTILE
360
1F
  3
REFLECTIONTILE
360
1E
  3
REFRACTIONTILE
360
20
  3
SPECULARTILE
360
1D
  0
DICTIONARY
  5
12
330
11
100
AcDbDictionary
280
     1
281
     1
  3
ACAD_XREC_ROUNDTRIP
360
AC
  3
BUMPTILE
360
14
  3
DIFFUSETILE
360
13
  3
OPACITYTILE
360
17
  3
REFLECTIONTILE
360
16
  3
REFRACTIONTILE
360
18
  3
SPECULARTILE
360
15
  0
DICTIONARY
  5
22
330
21
100
AcDbDictionary
280
     1
281
     1
  3
ACAD_XREC_ROUNDTRIP
360
AE
  3
BUMPTILE
360
24
  3
DIFFUSETILE
360
23
  3
OPACITYTILE
360
27
  3
REFLECTIONTILE
360
26
  3
REFRACTIONTILE
360
28
  3
SPECULARTILE
360
25
  0
DICTIONARY
  5
A6
330
6D
100
AcDbDictionary
280
     1
281
     1
  3
ACAD_ROUNDTRIP_2008_TABLESTYLE_CELLSTYLEMAP
360
A7
  3
ACAD_XREC_ROUNDTRIP
360
B0
  0
XRECORD
  5
B2
102
{ACAD_REACTORS
330
B1
102
}
330
B1
100
AcDbXrecord
280
     1
102
SHADEPLOT
 70
     0
102
SHADEPLOTRESLEVEL
 70
     2
102
SHADEPLOTCUSTOMDPI
 70
   300
  0
XRECORD
  5
B6
102
{ACAD_REACTORS
330
B5
102
}
330
B5
100
AcDbXrecord
280
     1
102
SHADEPLOT
 70
     0
102
SHADEPLOTRESLEVEL
 70
     2
102
SHADEPLOTCUSTOMDPI
 70
   300
  0
XRECORD
  5
B4
102
{ACAD_REACTORS
330
B3
102
}
330
B3
100
AcDbXrecord
280
     1
102
SHADEPLOT
 70
     0
102
SHADEPLOTRESLEVEL
 70
     2
102
SHADEPLOTCUSTOMDPI
 70
   300
  0
XRECORD
  5
AD
102
{ACAD_REACTORS
330
1A
102
}
330
1A
100
AcDbXrecord
280
     1
102
MATERIAL
148
0.0
149
0.0
149
0.0
 93
     0
 94
   127
282
     0
 72
     0
 77
     0
171
     0
175
     0
179
0
273
     0
  0
XRECORD
  5
1C
102
{ACAD_REACTORS
330
1A
102
}
330
1A
100
AcDbXrecord
280
     1
270
     1
271
     1
  0
XRECORD
  5
1B
102
{ACAD_REACTORS
330
1A
102
}
330
1A
100
AcDbXrecord
280
     1
270
     1
271
     1
  0
XRECORD
  5
1F
102
{ACAD_REACTORS
330
1A
102
}
330
1A
100
AcDbXrecord
280
     1
270
     1
271
     1
  0
XRECORD
  5
1E
102
{ACAD_REACTORS
330
1A
102
}
330
1A
100
AcDbXrecord
280
     1
270
     1
271
     1
  0
XRECORD
  5
20
102
{ACAD_REACTORS
330
1A
102
}
330
1A
100
AcDbXrecord
280
     1
270
     1
271
     1
  0
XRECORD
  5
1D
102
{ACAD_REACTORS
330
1A
102
}
330
1A
100
AcDbXrecord
280
     1
270
     1
271
     1
  0
XRECORD
  5
AC
102
{ACAD_REACTORS
330
12
102
}
330
12
100
AcDbXrecord
280
     1
102
MATERIAL
148
0.0
149
0.0
149
0.0
 93
     0
 94
   127
282
     0
 72
     0
 77
     0
171
     0
175
     0
179
0
273
     0
  0
XRECORD
  5
14
102
{ACAD_REACTORS
330
12
102
}
330
12
100
AcDbXrecord
280
     1
270
     1
271
     1
  0
XRECORD
  5
13
102
{ACAD_REACTORS
330
12
102
}
330
12
100
AcDbXrecord
280
     1
270
     1
271
     1
  0
XRECORD
  5
17
102
{ACAD_REACTORS
330
12
102
}
330
12
100
AcDbXrecord
280
     1
270
     1
271
     1
  0
XRECORD
  5
16
102
{ACAD_REACTORS
330
12
102
}
330
12
100
AcDbXrecord
280
     1
270
     1
271
     1
  0
XRECORD
  5
18
102
{ACAD_REACTORS
330
12
102
}
330
12
100
AcDbXrecord
280
     1
270
     1
271
     1
  0
XRECORD
  5
15
102
{ACAD_REACTORS
330
12
102
}
330
12
100
AcDbXrecord
280
     1
270
     1
271
     1
  0
XRECORD
  5
AE
102
{ACAD_REACTORS
330
22
102
}
330
22
100
AcDbXrecord
280
     1
102
MATERIAL
148
0.0
149
0.0
149
0.0
 93
     0
 94
   127
282
     0
 72
     0
 77
     0
171
     0
175
     0
179
0
273
     0
  0
XRECORD
  5
24
102
{ACAD_REACTORS
330
22
102
}
330
22
100
AcDbXrecord
280
     1
270
     1
271
     1
  0
XRECORD
  5
23
102
{ACAD_REACTORS
330
22
102
}
330
22
100
AcDbXrecord
280
     1
270
     1
271
     1
  0
XRECORD
  5
27
102
{ACAD_REACTORS
330
22
102
}
330
22
100
AcDbXrecord
280
     1
270
     1
271
     1
  0
XRECORD
  5
26
102
{ACAD_REACTORS
330
22
102
}
330
22
100
AcDbXrecord
280
     1
270
     1
271
     1
  0
XRECORD
  5
28
102
{ACAD_REACTORS
330
22
102
}
330
22
100
AcDbXrecord
280
     1
270
     1
271
     1
  0
XRECORD
  5
25
102
{ACAD_REACTORS
330
22
102
}
330
22
100
AcDbXrecord
280
     1
270
     1
271
     1
  0
CELLSTYLEMAP
  5
A7
102
{ACAD_REACTORS
330
A6
102
}
330
A6
100
AcDbCellStyleMap
 90
     3
300
CELLSTYLE
  1
TABLEFORMAT_BEGIN
 90
     5
170
     1
 91
     0
 92
 32768
 62
   257
 93
     1
300
CONTENTFORMAT
  1
CONTENTFORMAT_BEGIN
 90
     0
 91
     0
 92
   512
 93
     0
300

 40
0.0
140
1.0
 94
     5
 62
     0
340
5D
144
6.0
309
CONTENTFORMAT_END
171
     1
301
MARGIN
  1
CELLMARGIN_BEGIN
 40
1.5
 40
1.5
 40
1.5
 40
1.5
 40
4.5
 40
4.5
309
CELLMARGIN_END
 94
     6
 95
     1
302
GRIDFORMAT
  1
GRIDFORMAT_BEGIN
 90
     0
 91
     1
 62
     0
 92
    -2
340
0
 93
     0
 40
1.125
309
GRIDFORMAT_END
 95
     2
302
GRIDFORMAT
  1
GRIDFORMAT_BEGIN
 90
     0
 91
     1
 62
     0
 92
    -2
340
0
 93
     0
 40
1.125
309
GRIDFORMAT_END
 95
     4
302
GRIDFORMAT
  1
GRIDFORMAT_BEGIN
 90
     0
 91
     1
 62
     0
 92
    -2
340
0
 93
     0
 40
1.125
309
GRIDFORMAT_END
 95
     8
302
GRIDFORMAT
  1
GRIDFORMAT_BEGIN
 90
     0
 91
     1
 62
     0
 92
    -2
340
0
 93
     0
 40
1.125
309
GRIDFORMAT_END
 95
    16
302
GRIDFORMAT
  1
GRIDFORMAT_BEGIN
 90
     0
 91
     1
 62
     0
 92
    -2
340
0
 93
     0
 40
1.125
309
GRIDFORMAT_END
 95
    32
302
GRIDFORMAT
  1
GRIDFORMAT_BEGIN
 90
     0
 91
     1
 62
     0
 92
    -2
340
0
 93
     0
 40
1.125
309
GRIDFORMAT_END
309
TABLEFORMAT_END
  1
CELLSTYLE_BEGIN
 90
     1
 91
     1
300
_TITLE
309
CELLSTYLE_END
300
CELLSTYLE
  1
TABLEFORMAT_BEGIN
 90
     5
170
     1
 91
     0
 92
     0
 62
   257
 93
     1
300
CONTENTFORMAT
  1
CONTENTFORMAT_BEGIN
 90
     0
 91
     0
 92
   512
 93
     0
300

 40
0.0
140
1.0
 94
     5
 62
     0
340
5D
144
4.5
309
CONTENTFORMAT_END
171
     1
301
MARGIN
  1
CELLMARGIN_BEGIN
 40
1.5
 40
1.5
 40
1.5
 40
1.5
 40
4.5
 40
4.5
309
CELLMARGIN_END
 94
     6
 95
     1
302
GRIDFORMAT
  1
GRIDFORMAT_BEGIN
 90
     0
 91
     1
 62
     0
 92
    -2
340
0
 93
     0
 40
1.125
309
GRIDFORMAT_END
 95
     2
302
GRIDFORMAT
  1
GRIDFORMAT_BEGIN
 90
     0
 91
     1
 62
     0
 92
    -2
340
0
 93
     0
 40
1.125
309
GRIDFORMAT_END
 95
     4
302
GRIDFORMAT
  1
GRIDFORMAT_BEGIN
 90
     0
 91
     1
 62
     0
 92
    -2
340
0
 93
     0
 40
1.125
309
GRIDFORMAT_END
 95
     8
302
GRIDFORMAT
  1
GRIDFORMAT_BEGIN
 90
     0
 91
     1
 62
     0
 92
    -2
340
0
 93
     0
 40
1.125
309
GRIDFORMAT_END
 95
    16
302
GRIDFORMAT
  1
GRIDFORMAT_BEGIN
 90
     0
 91
     1
 62
     0
 92
    -2
340
0
 93
     0
 40
1.125
309
GRIDFORMAT_END
 95
    32
302
GRIDFORMAT
  1
GRIDFORMAT_BEGIN
 90
     0
 91
     1
 62
     0
 92
    -2
340
0
 93
     0
 40
1.125
309
GRIDFORMAT_END
309
TABLEFORMAT_END
  1
CELLSTYLE_BEGIN
 90
     2
 91
     1
300
_HEADER
309
CELLSTYLE_END
300
CELLSTYLE
  1
TABLEFORMAT_BEGIN
 90
     5
170
     1
 91
     0
 92
     0
 62
   257
 93
     1
300
CONTENTFORMAT
  1
CONTENTFORMAT_BEGIN
 90
     0
 91
     0
 92
   512
 93
     0
300

 40
0.0
140
1.0
 94
     2
 62
     0
340
5D
144
4.5
309
CONTENTFORMAT_END
171
     1
301
MARGIN
  1
CELLMARGIN_BEGIN
 40
1.5
 40
1.5
 40
1.5
 40
1.5
 40
4.5
 40
4.5
309
CELLMARGIN_END
 94
     6
 95
     1
302
GRIDFORMAT
  1
GRIDFORMAT_BEGIN
 90
     0
 91
     1
 62
     0
 92
    -2
340
0
 93
     0
 40
1.125
309
GRIDFORMAT_END
 95
     2
302
GRIDFORMAT
  1
GRIDFORMAT_BEGIN
 90
     0
 91
     1
 62
     0
 92
    -2
340
0
 93
     0
 40
1.125
309
GRIDFORMAT_END
 95
     4
302
GRIDFORMAT
  1
GRIDFORMAT_BEGIN
 90
     0
 91
     1
 62
     0
 92
    -2
340
0
 93
     0
 40
1.125
309
GRIDFORMAT_END
 95
     8
302
GRIDFORMAT
  1
GRIDFORMAT_BEGIN
 90
     0
 91
     1
 62
     0
 92
    -2
340
0
 93
     0
 40
1.125
309
GRIDFORMAT_END
 95
    16
302
GRIDFORMAT
  1
GRIDFORMAT_BEGIN
 90
     0
 91
     1
 62
     0
 92
    -2
340
0
 93
     0
 40
1.125
309
GRIDFORMAT_END
 95
    32
302
GRIDFORMAT
  1
GRIDFORMAT_BEGIN
 90
     0
 91
     1
 62
     0
 92
    -2
340
0
 93
     0
 40
1.125
309
GRIDFORMAT_END
309
TABLEFORMAT_END
  1
CELLSTYLE_BEGIN
 90
     3
 91
     2
300
_DATA
309
CELLSTYLE_END
  0
XRECORD
  5
B0
102
{ACAD_REACTORS
330
A6
102
}
330
A6
100
AcDbXrecord
280
     1
102
ACAD_ROUNDTRIP_PRE2007_TABLESTYLE
 90
   512
 91
     0
  1

 92
   512
 93
     0
  2

 94
   512
 95
     0
  3

  0
ENDSEC
  0
EOF
