  0
SECTION
  2
HEADER
  9
$ACADVER
  1
AC1015
  9
$ACADMAINTVER
 70
    20
  9
$DWGCODEPAGE
  3
ANSI_1252
  9
$INSBASE
 10
0.0
 20
0.0
 30
0.0
  9
$EXTMIN
 10
-178.499809147507
 20
14.022765278622
 30
0.0
  9
$EXTMAX
 10
-6.00019085249
 20
136.4997303725
 30
0.0
  9
$LIMMIN
 10
-178.499809147507
 20
14.022765278622
  9
$LIMMAX
 10
-6.00019085249
 20
136.4997303725
  9
$ORTHOMODE
 70
     0
  9
$REGENMODE
 70
     1
  9
$FILLMODE
 70
     1
  9
$QTEXTMODE
 70
     0
  9
$MIRRTEXT
 70
     0
  9
$LTSCALE
 40
1.0
  9
$ATTMODE
 70
     1
  9
$TEXTSIZE
 40
2.5
  9
$TRACEWID
 40
1.0
  9
$TEXTSTYLE
  7
Standard
  9
$CLAYER
  8
0
  9
$CELTYPE
  6
ByLayer
  9
$CECOLOR
 62
   256
  9
$CELTSCALE
 40
1.0
  9
$DISPSILH
 70
     0
  9
$DIMSCALE
 40
1.0
  9
$DIMASZ
 40
2.5
  9
$DIMEXO
 40
0.625
  9
$DIMDLI
 40
3.75
  9
$DIMRND
 40
0.0
  9
$DIMDLE
 40
0.0
  9
$DIMEXE
 40
1.25
  9
$DIMTP
 40
0.0
  9
$DIMTM
 40
0.0
  9
$DIMTXT
 40
2.5
  9
$DIMCEN
 40
2.5
  9
$DIMTSZ
 40
0.0
  9
$DIMTOL
 70
     0
  9
$DIMLIM
 70
     0
  9
$DIMTIH
 70
     0
  9
$DIMTOH
 70
     0
  9
$DIMSE1
 70
     0
  9
$DIMSE2
 70
     0
  9
$DIMTAD
 70
     1
  9
$DIMZIN
 70
     8
  9
$DIMBLK
  1

  9
$DIMASO
 70
     1
  9
$DIMSHO
 70
     1
  9
$DIMPOST
  1

  9
$DIMAPOST
  1

  9
$DIMALT
 70
     0
  9
$DIMALTD
 70
     3
  9
$DIMALTF
 40
0.03937007874
  9
$DIMLFAC
 40
1.0
  9
$DIMTOFL
 70
     1
  9
$DIMTVP
 40
0.0
  9
$DIMTIX
 70
     0
  9
$DIMSOXD
 70
     0
  9
$DIMSAH
 70
     0
  9
$DIMBLK1
  1

  9
$DIMBLK2
  1

  9
$DIMSTYLE
  2
ISO-25
  9
$DIMCLRD
 70
     0
  9
$DIMCLRE
 70
     0
  9
$DIMCLRT
 70
     0
  9
$DIMTFAC
 40
1.0
  9
$DIMGAP
 40
0.625
  9
$DIMJUST
 70
     0
  9
$DIMSD1
 70
     0
  9
$DIMSD2
 70
     0
  9
$DIMTOLJ
 70
     0
  9
$DIMTZIN
 70
     8
  9
$DIMALTZ
 70
     0
  9
$DIMALTTZ
 70
     0
  9
$DIMUPT
 70
     0
  9
$DIMDEC
 70
     2
  9
$DIMTDEC
 70
     2
  9
$DIMALTU
 70
     2
  9
$DIMALTTD
 70
     3
  9
$DIMTXSTY
  7
Standard
  9
$DIMAUNIT
 70
     0
  9
$DIMADEC
 70
     0
  9
$DIMALTRND
 40
0.0
  9
$DIMAZIN
 70
     0
  9
$DIMDSEP
 70
    44
  9
$DIMATFIT
 70
     3
  9
$DIMFRAC
 70
     0
  9
$DIMLDRBLK
  1

  9
$DIMLUNIT
 70
     2
  9
$DIMLWD
 70
    -2
  9
$DIMLWE
 70
    -2
  9
$DIMTMOVE
 70
     0
  9
$LUNITS
 70
     2
  9
$LUPREC
 70
     4
  9
$SKETCHINC
 40
1.0
  9
$FILLETRAD
 40
0.0
  9
$AUNITS
 70
     0
  9
$AUPREC
 70
     0
  9
$MENU
  1
.
  9
$ELEVATION
 40
0.0
  9
$PELEVATION
 40
0.0
  9
$THICKNESS
 40
0.0
  9
$LIMCHECK
 70
     0
  9
$CHAMFERA
 40
0.0
  9
$CHAMFERB
 40
0.0
  9
$CHAMFERC
 40
0.0
  9
$CHAMFERD
 40
0.0
  9
$SKPOLY
 70
     0
  9
$TDCREATE
 40
2456236.994979560841
  9
$TDUCREATE
 40
2456237.328312892932
  9
$TDUPDATE
 40
2456236.997909063008
  9
$TDUUPDATE
 40
2456237.331242396031
  9
$TDINDWG
 40
0.0029298727
  9
$TDUSRTIMER
 40
0.0029298727
  9
$USRTIMER
 70
     1
  9
$ANGBASE
 50
0.0
  9
$ANGDIR
 70
     0
  9
$PDMODE
 70
     0
  9
$PDSIZE
 40
0.0
  9
$PLINEWID
 40
0.0
  9
$SPLFRAME
 70
     0
  9
$SPLINETYPE
 70
     6
  9
$SPLINESEGS
 70
     8
  9
$HANDSEED
  5
bf
  9
$SURFTAB1
 70
     6
  9
$SURFTAB2
 70
     6
  9
$SURFTYPE
 70
     6
  9
$SURFU
 70
     6
  9
$SURFV
 70
     6
  9
$UCSBASE
  2

  9
$UCSNAME
  2

  9
$UCSORG
 10
0.0
 20
0.0
 30
0.0
  9
$UCSXDIR
 10
1.0
 20
0.0
 30
0.0
  9
$UCSYDIR
 10
0.0
 20
1.0
 30
0.0
  9
$UCSORTHOREF
  2

  9
$UCSORTHOVIEW
 70
     0
  9
$UCSORGTOP
 10
0.0
 20
0.0
 30
0.0
  9
$UCSORGBOTTOM
 10
0.0
 20
0.0
 30
0.0
  9
$UCSORGLEFT
 10
0.0
 20
0.0
 30
0.0
  9
$UCSORGRIGHT
 10
0.0
 20
0.0
 30
0.0
  9
$UCSORGFRONT
 10
0.0
 20
0.0
 30
0.0
  9
$UCSORGBACK
 10
0.0
 20
0.0
 30
0.0
  9
$PUCSBASE
  2

  9
$PUCSNAME
  2

  9
$PUCSORG
 10
0.0
 20
0.0
 30
0.0
  9
$PUCSXDIR
 10
1.0
 20
0.0
 30
0.0
  9
$PUCSYDIR
 10
0.0
 20
1.0
 30
0.0
  9
$PUCSORTHOREF
  2

  9
$PUCSORTHOVIEW
 70
     0
  9
$PUCSORGTOP
 10
0.0
 20
0.0
 30
0.0
  9
$PUCSORGBOTTOM
 10
0.0
 20
0.0
 30
0.0
  9
$PUCSORGLEFT
 10
0.0
 20
0.0
 30
0.0
  9
$PUCSORGRIGHT
 10
0.0
 20
0.0
 30
0.0
  9
$PUCSORGFRONT
 10
0.0
 20
0.0
 30
0.0
  9
$PUCSORGBACK
 10
0.0
 20
0.0
 30
0.0
  9
$USERI1
 70
     0
  9
$USERI2
 70
     0
  9
$USERI3
 70
     0
  9
$USERI4
 70
     0
  9
$USERI5
 70
     0
  9
$USERR1
 40
0.0
  9
$USERR2
 40
0.0
  9
$USERR3
 40
0.0
  9
$USERR4
 40
0.0
  9
$USERR5
 40
0.0
  9
$WORLDVIEW
 70
     1
  9
$SHADEDGE
 70
     3
  9
$SHADEDIF
 70
    70
  9
$TILEMODE
 70
     1
  9
$MAXACTVP
 70
    64
  9
$PINSBASE
 10
0.0
 20
0.0
 30
0.0
  9
$PLIMCHECK
 70
     0
  9
$PEXTMIN
 10
100000000000000000000.0
 20
100000000000000000000.0
 30
100000000000000000000.0
  9
$PEXTMAX
 10
-100000000000000000000.0
 20
-100000000000000000000.0
 30
-100000000000000000000.0
  9
$PLIMMIN
 10
0.0
 20
0.0
  9
$PLIMMAX
 10
420.0
 20
297.0
  9
$UNITMODE
 70
     0
  9
$VISRETAIN
 70
     1
  9
$PLINEGEN
 70
     0
  9
$PSLTSCALE
 70
     1
  9
$TREEDEPTH
 70
  3020
  9
$CMLSTYLE
  2
Standard
  9
$CMLJUST
 70
     0
  9
$CMLSCALE
 40
20.0
  9
$PROXYGRAPHICS
 70
     1
  9
$MEASUREMENT
 70
     1
  9
$CELWEIGHT
370
-1
  9
$ENDCAPS
280
     0
  9
$JOINSTYLE
280
     0
  9
$LWDISPLAY
290
0
  9
$INSUNITS
 70
     0
  9
$HYPERLINKBASE
  1

  9
$STYLESHEET
  1

  9
$XEDIT
290
1
  9
$CEPSNTYPE
380
0
  9
$PSTYLEMODE
290
1
  9
$FINGERPRINTGUID
  2
{9F64BE1D-7005-473A-A8E1-C681473DCB35}
  9
$VERSIONGUID
  2
{14C65E86-4364-4B17-B71B-D4CF0DEE0ACB}
  9
$EXTNAMES
290
1
  9
$PSVPSCALE
 40
0.0
  9
$OLESTARTUP
290
0
  0
ENDSEC
  0
SECTION
  2
CLASSES
  0
CLASS
  1
ACDBDICTIONARYWDFLT
  2
AcDbDictionaryWithDefault
  3
ObjectDBX Classes
 90
     0
280
     0
281
     0
  0
CLASS
  1
MATERIAL
  2
AcDbMaterial
  3
ObjectDBX Classes
 90
  1153
280
     0
281
     0
  0
CLASS
  1
VISUALSTYLE
  2
AcDbVisualStyle
  3
ObjectDBX Classes
 90
  4095
280
     0
281
     0
  0
CLASS
  1
SCALE
  2
AcDbScale
  3
ObjectDBX Classes
 90
  1153
280
     0
281
     0
  0
CLASS
  1
TABLESTYLE
  2
AcDbTableStyle
  3
ObjectDBX Classes
 90
  4095
280
     0
281
     0
  0
CLASS
  1
MLEADERSTYLE
  2
AcDbMLeaderStyle
  3
ACDB_MLEADERSTYLE_CLASS
 90
  4095
280
     0
281
     0
  0
CLASS
  1
DICTIONARYVAR
  2
AcDbDictionaryVar
  3
ObjectDBX Classes
 90
     0
280
     0
281
     0
  0
CLASS
  1
CELLSTYLEMAP
  2
AcDbCellStyleMap
  3
ObjectDBX Classes
 90
  1152
280
     0
281
     0
  0
CLASS
  1
ACDBPLACEHOLDER
  2
AcDbPlaceHolder
  3
ObjectDBX Classes
 90
     0
280
     0
281
     0
  0
CLASS
  1
LAYOUT
  2
AcDbLayout
  3
ObjectDBX Classes
 90
     0
280
     0
281
     0
  0
ENDSEC
  0
SECTION
  2
TABLES
  0
TABLE
  2
VPORT
  5
8
330
0
100
AcDbSymbolTable
 70
     1
  0
VPORT
  5
5F
330
8
100
AcDbSymbolTableRecord
100
AcDbViewportTableRecord
  2
*Active
 70
     0
 10
0.0
 20
0.0
 11
1.0
 21
1.0
 12
362.004492939666
 22
148.5
 13
0.0
 23
0.0
 14
10.0
 24
10.0
 15
10.0
 25
10.0
 16
0.0
 26
0.0
 36
1.0
 17
-178.499809147507
 27
14.022765278622
 37
0.0
 40
297.0
 41
2.437740693196
 42
50.0
 43
0.0
 44
0.0
 50
0.0
 51
0.0
 71
     0
 72
  1000
 73
     1
 74
     3
 75
     0
 76
     0
 77
     0
 78
     0
281
     0
 65
     1
110
0.0
120
0.0
130
0.0
111
1.0
121
0.0
131
0.0
112
0.0
122
1.0
132
0.0
 79
     0
146
0.0
  0
ENDTAB
  0
TABLE
  2
LTYPE
  5
5
330
0
100
AcDbSymbolTable
 70
     3
  0
LTYPE
  5
63
330
5
100
AcDbSymbolTableRecord
100
AcDbLinetypeTableRecord
  2
ByBlock
 70
     0
  3

 72
    65
 73
     0
 40
0.0
  0
LTYPE
  5
64
330
5
100
AcDbSymbolTableRecord
100
AcDbLinetypeTableRecord
  2
ByLayer
 70
     0
  3

 72
    65
 73
     0
 40
0.0
  0
LTYPE
  5
65
330
5
100
AcDbSymbolTableRecord
100
AcDbLinetypeTableRecord
  2
Continuous
 70
     0
  3
Solid line
 72
    65
 73
     0
 40
0.0
  0
ENDTAB
  0
TABLE
  2
LAYER
  5
2
330
0
100
AcDbSymbolTable
 70
     2
  0
LAYER
  5
5C
102
{ACAD_XDICTIONARY
360
9A
102
}
330
2
100
AcDbSymbolTableRecord
100
AcDbLayerTableRecord
 70
     0
  6
Continuous
370
-3
390
F
  2
0
 62
     7
  0
LAYER
  5
b8
100
AcDbSymbolTableRecord
100
AcDbLayerTableRecord
  6
Continuous
 70
     0
370
-3
390
F
  2
PCB
 62
     1
  0
ENDTAB
  0
TABLE
  2
STYLE
  5
3
330
0
100
AcDbSymbolTable
 70
     2
  0
STYLE
  5
5D
330
3
100
AcDbSymbolTableRecord
100
AcDbTextStyleTableRecord
  2
Standard
 70
     0
 40
0.0
 41
1.0
 50
0.0
 71
     0
 42
2.5
  3
txt
  4

  0
STYLE
  5
62
330
3
100
AcDbSymbolTableRecord
100
AcDbTextStyleTableRecord
  2
Annotative
 70
     0
 40
0.0
 41
1.0
 50
0.0
 71
     0
 42
0.2
  3

  4

1001
AcadAnnotative
1000
AnnotativeData
1002
{
1070
     1
1070
     1
1002
}
  0
ENDTAB
  0
TABLE
  2
VIEW
  5
6
330
0
100
AcDbSymbolTable
 70
     0
  0
ENDTAB
  0
TABLE
  2
UCS
  5
7
330
0
100
AcDbSymbolTable
 70
     0
  0
ENDTAB
  0
TABLE
  2
APPID
  5
9
330
0
100
AcDbSymbolTable
 70
     5
  0
APPID
  5
5E
330
9
100
AcDbSymbolTableRecord
100
AcDbRegAppTableRecord
  2
ACAD
 70
     0
  0
APPID
  5
66
330
9
100
AcDbSymbolTableRecord
100
AcDbRegAppTableRecord
  2
AcadAnnotative
 70
     0
  0
APPID
  5
70
330
9
100
AcDbSymbolTableRecord
100
AcDbRegAppTableRecord
  2
ACAD_MLEADERVER
 70
     0
  0
APPID
  5
80
330
9
100
AcDbSymbolTableRecord
100
AcDbRegAppTableRecord
  2
ACAD_EXEMPT_FROM_CAD_STANDARDS
 70
     0
  0
APPID
  5
AF
330
9
100
AcDbSymbolTableRecord
100
AcDbRegAppTableRecord
  2
ACAD_DSTYLE_DIMJOGGED_JOGANGLE_SYMBOL
 70
     0
  0
ENDTAB
  0
TABLE
  2
DIMSTYLE
  5
A
330
0
100
AcDbSymbolTable
100
AcDbDimStyleTable
 71
     1
340
60
 70
     2
  0
DIMSTYLE
105
60
330
A
100
AcDbSymbolTableRecord
100
AcDbDimStyleTableRecord
  2
ISO-25
 70
     0
 41
2.5
 42
0.625
 43
3.75
 44
1.25
 73
     0
 74
     0
 77
     1
 78
     8
140
2.5
141
2.5
143
0.03937007874
147
0.625
171
     3
172
     1
271
     2
272
     2
274
     3
278
44
283
     0
284
     8
340
5D
1001
ACAD_DSTYLE_DIMJOGGED_JOGANGLE_SYMBOL
1070
   384
1040
1.570796326794896
  0
DIMSTYLE
105
61
330
A
100
AcDbSymbolTableRecord
100
AcDbDimStyleTableRecord
  2
Annotative
 70
     0
340
5D
1001
AcadAnnotative
1000
AnnotativeData
1002
{
1070
     1
1070
     1
1002
}
  0
ENDTAB
  0
TABLE
  2
BLOCK_RECORD
  5
1
330
0
100
AcDbSymbolTable
 70
     3
  0
BLOCK_RECORD
  5
75
330
1
100
AcDbSymbolTableRecord
100
AcDbBlockTableRecord
  2
*Model_Space
340
78
  0
BLOCK_RECORD
  5
71
330
1
100
AcDbSymbolTableRecord
100
AcDbBlockTableRecord
  2
*Paper_Space
340
74
  0
BLOCK_RECORD
  5
79
330
1
100
AcDbSymbolTableRecord
100
AcDbBlockTableRecord
  2
*Paper_Space0
340
7C
  0
ENDTAB
  0
ENDSEC
  0
SECTION
  2
BLOCKS
  0
BLOCK
  5
76
102
{ACAD_REACTORS
330
75
102
}
100
AcDbEntity
  8
0
100
AcDbBlockBegin
  2
*Model_Space
 70
     0
 10
0.0
 20
0.0
 30
0.0
  3
*Model_Space
  1

  0
ENDBLK
  5
77
102
{ACAD_REACTORS
330
75
102
}
100
AcDbEntity
  8
0
100
AcDbBlockEnd
  0
BLOCK
  5
72
102
{ACAD_REACTORS
330
71
102
}
100
AcDbEntity
 67
     1
  8
0
100
AcDbBlockBegin
  2
*Paper_Space
 70
     0
 10
0.0
 20
0.0
 30
0.0
  3
*Paper_Space
  1

  0
ENDBLK
  5
73
102
{ACAD_REACTORS
330
71
102
}
100
AcDbEntity
 67
     1
  8
0
100
AcDbBlockEnd
  0
BLOCK
  5
7A
102
{ACAD_REACTORS
330
79
102
}
100
AcDbEntity
 67
     1
  8
0
100
AcDbBlockBegin
  2
*Paper_Space0
 70
     0
 10
0.0
 20
0.0
 30
0.0
  3
*Paper_Space0
  1

  0
ENDBLK
  5
7B
102
{ACAD_REACTORS
330
79
102
}
100
AcDbEntity
 67
     1
  8
0
100
AcDbBlockEnd
  0
ENDSEC
  0
SECTION
  2
ENTITIES
  0
CIRCLE
  5
b9
100
AcDbEntity
  8
PCB
100
AcDbCircle
 10
-8.499999999997
 20
45.03495858744
 30
0.0
 40
1.0
  0
CIRCLE
  5
ba
100
AcDbEntity
  8
PCB
100
AcDbCircle
 10
-23.052671635474
 20
128.458304560168
 30
0.0
 40
1.0
  0
CIRCLE
  5
bb
100
AcDbEntity
  8
PCB
100
AcDbCircle
 10
138.0
 20
134.0
 30
0.0
 40
1.0
210
-0.0
220
-0.0
230
-1.0
  0
CIRCLE
  5
bc
100
AcDbEntity
  8
PCB
100
AcDbCircle
 10
-176.0
 20
58.0
 30
0.0
 40
1.0
  0
CIRCLE
  5
bd
100
AcDbEntity
  8
PCB
100
AcDbCircle
 10
83.766665090963
 20
38.399239815173
 30
0.0
 40
1.0
210
-0.0
220
-0.0
230
-1.0
  0
SPLINE
  5
be
100
AcDbEntity
  8
PCB
100
AcDbSpline
 70
     9
 71
     3
 72
   443
 73
   439
 74
     0
 42
0.0000001
 43
0.0000001
 40
0.0
 40
0.0
 40
0.0
 40
0.0
 40
1.0
 40
1.0
 40
1.0
 40
2.0
 40
2.0
 40
2.0
 40
3.0
 40
3.0
 40
3.0
 40
4.0
 40
4.0
 40
4.0
 40
21.366750419289
 40
21.366750419289
 40
21.366750419289
 40
22.366750419289
 40
22.366750419289
 40
22.366750419289
 40
23.366750419289
 40
23.366750419289
 40
23.366750419289
 40
24.366750419289
 40
24.366750419289
 40
24.366750419289
 40
25.366750419289
 40
25.366750419289
 40
25.366750419289
 40
25.550125628934
 40
25.550125628934
 40
25.550125628934
 40
26.550125628934
 40
26.550125628934
 40
26.550125628934
 40
26.755176654655
 40
26.755176654655
 40
26.755176654655
 40
27.755176654655
 40
27.755176654655
 40
27.755176654655
 40
28.755176654655
 40
28.755176654655
 40
28.755176654655
 40
29.755176654655
 40
29.755176654655
 40
29.755176654655
 40
30.755176654655
 40
30.755176654655
 40
30.755176654655
 40
30.960227680377
 40
30.960227680377
 40
30.960227680377
 40
31.960227680377
 40
31.960227680377
 40
31.960227680377
 40
32.960227680377
 40
32.960227680377
 40
32.960227680377
 40
33.960227680377
 40
33.960227680377
 40
33.960227680377
 40
34.960227680377
 40
34.960227680377
 40
34.960227680377
 40
35.960227680377
 40
35.960227680377
 40
35.960227680377
 40
36.960227680377
 40
36.960227680377
 40
36.960227680377
 40
37.960227680377
 40
37.960227680377
 40
37.960227680377
 40
38.960227680377
 40
38.960227680377
 40
38.960227680377
 40
39.960227680377
 40
39.960227680377
 40
39.960227680377
 40
40.960227680377
 40
40.960227680377
 40
40.960227680377
 40
41.960227680377
 40
41.960227680377
 40
41.960227680377
 40
42.960227680377
 40
42.960227680377
 40
42.960227680377
 40
43.960227680377
 40
43.960227680377
 40
43.960227680377
 40
44.960227680377
 40
44.960227680377
 40
44.960227680377
 40
45.265278706099
 40
45.265278706099
 40
45.265278706099
 40
46.265278706099
 40
46.265278706099
 40
46.265278706099
 40
99.765278706098
 40
99.765278706098
 40
99.765278706098
 40
100.494707949408
 40
100.494707949408
 40
100.494707949408
 40
101.494707949408
 40
101.494707949408
 40
101.494707949408
 40
101.79975897513
 40
101.79975897513
 40
101.79975897513
 40
102.79975897513
 40
102.79975897513
 40
102.79975897513
 40
103.79975897513
 40
103.79975897513
 40
103.79975897513
 40
104.79975897513
 40
104.79975897513
 40
104.79975897513
 40
105.79975897513
 40
105.79975897513
 40
105.79975897513
 40
106.79975897513
 40
106.79975897513
 40
106.79975897513
 40
107.79975897513
 40
107.79975897513
 40
107.79975897513
 40
108.79975897513
 40
108.79975897513
 40
108.79975897513
 40
109.79975897513
 40
109.79975897513
 40
109.79975897513
 40
110.79975897513
 40
110.79975897513
 40
110.79975897513
 40
111.79975897513
 40
111.79975897513
 40
111.79975897513
 40
112.79975897513
 40
112.79975897513
 40
112.79975897513
 40
113.79975897513
 40
113.79975897513
 40
113.79975897513
 40
114.79975897513
 40
114.79975897513
 40
114.79975897513
 40
115.79975897513
 40
115.79975897513
 40
115.79975897513
 40
116.004810000852
 40
116.004810000852
 40
116.004810000852
 40
117.004810000852
 40
117.004810000852
 40
117.004810000852
 40
118.004810000852
 40
118.004810000852
 40
118.004810000852
 40
119.004810000852
 40
119.004810000852
 40
119.004810000852
 40
120.004810000852
 40
120.004810000852
 40
120.004810000852
 40
120.209861026573
 40
120.209861026573
 40
120.209861026573
 40
121.209861026573
 40
121.209861026573
 40
121.209861026573
 40
121.292875454815
 40
121.292875454815
 40
121.292875454815
 40
122.292875454815
 40
122.292875454815
 40
122.292875454815
 40
194.554620377965
 40
194.554620377965
 40
194.554620377965
 40
195.554620377965
 40
195.554620377965
 40
195.554620377965
 40
195.859671403687
 40
195.859671403687
 40
195.859671403687
 40
196.859671403687
 40
196.859671403687
 40
196.859671403687
 40
197.859671403687
 40
197.859671403687
 40
197.859671403687
 40
198.859671403687
 40
198.859671403687
 40
198.859671403687
 40
199.859671403687
 40
199.859671403687
 40
199.859671403687
 40
200.859671403687
 40
200.859671403687
 40
200.859671403687
 40
201.859671403687
 40
201.859671403687
 40
201.859671403687
 40
202.859671403687
 40
202.859671403687
 40
202.859671403687
 40
203.859671403687
 40
203.859671403687
 40
203.859671403687
 40
204.859671403687
 40
204.859671403687
 40
204.859671403687
 40
205.859671403687
 40
205.859671403687
 40
205.859671403687
 40
206.859671403687
 40
206.859671403687
 40
206.859671403687
 40
207.859671403687
 40
207.859671403687
 40
207.859671403687
 40
208.859671403687
 40
208.859671403687
 40
208.859671403687
 40
209.859671403687
 40
209.859671403687
 40
209.859671403687
 40
210.064722429409
 40
210.064722429409
 40
210.064722429409
 40
211.064722429409
 40
211.064722429409
 40
211.064722429409
 40
212.064722429409
 40
212.064722429409
 40
212.064722429409
 40
213.064722429409
 40
213.064722429409
 40
213.064722429409
 40
214.064722429409
 40
214.064722429409
 40
214.064722429409
 40
214.26977345513
 40
214.26977345513
 40
214.26977345513
 40
215.26977345513
 40
215.26977345513
 40
215.26977345513
 40
216.26977345513
 40
216.26977345513
 40
216.26977345513
 40
240.228142894788
 40
240.228142894788
 40
240.228142894788
 40
241.228142894788
 40
241.228142894788
 40
241.228142894788
 40
244.01246806367
 40
244.01246806367
 40
244.01246806367
 40
245.01246806367
 40
245.01246806367
 40
245.01246806367
 40
245.581118401435
 40
245.581118401435
 40
245.581118401435
 40
246.581118401435
 40
246.581118401435
 40
246.581118401435
 40
247.239801220154
 40
247.239801220154
 40
247.239801220154
 40
248.239801220154
 40
248.239801220154
 40
248.239801220154
 40
249.239801220154
 40
249.239801220154
 40
249.239801220154
 40
249.444852245876
 40
249.444852245876
 40
249.444852245876
 40
250.444852245876
 40
250.444852245876
 40
250.444852245876
 40
251.444852245876
 40
251.444852245876
 40
251.444852245876
 40
252.444852245876
 40
252.444852245876
 40
252.444852245876
 40
253.444852245876
 40
253.444852245876
 40
253.444852245876
 40
253.649903271598
 40
253.649903271598
 40
253.649903271598
 40
254.649903271598
 40
254.649903271598
 40
254.649903271598
 40
255.649903271598
 40
255.649903271598
 40
255.649903271598
 40
256.649903271598
 40
256.649903271598
 40
256.649903271598
 40
257.649903271598
 40
257.649903271598
 40
257.649903271598
 40
258.649903271598
 40
258.649903271598
 40
258.649903271598
 40
259.649903271598
 40
259.649903271598
 40
259.649903271598
 40
260.649903271598
 40
260.649903271598
 40
260.649903271598
 40
261.649903271598
 40
261.649903271598
 40
261.649903271598
 40
262.649903271598
 40
262.649903271598
 40
262.649903271598
 40
263.649903271598
 40
263.649903271598
 40
263.649903271598
 40
264.649903271598
 40
264.649903271598
 40
264.649903271598
 40
265.649903271598
 40
265.649903271598
 40
265.649903271598
 40
266.649903271598
 40
266.649903271598
 40
266.649903271598
 40
267.649903271598
 40
267.649903271598
 40
267.649903271598
 40
267.954954297319
 40
267.954954297319
 40
267.954954297319
 40
268.954954297319
 40
268.954954297319
 40
268.954954297319
 40
269.954954297319
 40
269.954954297319
 40
269.954954297319
 40
272.30523010771
 40
272.30523010771
 40
272.30523010771
 40
346.05523010771
 40
346.05523010771
 40
346.05523010771
 40
347.05523010771
 40
347.05523010771
 40
347.05523010771
 40
355.555230107709
 40
355.555230107709
 40
355.555230107709
 40
356.555230107709
 40
356.555230107709
 40
356.555230107709
 40
356.860281133431
 40
356.860281133431
 40
356.860281133431
 40
357.860281133431
 40
357.860281133431
 40
357.860281133431
 40
358.860281133431
 40
358.860281133431
 40
358.860281133431
 40
359.860281133431
 40
359.860281133431
 40
359.860281133431
 40
360.860281133431
 40
360.860281133431
 40
360.860281133431
 40
361.860281133431
 40
361.860281133431
 40
361.860281133431
 40
362.860281133431
 40
362.860281133431
 40
362.860281133431
 40
363.860281133431
 40
363.860281133431
 40
363.860281133431
 40
364.860281133431
 40
364.860281133431
 40
364.860281133431
 40
365.860281133431
 40
365.860281133431
 40
365.860281133431
 40
366.860281133431
 40
366.860281133431
 40
366.860281133431
 40
367.860281133431
 40
367.860281133431
 40
367.860281133431
 40
368.860281133431
 40
368.860281133431
 40
368.860281133431
 40
369.860281133431
 40
369.860281133431
 40
369.860281133431
 40
370.860281133431
 40
370.860281133431
 40
370.860281133431
 40
371.065332159153
 40
371.065332159153
 40
371.065332159153
 40
372.065332159153
 40
372.065332159153
 40
372.065332159153
 40
373.065332159153
 40
373.065332159153
 40
373.065332159153
 40
374.065332159153
 40
374.065332159153
 40
374.065332159153
 40
375.065332159153
 40
375.065332159153
 40
375.065332159153
 40
375.270383184874
 40
375.270383184874
 40
375.270383184874
 40
376.270383184874
 40
376.270383184874
 40
376.270383184874
 40
441.770383184875
 40
441.770383184875
 40
441.770383184875
 40
442.770383184875
 40
442.770383184875
 40
442.770383184875
 40
442.770383184875
 10
-172.420751626897
 20
133.107246376811
 30
0.0
 10
-172.2957120118
 20
133.177282763159
 30
0.0
 10
-172.206737447243
 20
133.297608386723
 30
0.0
 10
-172.176412224976
 20
133.437681159419
 30
0.0
 10
-171.887386799779
 20
134.772695041001
 30
0.0
 10
-170.794441907497
 20
135.784514129321
 30
0.0
 10
-169.441141539513
 20
135.969921449681
 30
0.0
 10
-168.08784117153
 20
136.155328770041
 30
0.0
 10
-166.763031484755
 20
135.474751295481
 30
0.0
 10
-166.125591848359
 20
134.266666666667
 30
0.0
 10
-166.039047184115
 20
134.102645993007
 30
0.0
 10
-165.868828061595
 20
134.0
 30
0.0
 10
-165.683375209645
 20
134.0
 30
0.0
 10
-159.894458403215
 20
134.0
 30
0.0
 10
-154.105541596785
 20
134.0
 30
0.0
 10
-148.316624790356
 20
134.0
 30
0.0
 10
-148.131171938405
 20
134.0
 30
0.0
 10
-147.960952815885
 20
134.102645993007
 30
0.0
 10
-147.874408151642
 20
134.266666666666
 30
0.0
 10
-147.311867834058
 20
135.332801045451
 30
0.0
 10
-146.20544353768
 20
136.0
 30
0.0
 10
-145.0
 20
136.0
 30
0.0
 10
-143.794556462321
 20
136.0
 30
0.0
 10
-142.688132165942
 20
135.332801045451
 30
0.0
 10
-142.125591848359
 20
134.266666666667
 30
0.0
 10
-142.039047184115
 20
134.102645993008
 30
0.0
 10
-141.868828061595
 20
134.0
 30
0.0
 10
-141.683375209645
 20
134.0
 30
0.0
 10
-141.622250139763
 20
134.0
 30
0.0
 10
-141.561125069881
 20
134.0
 30
0.0
 10
-141.5
 20
134.0
 30
0.0
 10
-141.5
 20
133.084112681353
 30
0.0
 10
-141.140987597877
 20
132.204715484821
 30
0.0
 10
-140.5
 20
131.550510257217
 30
0.0
 10
-140.5
 20
130.867006838145
 30
0.0
 10
-140.5
 20
130.183503419072
 30
0.0
 10
-140.5
 20
129.5
 30
0.0
 10
-140.5
 20
128.672324
 30
0.0
 10
-139.827676
 20
128.0
 30
0.0
 10
-139.0
 20
128.0
 30
0.0
 10
-138.724108
 20
128.0
 30
0.0
 10
-138.5
 20
128.224108
 30
0.0
 10
-138.5
 20
128.5
 30
0.0
 10
-138.5
 20
128.775892
 30
0.0
 10
-138.724108
 20
129.0
 30
0.0
 10
-139.0
 20
129.0
 30
0.0
 10
-139.275892
 20
129.0
 30
0.0
 10
-139.5
 20
129.224108
 30
0.0
 10
-139.5
 20
129.5
 30
0.0
 10
-139.5
 20
130.183503419072
 30
0.0
 10
-139.5
 20
130.867006838145
 30
0.0
 10
-139.5
 20
131.550510257217
 30
0.0
 10
-139.5
 20
131.812192348259
 30
0.0
 10
-139.602574972035
 20
132.063448690125
 30
0.0
 10
-139.785714285714
 20
132.250364469441
 30
0.0
 10
-140.542904450119
 20
133.023168444876
 30
0.0
 10
-140.717057799628
 20
134.19534544531
 30
0.0
 10
-140.21724932804
 20
135.154904938645
 30
0.0
 10
-139.717440856453
 20
136.114464431979
 30
0.0
 10
-138.657104702602
 20
136.643629387667
 30
0.0
 10
-137.58983958644
 20
136.466124172695
 30
0.0
 10
-136.522574470278
 20
136.288618957722
 30
0.0
 10
-135.690601775074
 20
135.444729306212
 30
0.0
 10
-135.528292259033
 20
134.375047787945
 30
0.0
 10
-135.365982742992
 20
133.305366269678
 30
0.0
 10
-135.910173397127
 20
132.252662682982
 30
0.0
 10
-136.876743710746
 20
131.766550804551
 30
0.0
 10
-137.1572069108
 20
131.625498993744
 30
0.0
 10
-137.355152694934
 20
131.360927820727
 30
0.0
 10
-137.411311105144
 20
131.052056564572
 30
0.0
 10
-137.467469515354
 20
130.743185308416
 30
0.0
 10
-137.375321314306
 20
130.425869774458
 30
0.0
 10
-137.16245799646
 20
130.195122233123
 30
0.0
 10
-136.736505266278
 20
129.733382060091
 30
0.0
 10
-136.5
 20
129.128203562343
 30
0.0
 10
-136.499999999999
 20
128.5
 30
0.0
 10
-136.5
 20
127.12054
 30
0.0
 10
-137.620540000001
 20
126.0
 30
0.0
 10
-139.000000000001
 20
126.0
 30
0.0
 10
-139.333333333333
 20
126.0
 30
0.0
 10
-139.666666666667
 20
126.0
 30
0.0
 10
-140.0
 20
126.0
 30
0.0
 10
-140.275892
 20
126.0
 30
0.0
 10
-140.5
 20
125.775892
 30
0.0
 10
-140.5
 20
125.5
 30
0.0
 10
-140.5
 20
125.224108
 30
0.0
 10
-140.275892
 20
125.0
 30
0.0
 10
-140.0
 20
125.0
 30
0.0
 10
-139.666666666667
 20
125.0
 30
0.0
 10
-139.333333333333
 20
125.0
 30
0.0
 10
-139.0
 20
125.0
 30
0.0
 10
-137.068756
 20
125.0
 30
0.0
 10
-135.5
 20
126.568756
 30
0.0
 10
-135.5
 20
128.5
 30
0.0
 10
-135.5
 20
129.516836752406
 30
0.0
 10
-135.5
 20
130.533673504811
 30
0.0
 10
-135.5
 20
131.550510257217
 30
0.0
 10
-134.859012402123
 20
132.204715484822
 30
0.0
 10
-134.5
 20
133.084112681353
 30
0.0
 10
-134.5
 20
134.0
 30
0.0
 10
-116.666666666667
 20
134.0
 30
0.0
 10
-98.833333333333
 20
134.0
 30
0.0
 10
-81.0
 20
134.0
 30
0.0
 10
-67.14084437711
 20
134.0
 30
0.0
 10
-44.768616418288
 20
132.004748671266
 30
0.0
 10
-26.496736570277
 20
129.081535436214
 30
0.0
 10
-26.67023188919
 20
128.122774939603
 30
0.0
 10
-26.4362229922
 20
127.135087823597
 30
0.0
 10
-25.851006357916
 20
126.356086022248
 30
0.0
 10
-25.983730187317
 20
125.347948449219
 30
0.0
 10
-26.116454016718
 20
124.339810876191
 30
0.0
 10
-26.249177846119
 20
123.331673303163
 30
0.0
 10
-26.501255771686
 20
121.416951363304
 30
0.0
 10
-25.150684443939
 20
119.656852541152
 30
0.0
 10
-23.23596250408
 20
119.404774615584
 30
0.0
 10
-22.905480883622
 20
119.361265884844
 30
0.0
 10
-22.574999263164
 20
119.317757154104
 30
0.0
 10
-22.244517642706
 20
119.274248423364
 30
0.0
 10
-21.970985937012
 20
119.23823729114
 30
0.0
 10
-21.719543248134
 20
119.431176052247
 30
0.0
 10
-21.68353211591
 20
119.704707757941
 30
0.0
 10
-21.647520983686
 20
119.978239463635
 30
0.0
 10
-21.840459744792
 20
120.229682152514
 30
0.0
 10
-22.113991450487
 20
120.265693284738
 30
0.0
 10
-22.444473070944
 20
120.309202015478
 30
0.0
 10
-22.774954691402
 20
120.352710746218
 30
0.0
 10
-23.10543631186
 20
120.396219476958
 30
0.0
 10
-24.473094840331
 20
120.576275138078
 30
0.0
 10
-25.437788645865
 20
121.833488582473
 30
0.0
 10
-25.257732984745
 20
123.201147110944
 30
0.0
 10
-25.175735965813
 20
123.823976304724
 30
0.0
 10
-24.862262389949
 20
124.393107284683
 30
0.0
 10
-24.379684557841
 20
124.795299218589
 30
0.0
 10
-24.138523717253
 20
124.996288444378
 30
0.0
 10
-24.005745868459
 20
125.298861546153
 30
0.0
 10
-24.021108046733
 20
125.61242050934
 30
0.0
 10
-24.036470225006
 20
125.925979472528
 30
0.0
 10
-24.198189087732
 20
126.214124311951
 30
0.0
 10
-24.457841930459
 20
126.390577198525
 30
0.0
 10
-25.352692768568
 20
126.998693064997
 30
0.0
 10
-25.754822405511
 20
128.113421760502
 30
0.0
 10
-25.454280014412
 20
129.152766362005
 30
0.0
 10
-25.153737623314
 20
130.192110963507
 30
0.0
 10
-24.218732866985
 20
130.920186794128
 30
0.0
 10
-23.137429272033
 20
130.956867375677
 30
0.0
 10
-22.056125677081
 20
130.993547957227
 30
0.0
 10
-21.073930732739
 20
130.330508440456
 30
0.0
 10
-20.703645838786
 20
129.313920014971
 30
0.0
 10
-20.333360944833
 20
128.297331589486
 30
0.0
 10
-20.65902418877
 20
127.157914299359
 30
0.0
 10
-21.510607646597
 20
126.490554918011
 30
0.0
 10
-21.716577583
 20
126.329142706359
 30
0.0
 10
-21.851070545505
 20
126.093424617845
 30
0.0
 10
-21.88522691242
 20
125.833981253368
 30
0.0
 10
-21.974442011081
 20
125.156325300798
 30
0.0
 10
-22.063657109742
 20
124.478669348227
 30
0.0
 10
-22.152872208403
 20
123.801013395656
 30
0.0
 10
-22.188883340627
 20
123.527481689962
 30
0.0
 10
-22.440326029506
 20
123.334542928855
 30
0.0
 10
-22.7138577352
 20
123.370554061079
 30
0.0
 10
-22.987389440894
 20
123.406565193303
 30
0.0
 10
-23.238832129773
 20
123.213626432196
 30
0.0
 10
-23.274843261997
 20
122.940094726502
 30
0.0
 10
-23.310854394221
 20
122.666563020808
 30
0.0
 10
-23.117915633114
 20
122.415120331929
 30
0.0
 10
-22.84438392742
 20
122.379109199705
 30
0.0
 10
-22.023788810338
 20
122.271075803033
 30
0.0
 10
-21.269460743702
 20
122.849892086353
 30
0.0
 10
-21.16142734703
 20
123.670487203435
 30
0.0
 10
-21.072212248368
 20
124.348143156007
 30
0.0
 10
-20.982997149708
 20
125.025799108578
 30
0.0
 10
-20.893782051047
 20
125.703455061148
 30
0.0
 10
-20.202086727518
 20
126.245515101122
 30
0.0
 10
-19.739615898158
 20
127.027943350904
 30
0.0
 10
-19.598252282808
 20
127.895288631506
 30
0.0
 10
-17.664572874386
 20
127.537171485365
 30
0.0
 10
-15.805265630789
 20
127.168834525209
 30
0.0
 10
-14.03892332233
 20
126.791850985452
 30
0.0
 10
-10.808749839426
 20
126.102447675695
 30
0.0
 10
-8.5
 20
123.248953324712
 30
0.0
 10
-8.500000000001
 20
119.946030732044
 30
0.0
 10
-8.5
 20
96.142340017176
 30
0.0
 10
-8.5
 20
72.338649302309
 30
0.0
 10
-8.5
 20
48.534958587441
 30
0.0
 10
-9.41306412319
 20
48.534958587441
 30
0.0
 10
-10.289981073277
 20
48.178150253625
 30
0.0
 10
-10.943657110061
 20
47.540660071746
 30
0.0
 10
-11.96049110138
 20
47.543029700571
 30
0.0
 10
-12.9773250927
 20
47.545399329396
 30
0.0
 10
-13.994159084019
 20
47.547768958221
 30
0.0
 10
-15.925397839979
 20
47.552269514913
 30
0.0
 10
-17.497805397574
 20
45.987173592009
 30
0.0
 10
-17.502305954266
 20
44.055934836048
 30
0.0
 10
-17.503082751793
 20
43.722602407837
 30
0.0
 10
-17.50385954932
 20
43.389269979627
 30
0.0
 10
-17.504636346848
 20
43.055937551416
 30
0.0
 10
-17.505279283518
 20
42.780046300565
 30
0.0
 10
-17.281694151675
 20
42.55541664948
 30
0.0
 10
-17.005802900823
 20
42.55477371281
 30
0.0
 10
-16.729911649972
 20
42.554130776139
 30
0.0
 10
-16.505281998887
 20
42.777715907983
 30
0.0
 10
-16.504639062216
 20
43.053607158834
 30
0.0
 10
-16.503862264689
 20
43.386939587045
 30
0.0
 10
-16.503085467161
 20
43.720272015255
 30
0.0
 10
-16.502308669634
 20
44.053604443466
 30
0.0
 10
-16.499093986283
 20
45.433060697724
 30
0.0
 10
-15.375945730858
 20
46.550986356941
 30
0.0
 10
-13.996489476599
 20
46.54777167359
 30
0.0
 10
-13.368287620061
 20
46.546307712668
 30
0.0
 10
-12.763661915714
 20
46.308392785107
 30
0.0
 10
-12.30291563356
 20
45.881365175669
 30
0.0
 10
-12.072664773887
 20
45.667964703467
 30
0.0
 10
-11.755564843041
 20
45.575077282869
 30
0.0
 10
-11.446563554442
 20
45.630515749304
 30
0.0
 10
-11.137562265843
 20
45.685954215739
 30
0.0
 10
-10.872530519848
 20
45.883282907679
 30
0.0
 10
-10.730825502687
 20
46.163416640078
 30
0.0
 10
-10.242462455941
 20
47.128851497586
 30
0.0
 10
-9.188493549859
 20
47.670587461414
 30
0.0
 10
-8.119193181064
 20
47.505785608228
 30
0.0
 10
-7.049892812269
 20
47.340983755042
 30
0.0
 10
-6.207944275227
 20
46.507046724767
 30
0.0
 10
-6.032926688956
 20
45.439370849786
 30
0.0
 10
-5.857909102685
 20
44.371694974806
 30
0.0
 10
-6.389543621003
 20
43.312594862246
 30
0.0
 10
-7.350265258735
 20
42.815023898148
 30
0.0
 10
-8.310986896467
 20
42.31745293405
 30
0.0
 10
-9.482754868334
 20
42.494337443255
 30
0.0
 10
-10.253792194979
 20
43.253326488261
 30
0.0
 10
-10.440280680252
 20
43.436900891795
 30
0.0
 10
-10.691297299911
 20
43.540061111216
 30
0.0
 10
-10.952978680389
 20
43.54067093322
 30
0.0
 10
-11.636480243498
 20
43.542263764518
 30
0.0
 10
-12.319981806607
 20
43.543856595815
 30
0.0
 10
-13.003483369715
 20
43.545449427113
 30
0.0
 10
-13.279374620567
 20
43.546092363783
 30
0.0
 10
-13.50295975241
 20
43.770722014868
 30
0.0
 10
-13.50231681574
 20
44.04661326572
 30
0.0
 10
-13.50167387907
 20
44.322504516571
 30
0.0
 10
-13.725259010913
 20
44.547134167656
 30
0.0
 10
-14.001150261765
 20
44.547777104327
 30
0.0
 10
-14.277041512616
 20
44.548420040997
 30
0.0
 10
-14.501671163701
 20
44.324834909153
 30
0.0
 10
-14.502314100371
 20
44.048943658302
 30
0.0
 10
-14.504242910382
 20
43.221269905747
 30
0.0
 10
-13.833487514852
 20
42.547380952493
 30
0.0
 10
-13.005813762298
 20
42.545452142482
 30
0.0
 10
-12.322312199188
 20
42.543859311184
 30
0.0
 10
-11.638810636079
 20
42.542266479886
 30
0.0
 10
-10.955309072971
 20
42.540673648589
 30
0.0
 10
-10.389219825959
 20
41.983430150603
 30
0.0
 10
-9.650414967065
 20
41.635322907668
 30
0.0
 10
-8.860294117647
 20
41.553552528276
 30
0.0
 10
-9.537116208197
 20
38.318618042028
 30
0.0
 10
-11.142211327535
 20
35.351116699563
 30
0.0
 10
-13.479184719829
 20
33.01414330727
 30
0.0
 10
-19.126226552147
 20
27.367101474952
 30
0.0
 10
-24.773268384465
 20
21.720059642634
 30
0.0
 10
-30.420310216783
 20
16.073017810316
 30
0.0
 10
-33.151501673835
 20
13.341826353264
 30
0.0
 10
-37.588613696343
 20
13.341826353264
 30
0.0
 10
-40.319805153395
 20
16.073017810316
 30
0.0
 10
-40.976076889376
 20
16.729289546297
 30
0.0
 10
-41.632348625358
 20
17.385561282279
 30
0.0
 10
-42.28862036134
 20
18.041833018261
 30
0.0
 10
-46.614268216456
 20
22.367480873377
 30
0.0
 10
-51.488280018398
 20
26.107441668736
 30
0.0
 10
-56.786095044398
 20
29.166136600113
 30
0.0
 10
-56.95025025719
 20
29.260911656407
 30
0.0
 10
-57.114405469981
 20
29.355686712701
 30
0.0
 10
-57.278560682773
 20
29.450461768996
 30
0.0
 10
-62.576375708773
 20
32.509156700374
 30
0.0
 10
-68.252282667682
 20
34.860194341522
 30
0.0
 10
-74.161227525597
 20
36.44349134432
 30
0.0
 10
-74.374348147907
 20
36.500596842958
 30
0.0
 10
-74.587468770217
 20
36.557702341596
 30
0.0
 10
-74.800589392526
 20
36.614807840235
 30
0.0
 10
-76.619373439482
 20
37.102149556823
 30
0.0
 10
-78.457080577019
 20
37.51590710776
 30
0.0
 10
-80.309226704635
 20
37.855070903214
 30
0.0
 10
-80.137177802989
 20
38.948202950639
 30
0.0
 10
-80.492214344925
 20
40.05830907516
 30
0.0
 10
-81.266665090964
 20
40.848729557957
 30
0.0
 10
-81.266665090964
 20
41.532232977029
 30
0.0
 10
-81.266665090964
 20
42.215736396102
 30
0.0
 10
-81.266665090964
 20
42.899239815174
 30
0.0
 10
-81.266665090964
 20
43.726915815173
 30
0.0
 10
-81.938989090964
 20
44.399239815173
 30
0.0
 10
-82.766665090964
 20
44.399239815173
 30
0.0
 10
-83.042557090964
 20
44.399239815173
 30
0.0
 10
-83.266665090964
 20
44.175131815173
 30
0.0
 10
-83.266665090964
 20
43.899239815173
 30
0.0
 10
-83.266665090964
 20
43.623347815173
 30
0.0
 10
-83.042557090964
 20
43.399239815173
 30
0.0
 10
-82.766665090964
 20
43.399239815173
 30
0.0
 10
-82.490773090964
 20
43.399239815173
 30
0.0
 10
-82.266665090964
 20
43.175131815173
 30
0.0
 10
-82.266665090964
 20
42.899239815173
 30
0.0
 10
-82.266665090964
 20
42.215736396102
 30
0.0
 10
-82.266665090964
 20
41.532232977029
 30
0.0
 10
-82.266665090964
 20
40.848729557957
 30
0.0
 10
-82.266665090964
 20
40.587047466915
 30
0.0
 10
-82.164090118929
 20
40.335791125048
 30
0.0
 10
-81.980950805249
 20
40.148875345733
 30
0.0
 10
-81.223760640845
 20
39.376071370298
 30
0.0
 10
-81.049607291335
 20
38.203894369864
 30
0.0
 10
-81.549415762923
 20
37.244334876529
 30
0.0
 10
-82.04922423451
 20
36.284775383194
 30
0.0
 10
-83.10956038836
 20
35.755610427506
 30
0.0
 10
-84.176825504522
 20
35.933115642478
 30
0.0
 10
-85.244090620685
 20
36.110620857451
 30
0.0
 10
-86.076063315889
 20
36.954510508961
 30
0.0
 10
-86.23837283193
 20
38.024192027228
 30
0.0
 10
-86.400682347971
 20
39.093873545495
 30
0.0
 10
-85.856491693836
 20
40.146577132191
 30
0.0
 10
-84.889921380218
 20
40.632689010621
 30
0.0
 10
-84.609458180164
 20
40.773740821429
 30
0.0
 10
-84.41151239603
 20
41.038311994445
 30
0.0
 10
-84.35535398582
 20
41.347183250601
 30
0.0
 10
-84.29919557561
 20
41.656054506757
 30
0.0
 10
-84.391343776658
 20
41.973370040715
 30
0.0
 10
-84.604207094504
 20
42.20411758205
 30
0.0
 10
-85.030159824686
 20
42.665857755082
 30
0.0
 10
-85.266665090965
 20
43.271036252829
 30
0.0
 10
-85.266665090965
 20
43.899239815173
 30
0.0
 10
-85.266665090965
 20
45.278699815173
 30
0.0
 10
-84.146125090964
 20
46.399239815173
 30
0.0
 10
-82.766665090964
 20
46.399239815173
 30
0.0
 10
-82.433331757632
 20
46.399239815173
 30
0.0
 10
-82.099998424298
 20
46.399239815173
 30
0.0
 10
-81.766665090965
 20
46.399239815173
 30
0.0
 10
-81.490773090965
 20
46.399239815173
 30
0.0
 10
-81.266665090965
 20
46.623347815173
 30
0.0
 10
-81.266665090965
 20
46.899239815173
 30
0.0
 10
-81.266665090965
 20
47.175131815173
 30
0.0
 10
-81.490773090965
 20
47.399239815173
 30
0.0
 10
-81.766665090965
 20
47.399239815173
 30
0.0
 10
-82.099998424299
 20
47.399239815173
 30
0.0
 10
-82.433331757632
 20
47.399239815173
 30
0.0
 10
-82.766665090965
 20
47.399239815173
 30
0.0
 10
-84.697909090965
 20
47.399239815173
 30
0.0
 10
-86.266665090965
 20
45.830483815172
 30
0.0
 10
-86.266665090964
 20
43.899239815172
 30
0.0
 10
-86.266665090964
 20
42.882403062766
 30
0.0
 10
-86.266665090964
 20
41.86556631036
 30
0.0
 10
-86.266665090964
 20
40.848729557954
 30
0.0
 10
-86.818126427795
 20
40.28589668791
 30
0.0
 10
-87.163531334059
 20
39.553445244087
 30
0.0
 10
-87.246981620938
 20
38.769910627594
 30
0.0
 10
-89.133407387805
 20
38.923240465545
 30
0.0
 10
-91.025275669509
 20
39.0
 30
0.0
 10
-92.917922549703
 20
39.0
 30
0.0
 10
-93.695281699802
 20
39.0
 30
0.0
 10
-94.472640849901
 20
39.0
 30
0.0
 10
-95.25
 20
39.0
 30
0.0
 10
-119.833333333333
 20
39.0
 30
0.0
 10
-144.416666666667
 20
39.0
 30
0.0
 10
-169.0
 20
39.0
 30
0.0
 10
-172.862488
 20
39.0
 30
0.0
 10
-176.0
 20
42.137512
 30
0.0
 10
-176.0
 20
46.0
 30
0.0
 10
-176.0
 20
48.833333333333
 30
0.0
 10
-176.0
 20
51.666666666666
 30
0.0
 10
-176.0
 20
54.499999999999
 30
0.0
 10
-175.086935876809
 20
54.499999999998
 30
0.0
 10
-174.210018926721
 20
54.856808333815
 30
0.0
 10
-173.556342889937
 20
55.494298515693
 30
0.0
 10
-172.539508898615
 20
55.491928886868
 30
0.0
 10
-171.522674907296
 20
55.489559258043
 30
0.0
 10
-170.505840915977
 20
55.487189629218
 30
0.0
 10
-168.574602160018
 20
55.482689072526
 30
0.0
 10
-167.002194602423
 20
57.04778499543
 30
0.0
 10
-166.997694045731
 20
58.979023751391
 30
0.0
 10
-166.996917248204
 20
59.312356179601
 30
0.0
 10
-166.996140450676
 20
59.645688607812
 30
0.0
 10
-166.995363653149
 20
59.979021036022
 30
0.0
 10
-166.994720716478
 20
60.254912286874
 30
0.0
 10
-167.218305848322
 20
60.479541937959
 30
0.0
 10
-167.494197099173
 20
60.480184874629
 30
0.0
 10
-167.770088350025
 20
60.480827811299
 30
0.0
 10
-167.99471800111
 20
60.257242679456
 30
0.0
 10
-167.99536093778
 20
59.981351428604
 30
0.0
 10
-167.996137735308
 20
59.648019000394
 30
0.0
 10
-167.996914532835
 20
59.314686572183
 30
0.0
 10
-167.997691330363
 20
58.981354143973
 30
0.0
 10
-168.000906013714
 20
57.601897889715
 30
0.0
 10
-169.12405426914
 20
56.483972230498
 30
0.0
 10
-170.503510523398
 20
56.487186913849
 30
0.0
 10
-171.131712379936
 20
56.488650874771
 30
0.0
 10
-171.736338084283
 20
56.726565802333
 30
0.0
 10
-172.197084366437
 20
57.15359341177
 30
0.0
 10
-172.42733522611
 20
57.366993883972
 30
0.0
 10
-172.744435156956
 20
57.459881304571
 30
0.0
 10
-173.053436445555
 20
57.404442838136
 30
0.0
 10
-173.362437734154
 20
57.3490043717
 30
0.0
 10
-173.627469480149
 20
57.151675679761
 30
0.0
 10
-173.76917449731
 20
56.871541947362
 30
0.0
 10
-174.257537544057
 20
55.906107089854
 30
0.0
 10
-175.311506450138
 20
55.364371126026
 30
0.0
 10
-176.380806818934
 20
55.529172979212
 30
0.0
 10
-177.450107187729
 20
55.693974832398
 30
0.0
 10
-178.29205572477
 20
56.527911862674
 30
0.0
 10
-178.467073311041
 20
57.595587737655
 30
0.0
 10
-178.642090897312
 20
58.663263612635
 30
0.0
 10
-178.110456378994
 20
59.722363725195
 30
0.0
 10
-177.149734741262
 20
60.219934689293
 30
0.0
 10
-176.18901310353
 20
60.71750565339
 30
0.0
 10
-175.017245131663
 20
60.540621144185
 30
0.0
 10
-174.246207805017
 20
59.781632099179
 30
0.0
 10
-174.059719319745
 20
59.598057695645
 30
0.0
 10
-173.808702700086
 20
59.494897476223
 30
0.0
 10
-173.547021319608
 20
59.494287654219
 30
0.0
 10
-172.8635197565
 20
59.492694822922
 30
0.0
 10
-172.180018193391
 20
59.491101991624
 30
0.0
 10
-171.496516630282
 20
59.489509160326
 30
0.0
 10
-171.22062537943
 20
59.488866223656
 30
0.0
 10
-170.997040247587
 20
59.264236572571
 30
0.0
 10
-170.997683184257
 20
58.98834532172
 30
0.0
 10
-170.998326120927
 20
58.712454070868
 30
0.0
 10
-170.774740989084
 20
58.487824419783
 30
0.0
 10
-170.498849738232
 20
58.487181483113
 30
0.0
 10
-170.222958487381
 20
58.486538546442
 30
0.0
 10
-169.998328836296
 20
58.710123678286
 30
0.0
 10
-169.997685899626
 20
58.986014929137
 30
0.0
 10
-169.995757089615
 20
59.813688681692
 30
0.0
 10
-170.666512485144
 20
60.487577634947
 30
0.0
 10
-171.494186237699
 20
60.489506444958
 30
0.0
 10
-172.177687800809
 20
60.491099276255
 30
0.0
 10
-172.861189363918
 20
60.492692107553
 30
0.0
 10
-173.544690927026
 20
60.494284938851
 30
0.0
 10
-174.199413043893
 20
61.138776323448
 30
0.0
 10
-175.081288840203
 20
61.5
 30
0.0
 10
-176.0
 20
61.499999999999
 30
0.0
 10
-176.0
 20
83.333333333332
 30
0.0
 10
-176.0
 20
105.166666666666
 30
0.0
 10
-176.0
 20
127.0
 30
0.0
 10
-176.0
 20
129.533458859819
 30
0.0
 10
-174.631102690103
 20
131.869198731611
 30
0.0
 10
-172.420751626898
 20
133.107246376811
 30
0.0
  0
ENDSEC
  0
SECTION
  2
OBJECTS
  0
DICTIONARY
  5
C
330
0
100
AcDbDictionary
281
     1
  3
ACAD_2007HEADERVARS_RT
350
AA
  3
ACAD_COLOR
350
6B
  3
ACAD_GROUP
350
D
  3
ACAD_LAYOUT
350
6A
  3
ACAD_MATERIAL
350
10
  3
ACAD_MLEADERSTYLE
350
6E
  3
ACAD_MLINESTYLE
350
67
  3
ACAD_PLOTSETTINGS
350
69
  3
ACAD_PLOTSTYLENAME
350
E
  3
ACAD_SCALELIST
350
3A
  3
ACAD_TABLESTYLE
350
6C
  3
ACAD_VISUALSTYLE
350
29
  3
ACDB_RECOMPOSE_DATA
350
A8
  3
AcDbVariableDictionary
350
9C
  3
DWGPROPS
350
A9
  0
DICTIONARY
  5
9A
330
5C
100
AcDbDictionary
280
     1
281
     1
  3
ADSK_XREC_LAYER_RECONCILED
360
9B
  0
DICTIONARY
  5
AA
102
{ACAD_REACTORS
330
C
102
}
330
C
100
AcDbDictionary
281
     1
  3
DIMJOGANG
350
AB
  0
DICTIONARY
  5
6B
102
{ACAD_REACTORS
330
C
102
}
330
C
100
AcDbDictionary
281
     1
  0
DICTIONARY
  5
D
102
{ACAD_REACTORS
330
C
102
}
330
C
100
AcDbDictionary
281
     1
  0
DICTIONARY
  5
6A
102
{ACAD_REACTORS
330
C
102
}
330
C
100
AcDbDictionary
281
     1
  3
Layout1
350
74
  3
Layout2
350
7C
  3
Model
350
78
  0
DICTIONARY
  5
10
102
{ACAD_REACTORS
330
C
102
}
330
C
100
AcDbDictionary
281
     1
  3
ByBlock
350
19
  3
ByLayer
350
11
  3
Global
350
21
  0
DICTIONARY
  5
6E
102
{ACAD_REACTORS
330
C
102
}
330
C
100
AcDbDictionary
281
     1
  3
Standard
350
6F
  0
DICTIONARY
  5
67
102
{ACAD_REACTORS
330
C
102
}
330
C
100
AcDbDictionary
281
     1
  3
Standard
350
68
  0
DICTIONARY
  5
69
102
{ACAD_REACTORS
330
C
102
}
330
C
100
AcDbDictionary
281
     1
  0
ACDBDICTIONARYWDFLT
  5
E
102
{ACAD_REACTORS
330
C
102
}
330
C
100
AcDbDictionary
281
     1
  3
Normal
350
F
100
AcDbDictionaryWithDefault
340
F
  0
DICTIONARY
  5
3A
102
{ACAD_REACTORS
330
C
102
}
330
C
100
AcDbDictionary
281
     1
  3
A0
350
3B
  3
A1
350
3C
  3
A2
350
3D
  3
A3
350
3E
  3
A4
350
3F
  3
A5
350
40
  3
A6
350
41
  3
A7
350
42
  3
A8
350
43
  3
A9
350
44
  3
B0
350
45
  3
B1
350
46
  3
B2
350
47
  3
B3
350
48
  3
B4
350
49
  3
B5
350
4A
  3
B6
350
4B
  3
B7
350
4C
  3
B8
350
4D
  3
B9
350
4E
  3
C0
350
4F
  3
C1
350
50
  3
C2
350
51
  3
C3
350
52
  3
C4
350
53
  3
C5
350
54
  3
C6
350
55
  3
C7
350
56
  3
C8
350
57
  3
C9
350
58
  3
D0
350
59
  3
D1
350
5A
  3
D2
350
5B
  0
DICTIONARY
  5
6C
102
{ACAD_REACTORS
330
C
102
}
330
C
100
AcDbDictionary
281
     1
  3
Standard
350
6D
  0
DICTIONARY
  5
29
102
{ACAD_REACTORS
330
C
102
}
330
C
100
AcDbDictionary
281
     1
  3
2dWireframe
350
2F
  3
3D Hidden
350
31
  3
3dWireframe
350
30
  3
Basic
350
2E
  3
Brighten
350
35
  3
ColorChange
350
39
  3
Conceptual
350
32
  3
Dim
350
34
  3
Facepattern
350
38
  3
Flat
350
2A
  3
FlatWithEdges
350
2B
  3
Gouraud
350
2C
  3
GouraudWithEdges
350
2D
  3
Linepattern
350
37
  3
Realistic
350
33
  3
Thicken
350
36
  0
XRECORD
  5
A8
102
{ACAD_REACTORS
330
C
102
}
330
C
100
AcDbXrecord
280
     1
 90
     1
330
6D
  0
DICTIONARY
  5
9C
102
{ACAD_REACTORS
330
C
102
}
330
C
100
AcDbDictionary
281
     1
  3
CANNOSCALE
350
A0
  3
CMLEADERSTYLE
350
9E
  3
CTABLESTYLE
350
9D
  3
DIMASSOC
350
A5
  3
HIDETEXT
350
A4
  3
INDEXCTL
350
A3
  3
LIGHTINGUNITS
350
A1
  3
MSLTSCALE
350
9F
  3
SORTENTS
350
A2
  0
XRECORD
  5
A9
102
{ACAD_REACTORS
330
C
102
}
330
C
100
AcDbXrecord
280
     1
  1
DWGPROPS COOKIE
  2

  3

  4

  6

  7

  8
Michael
  9

300
=
301
=
302
=
303
=
304
=
305
=
306
=
307
=
308
=
309
=
 40
0.002929872685
 41
2456236.994979560841
 42
2456236.997909063008
  1

 90
     0
  0
XRECORD
  5
9B
102
{ACAD_REACTORS
330
9A
102
}
330
9A
100
AcDbXrecord
280
     1
290
1
  0
XRECORD
  5
AB
102
{ACAD_REACTORS
330
AA
102
}
330
AA
100
AcDbXrecord
280
     1
 40
1.570796326795
  0
LAYOUT
  5
74
102
{ACAD_XDICTIONARY
360
B1
102
}
102
{ACAD_REACTORS
330
6A
102
}
330
6A
100
AcDbPlotSettings
  1

  2
Auto Canon Bubble-Jet BJC-1000 on MGIBSON-HOME
  4

  6

 40
0.0
 41
0.0
 42
0.0
 43
0.0
 44
0.0
 45
0.0
 46
0.0
 47
0.0
 48
0.0
 49
0.0
140
0.0
141
0.0
142
1.0
143
1.0
 70
   688
 72
     0
 73
     0
 74
     5
  7

 75
    16
147
1.0
148
0.0
149
0.0
100
AcDbLayout
  1
Layout1
 70
     1
 71
     1
 10
0.0
 20
0.0
 11
420.0
 21
297.0
 12
0.0
 22
0.0
 32
0.0
 14
100000000000000000000.0
 24
100000000000000000000.0
 34
100000000000000000000.0
 15
-100000000000000000000.0
 25
-100000000000000000000.0
 35
-100000000000000000000.0
146
0.0
 13
0.0
 23
0.0
 33
0.0
 16
1.0
 26
0.0
 36
0.0
 17
0.0
 27
1.0
 37
0.0
 76
     0
330
71
  0
LAYOUT
  5
7C
102
{ACAD_XDICTIONARY
360
B5
102
}
102
{ACAD_REACTORS
330
6A
102
}
330
6A
100
AcDbPlotSettings
  1

  2
Auto Canon Bubble-Jet BJC-1000 on MGIBSON-HOME
  4

  6

 40
0.0
 41
0.0
 42
0.0
 43
0.0
 44
0.0
 45
0.0
 46
0.0
 47
0.0
 48
0.0
 49
0.0
140
0.0
141
0.0
142
1.0
143
1.0
 70
   688
 72
     0
 73
     0
 74
     5
  7

 75
    16
147
1.0
148
0.0
149
0.0
100
AcDbLayout
  1
Layout2
 70
     1
 71
     2
 10
0.0
 20
0.0
 11
12.0
 21
9.0
 12
0.0
 22
0.0
 32
0.0
 14
0.0
 24
0.0
 34
0.0
 15
0.0
 25
0.0
 35
0.0
146
0.0
 13
0.0
 23
0.0
 33
0.0
 16
1.0
 26
0.0
 36
0.0
 17
0.0
 27
1.0
 37
0.0
 76
     0
330
79
  0
LAYOUT
  5
78
102
{ACAD_XDICTIONARY
360
B3
102
}
102
{ACAD_REACTORS
330
6A
102
}
330
6A
100
AcDbPlotSettings
  1

  2
Auto Canon Bubble-Jet BJC-1000 on MGIBSON-HOME
  4

  6

 40
0.0
 41
0.0
 42
0.0
 43
0.0
 44
0.0
 45
0.0
 46
0.0
 47
0.0
 48
0.0
 49
0.0
140
0.0
141
0.0
142
1.0
143
1.0
 70
  1712
 72
     0
 73
     0
 74
     0
  7

 75
     0
147
1.0
148
0.0
149
0.0
100
AcDbLayout
  1
Model
 70
     1
 71
     0
 10
0.0
 20
0.0
 11
12.0
 21
9.0
 12
0.0
 22
0.0
 32
0.0
 14
0.0
 24
0.0
 34
0.0
 15
0.0
 25
0.0
 35
0.0
146
0.0
 13
0.0
 23
0.0
 33
0.0
 16
1.0
 26
0.0
 36
0.0
 17
0.0
 27
1.0
 37
0.0
 76
     0
330
75
331
5F
  0
MATERIAL
  5
19
102
{ACAD_XDICTIONARY
360
1A
102
}
102
{ACAD_REACTORS
330
10
102
}
330
10
100
AcDbMaterial
  1
ByBlock
 72
     0
 43
0.020833333333
 43
0.0
 43
0.0
 43
0.0
 43
0.0
 43
0.020833333333
 43
0.0
 43
0.0
 43
0.0
 43
0.0
 43
1.0
 43
0.0
 43
0.0
 43
0.0
 43
0.0
 43
1.0
 77
     0
 47
0.020833333333
 47
0.0
 47
0.0
 47
0.0
 47
0.0
 47
0.020833333333
 47
0.0
 47
0.0
 47
0.0
 47
0.0
 47
1.0
 47
0.0
 47
0.0
 47
0.0
 47
0.0
 47
1.0
171
     0
 49
0.020833333333
 49
0.0
 49
0.0
 49
0.0
 49
0.0
 49
0.020833333333
 49
0.0
 49
0.0
 49
0.0
 49
0.0
 49
1.0
 49
0.0
 49
0.0
 49
0.0
 49
0.0
 49
1.0
175
     0
142
0.020833333333
142
0.0
142
0.0
142
0.0
142
0.0
142
0.020833333333
142
0.0
142
0.0
142
0.0
142
0.0
142
1.0
142
0.0
142
0.0
142
0.0
142
0.0
142
1.0
179
0
144
0.020833333333
144
0.0
144
0.0
144
0.0
144
0.0
144
0.020833333333
144
0.0
144
0.0
144
0.0
144
0.0
144
1.0
144
0.0
144
0.0
144
0.0
144
0.0
144
1.0
147
0.020833333333
147
0.0
147
0.0
147
0.0
147
0.0
147
0.020833333333
147
0.0
147
0.0
147
0.0
147
0.0
147
1.0
147
0.0
147
0.0
147
0.0
147
0.0
147
1.0
  0
MATERIAL
  5
11
102
{ACAD_XDICTIONARY
360
12
102
}
102
{ACAD_REACTORS
330
10
102
}
330
10
100
AcDbMaterial
  1
ByLayer
 72
     0
 43
0.020833333333
 43
0.0
 43
0.0
 43
0.0
 43
0.0
 43
0.020833333333
 43
0.0
 43
0.0
 43
0.0
 43
0.0
 43
1.0
 43
0.0
 43
0.0
 43
0.0
 43
0.0
 43
1.0
 77
     0
 47
0.020833333333
 47
0.0
 47
0.0
 47
0.0
 47
0.0
 47
0.020833333333
 47
0.0
 47
0.0
 47
0.0
 47
0.0
 47
1.0
 47
0.0
 47
0.0
 47
0.0
 47
0.0
 47
1.0
171
     0
 49
0.020833333333
 49
0.0
 49
0.0
 49
0.0
 49
0.0
 49
0.020833333333
 49
0.0
 49
0.0
 49
0.0
 49
0.0
 49
1.0
 49
0.0
 49
0.0
 49
0.0
 49
0.0
 49
1.0
175
     0
142
0.020833333333
142
0.0
142
0.0
142
0.0
142
0.0
142
0.020833333333
142
0.0
142
0.0
142
0.0
142
0.0
142
1.0
142
0.0
142
0.0
142
0.0
142
0.0
142
1.0
179
0
144
0.020833333333
144
0.0
144
0.0
144
0.0
144
0.0
144
0.020833333333
144
0.0
144
0.0
144
0.0
144
0.0
144
1.0
144
0.0
144
0.0
144
0.0
144
0.0
144
1.0
147
0.020833333333
147
0.0
147
0.0
147
0.0
147
0.0
147
0.020833333333
147
0.0
147
0.0
147
0.0
147
0.0
147
1.0
147
0.0
147
0.0
147
0.0
147
0.0
147
1.0
  0
MATERIAL
  5
21
102
{ACAD_XDICTIONARY
360
22
102
}
102
{ACAD_REACTORS
330
10
102
}
330
10
100
AcDbMaterial
  1
Global
 72
     0
 43
0.020833333333
 43
0.0
 43
0.0
 43
0.0
 43
0.0
 43
0.020833333333
 43
0.0
 43
0.0
 43
0.0
 43
0.0
 43
1.0
 43
0.0
 43
0.0
 43
0.0
 43
0.0
 43
1.0
 77
     0
 47
0.020833333333
 47
0.0
 47
0.0
 47
0.0
 47
0.0
 47
0.020833333333
 47
0.0
 47
0.0
 47
0.0
 47
0.0
 47
1.0
 47
0.0
 47
0.0
 47
0.0
 47
0.0
 47
1.0
171
     0
 49
0.020833333333
 49
0.0
 49
0.0
 49
0.0
 49
0.0
 49
0.020833333333
 49
0.0
 49
0.0
 49
0.0
 49
0.0
 49
1.0
 49
0.0
 49
0.0
 49
0.0
 49
0.0
 49
1.0
175
     0
142
0.020833333333
142
0.0
142
0.0
142
0.0
142
0.0
142
0.020833333333
142
0.0
142
0.0
142
0.0
142
0.0
142
1.0
142
0.0
142
0.0
142
0.0
142
0.0
142
1.0
179
0
144
0.020833333333
144
0.0
144
0.0
144
0.0
144
0.0
144
0.020833333333
144
0.0
144
0.0
144
0.0
144
0.0
144
1.0
144
0.0
144
0.0
144
0.0
144
0.0
144
1.0
147
0.020833333333
147
0.0
147
0.0
147
0.0
147
0.0
147
0.020833333333
147
0.0
147
0.0
147
0.0
147
0.0
147
1.0
147
0.0
147
0.0
147
0.0
147
0.0
147
1.0
  0
MLEADERSTYLE
  5
6F
102
{ACAD_REACTORS
330
6E
102
}
330
6E
100
AcDbMLeaderStyle
170
     2
171
     1
172
     0
 90
     2
 40
0.0
 41
0.0
173
     1
 91
-1056964608
340
63
 92
    -2
290
1
 42
0.09
291
1
 43
0.36
  3
Standard
 44
0.18
300

342
5D
174
     1
178
     6
175
     1
176
     0
 93
-1056964608
 45
0.18
292
0
297
0
 46
0.18
 94
-1056964608
 47
1.0
 49
1.0
140
1.0
293
1
141
0.0
294
1
177
     0
142
1.0
295
0
296
0
143
0.125
1001
ACAD_MLEADERVER
1070
     2
  0
MLINESTYLE
  5
68
102
{ACAD_REACTORS
330
67
102
}
330
67
100
AcDbMlineStyle
  2
STANDARD
 70
     0
  3

 62
   256
 51
90.0
 52
90.0
 71
     2
 49
0.5
 62
   256
  6
BYLAYER
 49
-0.5
 62
   256
  6
BYLAYER
  0
ACDBPLACEHOLDER
  5
F
102
{ACAD_REACTORS
330
E
102
}
330
E
  0
SCALE
  5
3B
102
{ACAD_REACTORS
330
3A
102
}
330
3A
100
AcDbScale
 70
     0
300
1:1
140
1.0
141
1.0
290
1
  0
SCALE
  5
3C
102
{ACAD_REACTORS
330
3A
102
}
330
3A
100
AcDbScale
 70
     0
300
1:2
140
1.0
141
2.0
290
0
  0
SCALE
  5
3D
102
{ACAD_REACTORS
330
3A
102
}
330
3A
100
AcDbScale
 70
     0
300
1:4
140
1.0
141
4.0
290
0
  0
SCALE
  5
3E
102
{ACAD_REACTORS
330
3A
102
}
330
3A
100
AcDbScale
 70
     0
300
1:5
140
1.0
141
5.0
290
0
  0
SCALE
  5
3F
102
{ACAD_REACTORS
330
3A
102
}
330
3A
100
AcDbScale
 70
     0
300
1:8
140
1.0
141
8.0
290
0
  0
SCALE
  5
40
102
{ACAD_REACTORS
330
3A
102
}
330
3A
100
AcDbScale
 70
     0
300
1:10
140
1.0
141
10.0
290
0
  0
SCALE
  5
41
102
{ACAD_REACTORS
330
3A
102
}
330
3A
100
AcDbScale
 70
     0
300
1:16
140
1.0
141
16.0
290
0
  0
SCALE
  5
42
102
{ACAD_REACTORS
330
3A
102
}
330
3A
100
AcDbScale
 70
     0
300
1:20
140
1.0
141
20.0
290
0
  0
SCALE
  5
43
102
{ACAD_REACTORS
330
3A
102
}
330
3A
100
AcDbScale
 70
     0
300
1:30
140
1.0
141
30.0
290
0
  0
SCALE
  5
44
102
{ACAD_REACTORS
330
3A
102
}
330
3A
100
AcDbScale
 70
     0
300
1:40
140
1.0
141
40.0
290
0
  0
SCALE
  5
45
102
{ACAD_REACTORS
330
3A
102
}
330
3A
100
AcDbScale
 70
     0
300
1:50
140
1.0
141
50.0
290
0
  0
SCALE
  5
46
102
{ACAD_REACTORS
330
3A
102
}
330
3A
100
AcDbScale
 70
     0
300
1:100
140
1.0
141
100.0
290
0
  0
SCALE
  5
47
102
{ACAD_REACTORS
330
3A
102
}
330
3A
100
AcDbScale
 70
     0
300
2:1
140
2.0
141
1.0
290
0
  0
SCALE
  5
48
102
{ACAD_REACTORS
330
3A
102
}
330
3A
100
AcDbScale
 70
     0
300
4:1
140
4.0
141
1.0
290
0
  0
SCALE
  5
49
102
{ACAD_REACTORS
330
3A
102
}
330
3A
100
AcDbScale
 70
     0
300
8:1
140
8.0
141
1.0
290
0
  0
SCALE
  5
4A
102
{ACAD_REACTORS
330
3A
102
}
330
3A
100
AcDbScale
 70
     0
300
10:1
140
10.0
141
1.0
290
0
  0
SCALE
  5
4B
102
{ACAD_REACTORS
330
3A
102
}
330
3A
100
AcDbScale
 70
     0
300
100:1
140
100.0
141
1.0
290
0
  0
SCALE
  5
4C
102
{ACAD_REACTORS
330
3A
102
}
330
3A
100
AcDbScale
 70
     0
300
1/128" = 1'-0"
140
0.0078125
141
12.0
290
0
  0
SCALE
  5
4D
102
{ACAD_REACTORS
330
3A
102
}
330
3A
100
AcDbScale
 70
     0
300
1/64" = 1'-0"
140
0.015625
141
12.0
290
0
  0
SCALE
  5
4E
102
{ACAD_REACTORS
330
3A
102
}
330
3A
100
AcDbScale
 70
     0
300
1/32" = 1'-0"
140
0.03125
141
12.0
290
0
  0
SCALE
  5
4F
102
{ACAD_REACTORS
330
3A
102
}
330
3A
100
AcDbScale
 70
     0
300
1/16" = 1'-0"
140
0.0625
141
12.0
290
0
  0
SCALE
  5
50
102
{ACAD_REACTORS
330
3A
102
}
330
3A
100
AcDbScale
 70
     0
300
3/32" = 1'-0"
140
0.09375
141
12.0
290
0
  0
SCALE
  5
51
102
{ACAD_REACTORS
330
3A
102
}
330
3A
100
AcDbScale
 70
     0
300
1/8" = 1'-0"
140
0.125
141
12.0
290
0
  0
SCALE
  5
52
102
{ACAD_REACTORS
330
3A
102
}
330
3A
100
AcDbScale
 70
     0
300
3/16" = 1'-0"
140
0.1875
141
12.0
290
0
  0
SCALE
  5
53
102
{ACAD_REACTORS
330
3A
102
}
330
3A
100
AcDbScale
 70
     0
300
1/4" = 1'-0"
140
0.25
141
12.0
290
0
  0
SCALE
  5
54
102
{ACAD_REACTORS
330
3A
102
}
330
3A
100
AcDbScale
 70
     0
300
3/8" = 1'-0"
140
0.375
141
12.0
290
0
  0
SCALE
  5
55
102
{ACAD_REACTORS
330
3A
102
}
330
3A
100
AcDbScale
 70
     0
300
1/2" = 1'-0"
140
0.5
141
12.0
290
0
  0
SCALE
  5
56
102
{ACAD_REACTORS
330
3A
102
}
330
3A
100
AcDbScale
 70
     0
300
3/4" = 1'-0"
140
0.75
141
12.0
290
0
  0
SCALE
  5
57
102
{ACAD_REACTORS
330
3A
102
}
330
3A
100
AcDbScale
 70
     0
300
1" = 1'-0"
140
1.0
141
12.0
290
0
  0
SCALE
  5
58
102
{ACAD_REACTORS
330
3A
102
}
330
3A
100
AcDbScale
 70
     0
300
1-1/2" = 1'-0"
140
1.5
141
12.0
290
0
  0
SCALE
  5
59
102
{ACAD_REACTORS
330
3A
102
}
330
3A
100
AcDbScale
 70
     0
300
3" = 1'-0"
140
3.0
141
12.0
290
0
  0
SCALE
  5
5A
102
{ACAD_REACTORS
330
3A
102
}
330
3A
100
AcDbScale
 70
     0
300
6" = 1'-0"
140
6.0
141
12.0
290
0
  0
SCALE
  5
5B
102
{ACAD_REACTORS
330
3A
102
}
330
3A
100
AcDbScale
 70
     0
300
1'-0" = 1'-0"
140
12.0
141
12.0
290
0
  0
TABLESTYLE
  5
6D
102
{ACAD_XDICTIONARY
360
A6
102
}
102
{ACAD_REACTORS
330
6C
102
}
330
6C
100
AcDbTableStyle
  3
Standard
 70
     0
 71
     0
 40
1.5
 41
1.5
280
     0
281
     0
  7
Standard
140
4.5
170
     2
 62
     0
 63
     7
283
     0
274
    -2
284
     1
 64
     0
275
    -2
285
     1
 65
     0
276
-2
286
     1
 66
     0
277
-2
287
     1
 67
     0
278
-2
288
     1
 68
     0
279
-2
289
     1
 69
     0
  7
Standard
140
6.0
170
     5
 62
     0
 63
     7
283
     0
274
    -2
284
     1
 64
     0
275
    -2
285
     1
 65
     0
276
-2
286
     1
 66
     0
277
-2
287
     1
 67
     0
278
-2
288
     1
 68
     0
279
-2
289
     1
 69
     0
  7
Standard
140
4.5
170
     5
 62
     0
 63
     7
283
     0
274
    -2
284
     1
 64
     0
275
    -2
285
     1
 65
     0
276
-2
286
     1
 66
     0
277
-2
287
     1
 67
     0
278
-2
288
     1
 68
     0
279
-2
289
     1
 69
     0
  0
VISUALSTYLE
  5
2F
102
{ACAD_REACTORS
330
29
102
}
330
29
100
AcDbVisualStyle
  2
2dWireframe
 70
     4
 71
     0
 72
     2
 73
     0
 90
     0
 40
-0.6
 41
-30.0
 62
     5
 63
     7
 74
     1
 91
     4
 64
     7
 65
   257
 75
     1
175
     1
 42
1.0
 92
     0
 66
   257
 43
1.0
 76
     1
 77
     6
 78
     2
 67
     7
 79
     5
170
     0
171
     0
290
0
174
     0
 93
     1
 44
0.0
173
     0
291
0
 45
0.0
1001
ACAD
1000
AcDbSavedByObjectVersion
1070
     0
  0
VISUALSTYLE
  5
31
102
{ACAD_REACTORS
330
29
102
}
330
29
100
AcDbVisualStyle
  2
3D Hidden
 70
     6
 71
     1
 72
     2
 73
     2
 90
     0
 40
-0.6
 41
-30.0
 62
     5
 63
     7
 74
     2
 91
     2
 64
     7
 65
   257
 75
     2
175
     1
 42
40.0
 92
     0
 66
   257
 43
1.0
 76
     1
 77
     6
 78
     2
 67
     7
 79
     3
170
     0
171
     0
290
0
174
     0
 93
     1
 44
0.0
173
     0
291
0
 45
0.0
1001
ACAD
1000
AcDbSavedByObjectVersion
1070
     0
  0
VISUALSTYLE
  5
30
102
{ACAD_REACTORS
330
29
102
}
330
29
100
AcDbVisualStyle
  2
3dWireframe
 70
     5
 71
     0
 72
     2
 73
     0
 90
     0
 40
-0.6
 41
-30.0
 62
     5
 63
     7
 74
     1
 91
     4
 64
     7
 65
   257
 75
     1
175
     1
 42
1.0
 92
     0
 66
   257
 43
1.0
 76
     1
 77
     6
 78
     2
 67
     7
 79
     5
170
     0
171
     0
290
0
174
     0
 93
     1
 44
0.0
173
     0
291
0
 45
0.0
1001
ACAD
1000
AcDbSavedByObjectVersion
1070
     0
  0
VISUALSTYLE
  5
2E
102
{ACAD_REACTORS
330
29
102
}
330
29
100
AcDbVisualStyle
  2
Basic
 70
     7
 71
     1
 72
     0
 73
     1
 90
     0
 40
-0.6
 41
-30.0
 62
     5
 63
     7
 74
     0
 91
     4
 64
     7
 65
   257
 75
     1
175
     1
 42
1.0
 92
     8
 66
     7
 43
1.0
 76
     1
 77
     6
 78
     2
 67
     7
 79
     5
170
     0
171
     0
290
0
174
     0
 93
     1
 44
0.0
173
     0
291
1
 45
0.0
1001
ACAD
1000
AcDbSavedByObjectVersion
1070
     0
  0
VISUALSTYLE
  5
35
102
{ACAD_REACTORS
330
29
102
}
330
29
100
AcDbVisualStyle
  2
Brighten
 70
    12
 71
     2
 72
     2
 73
     0
 90
     0
 40
-0.6
 41
-30.0
 62
     5
 63
     7
 74
     1
 91
     4
 64
     7
 65
   257
 75
     1
175
     1
 42
1.0
 92
     8
 66
     7
 43
1.0
 76
     1
 77
     6
 78
     2
 67
     7
 79
     5
170
     0
171
     0
290
0
174
     0
 93
     1
 44
50.0
173
     0
291
1
 45
0.0
1001
ACAD
1000
AcDbSavedByObjectVersion
1070
     0
  0
VISUALSTYLE
  5
39
102
{ACAD_REACTORS
330
29
102
}
330
29
100
AcDbVisualStyle
  2
ColorChange
 70
    16
 71
     2
 72
     2
 73
     3
 90
     0
 40
-0.6
 41
-30.0
 62
     5
 63
     8
 74
     1
 91
     4
 64
     7
 65
   257
 75
     1
175
     1
 42
1.0
 92
     8
 66
     8
 43
1.0
 76
     1
 77
     6
 78
     2
 67
     7
 79
     5
170
     0
171
     0
290
0
174
     0
 93
     1
 44
0.0
173
     0
291
1
 45
0.0
1001
ACAD
1000
AcDbSavedByObjectVersion
1070
     0
  0
VISUALSTYLE
  5
32
102
{ACAD_REACTORS
330
29
102
}
330
29
100
AcDbVisualStyle
  2
Conceptual
 70
     9
 71
     3
 72
     2
 73
     0
 90
     0
 40
-0.6
 41
-30.0
 62
     5
 63
     7
 74
     2
 91
     2
 64
     7
 65
   257
 75
     1
175
     1
 42
40.0
 92
     8
 66
     7
 43
1.0
 76
     1
 77
     6
 78
     2
 67
     7
 79
     3
170
     0
171
     0
290
0
174
     0
 93
     1
 44
0.0
173
     0
291
0
 45
0.0
1001
ACAD
1000
AcDbSavedByObjectVersion
1070
     0
  0
VISUALSTYLE
  5
34
102
{ACAD_REACTORS
330
29
102
}
330
29
100
AcDbVisualStyle
  2
Dim
 70
    11
 71
     2
 72
     2
 73
     0
 90
     0
 40
-0.6
 41
-30.0
 62
     5
 63
     7
 74
     1
 91
     4
 64
     7
 65
   257
 75
     1
175
     1
 42
1.0
 92
     8
 66
     7
 43
1.0
 76
     1
 77
     6
 78
     2
 67
     7
 79
     5
170
     0
171
     0
290
0
174
     0
 93
     1
 44
-50.0
173
     0
291
1
 45
0.0
1001
ACAD
1000
AcDbSavedByObjectVersion
1070
     0
  0
VISUALSTYLE
  5
38
102
{ACAD_REACTORS
330
29
102
}
330
29
100
AcDbVisualStyle
  2
Facepattern
 70
    15
 71
     2
 72
     2
 73
     0
 90
     0
 40
-0.6
 41
-30.0
 62
     5
 63
     7
 74
     1
 91
     4
 64
     7
 65
   257
 75
     1
175
     1
 42
1.0
 92
     8
 66
     7
 43
1.0
 76
     1
 77
     6
 78
     2
 67
     7
 79
     5
170
     0
171
     0
290
0
174
     0
 93
     1
 44
0.0
173
     0
291
1
 45
0.0
1001
ACAD
1000
AcDbSavedByObjectVersion
1070
     0
  0
VISUALSTYLE
  5
2A
102
{ACAD_REACTORS
330
29
102
}
330
29
100
AcDbVisualStyle
  2
Flat
 70
     0
 71
     2
 72
     1
 73
     1
 90
     2
 40
-0.6
 41
30.0
 62
     5
 63
     7
 74
     0
 91
     4
 64
     7
 65
   257
 75
     1
175
     1
 42
1.0
 92
     8
 66
     7
 43
1.0
 76
     1
 77
     6
 78
     2
 67
     7
 79
     5
170
     0
171
     0
290
0
174
     0
 93
    13
 44
0.0
173
     0
291
1
 45
0.0
1001
ACAD
1000
AcDbSavedByObjectVersion
1070
     0
  0
VISUALSTYLE
  5
2B
102
{ACAD_REACTORS
330
29
102
}
330
29
100
AcDbVisualStyle
  2
FlatWithEdges
 70
     1
 71
     2
 72
     1
 73
     1
 90
     2
 40
-0.6
 41
30.0
 62
     5
 63
     7
 74
     1
 91
     4
 64
     7
 65
   257
 75
     1
175
     1
 42
1.0
 92
     0
 66
   257
 43
1.0
 76
     1
 77
     6
 78
     2
 67
     7
 79
     5
170
     0
171
     0
290
0
174
     0
 93
    13
 44
0.0
173
     0
291
1
 45
0.0
1001
ACAD
1000
AcDbSavedByObjectVersion
1070
     0
  0
VISUALSTYLE
  5
2C
102
{ACAD_REACTORS
330
29
102
}
330
29
100
AcDbVisualStyle
  2
Gouraud
 70
     2
 71
     2
 72
     2
 73
     1
 90
     2
 40
-0.6
 41
30.0
 62
     5
 63
     7
 74
     0
 91
     4
 64
     7
 65
   257
 75
     1
175
     1
 42
1.0
 92
     0
 66
     7
 43
1.0
 76
     1
 77
     6
 78
     2
 67
     7
 79
     5
170
     0
171
     0
290
0
174
     0
 93
    13
 44
0.0
173
     0
291
1
 45
0.0
1001
ACAD
1000
AcDbSavedByObjectVersion
1070
     0
  0
VISUALSTYLE
  5
2D
102
{ACAD_REACTORS
330
29
102
}
330
29
100
AcDbVisualStyle
  2
GouraudWithEdges
 70
     3
 71
     2
 72
     2
 73
     1
 90
     2
 40
-0.6
 41
30.0
 62
     5
 63
     7
 74
     1
 91
     4
 64
     7
 65
   257
 75
     1
175
     1
 42
1.0
 92
     0
 66
   257
 43
1.0
 76
     1
 77
     6
 78
     2
 67
     7
 79
     5
170
     0
171
     0
290
0
174
     0
 93
    13
 44
0.0
173
     0
291
1
 45
0.0
1001
ACAD
1000
AcDbSavedByObjectVersion
1070
     0
  0
VISUALSTYLE
  5
37
102
{ACAD_REACTORS
330
29
102
}
330
29
100
AcDbVisualStyle
  2
Linepattern
 70
    14
 71
     2
 72
     2
 73
     0
 90
     0
 40
-0.6
 41
-30.0
 62
     5
 63
     7
 74
     1
 91
     4
 64
     7
 65
   257
 75
     7
175
     7
 42
1.0
 92
     8
 66
     7
 43
1.0
 76
     1
 77
     6
 78
     2
 67
     7
 79
     5
170
     0
171
     0
290
0
174
     0
 93
     1
 44
0.0
173
     0
291
1
 45
0.0
1001
ACAD
1000
AcDbSavedByObjectVersion
1070
     0
  0
VISUALSTYLE
  5
33
102
{ACAD_REACTORS
330
29
102
}
330
29
100
AcDbVisualStyle
  2
Realistic
 70
     8
 71
     2
 72
     2
 73
     0
 90
     0
 40
-0.6
 41
-30.0
 62
     5
 63
     7
 74
     1
 91
     0
 64
     7
 65
   257
 75
     1
175
     1
 42
1.0
 92
     8
 66
     8
 43
1.0
 76
     1
 77
     6
 78
     2
 67
     7
 79
     5
170
     0
171
     0
290
0
174
     0
 93
    13
 44
0.0
173
     0
291
0
 45
0.0
1001
ACAD
1000
AcDbSavedByObjectVersion
1070
     0
  0
VISUALSTYLE
  5
36
102
{ACAD_REACTORS
330
29
102
}
330
29
100
AcDbVisualStyle
  2
Thicken
 70
    13
 71
     2
 72
     2
 73
     0
 90
     0
 40
-0.6
 41
-30.0
 62
     5
 63
     7
 74
     1
 91
     4
 64
     7
 65
   257
 75
     1
175
     1
 42
1.0
 92
    12
 66
     7
 43
1.0
 76
     1
 77
     6
 78
     2
 67
     7
 79
     5
170
     0
171
     0
290
0
174
     0
 93
     1
 44
0.0
173
     0
291
1
 45
0.0
1001
ACAD
1000
AcDbSavedByObjectVersion
1070
     0
  0
DICTIONARYVAR
  5
A0
102
{ACAD_REACTORS
330
9C
102
}
330
9C
100
DictionaryVariables
280
     0
  1
1:1
  0
DICTIONARYVAR
  5
9E
102
{ACAD_REACTORS
330
9C
102
}
330
9C
100
DictionaryVariables
280
     0
  1
STANDARD
  0
DICTIONARYVAR
  5
9D
102
{ACAD_REACTORS
330
9C
102
}
330
9C
100
DictionaryVariables
280
     0
  1
STANDARD
  0
DICTIONARYVAR
  5
A5
102
{ACAD_REACTORS
330
9C
102
}
330
9C
100
DictionaryVariables
280
     0
  1
2
  0
DICTIONARYVAR
  5
A4
102
{ACAD_REACTORS
330
9C
102
}
330
9C
100
DictionaryVariables
280
     0
  1
1
  0
DICTIONARYVAR
  5
A3
102
{ACAD_REACTORS
330
9C
102
}
330
9C
100
DictionaryVariables
280
     0
  1
0
  0
DICTIONARYVAR
  5
A1
102
{ACAD_REACTORS
330
9C
102
}
330
9C
100
DictionaryVariables
280
     0
  1
2
  0
DICTIONARYVAR
  5
9F
102
{ACAD_REACTORS
330
9C
102
}
330
9C
100
DictionaryVariables
280
     0
  1
1
  0
DICTIONARYVAR
  5
A2
102
{ACAD_REACTORS
330
9C
102
}
330
9C
100
DictionaryVariables
280
     0
  1
127
  0
DICTIONARY
  5
B1
330
74
100
AcDbDictionary
280
     1
281
     1
  3
ACAD_XREC_ROUNDTRIP
360
B2
  0
DICTIONARY
  5
B5
330
7C
100
AcDbDictionary
280
     1
281
     1
  3
ACAD_XREC_ROUNDTRIP
360
B6
  0
DICTIONARY
  5
B3
330
78
100
AcDbDictionary
280
     1
281
     1
  3
ACAD_XREC_ROUNDTRIP
360
B4
  0
DICTIONARY
  5
1A
330
19
100
AcDbDictionary
280
     1
281
     1
  3
ACAD_XREC_ROUNDTRIP
360
AD
  3
BUMPTILE
360
1C
  3
DIFFUSETILE
360
1B
  3
OPACITYTILE
360
1F
  3
REFLECTIONTILE
360
1E
  3
REFRACTIONTILE
360
20
  3
SPECULARTILE
360
1D
  0
DICTIONARY
  5
12
330
11
100
AcDbDictionary
280
     1
281
     1
  3
ACAD_XREC_ROUNDTRIP
360
AC
  3
BUMPTILE
360
14
  3
DIFFUSETILE
360
13
  3
OPACITYTILE
360
17
  3
REFLECTIONTILE
360
16
  3
REFRACTIONTILE
360
18
  3
SPECULARTILE
360
15
  0
DICTIONARY
  5
22
330
21
100
AcDbDictionary
280
     1
281
     1
  3
ACAD_XREC_ROUNDTRIP
360
AE
  3
BUMPTILE
360
24
  3
DIFFUSETILE
360
23
  3
OPACITYTILE
360
27
  3
REFLECTIONTILE
360
26
  3
REFRACTIONTILE
360
28
  3
SPECULARTILE
360
25
  0
DICTIONARY
  5
A6
330
6D
100
AcDbDictionary
280
     1
281
     1
  3
ACAD_ROUNDTRIP_2008_TABLESTYLE_CELLSTYLEMAP
360
A7
  3
ACAD_XREC_ROUNDTRIP
360
B0
  0
XRECORD
  5
B2
102
{ACAD_REACTORS
330
B1
102
}
330
B1
100
AcDbXrecord
280
     1
102
SHADEPLOT
 70
     0
102
SHADEPLOTRESLEVEL
 70
     2
102
SHADEPLOTCUSTOMDPI
 70
   300
  0
XRECORD
  5
B6
102
{ACAD_REACTORS
330
B5
102
}
330
B5
100
AcDbXrecord
280
     1
102
SHADEPLOT
 70
     0
102
SHADEPLOTRESLEVEL
 70
     2
102
SHADEPLOTCUSTOMDPI
 70
   300
  0
XRECORD
  5
B4
102
{ACAD_REACTORS
330
B3
102
}
330
B3
100
AcDbXrecord
280
     1
102
SHADEPLOT
 70
     0
102
SHADEPLOTRESLEVEL
 70
     2
102
SHADEPLOTCUSTOMDPI
 70
   300
  0
XRECORD
  5
AD
102
{ACAD_REACTORS
330
1A
102
}
330
1A
100
AcDbXrecord
280
     1
102
MATERIAL
148
0.0
149
0.0
149
0.0
 93
     0
 94
   127
282
     0
 72
     0
 77
     0
171
     0
175
     0
179
0
273
     0
  0
XRECORD
  5
1C
102
{ACAD_REACTORS
330
1A
102
}
330
1A
100
AcDbXrecord
280
     1
270
     1
271
     1
  0
XRECORD
  5
1B
102
{ACAD_REACTORS
330
1A
102
}
330
1A
100
AcDbXrecord
280
     1
270
     1
271
     1
  0
XRECORD
  5
1F
102
{ACAD_REACTORS
330
1A
102
}
330
1A
100
AcDbXrecord
280
     1
270
     1
271
     1
  0
XRECORD
  5
1E
102
{ACAD_REACTORS
330
1A
102
}
330
1A
100
AcDbXrecord
280
     1
270
     1
271
     1
  0
XRECORD
  5
20
102
{ACAD_REACTORS
330
1A
102
}
330
1A
100
AcDbXrecord
280
     1
270
     1
271
     1
  0
XRECORD
  5
1D
102
{ACAD_REACTORS
330
1A
102
}
330
1A
100
AcDbXrecord
280
     1
270
     1
271
     1
  0
XRECORD
  5
AC
102
{ACAD_REACTORS
330
12
102
}
330
12
100
AcDbXrecord
280
     1
102
MATERIAL
148
0.0
149
0.0
149
0.0
 93
     0
 94
   127
282
     0
 72
     0
 77
     0
171
     0
175
     0
179
0
273
     0
  0
XRECORD
  5
14
102
{ACAD_REACTORS
330
12
102
}
330
12
100
AcDbXrecord
280
     1
270
     1
271
     1
  0
XRECORD
  5
13
102
{ACAD_REACTORS
330
12
102
}
330
12
100
AcDbXrecord
280
     1
270
     1
271
     1
  0
XRECORD
  5
17
102
{ACAD_REACTORS
330
12
102
}
330
12
100
AcDbXrecord
280
     1
270
     1
271
     1
  0
XRECORD
  5
16
102
{ACAD_REACTORS
330
12
102
}
330
12
100
AcDbXrecord
280
     1
270
     1
271
     1
  0
XRECORD
  5
18
102
{ACAD_REACTORS
330
12
102
}
330
12
100
AcDbXrecord
280
     1
270
     1
271
     1
  0
XRECORD
  5
15
102
{ACAD_REACTORS
330
12
102
}
330
12
100
AcDbXrecord
280
     1
270
     1
271
     1
  0
XRECORD
  5
AE
102
{ACAD_REACTORS
330
22
102
}
330
22
100
AcDbXrecord
280
     1
102
MATERIAL
148
0.0
149
0.0
149
0.0
 93
     0
 94
   127
282
     0
 72
     0
 77
     0
171
     0
175
     0
179
0
273
     0
  0
XRECORD
  5
24
102
{ACAD_REACTORS
330
22
102
}
330
22
100
AcDbXrecord
280
     1
270
     1
271
     1
  0
XRECORD
  5
23
102
{ACAD_REACTORS
330
22
102
}
330
22
100
AcDbXrecord
280
     1
270
     1
271
     1
  0
XRECORD
  5
27
102
{ACAD_REACTORS
330
22
102
}
330
22
100
AcDbXrecord
280
     1
270
     1
271
     1
  0
XRECORD
  5
26
102
{ACAD_REACTORS
330
22
102
}
330
22
100
AcDbXrecord
280
     1
270
     1
271
     1
  0
XRECORD
  5
28
102
{ACAD_REACTORS
330
22
102
}
330
22
100
AcDbXrecord
280
     1
270
     1
271
     1
  0
XRECORD
  5
25
102
{ACAD_REACTORS
330
22
102
}
330
22
100
AcDbXrecord
280
     1
270
     1
271
     1
  0
CELLSTYLEMAP
  5
A7
102
{ACAD_REACTORS
330
A6
102
}
330
A6
100
AcDbCellStyleMap
 90
     3
300
CELLSTYLE
  1
TABLEFORMAT_BEGIN
 90
     5
170
     1
 91
     0
 92
 32768
 62
   257
 93
     1
300
CONTENTFORMAT
  1
CONTENTFORMAT_BEGIN
 90
     0
 91
     0
 92
   512
 93
     0
300

 40
0.0
140
1.0
 94
     5
 62
     0
340
5D
144
6.0
309
CONTENTFORMAT_END
171
     1
301
MARGIN
  1
CELLMARGIN_BEGIN
 40
1.5
 40
1.5
 40
1.5
 40
1.5
 40
4.5
 40
4.5
309
CELLMARGIN_END
 94
     6
 95
     1
302
GRIDFORMAT
  1
GRIDFORMAT_BEGIN
 90
     0
 91
     1
 62
     0
 92
    -2
340
0
 93
     0
 40
1.125
309
GRIDFORMAT_END
 95
     2
302
GRIDFORMAT
  1
GRIDFORMAT_BEGIN
 90
     0
 91
     1
 62
     0
 92
    -2
340
0
 93
     0
 40
1.125
309
GRIDFORMAT_END
 95
     4
302
GRIDFORMAT
  1
GRIDFORMAT_BEGIN
 90
     0
 91
     1
 62
     0
 92
    -2
340
0
 93
     0
 40
1.125
309
GRIDFORMAT_END
 95
     8
302
GRIDFORMAT
  1
GRIDFORMAT_BEGIN
 90
     0
 91
     1
 62
     0
 92
    -2
340
0
 93
     0
 40
1.125
309
GRIDFORMAT_END
 95
    16
302
GRIDFORMAT
  1
GRIDFORMAT_BEGIN
 90
     0
 91
     1
 62
     0
 92
    -2
340
0
 93
     0
 40
1.125
309
GRIDFORMAT_END
 95
    32
302
GRIDFORMAT
  1
GRIDFORMAT_BEGIN
 90
     0
 91
     1
 62
     0
 92
    -2
340
0
 93
     0
 40
1.125
309
GRIDFORMAT_END
309
TABLEFORMAT_END
  1
CELLSTYLE_BEGIN
 90
     1
 91
     1
300
_TITLE
309
CELLSTYLE_END
300
CELLSTYLE
  1
TABLEFORMAT_BEGIN
 90
     5
170
     1
 91
     0
 92
     0
 62
   257
 93
     1
300
CONTENTFORMAT
  1
CONTENTFORMAT_BEGIN
 90
     0
 91
     0
 92
   512
 93
     0
300

 40
0.0
140
1.0
 94
     5
 62
     0
340
5D
144
4.5
309
CONTENTFORMAT_END
171
     1
301
MARGIN
  1
CELLMARGIN_BEGIN
 40
1.5
 40
1.5
 40
1.5
 40
1.5
 40
4.5
 40
4.5
309
CELLMARGIN_END
 94
     6
 95
     1
302
GRIDFORMAT
  1
GRIDFORMAT_BEGIN
 90
     0
 91
     1
 62
     0
 92
    -2
340
0
 93
     0
 40
1.125
309
GRIDFORMAT_END
 95
     2
302
GRIDFORMAT
  1
GRIDFORMAT_BEGIN
 90
     0
 91
     1
 62
     0
 92
    -2
340
0
 93
     0
 40
1.125
309
GRIDFORMAT_END
 95
     4
302
GRIDFORMAT
  1
GRIDFORMAT_BEGIN
 90
     0
 91
     1
 62
     0
 92
    -2
340
0
 93
     0
 40
1.125
309
GRIDFORMAT_END
 95
     8
302
GRIDFORMAT
  1
GRIDFORMAT_BEGIN
 90
     0
 91
     1
 62
     0
 92
    -2
340
0
 93
     0
 40
1.125
309
GRIDFORMAT_END
 95
    16
302
GRIDFORMAT
  1
GRIDFORMAT_BEGIN
 90
     0
 91
     1
 62
     0
 92
    -2
340
0
 93
     0
 40
1.125
309
GRIDFORMAT_END
 95
    32
302
GRIDFORMAT
  1
GRIDFORMAT_BEGIN
 90
     0
 91
     1
 62
     0
 92
    -2
340
0
 93
     0
 40
1.125
309
GRIDFORMAT_END
309
TABLEFORMAT_END
  1
CELLSTYLE_BEGIN
 90
     2
 91
     1
300
_HEADER
309
CELLSTYLE_END
300
CELLSTYLE
  1
TABLEFORMAT_BEGIN
 90
     5
170
     1
 91
     0
 92
     0
 62
   257
 93
     1
300
CONTENTFORMAT
  1
CONTENTFORMAT_BEGIN
 90
     0
 91
     0
 92
   512
 93
     0
300

 40
0.0
140
1.0
 94
     2
 62
     0
340
5D
144
4.5
309
CONTENTFORMAT_END
171
     1
301
MARGIN
  1
CELLMARGIN_BEGIN
 40
1.5
 40
1.5
 40
1.5
 40
1.5
 40
4.5
 40
4.5
309
CELLMARGIN_END
 94
     6
 95
     1
302
GRIDFORMAT
  1
GRIDFORMAT_BEGIN
 90
     0
 91
     1
 62
     0
 92
    -2
340
0
 93
     0
 40
1.125
309
GRIDFORMAT_END
 95
     2
302
GRIDFORMAT
  1
GRIDFORMAT_BEGIN
 90
     0
 91
     1
 62
     0
 92
    -2
340
0
 93
     0
 40
1.125
309
GRIDFORMAT_END
 95
     4
302
GRIDFORMAT
  1
GRIDFORMAT_BEGIN
 90
     0
 91
     1
 62
     0
 92
    -2
340
0
 93
     0
 40
1.125
309
GRIDFORMAT_END
 95
     8
302
GRIDFORMAT
  1
GRIDFORMAT_BEGIN
 90
     0
 91
     1
 62
     0
 92
    -2
340
0
 93
     0
 40
1.125
309
GRIDFORMAT_END
 95
    16
302
GRIDFORMAT
  1
GRIDFORMAT_BEGIN
 90
     0
 91
     1
 62
     0
 92
    -2
340
0
 93
     0
 40
1.125
309
GRIDFORMAT_END
 95
    32
302
GRIDFORMAT
  1
GRIDFORMAT_BEGIN
 90
     0
 91
     1
 62
     0
 92
    -2
340
0
 93
     0
 40
1.125
309
GRIDFORMAT_END
309
TABLEFORMAT_END
  1
CELLSTYLE_BEGIN
 90
     3
 91
     2
300
_DATA
309
CELLSTYLE_END
  0
XRECORD
  5
B0
102
{ACAD_REACTORS
330
A6
102
}
330
A6
100
AcDbXrecord
280
     1
102
ACAD_ROUNDTRIP_PRE2007_TABLESTYLE
 90
   512
 91
     0
  1

 92
   512
 93
     0
  2

 94
   512
 95
     0
  3

  0
ENDSEC
  0
EOF
