  0
SECTION
  2
HEADER
  9
$ACADVER
  1
AC1015
  9
$ACADMAINTVER
 70
    20
  9
$DWGCODEPAGE
  3
ANSI_1252
  9
$INSBASE
 10
0.0
 20
0.0
 30
0.0
  9
$EXTMIN
 10
-168.5
 20
22.558299184554
 30
0.0
  9
$EXTMAX
 10
-17.623944278512
 20
136.0
 30
0.0
  9
$LIMMIN
 10
-168.5
 20
22.558299184554
  9
$LIMMAX
 10
-17.623944278512
 20
136.0
  9
$ORTHOMODE
 70
     0
  9
$REGENMODE
 70
     1
  9
$FILLMODE
 70
     1
  9
$QTEXTMODE
 70
     0
  9
$MIRRTEXT
 70
     0
  9
$LTSCALE
 40
1.0
  9
$ATTMODE
 70
     1
  9
$TEXTSIZE
 40
2.5
  9
$TRACEWID
 40
1.0
  9
$TEXTSTYLE
  7
Standard
  9
$CLAYER
  8
0
  9
$CELTYPE
  6
ByLayer
  9
$CECOLOR
 62
   256
  9
$CELTSCALE
 40
1.0
  9
$DISPSILH
 70
     0
  9
$DIMSCALE
 40
1.0
  9
$DIMASZ
 40
2.5
  9
$DIMEXO
 40
0.625
  9
$DIMDLI
 40
3.75
  9
$DIMRND
 40
0.0
  9
$DIMDLE
 40
0.0
  9
$DIMEXE
 40
1.25
  9
$DIMTP
 40
0.0
  9
$DIMTM
 40
0.0
  9
$DIMTXT
 40
2.5
  9
$DIMCEN
 40
2.5
  9
$DIMTSZ
 40
0.0
  9
$DIMTOL
 70
     0
  9
$DIMLIM
 70
     0
  9
$DIMTIH
 70
     0
  9
$DIMTOH
 70
     0
  9
$DIMSE1
 70
     0
  9
$DIMSE2
 70
     0
  9
$DIMTAD
 70
     1
  9
$DIMZIN
 70
     8
  9
$DIMBLK
  1

  9
$DIMASO
 70
     1
  9
$DIMSHO
 70
     1
  9
$DIMPOST
  1

  9
$DIMAPOST
  1

  9
$DIMALT
 70
     0
  9
$DIMALTD
 70
     3
  9
$DIMALTF
 40
0.03937007874
  9
$DIMLFAC
 40
1.0
  9
$DIMTOFL
 70
     1
  9
$DIMTVP
 40
0.0
  9
$DIMTIX
 70
     0
  9
$DIMSOXD
 70
     0
  9
$DIMSAH
 70
     0
  9
$DIMBLK1
  1

  9
$DIMBLK2
  1

  9
$DIMSTYLE
  2
ISO-25
  9
$DIMCLRD
 70
     0
  9
$DIMCLRE
 70
     0
  9
$DIMCLRT
 70
     0
  9
$DIMTFAC
 40
1.0
  9
$DIMGAP
 40
0.625
  9
$DIMJUST
 70
     0
  9
$DIMSD1
 70
     0
  9
$DIMSD2
 70
     0
  9
$DIMTOLJ
 70
     0
  9
$DIMTZIN
 70
     8
  9
$DIMALTZ
 70
     0
  9
$DIMALTTZ
 70
     0
  9
$DIMUPT
 70
     0
  9
$DIMDEC
 70
     2
  9
$DIMTDEC
 70
     2
  9
$DIMALTU
 70
     2
  9
$DIMALTTD
 70
     3
  9
$DIMTXSTY
  7
Standard
  9
$DIMAUNIT
 70
     0
  9
$DIMADEC
 70
     0
  9
$DIMALTRND
 40
0.0
  9
$DIMAZIN
 70
     0
  9
$DIMDSEP
 70
    44
  9
$DIMATFIT
 70
     3
  9
$DIMFRAC
 70
     0
  9
$DIMLDRBLK
  1

  9
$DIMLUNIT
 70
     2
  9
$DIMLWD
 70
    -2
  9
$DIMLWE
 70
    -2
  9
$DIMTMOVE
 70
     0
  9
$LUNITS
 70
     2
  9
$LUPREC
 70
     4
  9
$SKETCHINC
 40
1.0
  9
$FILLETRAD
 40
0.0
  9
$AUNITS
 70
     0
  9
$AUPREC
 70
     0
  9
$MENU
  1
.
  9
$ELEVATION
 40
0.0
  9
$PELEVATION
 40
0.0
  9
$THICKNESS
 40
0.0
  9
$LIMCHECK
 70
     0
  9
$CHAMFERA
 40
0.0
  9
$CHAMFERB
 40
0.0
  9
$CHAMFERC
 40
0.0
  9
$CHAMFERD
 40
0.0
  9
$SKPOLY
 70
     0
  9
$TDCREATE
 40
2456236.994979560841
  9
$TDUCREATE
 40
2456237.328312892932
  9
$TDUPDATE
 40
2456236.997909063008
  9
$TDUUPDATE
 40
2456237.331242396031
  9
$TDINDWG
 40
0.0029298727
  9
$TDUSRTIMER
 40
0.0029298727
  9
$USRTIMER
 70
     1
  9
$ANGBASE
 50
0.0
  9
$ANGDIR
 70
     0
  9
$PDMODE
 70
     0
  9
$PDSIZE
 40
0.0
  9
$PLINEWID
 40
0.0
  9
$SPLFRAME
 70
     0
  9
$SPLINETYPE
 70
     6
  9
$SPLINESEGS
 70
     8
  9
$HANDSEED
  5
20d
  9
$SURFTAB1
 70
     6
  9
$SURFTAB2
 70
     6
  9
$SURFTYPE
 70
     6
  9
$SURFU
 70
     6
  9
$SURFV
 70
     6
  9
$UCSBASE
  2

  9
$UCSNAME
  2

  9
$UCSORG
 10
0.0
 20
0.0
 30
0.0
  9
$UCSXDIR
 10
1.0
 20
0.0
 30
0.0
  9
$UCSYDIR
 10
0.0
 20
1.0
 30
0.0
  9
$UCSORTHOREF
  2

  9
$UCSORTHOVIEW
 70
     0
  9
$UCSORGTOP
 10
0.0
 20
0.0
 30
0.0
  9
$UCSORGBOTTOM
 10
0.0
 20
0.0
 30
0.0
  9
$UCSORGLEFT
 10
0.0
 20
0.0
 30
0.0
  9
$UCSORGRIGHT
 10
0.0
 20
0.0
 30
0.0
  9
$UCSORGFRONT
 10
0.0
 20
0.0
 30
0.0
  9
$UCSORGBACK
 10
0.0
 20
0.0
 30
0.0
  9
$PUCSBASE
  2

  9
$PUCSNAME
  2

  9
$PUCSORG
 10
0.0
 20
0.0
 30
0.0
  9
$PUCSXDIR
 10
1.0
 20
0.0
 30
0.0
  9
$PUCSYDIR
 10
0.0
 20
1.0
 30
0.0
  9
$PUCSORTHOREF
  2

  9
$PUCSORTHOVIEW
 70
     0
  9
$PUCSORGTOP
 10
0.0
 20
0.0
 30
0.0
  9
$PUCSORGBOTTOM
 10
0.0
 20
0.0
 30
0.0
  9
$PUCSORGLEFT
 10
0.0
 20
0.0
 30
0.0
  9
$PUCSORGRIGHT
 10
0.0
 20
0.0
 30
0.0
  9
$PUCSORGFRONT
 10
0.0
 20
0.0
 30
0.0
  9
$PUCSORGBACK
 10
0.0
 20
0.0
 30
0.0
  9
$USERI1
 70
     0
  9
$USERI2
 70
     0
  9
$USERI3
 70
     0
  9
$USERI4
 70
     0
  9
$USERI5
 70
     0
  9
$USERR1
 40
0.0
  9
$USERR2
 40
0.0
  9
$USERR3
 40
0.0
  9
$USERR4
 40
0.0
  9
$USERR5
 40
0.0
  9
$WORLDVIEW
 70
     1
  9
$SHADEDGE
 70
     3
  9
$SHADEDIF
 70
    70
  9
$TILEMODE
 70
     1
  9
$MAXACTVP
 70
    64
  9
$PINSBASE
 10
0.0
 20
0.0
 30
0.0
  9
$PLIMCHECK
 70
     0
  9
$PEXTMIN
 10
100000000000000000000.0
 20
100000000000000000000.0
 30
100000000000000000000.0
  9
$PEXTMAX
 10
-100000000000000000000.0
 20
-100000000000000000000.0
 30
-100000000000000000000.0
  9
$PLIMMIN
 10
0.0
 20
0.0
  9
$PLIMMAX
 10
420.0
 20
297.0
  9
$UNITMODE
 70
     0
  9
$VISRETAIN
 70
     1
  9
$PLINEGEN
 70
     0
  9
$PSLTSCALE
 70
     1
  9
$TREEDEPTH
 70
  3020
  9
$CMLSTYLE
  2
Standard
  9
$CMLJUST
 70
     0
  9
$CMLSCALE
 40
20.0
  9
$PROXYGRAPHICS
 70
     1
  9
$MEASUREMENT
 70
     1
  9
$CELWEIGHT
370
-1
  9
$ENDCAPS
280
     0
  9
$JOINSTYLE
280
     0
  9
$LWDISPLAY
290
0
  9
$INSUNITS
 70
     0
  9
$HYPERLINKBASE
  1

  9
$STYLESHEET
  1

  9
$XEDIT
290
1
  9
$CEPSNTYPE
380
0
  9
$PSTYLEMODE
290
1
  9
$FINGERPRINTGUID
  2
{9F64BE1D-7005-473A-A8E1-C681473DCB35}
  9
$VERSIONGUID
  2
{14C65E86-4364-4B17-B71B-D4CF0DEE0ACB}
  9
$EXTNAMES
290
1
  9
$PSVPSCALE
 40
0.0
  9
$OLESTARTUP
290
0
  0
ENDSEC
  0
SECTION
  2
CLASSES
  0
CLASS
  1
ACDBDICTIONARYWDFLT
  2
AcDbDictionaryWithDefault
  3
ObjectDBX Classes
 90
     0
280
     0
281
     0
  0
CLASS
  1
MATERIAL
  2
AcDbMaterial
  3
ObjectDBX Classes
 90
  1153
280
     0
281
     0
  0
CLASS
  1
VISUALSTYLE
  2
AcDbVisualStyle
  3
ObjectDBX Classes
 90
  4095
280
     0
281
     0
  0
CLASS
  1
SCALE
  2
AcDbScale
  3
ObjectDBX Classes
 90
  1153
280
     0
281
     0
  0
CLASS
  1
TABLESTYLE
  2
AcDbTableStyle
  3
ObjectDBX Classes
 90
  4095
280
     0
281
     0
  0
CLASS
  1
MLEADERSTYLE
  2
AcDbMLeaderStyle
  3
ACDB_MLEADERSTYLE_CLASS
 90
  4095
280
     0
281
     0
  0
CLASS
  1
DICTIONARYVAR
  2
AcDbDictionaryVar
  3
ObjectDBX Classes
 90
     0
280
     0
281
     0
  0
CLASS
  1
CELLSTYLEMAP
  2
AcDbCellStyleMap
  3
ObjectDBX Classes
 90
  1152
280
     0
281
     0
  0
CLASS
  1
ACDBPLACEHOLDER
  2
AcDbPlaceHolder
  3
ObjectDBX Classes
 90
     0
280
     0
281
     0
  0
CLASS
  1
LAYOUT
  2
AcDbLayout
  3
ObjectDBX Classes
 90
     0
280
     0
281
     0
  0
ENDSEC
  0
SECTION
  2
TABLES
  0
TABLE
  2
VPORT
  5
8
330
0
100
AcDbSymbolTable
 70
     1
  0
VPORT
  5
5F
330
8
100
AcDbSymbolTableRecord
100
AcDbViewportTableRecord
  2
*Active
 70
     0
 10
0.0
 20
0.0
 11
1.0
 21
1.0
 12
362.004492939666
 22
148.5
 13
0.0
 23
0.0
 14
10.0
 24
10.0
 15
10.0
 25
10.0
 16
0.0
 26
0.0
 36
1.0
 17
-168.5
 27
22.558299184554
 37
0.0
 40
297.0
 41
2.437740693196
 42
50.0
 43
0.0
 44
0.0
 50
0.0
 51
0.0
 71
     0
 72
  1000
 73
     1
 74
     3
 75
     0
 76
     0
 77
     0
 78
     0
281
     0
 65
     1
110
0.0
120
0.0
130
0.0
111
1.0
121
0.0
131
0.0
112
0.0
122
1.0
132
0.0
 79
     0
146
0.0
  0
ENDTAB
  0
TABLE
  2
LTYPE
  5
5
330
0
100
AcDbSymbolTable
 70
     3
  0
LTYPE
  5
63
330
5
100
AcDbSymbolTableRecord
100
AcDbLinetypeTableRecord
  2
ByBlock
 70
     0
  3

 72
    65
 73
     0
 40
0.0
  0
LTYPE
  5
64
330
5
100
AcDbSymbolTableRecord
100
AcDbLinetypeTableRecord
  2
ByLayer
 70
     0
  3

 72
    65
 73
     0
 40
0.0
  0
LTYPE
  5
65
330
5
100
AcDbSymbolTableRecord
100
AcDbLinetypeTableRecord
  2
Continuous
 70
     0
  3
Solid line
 72
    65
 73
     0
 40
0.0
  0
ENDTAB
  0
TABLE
  2
LAYER
  5
2
330
0
100
AcDbSymbolTable
 70
     2
  0
LAYER
  5
5C
102
{ACAD_XDICTIONARY
360
9A
102
}
330
2
100
AcDbSymbolTableRecord
100
AcDbLayerTableRecord
 70
     0
  6
Continuous
370
-3
390
F
  2
0
 62
     7
  0
LAYER
  5
b8
100
AcDbSymbolTableRecord
100
AcDbLayerTableRecord
  6
Continuous
 70
     0
370
-3
390
F
  2
Positioning
 62
     6
  0
ENDTAB
  0
TABLE
  2
STYLE
  5
3
330
0
100
AcDbSymbolTable
 70
     2
  0
STYLE
  5
5D
330
3
100
AcDbSymbolTableRecord
100
AcDbTextStyleTableRecord
  2
Standard
 70
     0
 40
0.0
 41
1.0
 50
0.0
 71
     0
 42
2.5
  3
txt
  4

  0
STYLE
  5
62
330
3
100
AcDbSymbolTableRecord
100
AcDbTextStyleTableRecord
  2
Annotative
 70
     0
 40
0.0
 41
1.0
 50
0.0
 71
     0
 42
0.2
  3

  4

1001
AcadAnnotative
1000
AnnotativeData
1002
{
1070
     1
1070
     1
1002
}
  0
ENDTAB
  0
TABLE
  2
VIEW
  5
6
330
0
100
AcDbSymbolTable
 70
     0
  0
ENDTAB
  0
TABLE
  2
UCS
  5
7
330
0
100
AcDbSymbolTable
 70
     0
  0
ENDTAB
  0
TABLE
  2
APPID
  5
9
330
0
100
AcDbSymbolTable
 70
     5
  0
APPID
  5
5E
330
9
100
AcDbSymbolTableRecord
100
AcDbRegAppTableRecord
  2
ACAD
 70
     0
  0
APPID
  5
66
330
9
100
AcDbSymbolTableRecord
100
AcDbRegAppTableRecord
  2
AcadAnnotative
 70
     0
  0
APPID
  5
70
330
9
100
AcDbSymbolTableRecord
100
AcDbRegAppTableRecord
  2
ACAD_MLEADERVER
 70
     0
  0
APPID
  5
80
330
9
100
AcDbSymbolTableRecord
100
AcDbRegAppTableRecord
  2
ACAD_EXEMPT_FROM_CAD_STANDARDS
 70
     0
  0
APPID
  5
AF
330
9
100
AcDbSymbolTableRecord
100
AcDbRegAppTableRecord
  2
ACAD_DSTYLE_DIMJOGGED_JOGANGLE_SYMBOL
 70
     0
  0
ENDTAB
  0
TABLE
  2
DIMSTYLE
  5
A
330
0
100
AcDbSymbolTable
100
AcDbDimStyleTable
 71
     1
340
60
 70
     2
  0
DIMSTYLE
105
60
330
A
100
AcDbSymbolTableRecord
100
AcDbDimStyleTableRecord
  2
ISO-25
 70
     0
 41
2.5
 42
0.625
 43
3.75
 44
1.25
 73
     0
 74
     0
 77
     1
 78
     8
140
2.5
141
2.5
143
0.03937007874
147
0.625
171
     3
172
     1
271
     2
272
     2
274
     3
278
44
283
     0
284
     8
340
5D
1001
ACAD_DSTYLE_DIMJOGGED_JOGANGLE_SYMBOL
1070
   384
1040
1.570796326794896
  0
DIMSTYLE
105
61
330
A
100
AcDbSymbolTableRecord
100
AcDbDimStyleTableRecord
  2
Annotative
 70
     0
340
5D
1001
AcadAnnotative
1000
AnnotativeData
1002
{
1070
     1
1070
     1
1002
}
  0
ENDTAB
  0
TABLE
  2
BLOCK_RECORD
  5
1
330
0
100
AcDbSymbolTable
 70
     3
  0
BLOCK_RECORD
  5
75
330
1
100
AcDbSymbolTableRecord
100
AcDbBlockTableRecord
  2
*Model_Space
340
78
  0
BLOCK_RECORD
  5
71
330
1
100
AcDbSymbolTableRecord
100
AcDbBlockTableRecord
  2
*Paper_Space
340
74
  0
BLOCK_RECORD
  5
79
330
1
100
AcDbSymbolTableRecord
100
AcDbBlockTableRecord
  2
*Paper_Space0
340
7C
  0
ENDTAB
  0
ENDSEC
  0
SECTION
  2
BLOCKS
  0
BLOCK
  5
76
102
{ACAD_REACTORS
330
75
102
}
100
AcDbEntity
  8
0
100
AcDbBlockBegin
  2
*Model_Space
 70
     0
 10
0.0
 20
0.0
 30
0.0
  3
*Model_Space
  1

  0
ENDBLK
  5
77
102
{ACAD_REACTORS
330
75
102
}
100
AcDbEntity
  8
0
100
AcDbBlockEnd
  0
BLOCK
  5
72
102
{ACAD_REACTORS
330
71
102
}
100
AcDbEntity
 67
     1
  8
0
100
AcDbBlockBegin
  2
*Paper_Space
 70
     0
 10
0.0
 20
0.0
 30
0.0
  3
*Paper_Space
  1

  0
ENDBLK
  5
73
102
{ACAD_REACTORS
330
71
102
}
100
AcDbEntity
 67
     1
  8
0
100
AcDbBlockEnd
  0
BLOCK
  5
7A
102
{ACAD_REACTORS
330
79
102
}
100
AcDbEntity
 67
     1
  8
0
100
AcDbBlockBegin
  2
*Paper_Space0
 70
     0
 10
0.0
 20
0.0
 30
0.0
  3
*Paper_Space0
  1

  0
ENDBLK
  5
7B
102
{ACAD_REACTORS
330
79
102
}
100
AcDbEntity
 67
     1
  8
0
100
AcDbBlockEnd
  0
ENDSEC
  0
SECTION
  2
ENTITIES
  0
LINE
  5
b9
100
AcDbEntity
  8
Positioning
100
AcDbLine
 10
-166.5
 20
124.5
 30
0.0
 11
-165.0
 21
126.0
 31
0.0
  0
LINE
  5
ba
100
AcDbEntity
  8
Positioning
100
AcDbLine
 10
-166.5
 20
124.5
 30
0.0
 11
-168.0
 21
126.0
 31
0.0
  0
LINE
  5
bb
100
AcDbEntity
  8
Positioning
100
AcDbLine
 10
-166.5
 20
124.5
 30
0.0
 11
-168.0
 21
123.0
 31
0.0
  0
LINE
  5
bc
100
AcDbEntity
  8
Positioning
100
AcDbLine
 10
-166.5
 20
124.5
 30
0.0
 11
-165.0
 21
123.0
 31
0.0
  0
LINE
  5
bd
100
AcDbEntity
  8
Positioning
100
AcDbLine
 10
-147.5
 20
124.5
 30
0.0
 11
-146.0
 21
126.0
 31
0.0
  0
LINE
  5
be
100
AcDbEntity
  8
Positioning
100
AcDbLine
 10
-147.5
 20
124.5
 30
0.0
 11
-149.0
 21
126.0
 31
0.0
  0
LINE
  5
bf
100
AcDbEntity
  8
Positioning
100
AcDbLine
 10
-147.5
 20
124.5
 30
0.0
 11
-149.0
 21
123.0
 31
0.0
  0
LINE
  5
c0
100
AcDbEntity
  8
Positioning
100
AcDbLine
 10
-147.5
 20
124.5
 30
0.0
 11
-146.0
 21
123.0
 31
0.0
  0
LINE
  5
c1
100
AcDbEntity
  8
Positioning
100
AcDbLine
 10
-128.5
 20
124.5
 30
0.0
 11
-127.0
 21
126.0
 31
0.0
  0
LINE
  5
c2
100
AcDbEntity
  8
Positioning
100
AcDbLine
 10
-128.5
 20
124.5
 30
0.0
 11
-130.0
 21
126.0
 31
0.0
  0
LINE
  5
c3
100
AcDbEntity
  8
Positioning
100
AcDbLine
 10
-128.5
 20
124.5
 30
0.0
 11
-130.0
 21
123.0
 31
0.0
  0
LINE
  5
c4
100
AcDbEntity
  8
Positioning
100
AcDbLine
 10
-128.5
 20
124.5
 30
0.0
 11
-127.0
 21
123.0
 31
0.0
  0
LINE
  5
c5
100
AcDbEntity
  8
Positioning
100
AcDbLine
 10
-109.5
 20
124.5
 30
0.0
 11
-108.0
 21
126.0
 31
0.0
  0
LINE
  5
c6
100
AcDbEntity
  8
Positioning
100
AcDbLine
 10
-109.5
 20
124.5
 30
0.0
 11
-111.0
 21
126.0
 31
0.0
  0
LINE
  5
c7
100
AcDbEntity
  8
Positioning
100
AcDbLine
 10
-109.5
 20
124.5
 30
0.0
 11
-111.0
 21
123.0
 31
0.0
  0
LINE
  5
c8
100
AcDbEntity
  8
Positioning
100
AcDbLine
 10
-109.5
 20
124.5
 30
0.0
 11
-108.0
 21
123.0
 31
0.0
  0
LINE
  5
c9
100
AcDbEntity
  8
Positioning
100
AcDbLine
 10
-90.5
 20
124.5
 30
0.0
 11
-89.0
 21
126.0
 31
0.0
  0
LINE
  5
ca
100
AcDbEntity
  8
Positioning
100
AcDbLine
 10
-90.5
 20
124.5
 30
0.0
 11
-92.0
 21
126.0
 31
0.0
  0
LINE
  5
cb
100
AcDbEntity
  8
Positioning
100
AcDbLine
 10
-90.5
 20
124.5
 30
0.0
 11
-92.0
 21
123.0
 31
0.0
  0
LINE
  5
cc
100
AcDbEntity
  8
Positioning
100
AcDbLine
 10
-90.5
 20
124.5
 30
0.0
 11
-89.0
 21
123.0
 31
0.0
  0
LINE
  5
cd
100
AcDbEntity
  8
Positioning
100
AcDbLine
 10
-71.513019419832
 20
124.002808415692
 30
0.0
 11
-70.013019419832
 21
125.502808415692
 31
0.0
  0
LINE
  5
ce
100
AcDbEntity
  8
Positioning
100
AcDbLine
 10
-71.513019419832
 20
124.002808415692
 30
0.0
 11
-73.013019419832
 21
125.502808415692
 31
0.0
  0
LINE
  5
cf
100
AcDbEntity
  8
Positioning
100
AcDbLine
 10
-71.513019419832
 20
124.002808415692
 30
0.0
 11
-73.013019419832
 21
122.502808415692
 31
0.0
  0
LINE
  5
d0
100
AcDbEntity
  8
Positioning
100
AcDbLine
 10
-71.513019419832
 20
124.002808415692
 30
0.0
 11
-70.013019419832
 21
122.502808415692
 31
0.0
  0
LINE
  5
d1
100
AcDbEntity
  8
Positioning
100
AcDbLine
 10
-52.578080833665
 20
122.512596430341
 30
0.0
 11
-51.078080833665
 21
124.012596430341
 31
0.0
  0
LINE
  5
d2
100
AcDbEntity
  8
Positioning
100
AcDbLine
 10
-52.578080833665
 20
122.512596430341
 30
0.0
 11
-54.078080833665
 21
124.012596430341
 31
0.0
  0
LINE
  5
d3
100
AcDbEntity
  8
Positioning
100
AcDbLine
 10
-52.578080833665
 20
122.512596430341
 30
0.0
 11
-54.078080833665
 21
121.012596430341
 31
0.0
  0
LINE
  5
d4
100
AcDbEntity
  8
Positioning
100
AcDbLine
 10
-52.578080833665
 20
122.512596430341
 30
0.0
 11
-51.078080833665
 21
121.012596430341
 31
0.0
  0
LINE
  5
d5
100
AcDbEntity
  8
Positioning
100
AcDbLine
 10
-33.711396644615
 20
120.279577203208
 30
0.0
 11
-32.211396644615
 21
121.779577203208
 31
0.0
  0
LINE
  5
d6
100
AcDbEntity
  8
Positioning
100
AcDbLine
 10
-33.711396644615
 20
120.279577203208
 30
0.0
 11
-35.211396644615
 21
121.779577203208
 31
0.0
  0
LINE
  5
d7
100
AcDbEntity
  8
Positioning
100
AcDbLine
 10
-33.711396644615
 20
120.279577203208
 30
0.0
 11
-35.211396644615
 21
118.779577203208
 31
0.0
  0
LINE
  5
d8
100
AcDbEntity
  8
Positioning
100
AcDbLine
 10
-33.711396644615
 20
120.279577203208
 30
0.0
 11
-32.211396644615
 21
118.779577203208
 31
0.0
  0
LINE
  5
d9
100
AcDbEntity
  8
Positioning
100
AcDbLine
 10
-24.308902935381
 20
99.79191868505
 30
0.0
 11
-22.808902935381
 21
101.29191868505
 31
0.0
  0
LINE
  5
da
100
AcDbEntity
  8
Positioning
100
AcDbLine
 10
-24.308902935381
 20
99.79191868505
 30
0.0
 11
-25.808902935381
 21
101.29191868505
 31
0.0
  0
LINE
  5
db
100
AcDbEntity
  8
Positioning
100
AcDbLine
 10
-24.308902935381
 20
99.79191868505
 30
0.0
 11
-25.808902935381
 21
98.29191868505
 31
0.0
  0
LINE
  5
dc
100
AcDbEntity
  8
Positioning
100
AcDbLine
 10
-24.308902935381
 20
99.79191868505
 30
0.0
 11
-22.808902935381
 21
98.29191868505
 31
0.0
  0
LINE
  5
dd
100
AcDbEntity
  8
Positioning
100
AcDbLine
 10
-43.146355301484
 20
102.271916337231
 30
0.0
 11
-41.646355301484
 21
103.771916337231
 31
0.0
  0
LINE
  5
de
100
AcDbEntity
  8
Positioning
100
AcDbLine
 10
-43.146355301484
 20
102.271916337231
 30
0.0
 11
-44.646355301484
 21
103.771916337231
 31
0.0
  0
LINE
  5
df
100
AcDbEntity
  8
Positioning
100
AcDbLine
 10
-43.146355301484
 20
102.271916337231
 30
0.0
 11
-44.646355301484
 21
100.771916337231
 31
0.0
  0
LINE
  5
e0
100
AcDbEntity
  8
Positioning
100
AcDbLine
 10
-43.146355301484
 20
102.271916337231
 30
0.0
 11
-41.646355301484
 21
100.771916337231
 31
0.0
  0
LINE
  5
e1
100
AcDbEntity
  8
Positioning
100
AcDbLine
 10
-62.035796155
 20
104.257276572736
 30
0.0
 11
-60.535796155
 21
105.757276572736
 31
0.0
  0
LINE
  5
e2
100
AcDbEntity
  8
Positioning
100
AcDbLine
 10
-62.035796155
 20
104.257276572736
 30
0.0
 11
-63.535796155
 21
105.757276572736
 31
0.0
  0
LINE
  5
e3
100
AcDbEntity
  8
Positioning
100
AcDbLine
 10
-62.035796155
 20
104.257276572736
 30
0.0
 11
-63.535796155
 21
102.757276572736
 31
0.0
  0
LINE
  5
e4
100
AcDbEntity
  8
Positioning
100
AcDbLine
 10
-62.035796155
 20
104.257276572736
 30
0.0
 11
-60.535796155
 21
102.757276572736
 31
0.0
  0
LINE
  5
e5
100
AcDbEntity
  8
Positioning
100
AcDbLine
 10
-81.003255412732
 20
105.251318991075
 30
0.0
 11
-79.503255412732
 21
106.751318991075
 31
0.0
  0
LINE
  5
e6
100
AcDbEntity
  8
Positioning
100
AcDbLine
 10
-81.003255412732
 20
105.251318991075
 30
0.0
 11
-82.503255412732
 21
106.751318991075
 31
0.0
  0
LINE
  5
e7
100
AcDbEntity
  8
Positioning
100
AcDbLine
 10
-81.003255412732
 20
105.251318991075
 30
0.0
 11
-82.503255412732
 21
103.751318991075
 31
0.0
  0
LINE
  5
e8
100
AcDbEntity
  8
Positioning
100
AcDbLine
 10
-81.003255412732
 20
105.251318991075
 30
0.0
 11
-79.503255412732
 21
103.751318991075
 31
0.0
  0
LINE
  5
e9
100
AcDbEntity
  8
Positioning
100
AcDbLine
 10
-100.0
 20
105.5
 30
0.0
 11
-98.5
 21
107.0
 31
0.0
  0
LINE
  5
ea
100
AcDbEntity
  8
Positioning
100
AcDbLine
 10
-100.0
 20
105.5
 30
0.0
 11
-101.5
 21
107.0
 31
0.0
  0
LINE
  5
eb
100
AcDbEntity
  8
Positioning
100
AcDbLine
 10
-100.0
 20
105.5
 30
0.0
 11
-101.5
 21
104.0
 31
0.0
  0
LINE
  5
ec
100
AcDbEntity
  8
Positioning
100
AcDbLine
 10
-100.0
 20
105.5
 30
0.0
 11
-98.5
 21
104.0
 31
0.0
  0
LINE
  5
ed
100
AcDbEntity
  8
Positioning
100
AcDbLine
 10
-119.0
 20
105.5
 30
0.0
 11
-117.5
 21
107.0
 31
0.0
  0
LINE
  5
ee
100
AcDbEntity
  8
Positioning
100
AcDbLine
 10
-119.0
 20
105.5
 30
0.0
 11
-120.5
 21
107.0
 31
0.0
  0
LINE
  5
ef
100
AcDbEntity
  8
Positioning
100
AcDbLine
 10
-119.0
 20
105.5
 30
0.0
 11
-120.5
 21
104.0
 31
0.0
  0
LINE
  5
f0
100
AcDbEntity
  8
Positioning
100
AcDbLine
 10
-119.0
 20
105.5
 30
0.0
 11
-117.5
 21
104.0
 31
0.0
  0
LINE
  5
f1
100
AcDbEntity
  8
Positioning
100
AcDbLine
 10
-142.75
 20
105.5
 30
0.0
 11
-141.25
 21
107.0
 31
0.0
  0
LINE
  5
f2
100
AcDbEntity
  8
Positioning
100
AcDbLine
 10
-142.75
 20
105.5
 30
0.0
 11
-144.25
 21
107.0
 31
0.0
  0
LINE
  5
f3
100
AcDbEntity
  8
Positioning
100
AcDbLine
 10
-142.75
 20
105.5
 30
0.0
 11
-144.25
 21
104.0
 31
0.0
  0
LINE
  5
f4
100
AcDbEntity
  8
Positioning
100
AcDbLine
 10
-142.75
 20
105.5
 30
0.0
 11
-141.25
 21
104.0
 31
0.0
  0
LINE
  5
f5
100
AcDbEntity
  8
Positioning
100
AcDbLine
 10
-166.5
 20
105.5
 30
0.0
 11
-165.0
 21
107.0
 31
0.0
  0
LINE
  5
f6
100
AcDbEntity
  8
Positioning
100
AcDbLine
 10
-166.5
 20
105.5
 30
0.0
 11
-168.0
 21
107.0
 31
0.0
  0
LINE
  5
f7
100
AcDbEntity
  8
Positioning
100
AcDbLine
 10
-166.5
 20
105.5
 30
0.0
 11
-168.0
 21
104.0
 31
0.0
  0
LINE
  5
f8
100
AcDbEntity
  8
Positioning
100
AcDbLine
 10
-166.5
 20
105.5
 30
0.0
 11
-165.0
 21
104.0
 31
0.0
  0
LINE
  5
f9
100
AcDbEntity
  8
Positioning
100
AcDbLine
 10
-166.5
 20
86.5
 30
0.0
 11
-165.0
 21
88.0
 31
0.0
  0
LINE
  5
fa
100
AcDbEntity
  8
Positioning
100
AcDbLine
 10
-166.5
 20
86.5
 30
0.0
 11
-168.0
 21
88.0
 31
0.0
  0
LINE
  5
fb
100
AcDbEntity
  8
Positioning
100
AcDbLine
 10
-166.5
 20
86.5
 30
0.0
 11
-168.0
 21
85.0
 31
0.0
  0
LINE
  5
fc
100
AcDbEntity
  8
Positioning
100
AcDbLine
 10
-166.5
 20
86.5
 30
0.0
 11
-165.0
 21
85.0
 31
0.0
  0
LINE
  5
fd
100
AcDbEntity
  8
Positioning
100
AcDbLine
 10
-145.125
 20
86.5
 30
0.0
 11
-143.625
 21
88.0
 31
0.0
  0
LINE
  5
fe
100
AcDbEntity
  8
Positioning
100
AcDbLine
 10
-145.125
 20
86.5
 30
0.0
 11
-146.625
 21
88.0
 31
0.0
  0
LINE
  5
ff
100
AcDbEntity
  8
Positioning
100
AcDbLine
 10
-145.125
 20
86.5
 30
0.0
 11
-146.625
 21
85.0
 31
0.0
  0
LINE
  5
100
100
AcDbEntity
  8
Positioning
100
AcDbLine
 10
-145.125
 20
86.5
 30
0.0
 11
-143.625
 21
85.0
 31
0.0
  0
LINE
  5
101
100
AcDbEntity
  8
Positioning
100
AcDbLine
 10
-114.25
 20
86.5
 30
0.0
 11
-112.75
 21
88.0
 31
0.0
  0
LINE
  5
102
100
AcDbEntity
  8
Positioning
100
AcDbLine
 10
-114.25
 20
86.5
 30
0.0
 11
-115.75
 21
88.0
 31
0.0
  0
LINE
  5
103
100
AcDbEntity
  8
Positioning
100
AcDbLine
 10
-114.25
 20
86.5
 30
0.0
 11
-115.75
 21
85.0
 31
0.0
  0
LINE
  5
104
100
AcDbEntity
  8
Positioning
100
AcDbLine
 10
-114.25
 20
86.5
 30
0.0
 11
-112.75
 21
85.0
 31
0.0
  0
LINE
  5
105
100
AcDbEntity
  8
Positioning
100
AcDbLine
 10
-95.25
 20
86.5
 30
0.0
 11
-93.75
 21
88.0
 31
0.0
  0
LINE
  5
106
100
AcDbEntity
  8
Positioning
100
AcDbLine
 10
-95.25
 20
86.5
 30
0.0
 11
-96.75
 21
88.0
 31
0.0
  0
LINE
  5
107
100
AcDbEntity
  8
Positioning
100
AcDbLine
 10
-95.25
 20
86.5
 30
0.0
 11
-96.75
 21
85.0
 31
0.0
  0
LINE
  5
108
100
AcDbEntity
  8
Positioning
100
AcDbLine
 10
-95.25
 20
86.5
 30
0.0
 11
-93.75
 21
85.0
 31
0.0
  0
LINE
  5
109
100
AcDbEntity
  8
Positioning
100
AcDbLine
 10
-76.263019419832
 20
86.002808415692
 30
0.0
 11
-74.763019419832
 21
87.502808415692
 31
0.0
  0
LINE
  5
10a
100
AcDbEntity
  8
Positioning
100
AcDbLine
 10
-76.263019419832
 20
86.002808415692
 30
0.0
 11
-77.763019419832
 21
87.502808415692
 31
0.0
  0
LINE
  5
10b
100
AcDbEntity
  8
Positioning
100
AcDbLine
 10
-76.263019419832
 20
86.002808415692
 30
0.0
 11
-77.763019419832
 21
84.502808415692
 31
0.0
  0
LINE
  5
10c
100
AcDbEntity
  8
Positioning
100
AcDbLine
 10
-76.263019419832
 20
86.002808415692
 30
0.0
 11
-74.763019419832
 21
84.502808415692
 31
0.0
  0
LINE
  5
10d
100
AcDbEntity
  8
Positioning
100
AcDbLine
 10
-57.328080833664
 20
84.512596430341
 30
0.0
 11
-55.828080833664
 21
86.012596430341
 31
0.0
  0
LINE
  5
10e
100
AcDbEntity
  8
Positioning
100
AcDbLine
 10
-57.328080833664
 20
84.512596430341
 30
0.0
 11
-58.828080833664
 21
86.012596430341
 31
0.0
  0
LINE
  5
10f
100
AcDbEntity
  8
Positioning
100
AcDbLine
 10
-57.328080833664
 20
84.512596430341
 30
0.0
 11
-58.828080833664
 21
83.012596430341
 31
0.0
  0
LINE
  5
110
100
AcDbEntity
  8
Positioning
100
AcDbLine
 10
-57.328080833664
 20
84.512596430341
 30
0.0
 11
-55.828080833664
 21
83.012596430341
 31
0.0
  0
LINE
  5
111
100
AcDbEntity
  8
Positioning
100
AcDbLine
 10
-38.461396644614
 20
82.279577203208
 30
0.0
 11
-36.961396644614
 21
83.779577203208
 31
0.0
  0
LINE
  5
112
100
AcDbEntity
  8
Positioning
100
AcDbLine
 10
-38.461396644614
 20
82.279577203208
 30
0.0
 11
-39.961396644614
 21
83.779577203208
 31
0.0
  0
LINE
  5
113
100
AcDbEntity
  8
Positioning
100
AcDbLine
 10
-38.461396644614
 20
82.279577203208
 30
0.0
 11
-39.961396644614
 21
80.779577203208
 31
0.0
  0
LINE
  5
114
100
AcDbEntity
  8
Positioning
100
AcDbLine
 10
-38.461396644614
 20
82.279577203208
 30
0.0
 11
-36.961396644614
 21
80.779577203208
 31
0.0
  0
LINE
  5
115
100
AcDbEntity
  8
Positioning
100
AcDbLine
 10
-19.623944278512
 20
79.799579551027
 30
0.0
 11
-18.123944278512
 21
81.299579551027
 31
0.0
  0
LINE
  5
116
100
AcDbEntity
  8
Positioning
100
AcDbLine
 10
-19.623944278512
 20
79.799579551027
 30
0.0
 11
-21.123944278512
 21
81.299579551027
 31
0.0
  0
LINE
  5
117
100
AcDbEntity
  8
Positioning
100
AcDbLine
 10
-19.623944278512
 20
79.799579551027
 30
0.0
 11
-21.123944278512
 21
78.299579551027
 31
0.0
  0
LINE
  5
118
100
AcDbEntity
  8
Positioning
100
AcDbLine
 10
-19.623944278512
 20
79.799579551027
 30
0.0
 11
-18.123944278512
 21
78.299579551027
 31
0.0
  0
LINE
  5
119
100
AcDbEntity
  8
Positioning
100
AcDbLine
 10
-29.058902935381
 20
61.79191868505
 30
0.0
 11
-27.558902935381
 21
63.29191868505
 31
0.0
  0
LINE
  5
11a
100
AcDbEntity
  8
Positioning
100
AcDbLine
 10
-29.058902935381
 20
61.79191868505
 30
0.0
 11
-30.558902935381
 21
63.29191868505
 31
0.0
  0
LINE
  5
11b
100
AcDbEntity
  8
Positioning
100
AcDbLine
 10
-29.058902935381
 20
61.79191868505
 30
0.0
 11
-30.558902935381
 21
60.29191868505
 31
0.0
  0
LINE
  5
11c
100
AcDbEntity
  8
Positioning
100
AcDbLine
 10
-29.058902935381
 20
61.79191868505
 30
0.0
 11
-27.558902935381
 21
60.29191868505
 31
0.0
  0
LINE
  5
11d
100
AcDbEntity
  8
Positioning
100
AcDbLine
 10
-47.896355301484
 20
64.271916337231
 30
0.0
 11
-46.396355301484
 21
65.771916337231
 31
0.0
  0
LINE
  5
11e
100
AcDbEntity
  8
Positioning
100
AcDbLine
 10
-47.896355301484
 20
64.271916337231
 30
0.0
 11
-49.396355301484
 21
65.771916337231
 31
0.0
  0
LINE
  5
11f
100
AcDbEntity
  8
Positioning
100
AcDbLine
 10
-47.896355301484
 20
64.271916337231
 30
0.0
 11
-49.396355301484
 21
62.771916337231
 31
0.0
  0
LINE
  5
120
100
AcDbEntity
  8
Positioning
100
AcDbLine
 10
-47.896355301484
 20
64.271916337231
 30
0.0
 11
-46.396355301484
 21
62.771916337231
 31
0.0
  0
LINE
  5
121
100
AcDbEntity
  8
Positioning
100
AcDbLine
 10
-66.785796155
 20
66.257276572736
 30
0.0
 11
-65.285796155
 21
67.757276572736
 31
0.0
  0
LINE
  5
122
100
AcDbEntity
  8
Positioning
100
AcDbLine
 10
-66.785796155
 20
66.257276572736
 30
0.0
 11
-68.285796155
 21
67.757276572736
 31
0.0
  0
LINE
  5
123
100
AcDbEntity
  8
Positioning
100
AcDbLine
 10
-66.785796155
 20
66.257276572736
 30
0.0
 11
-68.285796155
 21
64.757276572736
 31
0.0
  0
LINE
  5
124
100
AcDbEntity
  8
Positioning
100
AcDbLine
 10
-66.785796155
 20
66.257276572736
 30
0.0
 11
-65.285796155
 21
64.757276572736
 31
0.0
  0
LINE
  5
125
100
AcDbEntity
  8
Positioning
100
AcDbLine
 10
-85.753255412732
 20
67.251318991075
 30
0.0
 11
-84.253255412732
 21
68.751318991075
 31
0.0
  0
LINE
  5
126
100
AcDbEntity
  8
Positioning
100
AcDbLine
 10
-85.753255412732
 20
67.251318991075
 30
0.0
 11
-87.253255412732
 21
68.751318991075
 31
0.0
  0
LINE
  5
127
100
AcDbEntity
  8
Positioning
100
AcDbLine
 10
-85.753255412732
 20
67.251318991075
 30
0.0
 11
-87.253255412732
 21
65.751318991075
 31
0.0
  0
LINE
  5
128
100
AcDbEntity
  8
Positioning
100
AcDbLine
 10
-85.753255412732
 20
67.251318991075
 30
0.0
 11
-84.253255412732
 21
65.751318991075
 31
0.0
  0
LINE
  5
129
100
AcDbEntity
  8
Positioning
100
AcDbLine
 10
-104.75
 20
67.5
 30
0.0
 11
-103.25
 21
69.0
 31
0.0
  0
LINE
  5
12a
100
AcDbEntity
  8
Positioning
100
AcDbLine
 10
-104.75
 20
67.5
 30
0.0
 11
-106.25
 21
69.0
 31
0.0
  0
LINE
  5
12b
100
AcDbEntity
  8
Positioning
100
AcDbLine
 10
-104.75
 20
67.5
 30
0.0
 11
-106.25
 21
66.0
 31
0.0
  0
LINE
  5
12c
100
AcDbEntity
  8
Positioning
100
AcDbLine
 10
-104.75
 20
67.5
 30
0.0
 11
-103.25
 21
66.0
 31
0.0
  0
LINE
  5
12d
100
AcDbEntity
  8
Positioning
100
AcDbLine
 10
-135.625
 20
67.5
 30
0.0
 11
-134.125
 21
69.0
 31
0.0
  0
LINE
  5
12e
100
AcDbEntity
  8
Positioning
100
AcDbLine
 10
-135.625
 20
67.5
 30
0.0
 11
-137.125
 21
69.0
 31
0.0
  0
LINE
  5
12f
100
AcDbEntity
  8
Positioning
100
AcDbLine
 10
-135.625
 20
67.5
 30
0.0
 11
-137.125
 21
66.0
 31
0.0
  0
LINE
  5
130
100
AcDbEntity
  8
Positioning
100
AcDbLine
 10
-135.625
 20
67.5
 30
0.0
 11
-134.125
 21
66.0
 31
0.0
  0
LINE
  5
131
100
AcDbEntity
  8
Positioning
100
AcDbLine
 10
-145.125
 20
67.5
 30
0.0
 11
-143.625
 21
69.0
 31
0.0
  0
LINE
  5
132
100
AcDbEntity
  8
Positioning
100
AcDbLine
 10
-145.125
 20
67.5
 30
0.0
 11
-146.625
 21
69.0
 31
0.0
  0
LINE
  5
133
100
AcDbEntity
  8
Positioning
100
AcDbLine
 10
-145.125
 20
67.5
 30
0.0
 11
-146.625
 21
66.0
 31
0.0
  0
LINE
  5
134
100
AcDbEntity
  8
Positioning
100
AcDbLine
 10
-145.125
 20
67.5
 30
0.0
 11
-143.625
 21
66.0
 31
0.0
  0
LINE
  5
135
100
AcDbEntity
  8
Positioning
100
AcDbLine
 10
-166.5
 20
67.5
 30
0.0
 11
-165.0
 21
69.0
 31
0.0
  0
LINE
  5
136
100
AcDbEntity
  8
Positioning
100
AcDbLine
 10
-166.5
 20
67.5
 30
0.0
 11
-168.0
 21
69.0
 31
0.0
  0
LINE
  5
137
100
AcDbEntity
  8
Positioning
100
AcDbLine
 10
-166.5
 20
67.5
 30
0.0
 11
-168.0
 21
66.0
 31
0.0
  0
LINE
  5
138
100
AcDbEntity
  8
Positioning
100
AcDbLine
 10
-166.5
 20
67.5
 30
0.0
 11
-165.0
 21
66.0
 31
0.0
  0
LINE
  5
139
100
AcDbEntity
  8
Positioning
100
AcDbLine
 10
-161.75
 20
48.5
 30
0.0
 11
-160.25
 21
50.0
 31
0.0
  0
LINE
  5
13a
100
AcDbEntity
  8
Positioning
100
AcDbLine
 10
-161.75
 20
48.5
 30
0.0
 11
-163.25
 21
50.0
 31
0.0
  0
LINE
  5
13b
100
AcDbEntity
  8
Positioning
100
AcDbLine
 10
-161.75
 20
48.5
 30
0.0
 11
-163.25
 21
47.0
 31
0.0
  0
LINE
  5
13c
100
AcDbEntity
  8
Positioning
100
AcDbLine
 10
-161.75
 20
48.5
 30
0.0
 11
-160.25
 21
47.0
 31
0.0
  0
LINE
  5
13d
100
AcDbEntity
  8
Positioning
100
AcDbLine
 10
-138.0
 20
48.5
 30
0.0
 11
-136.5
 21
50.0
 31
0.0
  0
LINE
  5
13e
100
AcDbEntity
  8
Positioning
100
AcDbLine
 10
-138.0
 20
48.5
 30
0.0
 11
-139.5
 21
50.0
 31
0.0
  0
LINE
  5
13f
100
AcDbEntity
  8
Positioning
100
AcDbLine
 10
-138.0
 20
48.5
 30
0.0
 11
-139.5
 21
47.0
 31
0.0
  0
LINE
  5
140
100
AcDbEntity
  8
Positioning
100
AcDbLine
 10
-138.0
 20
48.5
 30
0.0
 11
-136.5
 21
47.0
 31
0.0
  0
LINE
  5
141
100
AcDbEntity
  8
Positioning
100
AcDbLine
 10
-109.5
 20
48.5
 30
0.0
 11
-108.0
 21
50.0
 31
0.0
  0
LINE
  5
142
100
AcDbEntity
  8
Positioning
100
AcDbLine
 10
-109.5
 20
48.5
 30
0.0
 11
-111.0
 21
50.0
 31
0.0
  0
LINE
  5
143
100
AcDbEntity
  8
Positioning
100
AcDbLine
 10
-109.5
 20
48.5
 30
0.0
 11
-111.0
 21
47.0
 31
0.0
  0
LINE
  5
144
100
AcDbEntity
  8
Positioning
100
AcDbLine
 10
-109.5
 20
48.5
 30
0.0
 11
-108.0
 21
47.0
 31
0.0
  0
LINE
  5
145
100
AcDbEntity
  8
Positioning
100
AcDbLine
 10
-71.97708362081
 20
45.693375462775
 30
0.0
 11
-70.47708362081
 21
47.193375462775
 31
0.0
  0
LINE
  5
146
100
AcDbEntity
  8
Positioning
100
AcDbLine
 10
-71.97708362081
 20
45.693375462775
 30
0.0
 11
-73.47708362081
 21
47.193375462775
 31
0.0
  0
LINE
  5
147
100
AcDbEntity
  8
Positioning
100
AcDbLine
 10
-71.97708362081
 20
45.693375462775
 30
0.0
 11
-73.47708362081
 21
44.193375462775
 31
0.0
  0
LINE
  5
148
100
AcDbEntity
  8
Positioning
100
AcDbLine
 10
-71.97708362081
 20
45.693375462775
 30
0.0
 11
-70.47708362081
 21
44.193375462775
 31
0.0
  0
LINE
  5
149
100
AcDbEntity
  8
Positioning
100
AcDbLine
 10
-51.094827863585
 20
39.592350854495
 30
0.0
 11
-49.594827863585
 21
41.092350854495
 31
0.0
  0
LINE
  5
14a
100
AcDbEntity
  8
Positioning
100
AcDbLine
 10
-51.094827863585
 20
39.592350854495
 30
0.0
 11
-52.594827863585
 21
41.092350854495
 31
0.0
  0
LINE
  5
14b
100
AcDbEntity
  8
Positioning
100
AcDbLine
 10
-51.094827863585
 20
39.592350854495
 30
0.0
 11
-52.594827863585
 21
38.092350854495
 31
0.0
  0
LINE
  5
14c
100
AcDbEntity
  8
Positioning
100
AcDbLine
 10
-51.094827863585
 20
39.592350854495
 30
0.0
 11
-49.594827863585
 21
38.092350854495
 31
0.0
  0
LINE
  5
14d
100
AcDbEntity
  8
Positioning
100
AcDbLine
 10
-35.370057685089
 20
24.558299184554
 30
0.0
 11
-33.870057685089
 21
26.058299184554
 31
0.0
  0
LINE
  5
14e
100
AcDbEntity
  8
Positioning
100
AcDbLine
 10
-35.370057685089
 20
24.558299184554
 30
0.0
 11
-36.870057685089
 21
26.058299184554
 31
0.0
  0
LINE
  5
14f
100
AcDbEntity
  8
Positioning
100
AcDbLine
 10
-35.370057685089
 20
24.558299184554
 30
0.0
 11
-36.870057685089
 21
23.058299184554
 31
0.0
  0
LINE
  5
150
100
AcDbEntity
  8
Positioning
100
AcDbLine
 10
-35.370057685089
 20
24.558299184554
 30
0.0
 11
-33.870057685089
 21
23.058299184554
 31
0.0
  0
LINE
  5
151
100
AcDbEntity
  8
Positioning
100
AcDbLine
 10
-21.935028842545
 20
37.993328027099
 30
0.0
 11
-20.435028842545
 21
39.493328027099
 31
0.0
  0
LINE
  5
152
100
AcDbEntity
  8
Positioning
100
AcDbLine
 10
-21.935028842545
 20
37.993328027099
 30
0.0
 11
-23.435028842545
 21
39.493328027099
 31
0.0
  0
LINE
  5
153
100
AcDbEntity
  8
Positioning
100
AcDbLine
 10
-21.935028842545
 20
37.993328027099
 30
0.0
 11
-23.435028842545
 21
36.493328027099
 31
0.0
  0
LINE
  5
154
100
AcDbEntity
  8
Positioning
100
AcDbLine
 10
-21.935028842545
 20
37.993328027099
 30
0.0
 11
-20.435028842545
 21
36.493328027099
 31
0.0
  0
LINE
  5
155
100
AcDbEntity
  8
Positioning
100
AcDbLine
 10
-28.652543263817
 20
31.275813605827
 30
0.0
 11
-27.152543263817
 21
32.775813605827
 31
0.0
  0
LINE
  5
156
100
AcDbEntity
  8
Positioning
100
AcDbLine
 10
-28.652543263817
 20
31.275813605827
 30
0.0
 11
-30.152543263817
 21
32.775813605827
 31
0.0
  0
LINE
  5
157
100
AcDbEntity
  8
Positioning
100
AcDbLine
 10
-28.652543263817
 20
31.275813605827
 30
0.0
 11
-30.152543263817
 21
29.775813605827
 31
0.0
  0
LINE
  5
158
100
AcDbEntity
  8
Positioning
100
AcDbLine
 10
-28.652543263817
 20
31.275813605827
 30
0.0
 11
-27.152543263817
 21
29.775813605827
 31
0.0
  0
LINE
  5
159
100
AcDbEntity
  8
Positioning
100
AcDbLine
 10
-123.75
 20
67.5
 30
0.0
 11
-122.25
 21
69.0
 31
0.0
  0
LINE
  5
15a
100
AcDbEntity
  8
Positioning
100
AcDbLine
 10
-123.75
 20
67.5
 30
0.0
 11
-125.25
 21
69.0
 31
0.0
  0
LINE
  5
15b
100
AcDbEntity
  8
Positioning
100
AcDbLine
 10
-123.75
 20
67.5
 30
0.0
 11
-125.25
 21
66.0
 31
0.0
  0
LINE
  5
15c
100
AcDbEntity
  8
Positioning
100
AcDbLine
 10
-123.75
 20
67.5
 30
0.0
 11
-122.25
 21
66.0
 31
0.0
  0
LINE
  5
15d
100
AcDbEntity
  8
Positioning
100
AcDbLine
 10
-31.711396644615
 20
120.279577203208
 30
0.0
 11
-33.711396644615
 21
120.279577203208
 31
0.0
  0
LINE
  5
15e
100
AcDbEntity
  8
Positioning
100
AcDbLine
 10
-33.711396644615
 20
120.279577203208
 30
0.0
 11
-35.711396644615
 21
120.279577203208
 31
0.0
  0
LINE
  5
15f
100
AcDbEntity
  8
Positioning
100
AcDbLine
 10
-33.711396644615
 20
120.279577203208
 30
0.0
 11
-33.711396644615
 21
122.279577203208
 31
0.0
  0
LINE
  5
160
100
AcDbEntity
  8
Positioning
100
AcDbLine
 10
-33.711396644615
 20
120.279577203208
 30
0.0
 11
-33.711396644615
 21
118.279577203208
 31
0.0
  0
LINE
  5
161
100
AcDbEntity
  8
Positioning
100
AcDbLine
 10
-50.578080833665
 20
122.512596430341
 30
0.0
 11
-52.578080833665
 21
122.512596430341
 31
0.0
  0
LINE
  5
162
100
AcDbEntity
  8
Positioning
100
AcDbLine
 10
-52.578080833665
 20
122.512596430341
 30
0.0
 11
-54.578080833665
 21
122.512596430341
 31
0.0
  0
LINE
  5
163
100
AcDbEntity
  8
Positioning
100
AcDbLine
 10
-52.578080833665
 20
122.512596430341
 30
0.0
 11
-52.578080833665
 21
124.512596430341
 31
0.0
  0
LINE
  5
164
100
AcDbEntity
  8
Positioning
100
AcDbLine
 10
-52.578080833665
 20
122.512596430341
 30
0.0
 11
-52.578080833665
 21
120.512596430341
 31
0.0
  0
LINE
  5
165
100
AcDbEntity
  8
Positioning
100
AcDbLine
 10
-69.513019419832
 20
124.002808415692
 30
0.0
 11
-71.513019419832
 21
124.002808415692
 31
0.0
  0
LINE
  5
166
100
AcDbEntity
  8
Positioning
100
AcDbLine
 10
-71.513019419832
 20
124.002808415692
 30
0.0
 11
-73.513019419832
 21
124.002808415692
 31
0.0
  0
LINE
  5
167
100
AcDbEntity
  8
Positioning
100
AcDbLine
 10
-71.513019419832
 20
124.002808415692
 30
0.0
 11
-71.513019419832
 21
126.002808415692
 31
0.0
  0
LINE
  5
168
100
AcDbEntity
  8
Positioning
100
AcDbLine
 10
-71.513019419832
 20
124.002808415692
 30
0.0
 11
-71.513019419832
 21
122.002808415692
 31
0.0
  0
LINE
  5
169
100
AcDbEntity
  8
Positioning
100
AcDbLine
 10
-88.5
 20
124.5
 30
0.0
 11
-90.5
 21
124.5
 31
0.0
  0
LINE
  5
16a
100
AcDbEntity
  8
Positioning
100
AcDbLine
 10
-90.5
 20
124.5
 30
0.0
 11
-92.5
 21
124.5
 31
0.0
  0
LINE
  5
16b
100
AcDbEntity
  8
Positioning
100
AcDbLine
 10
-90.5
 20
124.5
 30
0.0
 11
-90.5
 21
126.5
 31
0.0
  0
LINE
  5
16c
100
AcDbEntity
  8
Positioning
100
AcDbLine
 10
-90.5
 20
124.5
 30
0.0
 11
-90.5
 21
122.5
 31
0.0
  0
LINE
  5
16d
100
AcDbEntity
  8
Positioning
100
AcDbLine
 10
-107.5
 20
124.5
 30
0.0
 11
-109.5
 21
124.5
 31
0.0
  0
LINE
  5
16e
100
AcDbEntity
  8
Positioning
100
AcDbLine
 10
-109.5
 20
124.5
 30
0.0
 11
-111.5
 21
124.5
 31
0.0
  0
LINE
  5
16f
100
AcDbEntity
  8
Positioning
100
AcDbLine
 10
-109.5
 20
124.5
 30
0.0
 11
-109.5
 21
126.5
 31
0.0
  0
LINE
  5
170
100
AcDbEntity
  8
Positioning
100
AcDbLine
 10
-109.5
 20
124.5
 30
0.0
 11
-109.5
 21
122.5
 31
0.0
  0
LINE
  5
171
100
AcDbEntity
  8
Positioning
100
AcDbLine
 10
-126.5
 20
124.5
 30
0.0
 11
-128.5
 21
124.5
 31
0.0
  0
LINE
  5
172
100
AcDbEntity
  8
Positioning
100
AcDbLine
 10
-128.5
 20
124.5
 30
0.0
 11
-130.5
 21
124.5
 31
0.0
  0
LINE
  5
173
100
AcDbEntity
  8
Positioning
100
AcDbLine
 10
-128.5
 20
124.5
 30
0.0
 11
-128.5
 21
126.5
 31
0.0
  0
LINE
  5
174
100
AcDbEntity
  8
Positioning
100
AcDbLine
 10
-128.5
 20
124.5
 30
0.0
 11
-128.5
 21
122.5
 31
0.0
  0
LINE
  5
175
100
AcDbEntity
  8
Positioning
100
AcDbLine
 10
-145.5
 20
124.5
 30
0.0
 11
-147.5
 21
124.5
 31
0.0
  0
LINE
  5
176
100
AcDbEntity
  8
Positioning
100
AcDbLine
 10
-147.5
 20
124.5
 30
0.0
 11
-149.5
 21
124.5
 31
0.0
  0
LINE
  5
177
100
AcDbEntity
  8
Positioning
100
AcDbLine
 10
-147.5
 20
124.5
 30
0.0
 11
-147.5
 21
126.5
 31
0.0
  0
LINE
  5
178
100
AcDbEntity
  8
Positioning
100
AcDbLine
 10
-147.5
 20
124.5
 30
0.0
 11
-147.5
 21
122.5
 31
0.0
  0
LINE
  5
179
100
AcDbEntity
  8
Positioning
100
AcDbLine
 10
-155.0
 20
124.5
 30
0.0
 11
-157.0
 21
124.5
 31
0.0
  0
LINE
  5
17a
100
AcDbEntity
  8
Positioning
100
AcDbLine
 10
-157.0
 20
124.5
 30
0.0
 11
-159.0
 21
124.5
 31
0.0
  0
LINE
  5
17b
100
AcDbEntity
  8
Positioning
100
AcDbLine
 10
-157.0
 20
124.5
 30
0.0
 11
-157.0
 21
126.5
 31
0.0
  0
LINE
  5
17c
100
AcDbEntity
  8
Positioning
100
AcDbLine
 10
-157.0
 20
124.5
 30
0.0
 11
-157.0
 21
122.5
 31
0.0
  0
LINE
  5
17d
100
AcDbEntity
  8
Positioning
100
AcDbLine
 10
-164.5
 20
124.5
 30
0.0
 11
-166.5
 21
124.5
 31
0.0
  0
LINE
  5
17e
100
AcDbEntity
  8
Positioning
100
AcDbLine
 10
-166.5
 20
124.5
 30
0.0
 11
-168.5
 21
124.5
 31
0.0
  0
LINE
  5
17f
100
AcDbEntity
  8
Positioning
100
AcDbLine
 10
-166.5
 20
124.5
 30
0.0
 11
-166.5
 21
126.5
 31
0.0
  0
LINE
  5
180
100
AcDbEntity
  8
Positioning
100
AcDbLine
 10
-166.5
 20
124.5
 30
0.0
 11
-166.5
 21
122.5
 31
0.0
  0
LINE
  5
181
100
AcDbEntity
  8
Positioning
100
AcDbLine
 10
-159.75
 20
105.5
 30
0.0
 11
-161.75
 21
105.5
 31
0.0
  0
LINE
  5
182
100
AcDbEntity
  8
Positioning
100
AcDbLine
 10
-161.75
 20
105.5
 30
0.0
 11
-163.75
 21
105.5
 31
0.0
  0
LINE
  5
183
100
AcDbEntity
  8
Positioning
100
AcDbLine
 10
-161.75
 20
105.5
 30
0.0
 11
-161.75
 21
107.5
 31
0.0
  0
LINE
  5
184
100
AcDbEntity
  8
Positioning
100
AcDbLine
 10
-161.75
 20
105.5
 30
0.0
 11
-161.75
 21
103.5
 31
0.0
  0
LINE
  5
185
100
AcDbEntity
  8
Positioning
100
AcDbLine
 10
-136.0
 20
105.5
 30
0.0
 11
-138.0
 21
105.5
 31
0.0
  0
LINE
  5
186
100
AcDbEntity
  8
Positioning
100
AcDbLine
 10
-138.0
 20
105.5
 30
0.0
 11
-140.0
 21
105.5
 31
0.0
  0
LINE
  5
187
100
AcDbEntity
  8
Positioning
100
AcDbLine
 10
-138.0
 20
105.5
 30
0.0
 11
-138.0
 21
107.5
 31
0.0
  0
LINE
  5
188
100
AcDbEntity
  8
Positioning
100
AcDbLine
 10
-138.0
 20
105.5
 30
0.0
 11
-138.0
 21
103.5
 31
0.0
  0
LINE
  5
189
100
AcDbEntity
  8
Positioning
100
AcDbLine
 10
-117.0
 20
105.5
 30
0.0
 11
-119.0
 21
105.5
 31
0.0
  0
LINE
  5
18a
100
AcDbEntity
  8
Positioning
100
AcDbLine
 10
-119.0
 20
105.5
 30
0.0
 11
-121.0
 21
105.5
 31
0.0
  0
LINE
  5
18b
100
AcDbEntity
  8
Positioning
100
AcDbLine
 10
-119.0
 20
105.5
 30
0.0
 11
-119.0
 21
107.5
 31
0.0
  0
LINE
  5
18c
100
AcDbEntity
  8
Positioning
100
AcDbLine
 10
-119.0
 20
105.5
 30
0.0
 11
-119.0
 21
103.5
 31
0.0
  0
LINE
  5
18d
100
AcDbEntity
  8
Positioning
100
AcDbLine
 10
-98.0
 20
105.5
 30
0.0
 11
-100.0
 21
105.5
 31
0.0
  0
LINE
  5
18e
100
AcDbEntity
  8
Positioning
100
AcDbLine
 10
-100.0
 20
105.5
 30
0.0
 11
-102.0
 21
105.5
 31
0.0
  0
LINE
  5
18f
100
AcDbEntity
  8
Positioning
100
AcDbLine
 10
-100.0
 20
105.5
 30
0.0
 11
-100.0
 21
107.5
 31
0.0
  0
LINE
  5
190
100
AcDbEntity
  8
Positioning
100
AcDbLine
 10
-100.0
 20
105.5
 30
0.0
 11
-100.0
 21
103.5
 31
0.0
  0
LINE
  5
191
100
AcDbEntity
  8
Positioning
100
AcDbLine
 10
-79.003255412732
 20
105.251318991075
 30
0.0
 11
-81.003255412732
 21
105.251318991075
 31
0.0
  0
LINE
  5
192
100
AcDbEntity
  8
Positioning
100
AcDbLine
 10
-81.003255412732
 20
105.251318991075
 30
0.0
 11
-83.003255412732
 21
105.251318991075
 31
0.0
  0
LINE
  5
193
100
AcDbEntity
  8
Positioning
100
AcDbLine
 10
-81.003255412732
 20
105.251318991075
 30
0.0
 11
-81.003255412732
 21
107.251318991075
 31
0.0
  0
LINE
  5
194
100
AcDbEntity
  8
Positioning
100
AcDbLine
 10
-81.003255412732
 20
105.251318991075
 30
0.0
 11
-81.003255412732
 21
103.251318991075
 31
0.0
  0
LINE
  5
195
100
AcDbEntity
  8
Positioning
100
AcDbLine
 10
-60.035796155
 20
104.257276572736
 30
0.0
 11
-62.035796155
 21
104.257276572736
 31
0.0
  0
LINE
  5
196
100
AcDbEntity
  8
Positioning
100
AcDbLine
 10
-62.035796155
 20
104.257276572736
 30
0.0
 11
-64.035796155
 21
104.257276572736
 31
0.0
  0
LINE
  5
197
100
AcDbEntity
  8
Positioning
100
AcDbLine
 10
-62.035796155
 20
104.257276572736
 30
0.0
 11
-62.035796155
 21
106.257276572736
 31
0.0
  0
LINE
  5
198
100
AcDbEntity
  8
Positioning
100
AcDbLine
 10
-62.035796155
 20
104.257276572736
 30
0.0
 11
-62.035796155
 21
102.257276572736
 31
0.0
  0
LINE
  5
199
100
AcDbEntity
  8
Positioning
100
AcDbLine
 10
-41.146355301484
 20
102.271916337231
 30
0.0
 11
-43.146355301484
 21
102.271916337231
 31
0.0
  0
LINE
  5
19a
100
AcDbEntity
  8
Positioning
100
AcDbLine
 10
-43.146355301484
 20
102.271916337231
 30
0.0
 11
-45.146355301484
 21
102.271916337231
 31
0.0
  0
LINE
  5
19b
100
AcDbEntity
  8
Positioning
100
AcDbLine
 10
-43.146355301484
 20
102.271916337231
 30
0.0
 11
-43.146355301484
 21
104.271916337231
 31
0.0
  0
LINE
  5
19c
100
AcDbEntity
  8
Positioning
100
AcDbLine
 10
-43.146355301484
 20
102.271916337231
 30
0.0
 11
-43.146355301484
 21
100.271916337231
 31
0.0
  0
LINE
  5
19d
100
AcDbEntity
  8
Positioning
100
AcDbLine
 10
-22.308902935381
 20
99.79191868505
 30
0.0
 11
-24.308902935381
 21
99.79191868505
 31
0.0
  0
LINE
  5
19e
100
AcDbEntity
  8
Positioning
100
AcDbLine
 10
-24.308902935381
 20
99.79191868505
 30
0.0
 11
-26.308902935381
 21
99.79191868505
 31
0.0
  0
LINE
  5
19f
100
AcDbEntity
  8
Positioning
100
AcDbLine
 10
-24.308902935381
 20
99.79191868505
 30
0.0
 11
-24.308902935381
 21
101.79191868505
 31
0.0
  0
LINE
  5
1a0
100
AcDbEntity
  8
Positioning
100
AcDbLine
 10
-24.308902935381
 20
99.79191868505
 30
0.0
 11
-24.308902935381
 21
97.79191868505
 31
0.0
  0
LINE
  5
1a1
100
AcDbEntity
  8
Positioning
100
AcDbLine
 10
-27.000439289487
 20
81.285875535146
 30
0.0
 11
-29.000439289487
 21
81.285875535146
 31
0.0
  0
LINE
  5
1a2
100
AcDbEntity
  8
Positioning
100
AcDbLine
 10
-29.000439289487
 20
81.285875535146
 30
0.0
 11
-31.000439289487
 21
81.285875535146
 31
0.0
  0
LINE
  5
1a3
100
AcDbEntity
  8
Positioning
100
AcDbLine
 10
-29.000439289487
 20
81.285875535146
 30
0.0
 11
-29.000439289487
 21
83.285875535146
 31
0.0
  0
LINE
  5
1a4
100
AcDbEntity
  8
Positioning
100
AcDbLine
 10
-29.000439289487
 20
81.285875535146
 30
0.0
 11
-29.000439289487
 21
79.285875535146
 31
0.0
  0
LINE
  5
1a5
100
AcDbEntity
  8
Positioning
100
AcDbLine
 10
-45.867123478536
 20
83.518894762279
 30
0.0
 11
-47.867123478536
 21
83.518894762279
 31
0.0
  0
LINE
  5
1a6
100
AcDbEntity
  8
Positioning
100
AcDbLine
 10
-47.867123478536
 20
83.518894762279
 30
0.0
 11
-49.867123478536
 21
83.518894762279
 31
0.0
  0
LINE
  5
1a7
100
AcDbEntity
  8
Positioning
100
AcDbLine
 10
-47.867123478536
 20
83.518894762279
 30
0.0
 11
-47.867123478536
 21
85.518894762279
 31
0.0
  0
LINE
  5
1a8
100
AcDbEntity
  8
Positioning
100
AcDbLine
 10
-47.867123478536
 20
83.518894762279
 30
0.0
 11
-47.867123478536
 21
81.518894762279
 31
0.0
  0
LINE
  5
1a9
100
AcDbEntity
  8
Positioning
100
AcDbLine
 10
-64.785796155
 20
85.257276572736
 30
0.0
 11
-66.785796155
 21
85.257276572736
 31
0.0
  0
LINE
  5
1aa
100
AcDbEntity
  8
Positioning
100
AcDbLine
 10
-66.785796155
 20
85.257276572736
 30
0.0
 11
-68.785796155
 21
85.257276572736
 31
0.0
  0
LINE
  5
1ab
100
AcDbEntity
  8
Positioning
100
AcDbLine
 10
-66.785796155
 20
85.257276572736
 30
0.0
 11
-66.785796155
 21
87.257276572736
 31
0.0
  0
LINE
  5
1ac
100
AcDbEntity
  8
Positioning
100
AcDbLine
 10
-66.785796155
 20
85.257276572736
 30
0.0
 11
-66.785796155
 21
83.257276572736
 31
0.0
  0
LINE
  5
1ad
100
AcDbEntity
  8
Positioning
100
AcDbLine
 10
-83.753255412732
 20
86.251318991075
 30
0.0
 11
-85.753255412732
 21
86.251318991075
 31
0.0
  0
LINE
  5
1ae
100
AcDbEntity
  8
Positioning
100
AcDbLine
 10
-85.753255412732
 20
86.251318991075
 30
0.0
 11
-87.753255412732
 21
86.251318991075
 31
0.0
  0
LINE
  5
1af
100
AcDbEntity
  8
Positioning
100
AcDbLine
 10
-85.753255412732
 20
86.251318991075
 30
0.0
 11
-85.753255412732
 21
88.251318991075
 31
0.0
  0
LINE
  5
1b0
100
AcDbEntity
  8
Positioning
100
AcDbLine
 10
-85.753255412732
 20
86.251318991075
 30
0.0
 11
-85.753255412732
 21
84.251318991075
 31
0.0
  0
LINE
  5
1b1
100
AcDbEntity
  8
Positioning
100
AcDbLine
 10
-102.75
 20
86.5
 30
0.0
 11
-104.75
 21
86.5
 31
0.0
  0
LINE
  5
1b2
100
AcDbEntity
  8
Positioning
100
AcDbLine
 10
-104.75
 20
86.5
 30
0.0
 11
-106.75
 21
86.5
 31
0.0
  0
LINE
  5
1b3
100
AcDbEntity
  8
Positioning
100
AcDbLine
 10
-104.75
 20
86.5
 30
0.0
 11
-104.75
 21
88.5
 31
0.0
  0
LINE
  5
1b4
100
AcDbEntity
  8
Positioning
100
AcDbLine
 10
-104.75
 20
86.5
 30
0.0
 11
-104.75
 21
84.5
 31
0.0
  0
LINE
  5
1b5
100
AcDbEntity
  8
Positioning
100
AcDbLine
 10
-121.75
 20
86.5
 30
0.0
 11
-123.75
 21
86.5
 31
0.0
  0
LINE
  5
1b6
100
AcDbEntity
  8
Positioning
100
AcDbLine
 10
-123.75
 20
86.5
 30
0.0
 11
-125.75
 21
86.5
 31
0.0
  0
LINE
  5
1b7
100
AcDbEntity
  8
Positioning
100
AcDbLine
 10
-123.75
 20
86.5
 30
0.0
 11
-123.75
 21
88.5
 31
0.0
  0
LINE
  5
1b8
100
AcDbEntity
  8
Positioning
100
AcDbLine
 10
-123.75
 20
86.5
 30
0.0
 11
-123.75
 21
84.5
 31
0.0
  0
LINE
  5
1b9
100
AcDbEntity
  8
Positioning
100
AcDbLine
 10
-152.625
 20
86.5
 30
0.0
 11
-154.625
 21
86.5
 31
0.0
  0
LINE
  5
1ba
100
AcDbEntity
  8
Positioning
100
AcDbLine
 10
-154.625
 20
86.5
 30
0.0
 11
-156.625
 21
86.5
 31
0.0
  0
LINE
  5
1bb
100
AcDbEntity
  8
Positioning
100
AcDbLine
 10
-154.625
 20
86.5
 30
0.0
 11
-154.625
 21
88.5
 31
0.0
  0
LINE
  5
1bc
100
AcDbEntity
  8
Positioning
100
AcDbLine
 10
-154.625
 20
86.5
 30
0.0
 11
-154.625
 21
84.5
 31
0.0
  0
LINE
  5
1bd
100
AcDbEntity
  8
Positioning
100
AcDbLine
 10
-164.5
 20
67.5
 30
0.0
 11
-166.5
 21
67.5
 31
0.0
  0
LINE
  5
1be
100
AcDbEntity
  8
Positioning
100
AcDbLine
 10
-166.5
 20
67.5
 30
0.0
 11
-168.5
 21
67.5
 31
0.0
  0
LINE
  5
1bf
100
AcDbEntity
  8
Positioning
100
AcDbLine
 10
-166.5
 20
67.5
 30
0.0
 11
-166.5
 21
69.5
 31
0.0
  0
LINE
  5
1c0
100
AcDbEntity
  8
Positioning
100
AcDbLine
 10
-166.5
 20
67.5
 30
0.0
 11
-166.5
 21
65.5
 31
0.0
  0
LINE
  5
1c1
100
AcDbEntity
  8
Positioning
100
AcDbLine
 10
-147.875
 20
67.5
 30
0.0
 11
-149.875
 21
67.5
 31
0.0
  0
LINE
  5
1c2
100
AcDbEntity
  8
Positioning
100
AcDbLine
 10
-149.875
 20
67.5
 30
0.0
 11
-151.875
 21
67.5
 31
0.0
  0
LINE
  5
1c3
100
AcDbEntity
  8
Positioning
100
AcDbLine
 10
-149.875
 20
67.5
 30
0.0
 11
-149.875
 21
69.5
 31
0.0
  0
LINE
  5
1c4
100
AcDbEntity
  8
Positioning
100
AcDbLine
 10
-149.875
 20
67.5
 30
0.0
 11
-149.875
 21
65.5
 31
0.0
  0
LINE
  5
1c5
100
AcDbEntity
  8
Positioning
100
AcDbLine
 10
-138.375
 20
67.5
 30
0.0
 11
-140.375
 21
67.5
 31
0.0
  0
LINE
  5
1c6
100
AcDbEntity
  8
Positioning
100
AcDbLine
 10
-140.375
 20
67.5
 30
0.0
 11
-142.375
 21
67.5
 31
0.0
  0
LINE
  5
1c7
100
AcDbEntity
  8
Positioning
100
AcDbLine
 10
-140.375
 20
67.5
 30
0.0
 11
-140.375
 21
69.5
 31
0.0
  0
LINE
  5
1c8
100
AcDbEntity
  8
Positioning
100
AcDbLine
 10
-140.375
 20
67.5
 30
0.0
 11
-140.375
 21
65.5
 31
0.0
  0
LINE
  5
1c9
100
AcDbEntity
  8
Positioning
100
AcDbLine
 10
-112.25
 20
67.5
 30
0.0
 11
-114.25
 21
67.5
 31
0.0
  0
LINE
  5
1ca
100
AcDbEntity
  8
Positioning
100
AcDbLine
 10
-114.25
 20
67.5
 30
0.0
 11
-116.25
 21
67.5
 31
0.0
  0
LINE
  5
1cb
100
AcDbEntity
  8
Positioning
100
AcDbLine
 10
-114.25
 20
67.5
 30
0.0
 11
-114.25
 21
69.5
 31
0.0
  0
LINE
  5
1cc
100
AcDbEntity
  8
Positioning
100
AcDbLine
 10
-114.25
 20
67.5
 30
0.0
 11
-114.25
 21
65.5
 31
0.0
  0
LINE
  5
1cd
100
AcDbEntity
  8
Positioning
100
AcDbLine
 10
-93.25
 20
67.5
 30
0.0
 11
-95.25
 21
67.5
 31
0.0
  0
LINE
  5
1ce
100
AcDbEntity
  8
Positioning
100
AcDbLine
 10
-95.25
 20
67.5
 30
0.0
 11
-97.25
 21
67.5
 31
0.0
  0
LINE
  5
1cf
100
AcDbEntity
  8
Positioning
100
AcDbLine
 10
-95.25
 20
67.5
 30
0.0
 11
-95.25
 21
69.5
 31
0.0
  0
LINE
  5
1d0
100
AcDbEntity
  8
Positioning
100
AcDbLine
 10
-95.25
 20
67.5
 30
0.0
 11
-95.25
 21
65.5
 31
0.0
  0
LINE
  5
1d1
100
AcDbEntity
  8
Positioning
100
AcDbLine
 10
-74.263019419832
 20
67.002808415692
 30
0.0
 11
-76.263019419832
 21
67.002808415692
 31
0.0
  0
LINE
  5
1d2
100
AcDbEntity
  8
Positioning
100
AcDbLine
 10
-76.263019419832
 20
67.002808415692
 30
0.0
 11
-78.263019419832
 21
67.002808415692
 31
0.0
  0
LINE
  5
1d3
100
AcDbEntity
  8
Positioning
100
AcDbLine
 10
-76.263019419832
 20
67.002808415692
 30
0.0
 11
-76.263019419832
 21
69.002808415692
 31
0.0
  0
LINE
  5
1d4
100
AcDbEntity
  8
Positioning
100
AcDbLine
 10
-76.263019419832
 20
67.002808415692
 30
0.0
 11
-76.263019419832
 21
65.002808415692
 31
0.0
  0
LINE
  5
1d5
100
AcDbEntity
  8
Positioning
100
AcDbLine
 10
-55.328080833665
 20
65.512596430341
 30
0.0
 11
-57.328080833665
 21
65.512596430341
 31
0.0
  0
LINE
  5
1d6
100
AcDbEntity
  8
Positioning
100
AcDbLine
 10
-57.328080833665
 20
65.512596430341
 30
0.0
 11
-59.328080833665
 21
65.512596430341
 31
0.0
  0
LINE
  5
1d7
100
AcDbEntity
  8
Positioning
100
AcDbLine
 10
-57.328080833665
 20
65.512596430341
 30
0.0
 11
-57.328080833665
 21
67.512596430341
 31
0.0
  0
LINE
  5
1d8
100
AcDbEntity
  8
Positioning
100
AcDbLine
 10
-57.328080833665
 20
65.512596430341
 30
0.0
 11
-57.328080833665
 21
63.512596430341
 31
0.0
  0
LINE
  5
1d9
100
AcDbEntity
  8
Positioning
100
AcDbLine
 10
-36.461396644615
 20
63.279577203208
 30
0.0
 11
-38.461396644615
 21
63.279577203208
 31
0.0
  0
LINE
  5
1da
100
AcDbEntity
  8
Positioning
100
AcDbLine
 10
-38.461396644615
 20
63.279577203208
 30
0.0
 11
-40.461396644615
 21
63.279577203208
 31
0.0
  0
LINE
  5
1db
100
AcDbEntity
  8
Positioning
100
AcDbLine
 10
-38.461396644615
 20
63.279577203208
 30
0.0
 11
-38.461396644615
 21
65.279577203208
 31
0.0
  0
LINE
  5
1dc
100
AcDbEntity
  8
Positioning
100
AcDbLine
 10
-38.461396644615
 20
63.279577203208
 30
0.0
 11
-38.461396644615
 21
61.279577203208
 31
0.0
  0
LINE
  5
1dd
100
AcDbEntity
  8
Positioning
100
AcDbLine
 10
-17.623944278512
 20
60.799579551027
 30
0.0
 11
-19.623944278512
 21
60.799579551027
 31
0.0
  0
LINE
  5
1de
100
AcDbEntity
  8
Positioning
100
AcDbLine
 10
-19.623944278512
 20
60.799579551027
 30
0.0
 11
-21.623944278512
 21
60.799579551027
 31
0.0
  0
LINE
  5
1df
100
AcDbEntity
  8
Positioning
100
AcDbLine
 10
-19.623944278512
 20
60.799579551027
 30
0.0
 11
-19.623944278512
 21
62.799579551027
 31
0.0
  0
LINE
  5
1e0
100
AcDbEntity
  8
Positioning
100
AcDbLine
 10
-19.623944278512
 20
60.799579551027
 30
0.0
 11
-19.623944278512
 21
58.799579551027
 31
0.0
  0
LINE
  5
1e1
100
AcDbEntity
  8
Positioning
100
AcDbLine
 10
-19.935028842545
 20
37.993328027099
 30
0.0
 11
-21.935028842545
 21
37.993328027099
 31
0.0
  0
LINE
  5
1e2
100
AcDbEntity
  8
Positioning
100
AcDbLine
 10
-21.935028842545
 20
37.993328027099
 30
0.0
 11
-23.935028842545
 21
37.993328027099
 31
0.0
  0
LINE
  5
1e3
100
AcDbEntity
  8
Positioning
100
AcDbLine
 10
-21.935028842545
 20
37.993328027099
 30
0.0
 11
-21.935028842545
 21
39.993328027099
 31
0.0
  0
LINE
  5
1e4
100
AcDbEntity
  8
Positioning
100
AcDbLine
 10
-21.935028842545
 20
37.993328027099
 30
0.0
 11
-21.935028842545
 21
35.993328027099
 31
0.0
  0
LINE
  5
1e5
100
AcDbEntity
  8
Positioning
100
AcDbLine
 10
-26.652543263817
 20
31.275813605827
 30
0.0
 11
-28.652543263817
 21
31.275813605827
 31
0.0
  0
LINE
  5
1e6
100
AcDbEntity
  8
Positioning
100
AcDbLine
 10
-28.652543263817
 20
31.275813605827
 30
0.0
 11
-30.652543263817
 21
31.275813605827
 31
0.0
  0
LINE
  5
1e7
100
AcDbEntity
  8
Positioning
100
AcDbLine
 10
-28.652543263817
 20
31.275813605827
 30
0.0
 11
-28.652543263817
 21
33.275813605827
 31
0.0
  0
LINE
  5
1e8
100
AcDbEntity
  8
Positioning
100
AcDbLine
 10
-28.652543263817
 20
31.275813605827
 30
0.0
 11
-28.652543263817
 21
29.275813605827
 31
0.0
  0
LINE
  5
1e9
100
AcDbEntity
  8
Positioning
100
AcDbLine
 10
-33.370057685089
 20
24.558299184554
 30
0.0
 11
-35.370057685089
 21
24.558299184554
 31
0.0
  0
LINE
  5
1ea
100
AcDbEntity
  8
Positioning
100
AcDbLine
 10
-35.370057685089
 20
24.558299184554
 30
0.0
 11
-37.370057685089
 21
24.558299184554
 31
0.0
  0
LINE
  5
1eb
100
AcDbEntity
  8
Positioning
100
AcDbLine
 10
-35.370057685089
 20
24.558299184554
 30
0.0
 11
-35.370057685089
 21
26.558299184554
 31
0.0
  0
LINE
  5
1ec
100
AcDbEntity
  8
Positioning
100
AcDbLine
 10
-35.370057685089
 20
24.558299184554
 30
0.0
 11
-35.370057685089
 21
22.558299184554
 31
0.0
  0
LINE
  5
1ed
100
AcDbEntity
  8
Positioning
100
AcDbLine
 10
-49.094827863585
 20
39.592350854495
 30
0.0
 11
-51.094827863585
 21
39.592350854495
 31
0.0
  0
LINE
  5
1ee
100
AcDbEntity
  8
Positioning
100
AcDbLine
 10
-51.094827863585
 20
39.592350854495
 30
0.0
 11
-53.094827863585
 21
39.592350854495
 31
0.0
  0
LINE
  5
1ef
100
AcDbEntity
  8
Positioning
100
AcDbLine
 10
-51.094827863585
 20
39.592350854495
 30
0.0
 11
-51.094827863585
 21
41.592350854495
 31
0.0
  0
LINE
  5
1f0
100
AcDbEntity
  8
Positioning
100
AcDbLine
 10
-51.094827863585
 20
39.592350854495
 30
0.0
 11
-51.094827863585
 21
37.592350854495
 31
0.0
  0
LINE
  5
1f1
100
AcDbEntity
  8
Positioning
100
AcDbLine
 10
-69.97708362081
 20
45.693375462775
 30
0.0
 11
-71.97708362081
 21
45.693375462775
 31
0.0
  0
LINE
  5
1f2
100
AcDbEntity
  8
Positioning
100
AcDbLine
 10
-71.97708362081
 20
45.693375462775
 30
0.0
 11
-73.97708362081
 21
45.693375462775
 31
0.0
  0
LINE
  5
1f3
100
AcDbEntity
  8
Positioning
100
AcDbLine
 10
-71.97708362081
 20
45.693375462775
 30
0.0
 11
-71.97708362081
 21
47.693375462775
 31
0.0
  0
LINE
  5
1f4
100
AcDbEntity
  8
Positioning
100
AcDbLine
 10
-71.97708362081
 20
45.693375462775
 30
0.0
 11
-71.97708362081
 21
43.693375462775
 31
0.0
  0
LINE
  5
1f5
100
AcDbEntity
  8
Positioning
100
AcDbLine
 10
-102.75
 20
48.5
 30
0.0
 11
-104.75
 21
48.5
 31
0.0
  0
LINE
  5
1f6
100
AcDbEntity
  8
Positioning
100
AcDbLine
 10
-104.75
 20
48.5
 30
0.0
 11
-106.75
 21
48.5
 31
0.0
  0
LINE
  5
1f7
100
AcDbEntity
  8
Positioning
100
AcDbLine
 10
-104.75
 20
48.5
 30
0.0
 11
-104.75
 21
50.5
 31
0.0
  0
LINE
  5
1f8
100
AcDbEntity
  8
Positioning
100
AcDbLine
 10
-104.75
 20
48.5
 30
0.0
 11
-104.75
 21
46.5
 31
0.0
  0
LINE
  5
1f9
100
AcDbEntity
  8
Positioning
100
AcDbLine
 10
-121.75
 20
48.5
 30
0.0
 11
-123.75
 21
48.5
 31
0.0
  0
LINE
  5
1fa
100
AcDbEntity
  8
Positioning
100
AcDbLine
 10
-123.75
 20
48.5
 30
0.0
 11
-125.75
 21
48.5
 31
0.0
  0
LINE
  5
1fb
100
AcDbEntity
  8
Positioning
100
AcDbLine
 10
-123.75
 20
48.5
 30
0.0
 11
-123.75
 21
50.5
 31
0.0
  0
LINE
  5
1fc
100
AcDbEntity
  8
Positioning
100
AcDbLine
 10
-123.75
 20
48.5
 30
0.0
 11
-123.75
 21
46.5
 31
0.0
  0
LINE
  5
1fd
100
AcDbEntity
  8
Positioning
100
AcDbLine
 10
-140.75
 20
48.5
 30
0.0
 11
-142.75
 21
48.5
 31
0.0
  0
LINE
  5
1fe
100
AcDbEntity
  8
Positioning
100
AcDbLine
 10
-142.75
 20
48.5
 30
0.0
 11
-144.75
 21
48.5
 31
0.0
  0
LINE
  5
1ff
100
AcDbEntity
  8
Positioning
100
AcDbLine
 10
-142.75
 20
48.5
 30
0.0
 11
-142.75
 21
50.5
 31
0.0
  0
LINE
  5
200
100
AcDbEntity
  8
Positioning
100
AcDbLine
 10
-142.75
 20
48.5
 30
0.0
 11
-142.75
 21
46.5
 31
0.0
  0
LINE
  5
201
100
AcDbEntity
  8
Positioning
100
AcDbLine
 10
-159.75
 20
48.5
 30
0.0
 11
-161.75
 21
48.5
 31
0.0
  0
LINE
  5
202
100
AcDbEntity
  8
Positioning
100
AcDbLine
 10
-161.75
 20
48.5
 30
0.0
 11
-163.75
 21
48.5
 31
0.0
  0
LINE
  5
203
100
AcDbEntity
  8
Positioning
100
AcDbLine
 10
-161.75
 20
48.5
 30
0.0
 11
-161.75
 21
50.5
 31
0.0
  0
LINE
  5
204
100
AcDbEntity
  8
Positioning
100
AcDbLine
 10
-161.75
 20
48.5
 30
0.0
 11
-161.75
 21
46.5
 31
0.0
  0
LINE
  5
205
100
AcDbEntity
  8
Positioning
100
AcDbLine
 10
-138.0
 20
134.0
 30
0.0
 11
-136.5
 21
135.5
 31
0.0
  0
LINE
  5
206
100
AcDbEntity
  8
Positioning
100
AcDbLine
 10
-138.0
 20
134.0
 30
0.0
 11
-139.5
 21
135.5
 31
0.0
  0
LINE
  5
207
100
AcDbEntity
  8
Positioning
100
AcDbLine
 10
-138.0
 20
134.0
 30
0.0
 11
-139.5
 21
132.5
 31
0.0
  0
LINE
  5
208
100
AcDbEntity
  8
Positioning
100
AcDbLine
 10
-138.0
 20
134.0
 30
0.0
 11
-136.5
 21
132.5
 31
0.0
  0
LINE
  5
209
100
AcDbEntity
  8
Positioning
100
AcDbLine
 10
-136.0
 20
134.0
 30
0.0
 11
-138.0
 21
134.0
 31
0.0
  0
LINE
  5
20a
100
AcDbEntity
  8
Positioning
100
AcDbLine
 10
-138.0
 20
134.0
 30
0.0
 11
-140.0
 21
134.0
 31
0.0
  0
LINE
  5
20b
100
AcDbEntity
  8
Positioning
100
AcDbLine
 10
-138.0
 20
134.0
 30
0.0
 11
-138.0
 21
136.0
 31
0.0
  0
LINE
  5
20c
100
AcDbEntity
  8
Positioning
100
AcDbLine
 10
-138.0
 20
134.0
 30
0.0
 11
-138.0
 21
132.0
 31
0.0
  0
ENDSEC
  0
SECTION
  2
OBJECTS
  0
DICTIONARY
  5
C
330
0
100
AcDbDictionary
281
     1
  3
ACAD_2007HEADERVARS_RT
350
AA
  3
ACAD_COLOR
350
6B
  3
ACAD_GROUP
350
D
  3
ACAD_LAYOUT
350
6A
  3
ACAD_MATERIAL
350
10
  3
ACAD_MLEADERSTYLE
350
6E
  3
ACAD_MLINESTYLE
350
67
  3
ACAD_PLOTSETTINGS
350
69
  3
ACAD_PLOTSTYLENAME
350
E
  3
ACAD_SCALELIST
350
3A
  3
ACAD_TABLESTYLE
350
6C
  3
ACAD_VISUALSTYLE
350
29
  3
ACDB_RECOMPOSE_DATA
350
A8
  3
AcDbVariableDictionary
350
9C
  3
DWGPROPS
350
A9
  0
DICTIONARY
  5
9A
330
5C
100
AcDbDictionary
280
     1
281
     1
  3
ADSK_XREC_LAYER_RECONCILED
360
9B
  0
DICTIONARY
  5
AA
102
{ACAD_REACTORS
330
C
102
}
330
C
100
AcDbDictionary
281
     1
  3
DIMJOGANG
350
AB
  0
DICTIONARY
  5
6B
102
{ACAD_REACTORS
330
C
102
}
330
C
100
AcDbDictionary
281
     1
  0
DICTIONARY
  5
D
102
{ACAD_REACTORS
330
C
102
}
330
C
100
AcDbDictionary
281
     1
  0
DICTIONARY
  5
6A
102
{ACAD_REACTORS
330
C
102
}
330
C
100
AcDbDictionary
281
     1
  3
Layout1
350
74
  3
Layout2
350
7C
  3
Model
350
78
  0
DICTIONARY
  5
10
102
{ACAD_REACTORS
330
C
102
}
330
C
100
AcDbDictionary
281
     1
  3
ByBlock
350
19
  3
ByLayer
350
11
  3
Global
350
21
  0
DICTIONARY
  5
6E
102
{ACAD_REACTORS
330
C
102
}
330
C
100
AcDbDictionary
281
     1
  3
Standard
350
6F
  0
DICTIONARY
  5
67
102
{ACAD_REACTORS
330
C
102
}
330
C
100
AcDbDictionary
281
     1
  3
Standard
350
68
  0
DICTIONARY
  5
69
102
{ACAD_REACTORS
330
C
102
}
330
C
100
AcDbDictionary
281
     1
  0
ACDBDICTIONARYWDFLT
  5
E
102
{ACAD_REACTORS
330
C
102
}
330
C
100
AcDbDictionary
281
     1
  3
Normal
350
F
100
AcDbDictionaryWithDefault
340
F
  0
DICTIONARY
  5
3A
102
{ACAD_REACTORS
330
C
102
}
330
C
100
AcDbDictionary
281
     1
  3
A0
350
3B
  3
A1
350
3C
  3
A2
350
3D
  3
A3
350
3E
  3
A4
350
3F
  3
A5
350
40
  3
A6
350
41
  3
A7
350
42
  3
A8
350
43
  3
A9
350
44
  3
B0
350
45
  3
B1
350
46
  3
B2
350
47
  3
B3
350
48
  3
B4
350
49
  3
B5
350
4A
  3
B6
350
4B
  3
B7
350
4C
  3
B8
350
4D
  3
B9
350
4E
  3
C0
350
4F
  3
C1
350
50
  3
C2
350
51
  3
C3
350
52
  3
C4
350
53
  3
C5
350
54
  3
C6
350
55
  3
C7
350
56
  3
C8
350
57
  3
C9
350
58
  3
D0
350
59
  3
D1
350
5A
  3
D2
350
5B
  0
DICTIONARY
  5
6C
102
{ACAD_REACTORS
330
C
102
}
330
C
100
AcDbDictionary
281
     1
  3
Standard
350
6D
  0
DICTIONARY
  5
29
102
{ACAD_REACTORS
330
C
102
}
330
C
100
AcDbDictionary
281
     1
  3
2dWireframe
350
2F
  3
3D Hidden
350
31
  3
3dWireframe
350
30
  3
Basic
350
2E
  3
Brighten
350
35
  3
ColorChange
350
39
  3
Conceptual
350
32
  3
Dim
350
34
  3
Facepattern
350
38
  3
Flat
350
2A
  3
FlatWithEdges
350
2B
  3
Gouraud
350
2C
  3
GouraudWithEdges
350
2D
  3
Linepattern
350
37
  3
Realistic
350
33
  3
Thicken
350
36
  0
XRECORD
  5
A8
102
{ACAD_REACTORS
330
C
102
}
330
C
100
AcDbXrecord
280
     1
 90
     1
330
6D
  0
DICTIONARY
  5
9C
102
{ACAD_REACTORS
330
C
102
}
330
C
100
AcDbDictionary
281
     1
  3
CANNOSCALE
350
A0
  3
CMLEADERSTYLE
350
9E
  3
CTABLESTYLE
350
9D
  3
DIMASSOC
350
A5
  3
HIDETEXT
350
A4
  3
INDEXCTL
350
A3
  3
LIGHTINGUNITS
350
A1
  3
MSLTSCALE
350
9F
  3
SORTENTS
350
A2
  0
XRECORD
  5
A9
102
{ACAD_REACTORS
330
C
102
}
330
C
100
AcDbXrecord
280
     1
  1
DWGPROPS COOKIE
  2

  3

  4

  6

  7

  8
Michael
  9

300
=
301
=
302
=
303
=
304
=
305
=
306
=
307
=
308
=
309
=
 40
0.002929872685
 41
2456236.994979560841
 42
2456236.997909063008
  1

 90
     0
  0
XRECORD
  5
9B
102
{ACAD_REACTORS
330
9A
102
}
330
9A
100
AcDbXrecord
280
     1
290
1
  0
XRECORD
  5
AB
102
{ACAD_REACTORS
330
AA
102
}
330
AA
100
AcDbXrecord
280
     1
 40
1.570796326795
  0
LAYOUT
  5
74
102
{ACAD_XDICTIONARY
360
B1
102
}
102
{ACAD_REACTORS
330
6A
102
}
330
6A
100
AcDbPlotSettings
  1

  2
Auto Canon Bubble-Jet BJC-1000 on MGIBSON-HOME
  4

  6

 40
0.0
 41
0.0
 42
0.0
 43
0.0
 44
0.0
 45
0.0
 46
0.0
 47
0.0
 48
0.0
 49
0.0
140
0.0
141
0.0
142
1.0
143
1.0
 70
   688
 72
     0
 73
     0
 74
     5
  7

 75
    16
147
1.0
148
0.0
149
0.0
100
AcDbLayout
  1
Layout1
 70
     1
 71
     1
 10
0.0
 20
0.0
 11
420.0
 21
297.0
 12
0.0
 22
0.0
 32
0.0
 14
100000000000000000000.0
 24
100000000000000000000.0
 34
100000000000000000000.0
 15
-100000000000000000000.0
 25
-100000000000000000000.0
 35
-100000000000000000000.0
146
0.0
 13
0.0
 23
0.0
 33
0.0
 16
1.0
 26
0.0
 36
0.0
 17
0.0
 27
1.0
 37
0.0
 76
     0
330
71
  0
LAYOUT
  5
7C
102
{ACAD_XDICTIONARY
360
B5
102
}
102
{ACAD_REACTORS
330
6A
102
}
330
6A
100
AcDbPlotSettings
  1

  2
Auto Canon Bubble-Jet BJC-1000 on MGIBSON-HOME
  4

  6

 40
0.0
 41
0.0
 42
0.0
 43
0.0
 44
0.0
 45
0.0
 46
0.0
 47
0.0
 48
0.0
 49
0.0
140
0.0
141
0.0
142
1.0
143
1.0
 70
   688
 72
     0
 73
     0
 74
     5
  7

 75
    16
147
1.0
148
0.0
149
0.0
100
AcDbLayout
  1
Layout2
 70
     1
 71
     2
 10
0.0
 20
0.0
 11
12.0
 21
9.0
 12
0.0
 22
0.0
 32
0.0
 14
0.0
 24
0.0
 34
0.0
 15
0.0
 25
0.0
 35
0.0
146
0.0
 13
0.0
 23
0.0
 33
0.0
 16
1.0
 26
0.0
 36
0.0
 17
0.0
 27
1.0
 37
0.0
 76
     0
330
79
  0
LAYOUT
  5
78
102
{ACAD_XDICTIONARY
360
B3
102
}
102
{ACAD_REACTORS
330
6A
102
}
330
6A
100
AcDbPlotSettings
  1

  2
Auto Canon Bubble-Jet BJC-1000 on MGIBSON-HOME
  4

  6

 40
0.0
 41
0.0
 42
0.0
 43
0.0
 44
0.0
 45
0.0
 46
0.0
 47
0.0
 48
0.0
 49
0.0
140
0.0
141
0.0
142
1.0
143
1.0
 70
  1712
 72
     0
 73
     0
 74
     0
  7

 75
     0
147
1.0
148
0.0
149
0.0
100
AcDbLayout
  1
Model
 70
     1
 71
     0
 10
0.0
 20
0.0
 11
12.0
 21
9.0
 12
0.0
 22
0.0
 32
0.0
 14
0.0
 24
0.0
 34
0.0
 15
0.0
 25
0.0
 35
0.0
146
0.0
 13
0.0
 23
0.0
 33
0.0
 16
1.0
 26
0.0
 36
0.0
 17
0.0
 27
1.0
 37
0.0
 76
     0
330
75
331
5F
  0
MATERIAL
  5
19
102
{ACAD_XDICTIONARY
360
1A
102
}
102
{ACAD_REACTORS
330
10
102
}
330
10
100
AcDbMaterial
  1
ByBlock
 72
     0
 43
0.020833333333
 43
0.0
 43
0.0
 43
0.0
 43
0.0
 43
0.020833333333
 43
0.0
 43
0.0
 43
0.0
 43
0.0
 43
1.0
 43
0.0
 43
0.0
 43
0.0
 43
0.0
 43
1.0
 77
     0
 47
0.020833333333
 47
0.0
 47
0.0
 47
0.0
 47
0.0
 47
0.020833333333
 47
0.0
 47
0.0
 47
0.0
 47
0.0
 47
1.0
 47
0.0
 47
0.0
 47
0.0
 47
0.0
 47
1.0
171
     0
 49
0.020833333333
 49
0.0
 49
0.0
 49
0.0
 49
0.0
 49
0.020833333333
 49
0.0
 49
0.0
 49
0.0
 49
0.0
 49
1.0
 49
0.0
 49
0.0
 49
0.0
 49
0.0
 49
1.0
175
     0
142
0.020833333333
142
0.0
142
0.0
142
0.0
142
0.0
142
0.020833333333
142
0.0
142
0.0
142
0.0
142
0.0
142
1.0
142
0.0
142
0.0
142
0.0
142
0.0
142
1.0
179
0
144
0.020833333333
144
0.0
144
0.0
144
0.0
144
0.0
144
0.020833333333
144
0.0
144
0.0
144
0.0
144
0.0
144
1.0
144
0.0
144
0.0
144
0.0
144
0.0
144
1.0
147
0.020833333333
147
0.0
147
0.0
147
0.0
147
0.0
147
0.020833333333
147
0.0
147
0.0
147
0.0
147
0.0
147
1.0
147
0.0
147
0.0
147
0.0
147
0.0
147
1.0
  0
MATERIAL
  5
11
102
{ACAD_XDICTIONARY
360
12
102
}
102
{ACAD_REACTORS
330
10
102
}
330
10
100
AcDbMaterial
  1
ByLayer
 72
     0
 43
0.020833333333
 43
0.0
 43
0.0
 43
0.0
 43
0.0
 43
0.020833333333
 43
0.0
 43
0.0
 43
0.0
 43
0.0
 43
1.0
 43
0.0
 43
0.0
 43
0.0
 43
0.0
 43
1.0
 77
     0
 47
0.020833333333
 47
0.0
 47
0.0
 47
0.0
 47
0.0
 47
0.020833333333
 47
0.0
 47
0.0
 47
0.0
 47
0.0
 47
1.0
 47
0.0
 47
0.0
 47
0.0
 47
0.0
 47
1.0
171
     0
 49
0.020833333333
 49
0.0
 49
0.0
 49
0.0
 49
0.0
 49
0.020833333333
 49
0.0
 49
0.0
 49
0.0
 49
0.0
 49
1.0
 49
0.0
 49
0.0
 49
0.0
 49
0.0
 49
1.0
175
     0
142
0.020833333333
142
0.0
142
0.0
142
0.0
142
0.0
142
0.020833333333
142
0.0
142
0.0
142
0.0
142
0.0
142
1.0
142
0.0
142
0.0
142
0.0
142
0.0
142
1.0
179
0
144
0.020833333333
144
0.0
144
0.0
144
0.0
144
0.0
144
0.020833333333
144
0.0
144
0.0
144
0.0
144
0.0
144
1.0
144
0.0
144
0.0
144
0.0
144
0.0
144
1.0
147
0.020833333333
147
0.0
147
0.0
147
0.0
147
0.0
147
0.020833333333
147
0.0
147
0.0
147
0.0
147
0.0
147
1.0
147
0.0
147
0.0
147
0.0
147
0.0
147
1.0
  0
MATERIAL
  5
21
102
{ACAD_XDICTIONARY
360
22
102
}
102
{ACAD_REACTORS
330
10
102
}
330
10
100
AcDbMaterial
  1
Global
 72
     0
 43
0.020833333333
 43
0.0
 43
0.0
 43
0.0
 43
0.0
 43
0.020833333333
 43
0.0
 43
0.0
 43
0.0
 43
0.0
 43
1.0
 43
0.0
 43
0.0
 43
0.0
 43
0.0
 43
1.0
 77
     0
 47
0.020833333333
 47
0.0
 47
0.0
 47
0.0
 47
0.0
 47
0.020833333333
 47
0.0
 47
0.0
 47
0.0
 47
0.0
 47
1.0
 47
0.0
 47
0.0
 47
0.0
 47
0.0
 47
1.0
171
     0
 49
0.020833333333
 49
0.0
 49
0.0
 49
0.0
 49
0.0
 49
0.020833333333
 49
0.0
 49
0.0
 49
0.0
 49
0.0
 49
1.0
 49
0.0
 49
0.0
 49
0.0
 49
0.0
 49
1.0
175
     0
142
0.020833333333
142
0.0
142
0.0
142
0.0
142
0.0
142
0.020833333333
142
0.0
142
0.0
142
0.0
142
0.0
142
1.0
142
0.0
142
0.0
142
0.0
142
0.0
142
1.0
179
0
144
0.020833333333
144
0.0
144
0.0
144
0.0
144
0.0
144
0.020833333333
144
0.0
144
0.0
144
0.0
144
0.0
144
1.0
144
0.0
144
0.0
144
0.0
144
0.0
144
1.0
147
0.020833333333
147
0.0
147
0.0
147
0.0
147
0.0
147
0.020833333333
147
0.0
147
0.0
147
0.0
147
0.0
147
1.0
147
0.0
147
0.0
147
0.0
147
0.0
147
1.0
  0
MLEADERSTYLE
  5
6F
102
{ACAD_REACTORS
330
6E
102
}
330
6E
100
AcDbMLeaderStyle
170
     2
171
     1
172
     0
 90
     2
 40
0.0
 41
0.0
173
     1
 91
-1056964608
340
63
 92
    -2
290
1
 42
0.09
291
1
 43
0.36
  3
Standard
 44
0.18
300

342
5D
174
     1
178
     6
175
     1
176
     0
 93
-1056964608
 45
0.18
292
0
297
0
 46
0.18
 94
-1056964608
 47
1.0
 49
1.0
140
1.0
293
1
141
0.0
294
1
177
     0
142
1.0
295
0
296
0
143
0.125
1001
ACAD_MLEADERVER
1070
     2
  0
MLINESTYLE
  5
68
102
{ACAD_REACTORS
330
67
102
}
330
67
100
AcDbMlineStyle
  2
STANDARD
 70
     0
  3

 62
   256
 51
90.0
 52
90.0
 71
     2
 49
0.5
 62
   256
  6
BYLAYER
 49
-0.5
 62
   256
  6
BYLAYER
  0
ACDBPLACEHOLDER
  5
F
102
{ACAD_REACTORS
330
E
102
}
330
E
  0
SCALE
  5
3B
102
{ACAD_REACTORS
330
3A
102
}
330
3A
100
AcDbScale
 70
     0
300
1:1
140
1.0
141
1.0
290
1
  0
SCALE
  5
3C
102
{ACAD_REACTORS
330
3A
102
}
330
3A
100
AcDbScale
 70
     0
300
1:2
140
1.0
141
2.0
290
0
  0
SCALE
  5
3D
102
{ACAD_REACTORS
330
3A
102
}
330
3A
100
AcDbScale
 70
     0
300
1:4
140
1.0
141
4.0
290
0
  0
SCALE
  5
3E
102
{ACAD_REACTORS
330
3A
102
}
330
3A
100
AcDbScale
 70
     0
300
1:5
140
1.0
141
5.0
290
0
  0
SCALE
  5
3F
102
{ACAD_REACTORS
330
3A
102
}
330
3A
100
AcDbScale
 70
     0
300
1:8
140
1.0
141
8.0
290
0
  0
SCALE
  5
40
102
{ACAD_REACTORS
330
3A
102
}
330
3A
100
AcDbScale
 70
     0
300
1:10
140
1.0
141
10.0
290
0
  0
SCALE
  5
41
102
{ACAD_REACTORS
330
3A
102
}
330
3A
100
AcDbScale
 70
     0
300
1:16
140
1.0
141
16.0
290
0
  0
SCALE
  5
42
102
{ACAD_REACTORS
330
3A
102
}
330
3A
100
AcDbScale
 70
     0
300
1:20
140
1.0
141
20.0
290
0
  0
SCALE
  5
43
102
{ACAD_REACTORS
330
3A
102
}
330
3A
100
AcDbScale
 70
     0
300
1:30
140
1.0
141
30.0
290
0
  0
SCALE
  5
44
102
{ACAD_REACTORS
330
3A
102
}
330
3A
100
AcDbScale
 70
     0
300
1:40
140
1.0
141
40.0
290
0
  0
SCALE
  5
45
102
{ACAD_REACTORS
330
3A
102
}
330
3A
100
AcDbScale
 70
     0
300
1:50
140
1.0
141
50.0
290
0
  0
SCALE
  5
46
102
{ACAD_REACTORS
330
3A
102
}
330
3A
100
AcDbScale
 70
     0
300
1:100
140
1.0
141
100.0
290
0
  0
SCALE
  5
47
102
{ACAD_REACTORS
330
3A
102
}
330
3A
100
AcDbScale
 70
     0
300
2:1
140
2.0
141
1.0
290
0
  0
SCALE
  5
48
102
{ACAD_REACTORS
330
3A
102
}
330
3A
100
AcDbScale
 70
     0
300
4:1
140
4.0
141
1.0
290
0
  0
SCALE
  5
49
102
{ACAD_REACTORS
330
3A
102
}
330
3A
100
AcDbScale
 70
     0
300
8:1
140
8.0
141
1.0
290
0
  0
SCALE
  5
4A
102
{ACAD_REACTORS
330
3A
102
}
330
3A
100
AcDbScale
 70
     0
300
10:1
140
10.0
141
1.0
290
0
  0
SCALE
  5
4B
102
{ACAD_REACTORS
330
3A
102
}
330
3A
100
AcDbScale
 70
     0
300
100:1
140
100.0
141
1.0
290
0
  0
SCALE
  5
4C
102
{ACAD_REACTORS
330
3A
102
}
330
3A
100
AcDbScale
 70
     0
300
1/128" = 1'-0"
140
0.0078125
141
12.0
290
0
  0
SCALE
  5
4D
102
{ACAD_REACTORS
330
3A
102
}
330
3A
100
AcDbScale
 70
     0
300
1/64" = 1'-0"
140
0.015625
141
12.0
290
0
  0
SCALE
  5
4E
102
{ACAD_REACTORS
330
3A
102
}
330
3A
100
AcDbScale
 70
     0
300
1/32" = 1'-0"
140
0.03125
141
12.0
290
0
  0
SCALE
  5
4F
102
{ACAD_REACTORS
330
3A
102
}
330
3A
100
AcDbScale
 70
     0
300
1/16" = 1'-0"
140
0.0625
141
12.0
290
0
  0
SCALE
  5
50
102
{ACAD_REACTORS
330
3A
102
}
330
3A
100
AcDbScale
 70
     0
300
3/32" = 1'-0"
140
0.09375
141
12.0
290
0
  0
SCALE
  5
51
102
{ACAD_REACTORS
330
3A
102
}
330
3A
100
AcDbScale
 70
     0
300
1/8" = 1'-0"
140
0.125
141
12.0
290
0
  0
SCALE
  5
52
102
{ACAD_REACTORS
330
3A
102
}
330
3A
100
AcDbScale
 70
     0
300
3/16" = 1'-0"
140
0.1875
141
12.0
290
0
  0
SCALE
  5
53
102
{ACAD_REACTORS
330
3A
102
}
330
3A
100
AcDbScale
 70
     0
300
1/4" = 1'-0"
140
0.25
141
12.0
290
0
  0
SCALE
  5
54
102
{ACAD_REACTORS
330
3A
102
}
330
3A
100
AcDbScale
 70
     0
300
3/8" = 1'-0"
140
0.375
141
12.0
290
0
  0
SCALE
  5
55
102
{ACAD_REACTORS
330
3A
102
}
330
3A
100
AcDbScale
 70
     0
300
1/2" = 1'-0"
140
0.5
141
12.0
290
0
  0
SCALE
  5
56
102
{ACAD_REACTORS
330
3A
102
}
330
3A
100
AcDbScale
 70
     0
300
3/4" = 1'-0"
140
0.75
141
12.0
290
0
  0
SCALE
  5
57
102
{ACAD_REACTORS
330
3A
102
}
330
3A
100
AcDbScale
 70
     0
300
1" = 1'-0"
140
1.0
141
12.0
290
0
  0
SCALE
  5
58
102
{ACAD_REACTORS
330
3A
102
}
330
3A
100
AcDbScale
 70
     0
300
1-1/2" = 1'-0"
140
1.5
141
12.0
290
0
  0
SCALE
  5
59
102
{ACAD_REACTORS
330
3A
102
}
330
3A
100
AcDbScale
 70
     0
300
3" = 1'-0"
140
3.0
141
12.0
290
0
  0
SCALE
  5
5A
102
{ACAD_REACTORS
330
3A
102
}
330
3A
100
AcDbScale
 70
     0
300
6" = 1'-0"
140
6.0
141
12.0
290
0
  0
SCALE
  5
5B
102
{ACAD_REACTORS
330
3A
102
}
330
3A
100
AcDbScale
 70
     0
300
1'-0" = 1'-0"
140
12.0
141
12.0
290
0
  0
TABLESTYLE
  5
6D
102
{ACAD_XDICTIONARY
360
A6
102
}
102
{ACAD_REACTORS
330
6C
102
}
330
6C
100
AcDbTableStyle
  3
Standard
 70
     0
 71
     0
 40
1.5
 41
1.5
280
     0
281
     0
  7
Standard
140
4.5
170
     2
 62
     0
 63
     7
283
     0
274
    -2
284
     1
 64
     0
275
    -2
285
     1
 65
     0
276
-2
286
     1
 66
     0
277
-2
287
     1
 67
     0
278
-2
288
     1
 68
     0
279
-2
289
     1
 69
     0
  7
Standard
140
6.0
170
     5
 62
     0
 63
     7
283
     0
274
    -2
284
     1
 64
     0
275
    -2
285
     1
 65
     0
276
-2
286
     1
 66
     0
277
-2
287
     1
 67
     0
278
-2
288
     1
 68
     0
279
-2
289
     1
 69
     0
  7
Standard
140
4.5
170
     5
 62
     0
 63
     7
283
     0
274
    -2
284
     1
 64
     0
275
    -2
285
     1
 65
     0
276
-2
286
     1
 66
     0
277
-2
287
     1
 67
     0
278
-2
288
     1
 68
     0
279
-2
289
     1
 69
     0
  0
VISUALSTYLE
  5
2F
102
{ACAD_REACTORS
330
29
102
}
330
29
100
AcDbVisualStyle
  2
2dWireframe
 70
     4
 71
     0
 72
     2
 73
     0
 90
     0
 40
-0.6
 41
-30.0
 62
     5
 63
     7
 74
     1
 91
     4
 64
     7
 65
   257
 75
     1
175
     1
 42
1.0
 92
     0
 66
   257
 43
1.0
 76
     1
 77
     6
 78
     2
 67
     7
 79
     5
170
     0
171
     0
290
0
174
     0
 93
     1
 44
0.0
173
     0
291
0
 45
0.0
1001
ACAD
1000
AcDbSavedByObjectVersion
1070
     0
  0
VISUALSTYLE
  5
31
102
{ACAD_REACTORS
330
29
102
}
330
29
100
AcDbVisualStyle
  2
3D Hidden
 70
     6
 71
     1
 72
     2
 73
     2
 90
     0
 40
-0.6
 41
-30.0
 62
     5
 63
     7
 74
     2
 91
     2
 64
     7
 65
   257
 75
     2
175
     1
 42
40.0
 92
     0
 66
   257
 43
1.0
 76
     1
 77
     6
 78
     2
 67
     7
 79
     3
170
     0
171
     0
290
0
174
     0
 93
     1
 44
0.0
173
     0
291
0
 45
0.0
1001
ACAD
1000
AcDbSavedByObjectVersion
1070
     0
  0
VISUALSTYLE
  5
30
102
{ACAD_REACTORS
330
29
102
}
330
29
100
AcDbVisualStyle
  2
3dWireframe
 70
     5
 71
     0
 72
     2
 73
     0
 90
     0
 40
-0.6
 41
-30.0
 62
     5
 63
     7
 74
     1
 91
     4
 64
     7
 65
   257
 75
     1
175
     1
 42
1.0
 92
     0
 66
   257
 43
1.0
 76
     1
 77
     6
 78
     2
 67
     7
 79
     5
170
     0
171
     0
290
0
174
     0
 93
     1
 44
0.0
173
     0
291
0
 45
0.0
1001
ACAD
1000
AcDbSavedByObjectVersion
1070
     0
  0
VISUALSTYLE
  5
2E
102
{ACAD_REACTORS
330
29
102
}
330
29
100
AcDbVisualStyle
  2
Basic
 70
     7
 71
     1
 72
     0
 73
     1
 90
     0
 40
-0.6
 41
-30.0
 62
     5
 63
     7
 74
     0
 91
     4
 64
     7
 65
   257
 75
     1
175
     1
 42
1.0
 92
     8
 66
     7
 43
1.0
 76
     1
 77
     6
 78
     2
 67
     7
 79
     5
170
     0
171
     0
290
0
174
     0
 93
     1
 44
0.0
173
     0
291
1
 45
0.0
1001
ACAD
1000
AcDbSavedByObjectVersion
1070
     0
  0
VISUALSTYLE
  5
35
102
{ACAD_REACTORS
330
29
102
}
330
29
100
AcDbVisualStyle
  2
Brighten
 70
    12
 71
     2
 72
     2
 73
     0
 90
     0
 40
-0.6
 41
-30.0
 62
     5
 63
     7
 74
     1
 91
     4
 64
     7
 65
   257
 75
     1
175
     1
 42
1.0
 92
     8
 66
     7
 43
1.0
 76
     1
 77
     6
 78
     2
 67
     7
 79
     5
170
     0
171
     0
290
0
174
     0
 93
     1
 44
50.0
173
     0
291
1
 45
0.0
1001
ACAD
1000
AcDbSavedByObjectVersion
1070
     0
  0
VISUALSTYLE
  5
39
102
{ACAD_REACTORS
330
29
102
}
330
29
100
AcDbVisualStyle
  2
ColorChange
 70
    16
 71
     2
 72
     2
 73
     3
 90
     0
 40
-0.6
 41
-30.0
 62
     5
 63
     8
 74
     1
 91
     4
 64
     7
 65
   257
 75
     1
175
     1
 42
1.0
 92
     8
 66
     8
 43
1.0
 76
     1
 77
     6
 78
     2
 67
     7
 79
     5
170
     0
171
     0
290
0
174
     0
 93
     1
 44
0.0
173
     0
291
1
 45
0.0
1001
ACAD
1000
AcDbSavedByObjectVersion
1070
     0
  0
VISUALSTYLE
  5
32
102
{ACAD_REACTORS
330
29
102
}
330
29
100
AcDbVisualStyle
  2
Conceptual
 70
     9
 71
     3
 72
     2
 73
     0
 90
     0
 40
-0.6
 41
-30.0
 62
     5
 63
     7
 74
     2
 91
     2
 64
     7
 65
   257
 75
     1
175
     1
 42
40.0
 92
     8
 66
     7
 43
1.0
 76
     1
 77
     6
 78
     2
 67
     7
 79
     3
170
     0
171
     0
290
0
174
     0
 93
     1
 44
0.0
173
     0
291
0
 45
0.0
1001
ACAD
1000
AcDbSavedByObjectVersion
1070
     0
  0
VISUALSTYLE
  5
34
102
{ACAD_REACTORS
330
29
102
}
330
29
100
AcDbVisualStyle
  2
Dim
 70
    11
 71
     2
 72
     2
 73
     0
 90
     0
 40
-0.6
 41
-30.0
 62
     5
 63
     7
 74
     1
 91
     4
 64
     7
 65
   257
 75
     1
175
     1
 42
1.0
 92
     8
 66
     7
 43
1.0
 76
     1
 77
     6
 78
     2
 67
     7
 79
     5
170
     0
171
     0
290
0
174
     0
 93
     1
 44
-50.0
173
     0
291
1
 45
0.0
1001
ACAD
1000
AcDbSavedByObjectVersion
1070
     0
  0
VISUALSTYLE
  5
38
102
{ACAD_REACTORS
330
29
102
}
330
29
100
AcDbVisualStyle
  2
Facepattern
 70
    15
 71
     2
 72
     2
 73
     0
 90
     0
 40
-0.6
 41
-30.0
 62
     5
 63
     7
 74
     1
 91
     4
 64
     7
 65
   257
 75
     1
175
     1
 42
1.0
 92
     8
 66
     7
 43
1.0
 76
     1
 77
     6
 78
     2
 67
     7
 79
     5
170
     0
171
     0
290
0
174
     0
 93
     1
 44
0.0
173
     0
291
1
 45
0.0
1001
ACAD
1000
AcDbSavedByObjectVersion
1070
     0
  0
VISUALSTYLE
  5
2A
102
{ACAD_REACTORS
330
29
102
}
330
29
100
AcDbVisualStyle
  2
Flat
 70
     0
 71
     2
 72
     1
 73
     1
 90
     2
 40
-0.6
 41
30.0
 62
     5
 63
     7
 74
     0
 91
     4
 64
     7
 65
   257
 75
     1
175
     1
 42
1.0
 92
     8
 66
     7
 43
1.0
 76
     1
 77
     6
 78
     2
 67
     7
 79
     5
170
     0
171
     0
290
0
174
     0
 93
    13
 44
0.0
173
     0
291
1
 45
0.0
1001
ACAD
1000
AcDbSavedByObjectVersion
1070
     0
  0
VISUALSTYLE
  5
2B
102
{ACAD_REACTORS
330
29
102
}
330
29
100
AcDbVisualStyle
  2
FlatWithEdges
 70
     1
 71
     2
 72
     1
 73
     1
 90
     2
 40
-0.6
 41
30.0
 62
     5
 63
     7
 74
     1
 91
     4
 64
     7
 65
   257
 75
     1
175
     1
 42
1.0
 92
     0
 66
   257
 43
1.0
 76
     1
 77
     6
 78
     2
 67
     7
 79
     5
170
     0
171
     0
290
0
174
     0
 93
    13
 44
0.0
173
     0
291
1
 45
0.0
1001
ACAD
1000
AcDbSavedByObjectVersion
1070
     0
  0
VISUALSTYLE
  5
2C
102
{ACAD_REACTORS
330
29
102
}
330
29
100
AcDbVisualStyle
  2
Gouraud
 70
     2
 71
     2
 72
     2
 73
     1
 90
     2
 40
-0.6
 41
30.0
 62
     5
 63
     7
 74
     0
 91
     4
 64
     7
 65
   257
 75
     1
175
     1
 42
1.0
 92
     0
 66
     7
 43
1.0
 76
     1
 77
     6
 78
     2
 67
     7
 79
     5
170
     0
171
     0
290
0
174
     0
 93
    13
 44
0.0
173
     0
291
1
 45
0.0
1001
ACAD
1000
AcDbSavedByObjectVersion
1070
     0
  0
VISUALSTYLE
  5
2D
102
{ACAD_REACTORS
330
29
102
}
330
29
100
AcDbVisualStyle
  2
GouraudWithEdges
 70
     3
 71
     2
 72
     2
 73
     1
 90
     2
 40
-0.6
 41
30.0
 62
     5
 63
     7
 74
     1
 91
     4
 64
     7
 65
   257
 75
     1
175
     1
 42
1.0
 92
     0
 66
   257
 43
1.0
 76
     1
 77
     6
 78
     2
 67
     7
 79
     5
170
     0
171
     0
290
0
174
     0
 93
    13
 44
0.0
173
     0
291
1
 45
0.0
1001
ACAD
1000
AcDbSavedByObjectVersion
1070
     0
  0
VISUALSTYLE
  5
37
102
{ACAD_REACTORS
330
29
102
}
330
29
100
AcDbVisualStyle
  2
Linepattern
 70
    14
 71
     2
 72
     2
 73
     0
 90
     0
 40
-0.6
 41
-30.0
 62
     5
 63
     7
 74
     1
 91
     4
 64
     7
 65
   257
 75
     7
175
     7
 42
1.0
 92
     8
 66
     7
 43
1.0
 76
     1
 77
     6
 78
     2
 67
     7
 79
     5
170
     0
171
     0
290
0
174
     0
 93
     1
 44
0.0
173
     0
291
1
 45
0.0
1001
ACAD
1000
AcDbSavedByObjectVersion
1070
     0
  0
VISUALSTYLE
  5
33
102
{ACAD_REACTORS
330
29
102
}
330
29
100
AcDbVisualStyle
  2
Realistic
 70
     8
 71
     2
 72
     2
 73
     0
 90
     0
 40
-0.6
 41
-30.0
 62
     5
 63
     7
 74
     1
 91
     0
 64
     7
 65
   257
 75
     1
175
     1
 42
1.0
 92
     8
 66
     8
 43
1.0
 76
     1
 77
     6
 78
     2
 67
     7
 79
     5
170
     0
171
     0
290
0
174
     0
 93
    13
 44
0.0
173
     0
291
0
 45
0.0
1001
ACAD
1000
AcDbSavedByObjectVersion
1070
     0
  0
VISUALSTYLE
  5
36
102
{ACAD_REACTORS
330
29
102
}
330
29
100
AcDbVisualStyle
  2
Thicken
 70
    13
 71
     2
 72
     2
 73
     0
 90
     0
 40
-0.6
 41
-30.0
 62
     5
 63
     7
 74
     1
 91
     4
 64
     7
 65
   257
 75
     1
175
     1
 42
1.0
 92
    12
 66
     7
 43
1.0
 76
     1
 77
     6
 78
     2
 67
     7
 79
     5
170
     0
171
     0
290
0
174
     0
 93
     1
 44
0.0
173
     0
291
1
 45
0.0
1001
ACAD
1000
AcDbSavedByObjectVersion
1070
     0
  0
DICTIONARYVAR
  5
A0
102
{ACAD_REACTORS
330
9C
102
}
330
9C
100
DictionaryVariables
280
     0
  1
1:1
  0
DICTIONARYVAR
  5
9E
102
{ACAD_REACTORS
330
9C
102
}
330
9C
100
DictionaryVariables
280
     0
  1
STANDARD
  0
DICTIONARYVAR
  5
9D
102
{ACAD_REACTORS
330
9C
102
}
330
9C
100
DictionaryVariables
280
     0
  1
STANDARD
  0
DICTIONARYVAR
  5
A5
102
{ACAD_REACTORS
330
9C
102
}
330
9C
100
DictionaryVariables
280
     0
  1
2
  0
DICTIONARYVAR
  5
A4
102
{ACAD_REACTORS
330
9C
102
}
330
9C
100
DictionaryVariables
280
     0
  1
1
  0
DICTIONARYVAR
  5
A3
102
{ACAD_REACTORS
330
9C
102
}
330
9C
100
DictionaryVariables
280
     0
  1
0
  0
DICTIONARYVAR
  5
A1
102
{ACAD_REACTORS
330
9C
102
}
330
9C
100
DictionaryVariables
280
     0
  1
2
  0
DICTIONARYVAR
  5
9F
102
{ACAD_REACTORS
330
9C
102
}
330
9C
100
DictionaryVariables
280
     0
  1
1
  0
DICTIONARYVAR
  5
A2
102
{ACAD_REACTORS
330
9C
102
}
330
9C
100
DictionaryVariables
280
     0
  1
127
  0
DICTIONARY
  5
B1
330
74
100
AcDbDictionary
280
     1
281
     1
  3
ACAD_XREC_ROUNDTRIP
360
B2
  0
DICTIONARY
  5
B5
330
7C
100
AcDbDictionary
280
     1
281
     1
  3
ACAD_XREC_ROUNDTRIP
360
B6
  0
DICTIONARY
  5
B3
330
78
100
AcDbDictionary
280
     1
281
     1
  3
ACAD_XREC_ROUNDTRIP
360
B4
  0
DICTIONARY
  5
1A
330
19
100
AcDbDictionary
280
     1
281
     1
  3
ACAD_XREC_ROUNDTRIP
360
AD
  3
BUMPTILE
360
1C
  3
DIFFUSETILE
360
1B
  3
OPACITYTILE
360
1F
  3
REFLECTIONTILE
360
1E
  3
REFRACTIONTILE
360
20
  3
SPECULARTILE
360
1D
  0
DICTIONARY
  5
12
330
11
100
AcDbDictionary
280
     1
281
     1
  3
ACAD_XREC_ROUNDTRIP
360
AC
  3
BUMPTILE
360
14
  3
DIFFUSETILE
360
13
  3
OPACITYTILE
360
17
  3
REFLECTIONTILE
360
16
  3
REFRACTIONTILE
360
18
  3
SPECULARTILE
360
15
  0
DICTIONARY
  5
22
330
21
100
AcDbDictionary
280
     1
281
     1
  3
ACAD_XREC_ROUNDTRIP
360
AE
  3
BUMPTILE
360
24
  3
DIFFUSETILE
360
23
  3
OPACITYTILE
360
27
  3
REFLECTIONTILE
360
26
  3
REFRACTIONTILE
360
28
  3
SPECULARTILE
360
25
  0
DICTIONARY
  5
A6
330
6D
100
AcDbDictionary
280
     1
281
     1
  3
ACAD_ROUNDTRIP_2008_TABLESTYLE_CELLSTYLEMAP
360
A7
  3
ACAD_XREC_ROUNDTRIP
360
B0
  0
XRECORD
  5
B2
102
{ACAD_REACTORS
330
B1
102
}
330
B1
100
AcDbXrecord
280
     1
102
SHADEPLOT
 70
     0
102
SHADEPLOTRESLEVEL
 70
     2
102
SHADEPLOTCUSTOMDPI
 70
   300
  0
XRECORD
  5
B6
102
{ACAD_REACTORS
330
B5
102
}
330
B5
100
AcDbXrecord
280
     1
102
SHADEPLOT
 70
     0
102
SHADEPLOTRESLEVEL
 70
     2
102
SHADEPLOTCUSTOMDPI
 70
   300
  0
XRECORD
  5
B4
102
{ACAD_REACTORS
330
B3
102
}
330
B3
100
AcDbXrecord
280
     1
102
SHADEPLOT
 70
     0
102
SHADEPLOTRESLEVEL
 70
     2
102
SHADEPLOTCUSTOMDPI
 70
   300
  0
XRECORD
  5
AD
102
{ACAD_REACTORS
330
1A
102
}
330
1A
100
AcDbXrecord
280
     1
102
MATERIAL
148
0.0
149
0.0
149
0.0
 93
     0
 94
   127
282
     0
 72
     0
 77
     0
171
     0
175
     0
179
0
273
     0
  0
XRECORD
  5
1C
102
{ACAD_REACTORS
330
1A
102
}
330
1A
100
AcDbXrecord
280
     1
270
     1
271
     1
  0
XRECORD
  5
1B
102
{ACAD_REACTORS
330
1A
102
}
330
1A
100
AcDbXrecord
280
     1
270
     1
271
     1
  0
XRECORD
  5
1F
102
{ACAD_REACTORS
330
1A
102
}
330
1A
100
AcDbXrecord
280
     1
270
     1
271
     1
  0
XRECORD
  5
1E
102
{ACAD_REACTORS
330
1A
102
}
330
1A
100
AcDbXrecord
280
     1
270
     1
271
     1
  0
XRECORD
  5
20
102
{ACAD_REACTORS
330
1A
102
}
330
1A
100
AcDbXrecord
280
     1
270
     1
271
     1
  0
XRECORD
  5
1D
102
{ACAD_REACTORS
330
1A
102
}
330
1A
100
AcDbXrecord
280
     1
270
     1
271
     1
  0
XRECORD
  5
AC
102
{ACAD_REACTORS
330
12
102
}
330
12
100
AcDbXrecord
280
     1
102
MATERIAL
148
0.0
149
0.0
149
0.0
 93
     0
 94
   127
282
     0
 72
     0
 77
     0
171
     0
175
     0
179
0
273
     0
  0
XRECORD
  5
14
102
{ACAD_REACTORS
330
12
102
}
330
12
100
AcDbXrecord
280
     1
270
     1
271
     1
  0
XRECORD
  5
13
102
{ACAD_REACTORS
330
12
102
}
330
12
100
AcDbXrecord
280
     1
270
     1
271
     1
  0
XRECORD
  5
17
102
{ACAD_REACTORS
330
12
102
}
330
12
100
AcDbXrecord
280
     1
270
     1
271
     1
  0
XRECORD
  5
16
102
{ACAD_REACTORS
330
12
102
}
330
12
100
AcDbXrecord
280
     1
270
     1
271
     1
  0
XRECORD
  5
18
102
{ACAD_REACTORS
330
12
102
}
330
12
100
AcDbXrecord
280
     1
270
     1
271
     1
  0
XRECORD
  5
15
102
{ACAD_REACTORS
330
12
102
}
330
12
100
AcDbXrecord
280
     1
270
     1
271
     1
  0
XRECORD
  5
AE
102
{ACAD_REACTORS
330
22
102
}
330
22
100
AcDbXrecord
280
     1
102
MATERIAL
148
0.0
149
0.0
149
0.0
 93
     0
 94
   127
282
     0
 72
     0
 77
     0
171
     0
175
     0
179
0
273
     0
  0
XRECORD
  5
24
102
{ACAD_REACTORS
330
22
102
}
330
22
100
AcDbXrecord
280
     1
270
     1
271
     1
  0
XRECORD
  5
23
102
{ACAD_REACTORS
330
22
102
}
330
22
100
AcDbXrecord
280
     1
270
     1
271
     1
  0
XRECORD
  5
27
102
{ACAD_REACTORS
330
22
102
}
330
22
100
AcDbXrecord
280
     1
270
     1
271
     1
  0
XRECORD
  5
26
102
{ACAD_REACTORS
330
22
102
}
330
22
100
AcDbXrecord
280
     1
270
     1
271
     1
  0
XRECORD
  5
28
102
{ACAD_REACTORS
330
22
102
}
330
22
100
AcDbXrecord
280
     1
270
     1
271
     1
  0
XRECORD
  5
25
102
{ACAD_REACTORS
330
22
102
}
330
22
100
AcDbXrecord
280
     1
270
     1
271
     1
  0
CELLSTYLEMAP
  5
A7
102
{ACAD_REACTORS
330
A6
102
}
330
A6
100
AcDbCellStyleMap
 90
     3
300
CELLSTYLE
  1
TABLEFORMAT_BEGIN
 90
     5
170
     1
 91
     0
 92
 32768
 62
   257
 93
     1
300
CONTENTFORMAT
  1
CONTENTFORMAT_BEGIN
 90
     0
 91
     0
 92
   512
 93
     0
300

 40
0.0
140
1.0
 94
     5
 62
     0
340
5D
144
6.0
309
CONTENTFORMAT_END
171
     1
301
MARGIN
  1
CELLMARGIN_BEGIN
 40
1.5
 40
1.5
 40
1.5
 40
1.5
 40
4.5
 40
4.5
309
CELLMARGIN_END
 94
     6
 95
     1
302
GRIDFORMAT
  1
GRIDFORMAT_BEGIN
 90
     0
 91
     1
 62
     0
 92
    -2
340
0
 93
     0
 40
1.125
309
GRIDFORMAT_END
 95
     2
302
GRIDFORMAT
  1
GRIDFORMAT_BEGIN
 90
     0
 91
     1
 62
     0
 92
    -2
340
0
 93
     0
 40
1.125
309
GRIDFORMAT_END
 95
     4
302
GRIDFORMAT
  1
GRIDFORMAT_BEGIN
 90
     0
 91
     1
 62
     0
 92
    -2
340
0
 93
     0
 40
1.125
309
GRIDFORMAT_END
 95
     8
302
GRIDFORMAT
  1
GRIDFORMAT_BEGIN
 90
     0
 91
     1
 62
     0
 92
    -2
340
0
 93
     0
 40
1.125
309
GRIDFORMAT_END
 95
    16
302
GRIDFORMAT
  1
GRIDFORMAT_BEGIN
 90
     0
 91
     1
 62
     0
 92
    -2
340
0
 93
     0
 40
1.125
309
GRIDFORMAT_END
 95
    32
302
GRIDFORMAT
  1
GRIDFORMAT_BEGIN
 90
     0
 91
     1
 62
     0
 92
    -2
340
0
 93
     0
 40
1.125
309
GRIDFORMAT_END
309
TABLEFORMAT_END
  1
CELLSTYLE_BEGIN
 90
     1
 91
     1
300
_TITLE
309
CELLSTYLE_END
300
CELLSTYLE
  1
TABLEFORMAT_BEGIN
 90
     5
170
     1
 91
     0
 92
     0
 62
   257
 93
     1
300
CONTENTFORMAT
  1
CONTENTFORMAT_BEGIN
 90
     0
 91
     0
 92
   512
 93
     0
300

 40
0.0
140
1.0
 94
     5
 62
     0
340
5D
144
4.5
309
CONTENTFORMAT_END
171
     1
301
MARGIN
  1
CELLMARGIN_BEGIN
 40
1.5
 40
1.5
 40
1.5
 40
1.5
 40
4.5
 40
4.5
309
CELLMARGIN_END
 94
     6
 95
     1
302
GRIDFORMAT
  1
GRIDFORMAT_BEGIN
 90
     0
 91
     1
 62
     0
 92
    -2
340
0
 93
     0
 40
1.125
309
GRIDFORMAT_END
 95
     2
302
GRIDFORMAT
  1
GRIDFORMAT_BEGIN
 90
     0
 91
     1
 62
     0
 92
    -2
340
0
 93
     0
 40
1.125
309
GRIDFORMAT_END
 95
     4
302
GRIDFORMAT
  1
GRIDFORMAT_BEGIN
 90
     0
 91
     1
 62
     0
 92
    -2
340
0
 93
     0
 40
1.125
309
GRIDFORMAT_END
 95
     8
302
GRIDFORMAT
  1
GRIDFORMAT_BEGIN
 90
     0
 91
     1
 62
     0
 92
    -2
340
0
 93
     0
 40
1.125
309
GRIDFORMAT_END
 95
    16
302
GRIDFORMAT
  1
GRIDFORMAT_BEGIN
 90
     0
 91
     1
 62
     0
 92
    -2
340
0
 93
     0
 40
1.125
309
GRIDFORMAT_END
 95
    32
302
GRIDFORMAT
  1
GRIDFORMAT_BEGIN
 90
     0
 91
     1
 62
     0
 92
    -2
340
0
 93
     0
 40
1.125
309
GRIDFORMAT_END
309
TABLEFORMAT_END
  1
CELLSTYLE_BEGIN
 90
     2
 91
     1
300
_HEADER
309
CELLSTYLE_END
300
CELLSTYLE
  1
TABLEFORMAT_BEGIN
 90
     5
170
     1
 91
     0
 92
     0
 62
   257
 93
     1
300
CONTENTFORMAT
  1
CONTENTFORMAT_BEGIN
 90
     0
 91
     0
 92
   512
 93
     0
300

 40
0.0
140
1.0
 94
     2
 62
     0
340
5D
144
4.5
309
CONTENTFORMAT_END
171
     1
301
MARGIN
  1
CELLMARGIN_BEGIN
 40
1.5
 40
1.5
 40
1.5
 40
1.5
 40
4.5
 40
4.5
309
CELLMARGIN_END
 94
     6
 95
     1
302
GRIDFORMAT
  1
GRIDFORMAT_BEGIN
 90
     0
 91
     1
 62
     0
 92
    -2
340
0
 93
     0
 40
1.125
309
GRIDFORMAT_END
 95
     2
302
GRIDFORMAT
  1
GRIDFORMAT_BEGIN
 90
     0
 91
     1
 62
     0
 92
    -2
340
0
 93
     0
 40
1.125
309
GRIDFORMAT_END
 95
     4
302
GRIDFORMAT
  1
GRIDFORMAT_BEGIN
 90
     0
 91
     1
 62
     0
 92
    -2
340
0
 93
     0
 40
1.125
309
GRIDFORMAT_END
 95
     8
302
GRIDFORMAT
  1
GRIDFORMAT_BEGIN
 90
     0
 91
     1
 62
     0
 92
    -2
340
0
 93
     0
 40
1.125
309
GRIDFORMAT_END
 95
    16
302
GRIDFORMAT
  1
GRIDFORMAT_BEGIN
 90
     0
 91
     1
 62
     0
 92
    -2
340
0
 93
     0
 40
1.125
309
GRIDFORMAT_END
 95
    32
302
GRIDFORMAT
  1
GRIDFORMAT_BEGIN
 90
     0
 91
     1
 62
     0
 92
    -2
340
0
 93
     0
 40
1.125
309
GRIDFORMAT_END
309
TABLEFORMAT_END
  1
CELLSTYLE_BEGIN
 90
     3
 91
     2
300
_DATA
309
CELLSTYLE_END
  0
XRECORD
  5
B0
102
{ACAD_REACTORS
330
A6
102
}
330
A6
100
AcDbXrecord
280
     1
102
ACAD_ROUNDTRIP_PRE2007_TABLESTYLE
 90
   512
 91
     0
  1

 92
   512
 93
     0
  2

 94
   512
 95
     0
  3

  0
ENDSEC
  0
EOF
